<?xml version='1.0' encoding='utf-8'?>
<svg  height="100" width="250" xmlns="http://www.w3.org/2000/svg" version="1.1" id="Layer_1" x="0px" y="0px" viewBox="0 0 5002.993 5001.936" enable-background="new 0 0 5002.993 5001.936"> <g> <g> <g> <path fill="none" stroke="#ffffff" stroke-width="3" stroke-miterlimit="10" d="M1315.775,1465.389 c0,0,68.505,16.409,195.974,18.799c66.303,1.229,149.076-2.031,245.167-15.487c98.113-13.756,209.577-38.097,328.234-77.754 c118.869-39.754,243.111-94.227,363.204-166.065c116.508-69.732,226.588-154.297,317.262-253.116 c43.108-47.005,81.348-96.832,112.766-148.833c30.123-49.882,53.885-101.727,69.278-154.091 c28.919-98.533,26.069-202.799-12.146-289.506c-38.642-87.495-114.296-161.771-206.977-212.567 c-49.154-26.916-103.374-48.144-160.494-64.136c-59.222-16.567-121.385-27.492-184.855-33.567 c-132.242-12.626-267.648-4.234-397.434,17.954c-132.701,22.717-257.013,59.461-368.136,103.032 c-110.626,43.401-206.767,93.049-286.904,142.172c-78.548,48.167-141.422,95.616-189.639,136.462 c-92.991,78.808-134.302,132.292-134.302,132.292s-57.272,15.679-145.785,61.482c-85.591,44.325-200.269,120.813-292.92,246.344 c-46.117,62.54-87.011,137.88-116.436,223.655c-29.987,87.502-48.428,187.09-52.331,293.888 c-4.011,110.608,7.381,229.77,33.724,352.328c27.395,127.317,70.782,258.34,127.487,388.736 c58.612,134.716,131.113,268.202,213.617,397.127c84.501,132.005,178.956,258.454,278.863,377.018 c203.895,241.881,426.75,446.178,631.051,606.309c204.311,160.082,387.261,274.438,516.714,348.78 c128.235,73.624,204.015,109.586,204.015,109.586s29.205-43.539,97.617-107.414c71.119-66.362,188.999-154.342,354.197-220.207 c83.401-33.221,177.306-60.232,277.705-74.977c98.507-14.442,201.814-16.828,302.377-1.668 c96.011,14.508,188.506,45.235,265.227,94.529c72.464,46.611,131.021,111.707,162.318,186.377 c31.1,74.339,35.993,161.038,16.406,243.597c-20.818,87.531-67.722,172.545-129.514,247.391 c-65.277,79.007-146.055,146.306-232.066,200.824c-88.199,55.871-180.346,97.409-268.705,126.783 c-175.563,58.298-328.682,66.093-429.628,60.026c-96.893-5.854-148.84-21.519-148.84-21.519s-47.641,38.186-137.516,88.369 c-86.613,48.334-213.459,106.437-367.898,123.438c-149.269,16.347-331.413-13.641-493.118-117.165 c-84.98-54.467-166.576-128.844-239.362-219.329c-37.825-47.044-73.488-98.527-106.635-153.744 c-34.031-56.706-65.423-117.358-94.01-181.197c-29.313-65.479-55.653-134.248-79.004-205.528 c-23.886-72.936-44.607-148.377-62.268-225.551c-36.349-158.93-59.466-324.083-71.326-489.502 c-12.15-169.781-12.359-338.295-3.756-500.275c8.736-164.131,26.435-320.261,49.205-464.171 c45.728-288.744,110.987-523.586,162.474-684.064C1279.588,1552.552,1315.775,1465.389,1315.775,1465.389z"/> <path fill="none" stroke="#ffffff" stroke-width="3" stroke-miterlimit="10" d="M2175.407,4668.652 c0,0,40.22,43.488,132.703,93.014c48.335,25.864,112.169,52.889,191.428,73.273c82.305,21.145,181.666,35.131,294.11,34.885 c116.008-0.283,245.111-15.681,379.395-50.859c135.521-35.54,274.096-90.606,404.526-166.502 c127.383-74.172,244.417-166.84,337.548-274.754c44.668-51.789,83.471-106.744,114.644-163.775 c30.145-55.179,53.113-112.343,67.394-169.683c27.236-109.549,21.069-222.833-17.868-318.692 c-39.102-96.084-111.759-178.545-199.611-238.09c-92.652-62.732-202.471-102.678-314.308-124.348 c-116.913-22.615-234.976-25.51-345.623-16.417c-227.731,18.792-413.868,86.01-537.264,142.811 c-122.184,56.28-184.75,100.421-184.75,100.421"/> <path fill="none" stroke="#ffffff" stroke-width="3" stroke-miterlimit="10" d="M2051.279,4662.584 c0,0,40.73,49.477,137.843,107.456c50.741,30.271,118.286,62.373,202.924,87.599c88.016,26.208,195.072,45.018,317.054,48.469 c126.182,3.538,267.513-9.342,415.468-43.938c149.787-35.065,303.927-91.766,450.251-171.705 c143.336-78.361,276.218-177.519,383.903-294.22c51.724-56.086,97.195-115.826,134.478-178.107 c36.057-60.263,64.39-122.904,83.285-186.063c35.965-120.399,35.978-245.89-0.973-353.557 c-36.855-107.157-111.121-200.824-203.22-269.337c-96.953-72.047-213.996-119.485-333.983-146.715 c-125.61-28.462-253.45-35.132-373.775-28.409c-248.381,13.964-453.557,82.531-590.37,141.348 c-135.824,58.432-206.037,105.115-206.037,105.115"/> <path fill="none" stroke="#ffffff" stroke-width="3" stroke-miterlimit="10" d="M1920.134,4643.144 c0,0,40.036,55.85,140.164,123.292c52.275,35.184,122.54,73.05,211.592,103.955c92.731,32.155,206.548,56.853,337.282,65.177 c135.631,8.601,288.698-0.417,450.118-33.044c164.006-33.194,334.007-90.157,496.906-172.844 c160.138-81.344,310.057-185.932,433.876-310.58c59.585-60.017,112.6-124.23,156.948-191.526 c42.906-65.139,77.598-133.108,102.157-202.037c23.737-66.674,38.01-134.54,41.656-200.814 c3.538-64.67-3.089-128.515-19.473-188.279c-32.577-118.604-106.455-224.379-201.262-302.829 c-99.541-82.277-222.515-138.337-349.613-172.187c-133.247-35.438-270.144-46.98-399.625-43.646 c-268.165,6.999-492.361,75.245-642.788,134.923c-149.777,59.463-227.979,108.087-227.979,108.087"/> <path fill="none" stroke="#ffffff" stroke-width="3" stroke-miterlimit="10" d="M1782.41,4608.669 c0,0,38.005,62.553,139.329,140.488c52.815,40.592,124.664,84.922,217.006,122.372c96.271,39.011,215.725,70.719,354.238,85.167 c144.151,14.996,308.269,11.299,482.772-17.838c178.013-29.772,364.037-85.457,544.096-169.418 c177.725-82.935,345.857-191.715,487.418-323.292c68.281-63.499,129.757-131.798,182.175-203.798 c50.75-69.739,92.86-142.828,124.216-217.414c30.282-72.083,50.524-145.793,59.277-218.309 c8.493-70.548,6.094-140.633-7.111-206.777c-26.095-130.375-97.323-249.152-193.111-338.562 c-49.514-46.178-105.796-85.795-165.859-118.836c-61.679-33.912-127.41-61.001-194.787-82.06 c-139.646-43.606-284.748-61.187-422.75-62.329c-286.837-2.269-529.897,63.854-694.043,123.136 c-163.96,59.26-250.454,109.164-250.454,109.164"/> <path fill="none" stroke="#ffffff" stroke-width="3" stroke-miterlimit="10" d="M1639.016,4557.539 c0,0,9.274,16.093,29.978,44.222c20.909,28.398,54.196,69.42,105.101,114.689c52.265,46.456,124.426,97.917,218.799,142.762 c48.727,23.142,103.5,44.635,164.024,63.023c61.913,18.8,129.93,34.374,203.344,45.418 c75.017,11.274,155.63,17.814,240.755,18.544c86.669,0.731,177.815-4.56,272.016-16.679 c191.587-24.688,393.604-77.424,591.231-161.035c195.955-82.969,383.373-194.536,544.217-331.84 c77.797-66.446,148.643-138.359,210.142-214.666c59.604-73.985,110.216-151.91,149.532-231.963 c37.956-77.33,65.354-156.79,80.451-235.577c14.624-76.436,17.682-152.855,8.874-225.617 c-17.306-142.387-83.405-274.966-178.282-376.367c-48.845-52.159-105.466-97.538-166.576-135.869 c-62.719-39.32-130.293-71.392-200.009-96.948c-144.634-52.973-296.954-77.792-442.715-84.522 c-150.274-6.9-291.907,5.364-417.573,26.185c-127.182,21.096-236.891,50.732-325.97,79.571 c-178.245,57.741-273.266,108.214-273.266,108.214"/> <path fill="none" stroke="#ffffff" stroke-width="3" stroke-miterlimit="10" d="M1491.341,4488.343 c0,0,8.246,17.81,27.432,49.253c19.334,31.676,50.484,77.599,99.852,129.064c50.568,52.688,121.677,111.863,216.715,164.887 c49.073,27.365,104.678,53.24,166.58,76.006c63.381,23.299,133.488,43.383,209.622,58.795 c77.921,15.762,162.15,26.633,251.569,31.407c91.23,4.858,187.679,3.366,287.857-5.386 c204.469-17.905,422.196-65.956,637.547-147.498c214.596-81.325,422.171-194.136,603.652-335.805 c88.058-68.776,169.121-143.747,240.652-223.873c69.423-77.795,129.582-160.187,177.996-245.425 c46.741-82.335,82.466-167.372,105.153-252.369c21.934-82.268,31.682-165.035,28.526-244.574 c-6.205-154.524-64.574-301.52-156.528-415.889c-47.097-58.525-103.067-110.159-164.34-154.291 c-62.822-45.224-131.415-82.827-202.733-113.427c-73.147-31.367-149.11-55.395-225.564-73.277 c-78.122-18.259-156.547-30.07-233.563-36.826c-157.764-13.81-307.688-6.485-441.377,10.676 c-135.629,17.435-253.313,44.795-349.235,72.125c-192.46,54.874-296.14,105.188-296.14,105.188"/> <path fill="none" stroke="#ffffff" stroke-width="3" stroke-miterlimit="10" d="M1341.201,4400.126 c0,0,6.906,19.542,23.985,54.399c17.169,35.026,45.285,85.969,92.035,143.946c47.735,59.164,116.402,126.49,210.703,188.346 c48.665,31.904,104.335,62.543,166.857,90.119c64.059,28.242,135.482,53.341,213.589,73.672 c80.061,20.826,167.184,36.658,260.221,46.146c95.122,9.687,196.272,12.734,301.898,8.122 c216.385-9.495,449.244-51.16,682.153-128.917c233.33-77.971,461.619-190.418,664.774-334.98 c98.922-70.427,190.909-147.834,273.288-231.213c80.088-81.09,150.723-167.5,209.262-257.543 c56.543-87.015,101.675-177.365,133.116-268.402c30.351-87.958,47.954-176.988,51.665-263.355 c7.081-166.635-40.996-328.385-127.985-456.557c-89.24-131.317-219.564-233.789-362.002-305.112 c-74.013-37.031-151.611-66.256-230.166-88.851c-80.345-23.095-161.508-39.228-241.547-49.851 c-164.272-21.768-321.804-20.351-463.006-7.719c-143.605,12.873-268.973,37.182-371.553,62.364 c-206.395,50.708-318.739,100.15-318.739,100.15"/> <path fill="none" stroke="#ffffff" stroke-width="3" stroke-miterlimit="10" d="M1190.707,4292.709 c0,0,15.985,90.083,101.651,218.519c43.873,65.715,108.792,141.421,201.014,212.553c47.532,36.642,102.517,72.304,164.913,105 c63.951,33.496,135.905,63.986,215.219,89.657c81.405,26.333,170.654,47.624,266.577,62.366 c98.271,15.087,203.433,23.293,313.872,23.474c112.608,0.167,230.352-8.001,351.245-25.267 c122.401-17.499,247.466-44.237,372.896-80.581c251.772-73.009,500.915-183.538,726.321-329.512 c110.17-71.383,213.565-150.57,307.381-236.588c91.386-83.82,173.212-173.733,242.689-268.119 c67.168-91.29,122.591-186.602,163.762-283.392c39.705-93.411,66.153-188.508,77.795-281.613 c11.286-90.471,8.588-179.93-7.639-264.03c-16.061-83.095-45.56-162.125-85.704-233.552 c-81.415-144.7-208.992-261.243-351.663-344.205c-74.087-43.049-152.623-77.859-232.649-105.554 c-81.911-28.332-165.238-49.193-247.786-64.08c-169.727-30.572-334.097-35.862-482.203-28.486 c-150.997,7.548-283.644,28.143-392.592,50.622c-219.822,45.397-340.68,93.331-340.68,93.331"/> <path fill="none" stroke="#ffffff" stroke-width="3" stroke-miterlimit="10" d="M1042.046,4167.079 c0,0,7.823,96.283,84.912,238.272c39.21,72.146,99.312,156.188,188.322,236.75c45.785,41.417,99.436,82.194,161.048,120.144 c63.142,38.876,134.915,74.942,214.727,106.178c81.999,32.075,172.636,59.118,270.722,79.446 c100.674,20.847,209.132,34.618,323.698,40.036c117.096,5.519,240.247,2.307,367.379-10.494 c129.061-13.014,261.651-35.846,395.366-68.928c269.507-66.74,539.141-174.028,786.786-320.081 c121.504-71.697,236.482-152.043,341.997-240.095c102.999-85.982,196.409-178.864,277.299-277.08 c78.298-95.108,144.578-194.957,196.131-297.111c49.696-98.533,85.671-199.389,106.021-298.985 c19.684-96.478,24.739-192.549,15.102-283.734c-9.501-89.621-33.363-175.711-69.151-254.234 c-72.061-157.908-195.274-288.877-336.935-383.858c-73.469-49.223-152.318-89.825-233.242-122.833 c-82.873-33.786-167.825-59.612-252.387-79c-174.149-39.889-344.558-52.404-498.902-50.767 c-157.726,1.703-297.152,18.118-412.083,37.494c-232.521,39.245-361.581,85.182-361.581,85.182"/> <path fill="none" stroke="#ffffff" stroke-width="3" stroke-miterlimit="10" d="M897.195,4025.822 c0,0-0.57,101.905,66.989,256.975c34.127,78.238,88.772,170.252,173.829,260.027c43.64,46.034,95.514,91.801,155.881,134.911 c61.835,44.141,132.899,85.711,212.666,122.471c82.009,37.775,173.434,70.572,273.071,96.52 c102.433,26.657,213.54,46.088,331.586,56.873c120.918,11.028,248.824,12.972,381.554,4.871 c135.083-8.264,274.587-26.886,416.002-56.368c286.146-59.72,575.366-162.914,844.541-308.085 c132.556-71.529,258.894-152.545,375.945-242.125c114.499-87.657,219.437-183.021,311.749-284.568 c89.477-98.468,166.708-202.401,228.811-309.453c59.867-103.252,105.59-209.459,134.96-315.146 c28.354-102.139,41.488-204.46,38.856-302.427c-2.604-95.844-20.4-188.702-51.377-274.125 c-61.93-170.522-179.687-315.679-319.493-422.561c-72.373-55.289-151.082-101.631-232.473-139.916 c-83.375-39.199-169.523-69.982-255.692-93.877c-177.7-49.233-353.41-69.073-513.337-73.294 c-163.782-4.291-309.428,7.777-429.887,23.894c-244.312,32.734-381.098,76.427-381.098,76.427"/> <path fill="none" stroke="#ffffff" stroke-width="3" stroke-miterlimit="10" d="M757.666,3873.544 c0,0-8.514,106.876,49.571,273.975c29.161,83.768,78.363,183.047,159.348,281.353c41.436,50.268,91.428,100.64,150.411,148.535 c60.371,49.001,130.52,95.686,209.999,137.59c81.743,43.079,173.633,81.258,274.46,112.473 c103.79,32.112,217.102,56.879,338.139,72.736c124.219,16.254,256.318,23.107,394.047,19.502 c140.48-3.699,286.244-18.25,434.676-44.223c301.392-52.805,608.756-151.814,897.986-295.787 c142.903-71.173,279.904-152.622,407.808-243.437c125.352-89.034,241.19-186.539,344.321-291.02 c100.097-101.445,187.746-209.043,259.911-320.51c69.584-107.533,124.627-218.613,162.67-329.854 c36.675-107.333,57.58-215.378,61.762-319.587c4.045-101.571-7.846-200.653-34.078-292.477 c-52.111-182.079-164.227-340.429-301.981-458.428c-71.16-60.909-149.571-112.597-231.255-155.797 c-83.678-44.233-170.804-79.638-258.347-107.733c-89.451-28.692-179.148-49.717-266.877-64.845 c-89.257-15.381-176.213-24.621-259.271-29.503c-169.247-9.922-320.559-1.943-446.063,11.098 c-255.092,26.554-398.979,68.096-398.979,68.096"/> <path fill="none" stroke="#ffffff" stroke-width="3" stroke-miterlimit="10" d="M624.411,3717.182c0,0-1.693,27,0.701,77.179 c2.385,49.831,9.161,122.887,34.155,211.444c25.01,88.511,69.662,193.993,147.322,299.614 c39.638,53.875,88.117,108.173,146.035,160.146c59.234,53.131,128.733,104.162,208.124,150.43 c81.668,47.572,174.133,90.308,276.175,125.962c105.146,36.717,220.567,65.974,344.405,86.074 c127.286,20.638,263.239,31.587,405.523,31.7c145.385,0.093,296.808-11.113,451.553-34.243 c315.083-47.166,638.655-142.966,945.667-286.353c152.08-71.068,298.513-153.103,435.981-245.202 c134.923-90.425,260.345-189.988,372.948-297.201c109.405-104.206,206.146-215.158,287.052-330.602 c78.035-111.398,141.133-226.838,186.642-342.991c43.828-111.949,71.365-225.035,81.343-334.699 c9.666-106.596,2.73-211.084-19.55-308.459c-44.045-192.071-151.657-361.728-288.096-489.213 c-70.346-65.679-148.735-121.895-230.909-169.237c-84.175-48.471-172.379-87.752-261.335-119.351 c-90.939-32.287-182.496-56.517-272.272-74.509c-91.402-18.307-180.696-30.106-266.149-37.243 c-174.313-14.533-330.808-9.844-460.896,0.742c-264.845,21.604-415.085,61.535-415.085,61.535"/> <path fill="none" stroke="#ffffff" stroke-width="3" stroke-miterlimit="10" d="M498.114,3566.094c0,0-2.706,27.981-2.043,80.145 c0.665,51.754,4.987,127.652,27.526,220.121c22.511,92.234,64.57,202.501,140.737,313.617 c38.819,56.594,86.745,113.817,144.492,168.787c59.034,56.17,128.751,110.359,208.823,159.747 c82.384,50.79,176.099,96.735,279.904,135.452c107.04,39.9,224.949,72.193,351.813,95.081 c130.53,23.526,270.331,37.083,416.988,39.456c150.026,2.405,306.646-6.885,467.051-28.534 c327.177-44.231,664.564-139.117,986.242-283.707c159.583-71.772,313.624-155.052,458.685-248.928 c142.49-92.244,275.38-194.126,395.238-304.15c116.513-106.991,220.082-221.156,307.417-340.234 c84.236-114.906,153.12-234.191,203.846-354.523c48.818-115.888,80.834-233.174,94.576-347.243 c13.302-110.692,9.405-219.477-10.626-321.156c-39.487-199.93-145.417-378.004-282.463-512.344 c-70.583-69.136-149.783-128.564-233.121-178.793c-85.368-51.429-175.164-93.356-265.923-127.302 c-92.813-34.698-186.475-61.025-278.451-80.853c-93.683-20.184-185.351-33.578-273.172-42.089 c-179.261-17.345-340.581-14.507-474.852-5.233c-273.63,18.952-429.357,58.346-429.357,58.346"/> <path fill="none" stroke="#ffffff" stroke-width="3" stroke-miterlimit="10" d="M380.063,3431.742c0,0-2.955,28.705-2.595,82.244 c0.365,53.107,4.336,130.995,26.957,225.941c22.587,94.678,65.185,207.926,142.894,322.062 c39.61,58.139,88.6,116.936,147.713,173.416c60.447,57.73,131.916,113.429,214.069,164.189 c84.561,52.224,180.827,99.465,287.519,139.272c110.067,41.042,231.377,74.255,361.957,97.795 c134.412,24.206,278.427,38.149,429.561,40.586c154.661,2.471,316.169-7.099,481.635-29.388 c337.617-45.553,685.913-143.25,1018.199-292.1c164.847-73.888,323.999-159.611,473.916-256.235 c147.237-94.929,284.584-199.762,408.502-312.966c120.423-110.05,227.502-227.457,317.841-349.914 c87.093-118.11,158.359-240.705,210.893-364.368c50.528-119.027,83.739-239.48,98.09-356.608 c13.884-113.599,10.038-225.235-10.455-329.531c-40.383-205.007-149.302-387.506-290.18-524.966 c-72.586-70.769-154.035-131.548-239.729-182.886c-87.805-52.577-180.153-95.394-273.485-130.033 c-95.463-35.412-191.788-62.241-286.375-82.419c-96.355-20.541-190.631-34.131-280.95-42.728 c-184.384-17.521-350.298-14.406-488.408-4.746c-281.486,19.743-441.7,60.24-441.7,60.24"/> <path fill="none" stroke="#ffffff" stroke-width="3" stroke-miterlimit="10" d="M273.674,3326.8c0,0-2.18,29.118-0.198,83.278 c1.975,53.76,8.434,132.594,34.579,228.205c26.155,95.53,73.567,209.487,156.996,323.469 c42.618,58.189,94.908,116.826,157.522,172.901c64.104,57.386,139.473,112.462,225.686,162.331 c88.8,51.341,189.475,97.384,300.682,135.704c114.739,39.513,240.8,70.868,376.159,92.247 c139.282,21.975,288.141,33.367,444.034,32.956c159.422-0.446,325.54-13.217,495.396-38.977 c346.083-52.562,701.617-158.079,1039.253-315.348c167.188-77.92,328.178-167.725,479.339-268.441 c148.258-98.815,286.069-207.487,409.799-324.417c120.078-113.521,226.243-234.27,315.004-359.823 c85.479-120.966,154.577-246.219,204.342-372.147c47.845-121.164,77.842-243.479,88.558-361.935 c10.367-114.995,2.545-227.627-22.059-332.36c-48.628-206.547-166.851-388.281-315.948-524.036 c-76.989-70.046-162.651-129.771-252.344-179.918c-91.95-51.384-188.184-92.821-285.17-126.012 c-99.2-33.93-198.985-59.195-296.788-77.795c-99.605-18.929-196.855-30.897-289.9-37.908 c-189.847-14.276-360.156-8.114-501.737,4.148c-288.281,25.022-451.769,68.78-451.769,68.78"/> <path fill="none" stroke="#ffffff" stroke-width="3" stroke-miterlimit="10" d="M186.34,3263.517c0,0-0.151,29.14,5.787,82.961 c5.915,53.531,18.334,131.986,52.149,225.996c33.983,94.387,91.375,206.173,185.508,316.127 c48.293,56.376,106.55,112.712,175.208,166.044c70.428,54.684,152.23,106.529,244.831,152.749 c95.445,47.617,202.678,89.431,320.272,123.139c121.266,34.736,253.576,60.884,394.855,76.713 c145.171,16.243,299.454,21.572,460.258,14.831c164.118-6.904,334.29-26.336,507.497-58.907 c351.658-66.205,709.51-185.319,1045.628-355.72c165.76-84.081,324.403-179.761,472.219-285.994 c144.583-103.944,277.852-217.327,396.083-338.436c114.46-117.289,214.245-241.304,295.792-369.406 c78.404-123.227,139.775-250.186,181.22-376.898c39.853-121.96,61.308-244.422,63.326-361.966 c1.929-114.477-14.671-225.745-47.666-328.206c-65.693-203.66-200.425-378.225-362.789-506.56 c-84.147-66.461-176.25-122.263-271.802-168.486c-98.007-47.387-199.606-84.755-301.437-113.963 c-104.11-29.845-208.201-51.11-309.844-65.862c-103.431-14.999-203.996-23.213-299.949-26.676 c-195.51-7.027-369.824,5.413-514.305,22.861c-293.527,35.502-458.708,85.032-458.708,85.032"/> <path fill="none" stroke="#ffffff" stroke-width="3" stroke-miterlimit="10" d="M130.736,3251.36c0,0,3.283,28.649,15.724,80.904 c12.431,52.173,34.663,128.523,80.551,218.17c46.476,90.728,119.324,196.731,229.32,298.181 c56.748,52.309,123.693,103.819,200.969,151.707c79.422,49.198,170.136,94.8,271.38,134.234 c104.351,40.623,220.097,74.788,345.717,100.38c129.327,26.326,269.015,43.563,416.934,50.123 c151.566,6.699,311.294,2.184,476.535-14.606c168.053-17.1,340.976-46.798,515.687-89.625 c352.603-86.511,706.013-224.83,1031.718-412.679c159.59-92.091,310.733-195.113,449.633-307.905 c135.301-109.907,258.132-228.433,364.674-353.659c102.791-120.866,189.971-247.563,257.945-377.063 c65.251-124.386,112.731-251.559,139.811-376.929c26.085-120.939,33.224-241.261,21.25-355.049 c-11.779-111.578-42.175-218.538-87.877-315.553c-45.878-97.306-107.706-186.166-180.042-263.952 c-73.824-79.342-159.118-148.048-250.573-206.16c-93.91-59.642-194.501-108.38-297.601-147.703 c-105.742-40.309-213.959-70.704-321.601-93.2c-109.92-22.956-218.904-37.621-324.752-46.107 c-107.542-8.61-211.49-10.818-310.265-8.665c-200.78,4.403-378.194,26.485-524.555,51.796 c-296.247,51.285-460.973,109.154-460.973,109.154"/> <path fill="none" stroke="#ffffff" stroke-width="3" stroke-miterlimit="10" d="M124.106,3294.333c0,0,8.128,27.485,29.49,76.668 c21.465,49.398,57.25,121.417,119.212,203.549c63.382,83.962,156.516,179.908,286.831,268.051 c67.563,45.673,145.419,89.583,233.382,129.133c90.474,40.66,191.918,76.834,303.381,106.199 c114.708,30.2,240.083,53.217,374.498,67.145c137.929,14.271,285.113,18.959,439.339,12.632 c157.33-6.477,321.372-24.379,489.398-54.644c170.006-30.645,343.168-73.771,516.315-129.798 c173.458-56.154,345.782-124.89,513.454-206.091c166.13-80.482,326.534-172.645,477.456-275.797 c147.827-101.071,285.547-212.019,409.253-331.485c119.868-115.802,225.9-239.016,314.178-367.356 c84.855-123.423,153.047-251.41,201.068-380.256c46.091-123.77,73.603-248.952,80.632-370.081 c6.786-117.582-5.818-232.819-36.411-339.51c-30.388-105.835-78.933-205.039-140.917-293.243 c-62.888-89.429-140.231-168.862-226.298-237.025c-88.332-69.92-186.248-128.528-288.854-176.721 c-105.479-49.516-215.891-88.108-327.574-117.619c-114.4-30.209-229.823-50.837-343.618-64.001 c-115.947-13.398-229.801-19.009-339.654-18.957c-111.34,0.065-218.197,5.946-319.21,15.618 c-204.615,19.618-383.393,54.368-529.925,89.923c-295.059,71.648-456.462,140.071-456.462,140.071"/> <path fill="none" stroke="#ffffff" stroke-width="3" stroke-miterlimit="10" d="M184.071,3388.963 c0,0,14.153,25.481,46.282,69.935c32.505,44.959,84.702,110.007,165.579,181.416c41.402,36.54,90.602,74.894,148.369,112.757 c59.008,38.664,127.26,76.989,204.946,112.527c79.675,36.434,169.554,70.053,269.153,98.505 c102.3,29.206,214.994,53,336.932,69.299c125.053,16.697,259.718,25.502,402.222,24.709 c145.501-0.83,298.752-11.656,457.408-33.75c323.475-45.112,664.887-136.483,999.537-278.465 c166.367-70.625,329.355-153.059,485.325-247.034c153.444-92.483,299.036-195.511,432.882-308.192 c130.216-109.662,248.492-227.812,350.77-352.741c98.558-120.435,181.827-246.768,245.836-376.042 c61.384-124.051,104.981-251.066,127.755-376.268c21.934-120.795,24.477-241.092,7.298-354.542 c-33.675-221.622-148.778-424.644-307.749-575.657c-82.348-78.158-176.83-144.995-278.008-200.655 c-104.163-57.271-215.549-102.915-329.945-138.491c-117.48-36.512-237.873-62.374-358.099-79.637 c-122.81-17.617-245.01-26.212-364.371-27.934c-244.104-3.478-473.261,21.519-676.613,58.6 c-205.766,37.556-383.219,87.125-527.466,134.574c-288.573,94.979-443.11,175.368-443.11,175.368"/> <path fill="none" stroke="#ffffff" stroke-width="3" stroke-miterlimit="10" d="M320.49,3524.219c0,0,20.797,22.57,64.523,60.774 c44.48,38.852,114.226,94.357,215.002,152.309c51.776,29.762,112.034,60.271,181.109,89.313 c70.602,29.674,150.673,57.906,240.035,82.43c91.512,25.101,192.941,46.352,303.522,61.61 c113.178,15.601,235.933,24.921,366.892,26.075c133.614,1.16,275.499-6.18,423.687-23.554 c150.354-17.647,306.636-45.553,466.319-84.831c322.12-79.297,653.237-203.661,967.256-376.13 c154.288-84.782,302.79-180.331,441.693-286.169c135.606-103.36,261.174-215.877,372.612-336.327 c107.684-116.437,201.61-239.762,277.562-367.641c72.889-122.788,129.048-249.76,164.722-376.849 c34.266-122.21,49.602-245.416,44.286-363.552c-5.228-115.281-30.367-227.452-73.281-330.07 c-42.964-102.636-104.34-197.543-178.805-280.787c-76.081-84.997-166.498-158.992-265.462-221.256 c-101.951-64.107-213.258-116.15-329.217-157.302c-119.335-42.324-243.411-73.121-368.738-94.309 c-128.309-21.671-257.481-33.216-384.97-36.752c-129.71-3.582-257.171,1.135-380.533,12.031 c-505.446,44.776-920.702,187.458-1198.985,307.279c-276.102,118.956-419.989,211.546-419.989,211.546"/> <path fill="none" stroke="#ffffff" stroke-width="3" stroke-miterlimit="10" d="M525.225,3684.082 c0,0,27.22,18.975,82.035,49.967c55.891,31.591,142.095,75.897,261.381,118.845c61.275,22.051,131.551,43.786,210.789,63.105 c80.847,19.702,171.211,36.922,270.589,49.545c101.425,12.872,212.301,20.958,331.58,22.28 c121.495,1.332,251.568-4.356,388.593-18.79c279.57-29.497,585.682-95.31,898.488-206.814 c156.557-55.839,313.46-122.646,467.467-200.886c152.449-77.475,301.093-165.665,442.257-264.476 c138.269-96.816,268.457-203.208,386.522-318.393c114.442-111.691,216.835-231.065,302.86-356.352 c82.702-120.503,149.988-246.253,197.648-373.906c45.722-122.566,73.345-247.463,80.01-369.2 c6.427-118.099-7.017-234.746-39.74-343.156c-32.525-107.618-84.61-209.038-151.758-299.104 c-68.307-91.557-152.941-172.828-247.987-242.011c-97.871-71.2-207.233-130.19-322.929-177.598 c-119.261-48.839-245.181-85.45-373.843-111.528c-132.013-26.734-266.482-42.326-400.516-48.814 c-136.637-6.596-272.268-3.713-404.761,6.544c-134.199,10.405-264.657,28.333-389.831,51.709 c-507.409,94.89-908.852,273.383-1172.034,416.821c-258.505,140.968-388.664,244.636-388.664,244.636"/> <path fill="none" stroke="#ffffff" stroke-width="3" stroke-miterlimit="10" d="M764.595,3851.632 c0,0,32.54,15.292,96.516,39.162c65.213,24.324,164.671,57.567,298.723,86.056c68.694,14.589,146.702,27.926,233.681,38.009 c88.498,10.251,186.401,17.137,292.923,18.665c108.293,1.542,225.464-2.459,350.203-13.853 c126.441-11.563,260.414-30.702,400.049-59.006c282.496-57.311,585.327-151.64,886.802-291.18 c149.401-69.186,297.108-148.875,439.656-239.35c140.16-88.987,274.446-187.85,398.953-296.248 c121.168-105.527,232.341-219.483,329.231-340.674c93.43-116.911,173.162-240.152,234.737-367.185 c59.083-121.97,101.354-247.656,123.024-372.473c20.874-120.456,22.509-241.283,3.728-355.894 c-18.51-112.708-57.19-221.275-113.036-319.416c-56.379-98.997-130.991-189.114-218.175-267.093 c-89.539-80.037-192.977-148.207-304.713-204.247c-115.292-57.791-239.545-102.895-368.321-136.621 c-132.448-34.661-269.336-57.252-407.341-69.659c-141.047-12.659-282.693-14.645-422.454-8.009 c-285.532,13.612-559.196,62.757-808.38,130.973c-250.807,68.712-473.919,155.991-664.083,246.324 c-188.597,89.625-343.868,181.75-465.843,262.76c-120.349,79.952-208.699,149.098-267.118,196.955 c-57.855,47.401-87.104,74.119-87.104,74.119"/> <path fill="none" stroke="#ffffff" stroke-width="3" stroke-miterlimit="10" d="M982.406,4011.173 c0,0,36.118,12.346,106.239,30.614c71.391,18.59,179.515,43.182,323.073,60.491c73.37,8.837,156.181,15.74,247.877,18.78 c93.063,3.077,195.341,2.168,305.843-4.637c225.273-13.906,484.255-52.503,762.683-128.866 c280.823-77.086,577.211-191.391,866-350.164c142.092-78.156,280.997-166.393,413.066-264.832 c129.243-96.363,251.147-201.923,361.61-316.092c107.051-110.683,202.779-228.919,282.722-353.068 c76.892-119.469,138.936-244.245,181.724-371.008c41.1-121.873,64.39-246.218,66.849-367.452 c2.352-117.874-15.19-234.37-52.094-342.594c-36.771-107.71-93.352-209.139-165.291-299.079 c-73.318-91.604-163.367-172.691-264.298-241.389c-104.029-70.766-220.058-128.935-342.961-175.019 c-126.719-47.484-260.629-82.182-397.783-105.667c-140.688-24.065-284.297-36.281-427.853-38.583 c-146.244-2.325-291.811,5.638-434.455,21.857c-289.995,33.025-564.016,99.538-810.747,183.278 c-246.929,83.86-463.859,184.111-646.662,285.344c-180.472,99.981-327.012,200.466-440.861,287.915 c-111.976,86.034-192.913,159.598-246.063,210.305c-52.553,50.145-78.774,78.245-78.774,78.245"/> <path fill="none" stroke="#ffffff" stroke-width="3" stroke-miterlimit="10" d="M1124.633,4145.789 c0,0,37.79,10.78,110.768,26.085c74.233,15.562,186.29,35.608,334.064,47.074c151.754,11.75,342.343,14.18,564.783-7.814 c227.647-22.552,487.593-70.693,764.748-157.11c278.32-86.847,569.672-210.913,850.103-378.925 c137.487-82.408,271.025-174.657,396.867-276.769c122.872-99.734,237.674-208.302,340.202-324.954 c99.185-112.89,186.395-232.876,257.103-358.026c67.969-120.366,120.523-245.498,153.385-371.601 c31.617-121.469,44.943-244.7,37.557-363.648c-7.258-116.237-34.6-230.085-80.558-334.762 c-46.064-104.817-111.506-202.285-191.359-287.897c-81.685-87.521-179.196-163.848-286.771-227.721 c-110.955-65.842-232.929-118.842-361.068-159.788c-131.984-42.145-270.284-71.514-411.176-89.755 c-144.283-18.656-290.74-25.599-436.546-22.769c-148.273,2.898-295.239,15.883-438.757,36.933 c-291.023,42.738-564.069,117.934-808.429,209.41c-243.846,91.338-456.603,197.984-634.724,304.557 c-175.448,105.014-316.751,209.544-425.806,300.077c-107.098,88.933-183.758,164.581-233.89,216.62 c-49.533,51.425-74.033,80.161-74.033,80.161"/> <path fill="none" stroke="#ffffff" stroke-width="3" stroke-miterlimit="10" d="M1197.033,4242.606 c0,0,38.262,10.246,112.028,24.55c75.005,14.537,188.102,33.054,336.916,42.57c152.692,9.74,344.093,9.72,566.935-15.05 c227.772-25.362,487.261-76.568,763.108-166.171c276.592-89.911,565.302-216.994,841.932-387.782 c135.468-83.674,266.733-177.098,390.016-280.255c120.293-100.688,232.283-210.081,331.738-327.364 c96.169-113.452,180.164-233.842,247.454-359.123c64.687-120.504,113.793-245.583,143.124-371.274 c28.244-121.196,38.076-243.893,27.319-361.926c-10.572-115.569-41.221-228.394-90.169-331.795 c-49.155-103.743-117.463-199.801-199.84-283.927c-84.345-86.081-184.164-160.785-293.763-223.035 c-113.036-64.165-236.744-115.441-366.368-154.683c-133.445-40.37-272.904-67.985-414.728-84.508 c-145.143-16.886-292.207-22.115-438.416-17.621c-148.586,4.586-295.656,19.187-439.104,41.787 c-290.616,45.84-562.615,123.789-805.496,217.703c-242.132,93.679-452.865,202.313-628.857,310.527 c-173.225,106.554-312.302,212.306-419.367,303.758c-105.096,89.795-180.036,166.048-228.963,218.469 c-48.334,51.794-72.158,80.707-72.158,80.707"/> <path fill="none" stroke="#ffffff" stroke-width="3" stroke-miterlimit="10" d="M1282.603,4314.45 c0,0,38.974,9.346,113.923,21.971c76.165,12.823,190.818,28.787,341.17,35.078c154.079,6.422,346.656,2.386,570.025-26.881 c227.881-29.903,486.569-86.014,760.306-180.629c273.838-94.717,558.389-226.444,829.104-401.39 c132.326-85.552,260.064-180.686,379.391-285.322c116.304-102.018,223.953-212.514,318.676-330.57 c91.523-114.114,170.576-234.894,232.624-360.118c59.647-120.455,103.47-245.168,127.407-369.921 c23.078-120.471,27.567-242.022,11.683-358.315c-15.639-114.208-51.322-225.113-104.805-326.215 c-53.868-101.743-126.521-195.294-212.717-276.804c-88.384-83.53-191.696-155.417-304.343-214.864 c-116.186-61.279-242.505-109.613-374.354-145.964c-135.643-37.37-276.834-62.042-420.041-75.7 c-146.422-13.942-294.375-16.336-441.161-9.112c-149.03,7.354-296.222,24.585-439.527,49.691 c-289.93,50.847-560.261,133.168-800.826,230.896c-239.453,97.331-447.04,209.002-619.739,319.686 c-169.779,108.854-305.418,216.386-409.415,309.148c-102.005,91.011-174.292,168.092-221.364,221.026 c-46.486,52.282-69.267,81.425-69.267,81.425"/> <path fill="none" stroke="#ffffff" stroke-width="3" stroke-miterlimit="10" d="M1428.075,4370.654 c0,0,40.497,7.375,117.986,16.32c78.655,9.072,196.66,19.461,350.354,18.708c157.102-0.793,352.293-13.551,576.937-52.578 c228.285-39.703,485.499-106.379,755.022-211.764c134.474-52.606,271.106-114.507,407.001-186.632 c134.55-71.432,267.67-152.515,395.938-243.68c125.878-89.493,246.358-188.195,357.519-295.89 c108.085-104.751,206.774-217.484,291.702-337.048c81.928-115.391,150.744-236.86,201.918-361.781 c49.206-120.202,82.037-243.962,94.786-366.504c12.318-118.762,5.66-237.651-20.861-350.041 c-26.257-111.102-72.44-217.681-135.378-313.725c-63.769-97.24-145.513-185.256-239.746-261.032 c-96.89-77.867-207.575-143.584-326.704-196.885c-122.866-54.939-254.767-96.838-391.405-126.861 c-140.373-30.817-285.339-49.063-431.594-56.465c-149.258-7.531-299.239-3.753-447.402,9.416 c-150.132,13.363-297.756,36.308-440.931,66.853c-288.848,61.675-556.022,153.449-792.032,259.402 c-234.148,105.173-435.406,223.354-601.416,339.308c-162.778,113.74-291.382,225.036-389.071,320.55 c-95.656,93.555-162.469,172.35-205.709,226.339c-42.669,53.285-63.292,82.89-63.292,82.89"/> <path fill="none" stroke="#ffffff" stroke-width="3" stroke-miterlimit="10" d="M1623.307,4397.362c0,0,42.475,4.5,123.242,8.086 c81.837,3.626,204.065,5.954,361.834-4.957c160.664-11.134,358.681-36.321,584.108-89.189 c227.8-53.469,481.78-134.876,744.069-255.143c130.181-59.717,261.472-128.608,390.831-207.479 c127.608-77.826,252.654-164.955,371.564-261.664c116.271-94.591,226.023-197.833,325.18-309.281 c96.111-108.064,181.802-223.385,252.586-344.417c68.17-116.62,122.33-238.459,158.051-362.224 c34.395-119.294,51.639-241.071,48.75-359.783c-5.692-229.227-93.483-455.514-243.94-631.125 c-77.438-90.296-171.535-170.094-276.73-237.476c-108.431-69.415-229.061-126.139-356.937-170.499 c-131.781-45.683-271.109-78.283-414.081-99.167c-146.544-21.379-296.389-30.406-446.511-28.841 c-152.784,1.615-305.19,14.185-454.866,35.81c-151.244,21.87-299.058,52.892-441.643,91.113 c-286.501,76.852-548.484,181.838-777.349,299.218c-225.999,115.968-417.714,243.056-573.713,366.141 c-152.4,120.292-270.613,236.567-359.013,335.649c-86.364,96.832-145.163,177.767-182.804,233.042 c-37.111,54.508-54.587,84.648-54.587,84.648"/> <path fill="none" stroke="#ffffff" stroke-width="3" stroke-miterlimit="10" d="M1840.198,4379.163c0,0,44.38,1.166,128.247-1.45 c84.793-2.65,210.834-9.568,371.979-32.073c163.384-22.84,363.007-61.986,587.468-130.277 c225.373-68.612,473.652-166.043,725.536-302.245c124.279-67.229,248.478-143.429,369.38-229.259 c118.779-84.346,233.736-177.543,341.117-279.666c104.586-99.497,201.433-206.972,286.277-321.654 c81.992-110.87,152.448-228.146,206.797-349.715c52.305-117.073,89.605-238.338,107.797-359.638 c17.571-117.397,17.163-235.902-3.027-349.254c-19.925-111.643-59.494-220.022-116.56-318.782 c-57.614-99.63-133.828-191.12-223.632-270.696c-92.206-81.655-199.417-151.685-316.271-209.205 c-120.579-59.318-251.592-105.567-388.557-139.538c-140.898-34.917-287.748-56.818-437.03-67.203 c-152.57-10.589-307.053-9.127-460.687,2.62c-313.539,24.037-618.885,90.319-900.687,183.628 c-282.276,93.536-536.968,212.962-756.402,342.701c-215.538,127.496-395.326,263.992-538.973,394.456 c-139.763,126.986-245.413,248.218-322.643,350.711c-75.282,99.943-124.536,182.773-155.534,239.13 c-30.542,55.541-44.298,86.073-44.298,86.073"/> <path fill="none" stroke="#ffffff" stroke-width="3" stroke-miterlimit="10" d="M2047.722,4310.696 c0,0,45.837-2.144,131.985-10.893c86.904-8.832,215.509-24.802,378.47-58.587c329.977-68.479,803.142-211.325,1285.732-514.801 c117.373-73.857,233.506-156.417,345.006-248.172c109.119-89.82,213.221-187.986,308.364-294.336 c92.345-103.257,175.808-213.785,245.962-330.413c67.65-112.518,122.725-230.571,160.675-351.361 c36.555-116.456,57.164-236.008,58.351-353.617c1.119-114.556-16.409-228.67-52.933-335.737 c-36.396-106.569-92.251-207.937-164.07-298.602c-73.152-92.286-163.669-174.855-266.251-245.181 c-105.717-72.433-224.742-132.464-352.085-179.97c-131.354-48.969-271.482-84.701-416.34-108.271 c-148.668-24.164-301.81-35.479-456.224-35.508c-157.337-0.006-315.297,11.691-471.329,33.338 c-316.92,44.03-621.277,128.301-898.768,237.826c-276.306,109.128-522.207,241.916-730.855,382.917 c-203.879,137.842-370.714,282.625-501.127,419.377c-126.405,132.604-218.877,257.804-284.471,362.826 c-63.83,102.239-103.246,186.252-127.43,243.199c-23.824,56.117-33.782,86.765-33.782,86.765"/> <path fill="none" stroke="#ffffff" stroke-width="3" stroke-miterlimit="10" d="M2218.829,4197.369 c0,0,46.698-5.012,134.073-19.056c87.968-14.145,217.661-37.85,380.758-81.187c164.002-43.601,361.318-107.143,578.017-201.901 c215.026-94.072,446.557-217.82,672.729-379.244c110.409-78.832,218.594-166.065,321.005-262.026 c99.901-93.637,193.795-195.126,277.581-304.055c81.106-105.484,152.399-217.586,209.349-334.706 c54.861-112.889,96.296-230.512,119.924-349.387c22.807-114.912,28.918-231.857,15.684-345.119 c-13.022-111.133-45.048-220.323-95.07-321.065c-50.295-101.206-119.517-195.585-203.332-278.631 c-85.891-85.051-187.861-159.293-300.657-221.156c-116.436-63.822-244.7-114.811-380.182-153.323 c-139.59-39.649-286.575-66.056-437.251-80.452c-154.28-14.715-311.811-16.807-469.628-7.858 c-160.369,9.116-320.294,29.582-477.38,59.666c-317.742,60.912-619.337,160.195-891.283,283.072 c-269.381,121.792-506.086,265.253-703.938,415.043c-192.456,145.772-346.894,296.712-464.82,437.882 c-113.949,136.471-194.237,264.157-249.162,370.506c-53.396,103.441-83.89,187.774-101.926,244.743 c-17.774,56.165-24.325,86.637-24.325,86.637"/> <path fill="none" stroke="#ffffff" stroke-width="3" stroke-miterlimit="10" d="M2334.87,4051.297 c0,0,191.276-22.684,514.15-122.897c162.345-50.422,356.614-121.814,568.083-224.812 c208.957-101.82,432.036-233.259,646.567-401.533c104.34-81.874,205.731-171.853,300.52-270.128 c92.249-95.671,177.788-198.762,252.413-308.646c72.113-106.227,133.771-218.532,180.41-334.944 c44.921-112.202,75.837-228.48,88.624-344.812c12.364-112.801,7.565-226.741-16.247-335.723 c-23.554-107.625-66.158-212.105-125.817-307.285c-60.382-96.26-139.032-184.572-231.226-261.262 c-94.818-78.827-204.626-146.22-324.347-201.228c-123.648-56.777-257.994-100.557-398.731-131.958 c-144.834-32.286-296.041-51.435-450.157-58.747c-157.509-7.448-317.372-2.522-476.788,13.201 c-161.658,15.967-322.094,42.955-479.024,79.258c-316.427,73.26-614.146,183.287-880.234,315.512 c-262.524,130.528-490.827,281.119-679.222,436.547c-182.615,150.731-326.649,305.274-434.27,448.743 c-103.76,138.391-174.205,266.997-220.6,373.499c-45.088,103.564-68.538,187.446-81.748,243.958 c-13.025,55.756-16.923,85.83-16.923,85.83"/> <path fill="none" stroke="#ffffff" stroke-width="3" stroke-miterlimit="10" d="M2387.358,3886.214 c0,0,190.54-27.997,509.809-136.194c160.078-54.283,350.979-129.989,557.6-237.266c102.27-53.115,207.79-113.718,313.956-182.81 c104.748-68.185,209.651-144.331,311.572-229.085c99.822-83.03,196.277-173.908,285.668-272.736 c86.867-96.067,166.646-199.223,235.097-308.697c66.078-105.726,121.381-217.144,161.369-332.042 c38.52-110.768,62.766-225.16,68.854-338.834c5.882-110.486-5.564-221.511-35.624-326.843 c-29.854-104.473-78.603-205.057-143.697-295.942c-66.146-92.29-149.983-176.032-246.66-248.094 c-99.625-74.216-213.47-136.743-336.628-186.975c-127.221-51.855-264.397-90.73-407.431-117.375 c-147.085-27.372-299.893-41.775-455.12-44.534c-158.461-2.793-318.724,6.545-478.094,26.448 c-161.405,20.18-321.123,51.097-476.946,91.07c-313.573,80.502-606.985,196.503-867.718,333.653 c-256.567,135.033-478.161,288.971-659.414,446.755c-175.279,152.657-311.852,308.242-412.287,451.991 c-96.69,138.462-160.475,266.577-201.192,372.261c-39.566,102.765-58.421,185.63-68.506,241.354 c-9.948,55.013-12.15,84.565-12.15,84.565"/> <path fill="none" stroke="#ffffff" stroke-width="3" stroke-miterlimit="10" d="M2377.203,3713.641 c0,0,188.297-29.947,502.917-140.242c157.564-55.27,345.211-131.888,547.872-239.67 c100.225-53.32,203.52-114.008,307.297-183.029c102.325-68.071,204.649-143.936,303.855-228.208 c97.096-82.5,190.712-172.646,277.174-270.505c83.963-95.06,160.78-196.987,226.24-304.969 c63.156-104.23,115.539-213.928,152.66-326.822c35.753-108.828,57.287-221.062,60.839-332.282 c6.727-213.781-59.344-432.088-191.333-606.991c-67.649-89.551-152.595-170.413-249.99-239.699 c-100.465-71.429-214.722-131.195-337.979-178.835c-127.359-49.194-264.297-85.554-406.841-109.879 c-146.561-24.984-298.546-37.207-452.746-37.993c-157.359-0.779-316.293,10.341-474.178,31.815 c-159.829,21.76-317.81,54.024-471.787,95.136c-309.615,82.729-598.69,200.033-854.986,337.808 c-126.647,68.109-244.692,140.887-353.252,216.499c-107.084,74.603-204.694,151.8-292.412,229.729 c-170.775,151.774-303.156,306.062-399.83,448.317c-92.987,136.904-153.542,263.343-191.626,367.461 c-36.998,101.22-53.85,182.684-62.597,237.417c-8.629,54.044-10.136,83.024-10.136,83.024"/> <path fill="none" stroke="#ffffff" stroke-width="3" stroke-miterlimit="10" d="M2312.379,3541.154 c0,0,184.774-28.906,493.931-136.061c154.891-53.718,339.46-128.251,539.044-233.22 c98.727-51.941,200.538-111.083,302.913-178.376c100.958-66.377,201.998-140.38,300.086-222.623 c96.012-80.522,188.702-168.537,274.487-264.135c83.306-92.865,159.696-192.472,225.049-298.073 c63.042-101.911,115.606-209.215,153.27-319.749c36.259-106.499,58.647-216.402,63.394-325.435 c9.014-209.316-53.221-423.637-180.716-595.542c-65.323-87.985-147.741-167.527-242.479-235.725 c-97.759-70.332-209.185-129.252-329.542-176.288c-124.43-48.596-258.382-84.606-397.933-108.82 c-143.56-24.883-292.549-37.242-443.808-38.386c-154.424-1.145-310.485,9.391-465.601,30.086 c-157.079,20.979-312.417,52.27-463.896,92.25c-304.699,80.478-589.44,194.914-842.176,329.481 C1049.96,992.893,835.734,1143.13,660.875,1296.76c-168.871,148.44-300.061,299.393-396.125,438.637 c-92.362,133.952-152.833,257.72-191.071,359.672c-37.128,99.062-54.346,178.839-63.384,232.439 c-8.914,52.906-10.636,81.294-10.636,81.294"/> <path fill="none" stroke="#ffffff" stroke-width="3" stroke-miterlimit="10" d="M2205.119,3372.464 c0,0,180.039-25.446,482.752-125.19c151.93-50.093,333.368-120.088,530.367-219.51 c194.29-98.097,401.123-223.548,599.202-382.788c96.148-77.325,189.354-162.024,276.179-254.251 c84.374-89.65,162.297-185.993,229.799-288.415c65.128-98.863,120.319-203.153,161.242-310.957 c39.369-103.786,65.467-211.137,74.43-318.12c8.66-103.756,1.056-208.292-24.339-307.71 c-25.174-98.412-68.324-193.477-127.214-279.487c-59.817-87.301-136.662-166.74-225.907-235.18 c-92.061-70.558-197.908-130.153-312.807-178.168c-118.875-49.644-247.472-87.043-381.859-112.923 c-138.4-26.627-282.481-40.999-429.092-44.394c-149.849-3.447-301.632,4.574-452.786,22.569 c-153.226,18.262-305.043,46.68-453.352,83.657C1853,496.136,1572.841,604.255,1323.184,732.431 c-245.758,126.244-458.625,270.38-633.403,418.304c-168.939,143.05-301.261,288.948-399.182,423.884 c-94.157,129.816-157.035,250.05-197.651,349.301c-39.41,96.365-58.895,174.187-69.536,226.514 c-10.487,51.608-13.161,79.374-13.161,79.374"/> <path fill="none" stroke="#ffffff" stroke-width="3" stroke-miterlimit="10" d="M2069.349,3208.493 c0,0,174.09-20.216,469.027-109.386c148.451-44.912,326.35-108.511,520.689-200.285 c192.172-90.791,397.936-207.994,597.242-358.254c96.958-73.126,191.515-153.519,280.419-241.421 c86.505-85.556,167.204-177.797,238.323-276.285c68.667-95.131,128.121-195.793,174.172-300.4 c44.275-100.639,76.077-205.099,91.434-309.935c14.818-101.368,14.167-204.051-4.012-302.513 c-17.943-96.992-53.351-191.491-104.633-277.638c-51.888-87.096-120.778-167.202-202.309-236.763 c-83.999-71.624-182.062-132.924-289.441-183.004c-111.174-51.817-232.459-91.823-359.864-120.626 c-131.409-29.682-268.938-47.417-409.406-54.433c-143.814-7.161-290.036-3.072-436.103,10.803 c-148.31,14.109-295.711,38.231-440.114,70.803c-291.512,65.81-566.455,164.98-812.961,284.306 c-243.245,117.814-455.398,253.757-631.139,394.152c-170.169,136.007-305.068,275.44-406.44,404.957 c-97.54,124.681-164.493,240.61-209.003,336.639c-43.162,93.174-66.232,168.739-79.392,219.623 c-12.959,50.133-17.103,77.215-17.103,77.215"/> <path fill="none" stroke="#ffffff" stroke-width="3" stroke-miterlimit="10" d="M1918.703,3048.682 c0,0,166.942-13.87,452.464-90.412c144.242-38.696,317.852-94.638,508.912-177.302 c189.576-82.06,393.998-189.452,594.635-329.052c97.897-68.141,194.033-143.436,285.372-226.216 c89.039-80.719,173.033-168.129,248.44-261.972c72.903-90.759,137.443-187.18,189.625-288.031 c50.163-97.002,88.782-198.116,111.844-300.468c22.202-98.664,29.896-199.228,20.461-296.685 c-9.271-95.427-35.312-189.359-77.385-275.875c-42.328-86.961-101.565-168.039-173.79-239.147 c-74.226-73.032-162.869-136.571-261.182-189.298c-101.828-54.58-214.277-97.885-333.26-130.338 c-122.935-33.505-252.553-55.418-385.61-66.896c-136.515-11.755-276.033-12.496-415.967-3.651 c-142.381,9.019-284.469,27.911-424.172,55.142c-282.848,55.187-551.572,143.593-794.311,252.334 c-240.308,107.716-451.672,233.938-628.6,365.43c-171.745,127.698-309.79,259.562-415.33,382.735 c-101.678,118.72-173.542,229.664-222.745,321.963c-47.699,89.522-75.08,162.498-91.274,211.733 c-15.933,48.462-21.848,74.764-21.848,74.764"/> <path fill="none" stroke="#ffffff" stroke-width="3" stroke-miterlimit="10" d="M1765.173,2892.039 c0,0,38.987-2.985,112.159-12.392c73.789-9.491,182.868-25.856,320.864-57.496c279.053-64.037,677.41-191.045,1083.681-449.032 c98.508-62.593,195.94-132.204,289.486-209.244c91.402-75.295,178.582-157.272,258.252-245.84 c77.167-85.814,146.895-177.417,205.427-273.909c56.297-92.851,102.058-190.098,133.322-289.445 c30.036-95.533,46.637-193.519,46.71-289.619c0.041-93.509-15.795-186.536-47.737-273.289 c-31.904-86.555-80.457-168.495-142.393-241.179c-63.393-74.343-141.534-140.206-229.753-195.722 c-91.346-57.448-193.878-104.274-303.393-140.629c-113.346-37.6-234.003-64.023-358.641-80.323 c-128.178-16.741-260.021-22.736-392.9-19.367c-135.532,3.456-271.452,16.628-405.658,38.018 c-272.649,43.507-533.891,120.088-771.831,217.193c-236.469,96.564-446.375,212.069-624.023,333.715 c-172.974,118.5-313.983,241.985-423.645,358.088c-105.842,112.106-182.728,217.49-236.79,305.588 c-52.419,85.458-84.312,155.501-103.698,202.863c-19.062,46.586-26.849,71.993-26.849,71.993"/> <path fill="none" stroke="#ffffff" stroke-width="3" stroke-miterlimit="10" d="M1618.382,2737.782 c0,0,36.723-1.228,105.869-7.206c69.839-6.043,173.372-17.264,305.09-41.995c267.569-50.292,653.297-157.381,1056.756-389.596 c98.466-56.709,196.537-120.265,291.632-191.145c93.16-69.457,182.936-145.555,266.298-228.343 c80.931-80.398,155.372-166.686,219.835-258.244c62.079-88.208,114.656-181.06,153.924-276.791 c37.679-91.922,63.042-186.773,72.702-280.947c9.317-91.116,3.808-182.666-17.694-269.234 c-21.308-85.652-58.765-168.007-109.984-241.978c-52.12-75.216-119.197-143.128-196.785-201.217 c-80.226-60.028-172.192-110.207-271.59-150.327c-103.018-41.554-213.994-72.413-329.486-93.491 c-119.062-21.707-242.47-32.976-367.541-35.131c-127.903-2.184-256.899,5.164-384.866,20.586 c-260.954,31.498-513.341,95.862-745.201,180.879c-231.417,84.911-438.786,189.18-616.191,300.443 C877.811,682.807,734.586,797.391,621.427,905.909c-109.466,105.019-190.924,204.394-249.51,287.887 c-56.846,81.043-93.033,147.836-115.481,193.108c-22.066,44.515-31.666,68.905-31.666,68.905"/> <path fill="none" stroke="#ffffff" stroke-width="3" stroke-miterlimit="10" d="M1485.361,2585.586c0,0,34.288,0.43,99.076-2.298 c65.542-2.765,162.993-9.071,287.695-27.153c126.538-18.364,281.253-49.055,455.723-101.379 c175.318-52.61,368.891-126.597,566.598-229.29c97.583-50.706,195.411-108.048,291.127-172.555 c94.032-63.389,185.492-133.337,271.604-209.997c83.823-74.645,162.092-155.235,231.6-241.376 c67.062-83.14,125.649-171.123,172.179-262.629c44.637-87.834,78.075-178.981,96.822-270.55 c18.03-88.202,22.373-177.596,11.085-263.353c-22.093-167.145-110.066-327.273-241.904-446.004 c-68.939-62.027-150.092-115.103-239.101-158.559c-92.323-45.046-193.224-79.959-299.138-105.458 c-109.441-26.325-223.893-42.57-340.602-49.98c-119.674-7.579-241.135-5.847-362.23,3.783 c-247.923,19.764-490.115,72.07-714.536,145.057c-225.012,73.233-428.534,166.166-604.435,266.87 c-172.51,98.808-316.832,204.237-432.47,304.866c-112.158,97.639-197.342,190.693-259.765,269.274 c-60.637,76.359-100.599,139.634-125.767,182.626c-24.742,42.274-35.977,65.534-35.977,65.534"/> <path fill="none" stroke="#ffffff" stroke-width="3" stroke-miterlimit="10" d="M1370.69,2435.589c0,0,31.752,1.917,91.97,2.127 c61.013,0.208,152.007-1.616,269.132-13.564c119.21-12.177,265.768-35.059,432.346-77.805 c168.119-43.172,355.178-106.247,548.469-196.571c95.792-44.781,192.403-95.948,287.686-154.064 c93.876-57.273,185.936-120.973,273.645-191.333c85.62-68.703,166.582-143.354,239.951-223.726 c70.95-77.75,134.422-160.481,187.092-247.226c50.563-83.316,91.011-170.242,117.903-258.514 c25.8-84.774,39.071-171.33,37.329-255.537c-3.44-162.205-68.564-322.618-180.079-444.573 c-57.901-63.259-128.35-118.574-207.036-164.741c-81.61-47.853-172.346-86.216-268.534-115.555 c-99.591-30.355-204.808-51.042-312.818-63.205c-111.049-12.487-224.536-15.926-338.276-11.678 c-233.802,8.779-464.604,49.623-680.282,111.042c-217.254,61.918-415.546,143.763-588.554,234.039 c-170.322,88.917-314.417,185.171-431.295,277.809c-113.679,90.136-201.506,176.7-266.854,250.168 c-63.571,71.494-106.595,131.051-134.006,171.616c-26.955,39.899-39.568,61.936-39.568,61.936"/> <path fill="none" stroke="#ffffff" stroke-width="3" stroke-miterlimit="10" d="M1276.866,2288.264 c0,0,29.181,3.188,84.741,5.939c56.373,2.787,140.704,4.88,249.893-1.627c111.453-6.656,249.219-22.489,406.984-56.452 c159.892-34.45,339.111-87.307,526.265-165.853c185.614-77.944,375.839-179.774,553.587-309.02 c86.225-62.723,168.625-131.335,244.523-205.737c73.584-72.157,140.633-149.369,198.095-230.937 c55.24-78.448,101.399-160.72,135.192-245.068c32.378-80.878,53.354-163.975,60.149-245.868 c12.883-156.211-30.993-314.808-123.238-438.624c-47.462-63.637-107.614-120.409-176.323-168.543 c-71.186-49.838-151.938-90.905-238.507-123.364c-89.771-33.637-185.704-58.076-284.892-74.331 c-102.233-16.736-207.491-24.736-313.555-25.296c-108.415-0.557-217.109,6.656-324.362,20.265 c-108.717,13.809-215.402,34.12-318.733,59.544c-208.245,51.274-399.968,122.547-568.692,202.773 c-166.736,79.32-309.212,166.583-426.003,251.302c-113.918,82.666-203.189,162.699-270.44,230.962 c-65.53,66.536-110.798,122.25-139.895,160.286c-28.629,37.432-42.318,58.176-42.318,58.176"/> <path fill="none" stroke="#ffffff" stroke-width="3" stroke-miterlimit="10" d="M1204.75,2144.253c0,0,26.636,4.22,77.556,9.071 c51.732,4.924,129.353,10.295,230.441,8.441c103.458-1.912,232.02-11.594,380.287-37.74 c150.859-26.63,321.125-70.176,500.625-137.786c178.911-67.43,364.023-157.603,539.827-274.233 c85.641-56.839,168.21-119.449,245.271-187.822c74.909-66.484,144.159-138.029,204.968-214.136 c58.565-73.328,109.021-150.614,148.3-230.517c37.625-76.584,64.917-155.694,79.006-234.555 c13.547-75.97,14.78-152.514,2.44-225.221c-12.168-71.534-37.821-140.691-75.183-203.014 c-37.889-63.15-88.387-120.537-147.688-169.841c-61.304-50.938-132.475-93.892-209.742-128.674 c-80.204-36.081-167.008-63.489-257.441-83.083c-93.418-20.222-190.365-32.068-288.593-36.757 c-100.659-4.79-202.149-2.048-302.744,6.908c-102.218,9.114-202.983,24.596-300.974,45.112 c-198.148,41.52-382.081,102.941-545.214,173.68c-161.805,70.199-301.295,148.813-416.677,225.828 c-112.86,75.36-202.349,148.936-270.449,211.993c-66.473,61.569-113.129,113.384-143.327,148.836 c-29.733,34.913-44.178,54.32-44.178,54.32"/> <path fill="none" stroke="#ffffff" stroke-width="3" stroke-miterlimit="10" d="M1154.02,2004.233 c0,0,24.165,5.006,70.551,11.504c47.179,6.604,118.177,14.586,211.167,16.557c95.398,2.008,214.547-2.49,352.868-21.872 c141.246-19.817,301.689-55.089,472.268-112.763c170.805-57.789,349.041-137.07,520.659-241.638 c83.934-51.163,165.461-107.922,242.366-170.331c74.951-60.843,145.047-126.686,207.755-197.176 c60.52-68.056,113.839-140.129,157.127-215.187c41.486-71.971,73.646-146.671,93.655-221.873 c19.194-72.224,27.155-145.499,22.158-215.99c-4.906-68.86-22.418-136.248-51.579-197.732 c-29.362-61.848-71.025-118.995-121.639-168.664c-52.158-51.152-114.319-95.15-182.767-131.436 c-71.074-37.655-149.066-67.212-230.971-89.349c-84.77-22.894-173.477-37.818-263.854-45.902 C2560.955-5.907,2466.821-6.95,2373.108-2c-95.446,5.054-189.956,16.296-282.215,32.45 c-187.157,32.802-362.234,85.223-518.599,147.165c-155.638,61.687-290.859,132.108-403.579,201.743 c-110.551,68.32-199.071,135.601-266.992,193.533c-66.411,56.661-113.612,104.579-144.331,137.434 c-30.268,32.378-45.149,50.428-45.149,50.428"/> <path fill="none" stroke="#ffffff" stroke-width="3" stroke-miterlimit="10" d="M1123.563,1868.808 c0,0,21.801,5.552,63.825,13.254c42.783,7.836,107.345,17.772,192.373,22.749c87.412,5.103,197.114,4.813,325.243-8.878 c131.262-14.049,281.244-42.141,441.896-90.959c161.538-49.122,331.378-118.399,496.823-211.614 c81.212-45.776,160.587-96.919,236.119-153.529c73.794-55.324,143.453-115.524,206.682-180.352 c61.154-62.722,115.944-129.45,161.788-199.384c43.98-67.122,79.573-137.086,104.09-208.112 c23.483-68.091,36.771-137.556,37.879-205.138c1.054-65.636-9.536-130.509-31.514-190.399 c-21.975-59.813-55.742-115.894-98.49-165.15c-43.878-50.522-97.715-94.736-157.94-131.723 c-62.515-38.37-132.137-69.257-205.859-93.144c-76.419-24.742-157.077-41.966-239.708-52.698 c-85.054-11.032-171.795-15.149-258.515-13.534c-88.513,1.661-176.537,9.282-262.771,21.651 c-175.463,25.199-340.787,69.545-489.364,123.453c-148.37,53.864-278.161,116.626-387.069,179.274 c-107.08,61.62-193.52,122.832-260.294,175.776C869.493,602.884,810.463,673.111,810.463,673.111"/> <path fill="none" stroke="#ffffff" stroke-width="3" stroke-miterlimit="10" d="M1111.79,1738.456c0,0,19.567,5.873,57.44,14.362 c38.586,8.645,96.969,19.912,174.262,27.117c79.603,7.408,179.952,10.384,297.806,1.342 c121.079-9.311,260.165-31.313,410.122-72.368c151.344-41.467,311.519-101.681,469.085-184.345 c77.599-40.728,153.841-86.55,226.911-137.592c71.55-49.995,139.604-104.682,202.087-163.891 c60.558-57.404,115.521-118.735,162.546-183.369c45.171-62.112,82.832-127.104,110.478-193.547 c26.46-63.642,43.709-128.863,49.665-192.932c5.738-61.949,0.823-123.66-15.032-181.257 c-31.504-114.195-110.366-216.618-213.835-289.189c-54.615-38.271-116.387-69.703-182.354-94.575 c-68.459-25.794-141.351-44.559-216.427-57.209c-77.423-13.032-156.828-19.523-236.532-20.577 c-81.513-1.067-162.91,3.555-242.916,12.72c-163.244,18.73-318.081,55.948-458.002,102.614 c-140.146,46.77-263.478,102.442-367.546,158.538c-102.555,55.302-185.902,110.713-250.646,158.844 c-125.614,93.42-184.185,157.978-184.185,157.978"/> <path fill="none" stroke="#ffffff" stroke-width="3" stroke-miterlimit="10" d="M1116.866,1613.496 c0,0,17.471,5.989,51.424,14.888c34.612,9.068,87.107,21.094,156.948,29.813c72.034,8.981,163.212,14.346,270.827,8.981 c110.83-5.547,238.746-22.498,377.442-56.843c140.431-34.805,289.908-86.9,438.163-159.843 c145.537-71.648,286.728-161.79,409.508-270.552c58.852-52.157,112.808-108.102,159.758-167.342 c45.161-57.008,83.629-116.864,113.108-178.416c28.21-58.944,48.139-119.579,57.719-179.629 c9.214-57.874,8.764-115.886-2.021-170.561c-21.258-107.449-86.62-206.352-176.666-277.493 c-47.415-37.426-101.898-68.669-160.581-93.813c-60.948-26.098-126.409-45.689-194.183-59.568 c-70.006-14.324-142.195-22.52-214.929-25.608c-74.517-3.153-149.217-0.934-222.864,5.589 c-150.647,13.371-294.408,44.388-424.949,84.593c-261.701,80.68-458.986,194.665-583.765,282.339 c-120.375,84.625-177.425,143.594-177.425,143.594"/> <path fill="none" stroke="#ffffff" stroke-width="3" stroke-miterlimit="10" d="M1136.878,1494.096 c0,0,63.026,27.045,186.238,45.912c64.735,9.896,146.973,16.861,244.46,14.291c100.604-2.671,217.199-15.528,344.229-44.14 c128.974-29.077,266.927-73.952,404.688-137.984c135.69-63.108,268.27-143.4,385.141-241.187 c56.168-47.018,108.075-97.63,153.829-151.446c44.073-51.858,82.216-106.473,112.348-162.911 c28.844-54.056,50.283-109.839,62.345-165.457c11.581-53.481,14.465-107.35,7.742-158.556 c-13.171-99.879-66.803-193.801-144.726-262.266c-40.916-35.915-88.676-66.302-140.555-91.07 c-53.909-25.722-112.3-45.482-173.052-59.959c-62.84-14.963-127.975-24.245-193.829-28.779 c-67.576-4.642-135.56-4.266-202.77,0.139c-137.792,9.056-270.006,34.749-390.568,69.232 c-242.561,69.45-427.171,171.135-544.774,249.851c-113.722,76.159-168.311,129.636-168.311,129.636"/> <path fill="none" stroke="#ffffff" stroke-width="3" stroke-miterlimit="10" d="M1169.934,1380.285 c0,0,55.56,25.892,165.251,45.381c57.709,10.238,131.254,18.11,218.761,17.563c90.456-0.583,195.66-10.194,310.74-33.945 c117.111-24.195,242.888-62.67,369.198-118.545c124.765-55.225,247.39-126.207,356.669-213.367 c52.641-42.006,101.597-87.364,145.185-135.763c42.041-46.699,78.865-96.011,108.607-147.176 c28.484-49.026,50.4-99.752,63.912-150.608c12.957-48.827,18.155-98.198,14.561-145.47 c-7.018-91.64-50.622-179.32-117.64-243.994c-35.084-33.824-76.666-62.761-122.206-86.578 c-47.333-24.741-99.013-44.083-153.031-58.594c-55.938-15.015-114.197-24.827-173.286-30.276 c-60.717-5.59-121.999-6.552-182.733-3.791c-124.761,5.696-245.056,26.862-355.145,56.298 c-222.181,59.476-392.638,149.581-501.856,219.734c-105.828,68.011-157.135,116.096-157.135,116.096"/> <path fill="none" stroke="#ffffff" stroke-width="3" stroke-miterlimit="10" d="M1265.884,357.155c0,0-33.547-0.664-83.29,18.483 c-23.957,9.233-51.562,24.028-77.618,47.559c-26.417,23.877-51.893,57.9-71.155,101.549 c-20.569,46.661-34.756,105.445-40.498,173.669c-3.049,36.324-3.797,75.415-2.222,116.93 c1.644,43.203,5.797,88.991,12.39,137.032c6.841,49.82,16.289,101.961,28.212,156.092 c12.316,55.897,27.238,113.775,44.584,173.293c17.837,61.187,38.187,123.94,60.827,187.91 c23.177,65.475,48.69,132.045,76.281,199.35c56.756,138.425,121.834,278.84,192.797,418.332 c72.634,142.748,150.75,283.186,231.557,418.573c163.906,274.555,335.33,522.063,490.348,726.371 c152.948,201.539,287.751,358.386,382.521,463.565c92.775,102.952,147.58,158.086,147.58,158.086"/> <path fill="none" stroke="#ffffff" stroke-width="3" stroke-miterlimit="10" d="M1340.069,302.525 c0,0-26.464-2.684-63.873,13.195c-18.083,7.688-38.745,20.965-56.857,42.254c-19.021,22.38-35.931,54.785-47.05,95.953 c-5.992,22.211-10.477,47.129-13.298,74.503c-2.967,28.835-4.101,60.419-3.366,94.513c0.776,35.806,3.607,74.325,8.455,115.323 c5.07,42.846,12.328,88.285,21.686,136.072c9.73,49.668,21.699,101.717,35.78,155.88 c14.559,55.989,31.329,114.055,50.149,173.905c19.357,61.547,40.821,124.784,64.2,189.389 c23.929,66.117,49.79,133.468,77.363,201.708c56.681,140.263,120.1,283.088,188.164,425.565 c69.569,145.607,143.315,289.434,218.85,428.634c152.822,281.58,309.615,537.752,450.099,750.631 c138.058,209.166,258.444,373.771,342.706,484.506c82.21,108.026,130.542,166.561,130.542,166.561"/> <path fill="none" stroke="#ffffff" stroke-width="3" stroke-miterlimit="10" d="M1427.746,248.173c0,0-19.298-4.004-43.565,9.432 c-12.042,6.68-25.289,19.257-35.281,38.653c-11.216,21.8-19.137,53.004-22.215,92.463c-1.7,21.852-1.995,46.265-0.859,73.121 c1.21,28.546,4.028,59.764,8.434,93.535c4.652,35.631,11.053,73.964,19.152,114.858c8.485,42.829,18.798,88.293,30.86,136.212 c12.55,49.845,26.943,102.153,43.073,156.698c16.677,56.387,35.15,114.959,55.283,175.447 c20.699,62.183,43.082,126.179,66.985,191.68c24.452,66.997,50.417,135.357,77.709,204.741 c56.045,142.468,117.187,288.013,181.664,433.69c65.795,148.638,134.414,295.945,203.869,438.961 c140.142,288.534,280.592,552.979,404.849,773.882c121.629,216.203,226.101,387.867,298.765,503.619 c70.657,112.546,111.848,174.116,111.848,174.116"/> <path fill="none" stroke="#ffffff" stroke-width="3" stroke-miterlimit="10" d="M1531.325,194.814c0,0-12.368-3.845-22.56,7.243 c-5.921,6.458-10.921,18.848-13.129,36.801c-2.698,22.004-1.76,52.338,3.021,91.12c2.691,21.804,6.571,46.101,11.639,72.892 c5.408,28.582,12.137,59.837,20.167,93.724c8.484,35.794,18.375,74.338,29.637,115.541 c11.795,43.152,25.037,89.019,39.663,137.452c15.207,50.352,31.846,103.267,49.831,158.537 c18.578,57.093,38.521,116.482,59.716,177.909c21.771,63.092,44.786,128.115,68.911,194.762 c24.654,68.107,50.389,137.695,77.046,208.421c54.665,145.025,112.735,293.573,172.762,442.63 c61.141,151.815,123.711,302.658,186.118,449.45c125.575,295.356,247.706,567.595,353.828,795.867 c52.137,112.141,100.098,213.051,142.5,300.873c41.715,86.395,78.056,160.148,107.78,219.79 c58.043,116.459,91.378,180.647,91.378,180.647"/> <path fill="none" stroke="#ffffff" stroke-width="3" stroke-miterlimit="10" d="M1653.271,143.571c0,0-0.458-0.775-1.117-0.579 c-0.624,0.189-0.765,2.551,0.058,7.229c1.259,7.146,4.262,18.962,9.353,36.71c6.398,22.3,15.742,52.651,28.315,91.922 c7.056,22.038,15.05,46.627,23.992,73.807c9.521,28.937,20.059,60.631,31.608,95.062c12.173,36.292,25.404,75.436,39.665,117.348 c14.907,43.81,30.87,90.445,47.836,139.757c17.609,51.18,36.228,105.034,55.781,161.355 c20.168,58.091,41.256,118.591,63.167,181.236c45.49,130.05,94.071,268.025,144.774,411.253 c52.354,147.889,106.365,299.669,160.889,452.221c55.429,155.082,110.849,309.455,165.07,459.912 c108.811,301.939,210.365,581.354,296.215,816.176c42.071,115.073,80.139,218.81,113.393,309.185 c32.661,88.764,60.694,164.682,83.422,226.11c44.289,119.702,69.007,186.017,69.007,186.017"/> <path fill="none" stroke="#ffffff" stroke-width="3" stroke-miterlimit="10" d="M1795.857,96.08c0,0,8.392-2.47,20.724,7.65 c8.476,6.965,19.218,19.432,31.904,38.359c15.153,22.615,32.925,54.026,53.316,94.817c11.279,22.568,23.279,47.839,35.991,75.824 c13.45,29.613,27.634,62.127,42.527,97.497c15.629,37.12,31.973,77.225,48.991,120.212 c17.73,44.789,36.122,92.528,55.119,143.052c19.666,52.306,39.907,107.402,60.651,165.063 c21.353,59.355,43.167,121.225,65.355,185.327c45.95,132.757,93.072,273.823,140.567,420.392 c48.923,150.982,97.698,306.129,145.479,462.186c48.48,158.351,95.476,316.145,140.206,470.042 c89.544,308.108,167.988,593.873,231.227,834.191c30.926,117.531,58.071,223.575,81.244,315.989 c22.732,90.656,41.66,168.257,56.732,231.052c29.324,122.184,44.634,190.043,44.634,190.043"/> <path fill="none" stroke="#ffffff" stroke-width="3" stroke-miterlimit="10" d="M1960.793,54.585c0,0,16.483-2.863,42.56,10.211 c14.968,7.515,33.61,20.889,54.259,41.691c23.306,23.491,49.521,56.589,77.669,99.702c15.283,23.414,31.122,49.713,47.432,78.87 c17.12,30.608,34.713,64.281,52.705,100.938c18.775,38.257,37.927,79.646,57.381,124.029 c20.186,46.058,40.633,95.194,61.264,147.211c21.293,53.691,42.715,110.283,64.186,169.52 c22.049,60.838,44.083,124.283,66.018,190.025c45.302,135.794,89.791,280.205,132.813,430.239 c44.205,154.181,86.399,312.691,126.031,472.111c40.14,161.484,77.285,322.443,111.083,479.395 c33.814,157.049,64.021,308.92,90.538,452.393c26.266,142.14,48.765,275.27,67.708,396.65 c18.631,119.398,33.772,227.106,45.897,320.922c11.885,91.974,20.888,170.68,27.629,234.336 c13.103,123.787,18.221,192.485,18.221,192.485"/> <path fill="none" stroke="#ffffff" stroke-width="3" stroke-miterlimit="10" d="M2148.708,22.017c0,0,24.541-1.915,64.212,14.273 c21.333,8.716,47.55,23.491,76.152,46.612c31.002,25.074,65.376,60.359,101.042,106.413 c38.831,50.16,79.319,113.079,120.076,188.086c21.548,39.665,43.136,82.605,64.633,128.641 c22.208,47.566,44.268,98.33,66.067,152.055c22.425,55.275,44.518,113.547,66.179,174.523 c22.189,62.471,43.868,127.62,64.95,195.105c43.419,139.011,83.966,286.849,121.118,440.28 c38.082,157.313,72.23,318.99,102.202,481.419c30.308,164.295,56.083,327.958,77.432,487.359 c21.335,159.357,38.092,313.33,50.761,458.601c12.539,143.851,21.003,278.434,26.262,400.968 c5.168,120.517,7.226,229.083,7.355,323.515c0.122,92.594-1.597,171.699-3.835,235.609 c-4.361,124.347-10.148,193.044-10.148,193.044"/> <path fill="none" stroke="#ffffff" stroke-width="3" stroke-miterlimit="10" d="M2358.446,1.992c0,0,32.559-0.204,85.44,19.743 c27.546,10.402,61.023,27.127,97.333,52.981c38.295,27.283,80.372,65.237,123.148,114.722 c45.643,52.825,92.411,119.037,138.048,197.819c48.525,83.8,95.687,181.523,140.012,291.177 c46.599,115.32,89.753,242.97,128.569,380.064c40.25,142.208,75.495,293.329,105.341,449.84 c30.526,160.148,55.138,324.544,73.936,489.356c18.983,166.535,31.879,332.177,39.3,493.147 c7.406,160.873,9.293,316.017,6.78,462.046c-2.498,144.635-9.304,279.643-18.837,402.261 c-9.39,120.686-21.399,229.108-34.104,323.194c-12.477,92.355-25.622,171.011-37.394,234.445 c-22.955,123.65-40.204,191.37-40.204,191.37"/> <path fill="none" stroke="#ffffff" stroke-width="3" stroke-miterlimit="10" d="M2586.237-1.33c0,0,40.412,2.087,106.013,26.486 c33.537,12.486,73.942,31.64,117.59,60.61c45.168,29.994,94.423,71.044,143.793,124.329 c51.793,55.925,104.157,125.748,153.927,208.574c52.326,87.118,101.865,188.602,146.568,302.11 c46.69,118.604,87.929,249.744,122.642,390.139c35.865,145.13,64.53,299.111,85.74,458.079 c21.651,162.397,35.368,328.758,41.64,495.002c6.32,167.902,5.002,334.48-2.77,495.816 c-15.553,322.017-56.996,617.333-107.65,861.567c-24.833,119.669-51.66,226.726-77.804,319.32 c-25.722,91.074-50.791,168.273-72.474,230.384c-42.407,121.438-71.417,187.092-71.417,187.092"/> <path fill="none" stroke="#ffffff" stroke-width="3" stroke-miterlimit="10" d="M2824.833,16.347 c0,0,47.989,4.855,125.728,34.328c78.843,29.924,190.668,91.387,299.711,204.123c57.32,59.302,114.627,132.89,167.839,219.833 c55.356,90.488,106.49,195.661,150.718,312.819c45.898,121.646,84.308,255.901,113.946,399.026 c30.517,147.479,51.6,303.582,63.164,464.053c11.779,163.736,13.593,330.965,6.381,497.344 c-7.302,168.06-23.759,334.187-47.544,494.354c-47.606,320.242-124.258,611.231-207.118,849.614 c-80.972,232.822-166.922,413.905-230.67,534.275c-62.217,117.444-102.927,179.879-102.927,179.879"/> <path fill="none" stroke="#ffffff" stroke-width="3" stroke-miterlimit="10" d="M3062.867,58.679 c0,0,55.202,8.012,144.428,43.044c89.406,35.136,214.751,102.947,335.569,224.541c62.338,62.782,124.077,140.103,180.237,231.025 c57.84,93.688,110.061,202.238,153.29,322.585c44.578,124.177,79.653,260.888,103.708,405.882 c24.686,148.951,37.715,306.126,39.207,466.829c1.498,163.843-8.973,330.519-29.948,495.423 c-21.224,166.689-53.05,330.667-92.939,487.849c-80.036,315.149-191.844,597.97-306.295,827.029 c-112.52,225.085-226.332,397.002-309.52,510.63c-81.634,111.475-133.534,169.543-133.534,169.543"/> <path fill="none" stroke="#ffffff" stroke-width="3" stroke-miterlimit="10" d="M3284.848,127.46 c0,0,61.977,11.462,162.005,52.36c99.355,40.656,237.349,115.161,369.38,245.415c67.048,66.191,132.971,147.025,191.935,241.594 c60.143,96.51,113.393,207.902,155.641,330.765c43.281,125.956,75.158,264.228,93.841,410.008 c19.104,149.294,24.415,306.256,16.277,465.706c-8.319,162.475-30.524,326.959-64.571,488.596 c-34.481,163.575-80.912,323.522-135.99,475.774c-110.893,306.35-255.806,576.959-399.521,793.247 c-142.239,213.967-281.737,373.796-382.773,478.751c-99.684,103.521-161.747,156.172-161.747,156.172"/> <path fill="none" stroke="#ffffff" stroke-width="3" stroke-miterlimit="10" d="M3472.319,221.058 c0,0,68.246,15.087,178.375,61.941c108.717,46.287,258.642,127.555,401.804,265.951 c71.724,69.384,141.935,153.355,204.035,251.088c62.747,98.804,117.562,212.346,159.56,336.942 c42.722,126.84,72.38,265.656,86.83,411.078c14.713,148.394,13.682,303.794-2.546,460.502 c-16.556,159.575-48.773,320.23-94.009,476.868c-45.869,158.729-104.916,312.836-173.068,458.345 c-137.754,293.944-311.38,548.662-480.13,749.207c-168.162,199.753-329.62,345.054-445.894,439.74 c-115.291,93.859-185.957,140.271-185.957,140.271"/> <path fill="none" stroke="#ffffff" stroke-width="3" stroke-miterlimit="10" d="M3606.617,332.918 c0,0,73.937,18.73,193.436,71.367c117.515,51.796,278.802,139.621,433.507,285.351 c152.934,144.187,298.521,350.307,384.675,600.307c43.66,126.848,72.987,265.259,85.347,409.356 c12.519,146.364,7.647,299.059-13.974,451.842c-22.021,155.376-61.284,310.902-114.591,461.226 c-54.112,152.504-122.519,299.403-200.417,436.851c-158.082,278.767-353.738,515.038-541.492,697.93 c-188.355,183.388-366.65,312.683-494.621,396.164c-127.47,83.127-204.711,122.866-204.711,122.866"/> <path fill="none" stroke="#ffffff" stroke-width="3" stroke-miterlimit="10" d="M3673.212,450.939 c0,0,78.96,22.167,207.013,80.071c125.719,56.88,297.866,150.729,464.837,302.704 c163.189,148.656,319.853,357.402,413.233,609.409c46.705,126.194,78.338,263.524,91.596,405.764 c13.345,143.587,8.084,292.938-15.271,441.261c-23.727,150.451-66.028,300.259-123.298,443.762 c-58.16,145.644-131.645,284.823-215.021,413.79c-169.8,262.494-379.095,479.698-578.543,644.707 c-201.376,166.517-390.448,279.792-525.963,352.124c-135.556,72.329-217.059,105.521-217.059,105.521"/> <path fill="none" stroke="#ffffff" stroke-width="3" stroke-miterlimit="10" d="M3666.577,558.734 c0,0,83.219,25.071,218.874,87.256c133.22,61.1,315.667,159.951,495.588,316.724 c174.569,152.225,344.551,362.306,450.095,615.674c103.838,249.642,143.105,545.475,101.401,832.558 c-42.678,292.713-167.155,579.266-334.262,819.978c-171.935,247.457-385.875,447.522-589.366,596.572 c-206.705,151.319-400.341,250.396-539.148,312.888c-139.411,62.739-222.858,90.206-222.858,90.206"/> <path fill="none" stroke="#ffffff" stroke-width="3" stroke-miterlimit="10" d="M3593.519,639.363 c0,0,86.66,26.993,228.843,91.839c139.883,63.827,331.91,165.889,525.067,325.433c94.233,77.876,188.003,169.152,273.525,273.845 c83.963,102.829,159.919,218.779,220.497,344.885c118.366,246.649,174.402,538.687,145.066,820.983 c-29.689,284.152-144.427,562.373-304.712,791.853c-165.065,236.103-375.464,423.642-576.192,560.911 c-204.999,140.103-397.76,228.729-536.151,284.005c-139.518,55.702-222.929,78.988-222.929,78.988"/> <path fill="none" stroke="#ffffff" stroke-width="3" stroke-miterlimit="10" d="M3472.711,680.775 c0,0,89.337,27.425,236.979,92.561c145.643,64.284,346.386,166.722,552.485,326.157 c100.585,77.85,201.584,168.894,295.359,273.379c91.868,102.402,176.595,217.682,246.663,343.383 c68.618,123.171,123.174,256.726,158.025,395.121c34.303,136.377,49.557,278.352,44.044,418.339 c-11.089,278.495-108.843,553.3-256.111,777.565c-151.354,230.248-352.104,411.954-545.191,543.409 c-198.007,134.716-386.054,218.217-521.414,269.989c-136.905,52.337-218.926,73.601-218.926,73.601"/> <path fill="none" stroke="#ffffff" stroke-width="3" stroke-miterlimit="10" d="M3330.008,680.559 c0,0,91.406,25.948,243.604,88.379c150.548,61.781,359.061,160.741,577.236,316.261 c106.663,76.068,214.702,165.234,316.644,267.999c99.844,100.688,193.515,214.26,273.467,338.734 c78.104,121.659,143.02,253.898,188.645,391.746c44.689,135.146,70.905,276.409,76.028,416.439 c9.976,275.988-66.904,552.063-197.919,777.498c-134.065,230.414-321.849,413.677-504.911,546.026 c-188.137,135.925-369.619,220.384-500.698,272.891c-132.878,53.202-212.91,74.917-212.91,74.917"/> <path fill="none" stroke="#ffffff" stroke-width="3" stroke-miterlimit="10" d="M3192.092,646.948 c0,0,93.012,22.501,249.015,79.122c154.612,56.143,369.768,147.398,598.511,294.803 c112.033,72.231,226.365,157.529,335.638,256.707c107.099,97.241,208.95,207.603,297.992,329.532 c86.951,119.121,161.531,249.331,217.34,386.149c54.562,133.862,91.216,274.64,106.686,415.287 c30.209,275.769-25.918,556.218-140.519,787.812c-116.764,235.656-291.091,426.725-464.101,565.963 c-177.84,143.025-352.692,234.057-479.479,291.241c-128.651,57.999-206.743,82.506-206.743,82.506"/> <path fill="none" stroke="#ffffff" stroke-width="3" stroke-miterlimit="10" d="M3082.283,594.792 c0,0,94.125,17.625,253.007,66.18c157.557,48.177,377.635,128.495,614.389,264.542 c116.065,66.729,235.176,146.503,350.025,240.508c112.649,92.239,220.803,197.979,316.839,316.04 c93.852,115.429,175.975,242.68,239.758,377.608c62.394,132.077,107.298,272.06,131.059,413.114 c46.456,276.51,7.087,562.4-93.785,802.554c-102.608,243.932-265.463,446.374-430.161,596.363 c-169.119,153.909-338.478,255.315-461.771,319.895c-125.068,65.482-201.643,94.442-201.643,94.442"/> <path fill="none" stroke="#ffffff" stroke-width="3" stroke-miterlimit="10" d="M3019.086,538.491 c0,0,94.501,12.503,254.771,52.65c158.789,39.803,381.058,108.564,621.771,232.7c117.966,60.869,239.419,134.761,357.036,223.226 c115.409,86.839,226.782,187.591,326.395,301.358c97.474,111.375,183.595,235.348,251.628,367.919 c66.702,130.063,116.138,269.01,144.554,410.048c55.804,277.589,26.07,568.483-66.222,817.081 c-94.047,252.933-249.398,467.142-408.735,628.817c-163.392,165.679-329.081,278.509-450.088,351.283 c-122.603,73.706-198.203,107.647-198.203,107.647"/> <path fill="none" stroke="#ffffff" stroke-width="3" stroke-miterlimit="10" d="M3007.027,482.274 c0,0,93.889,8.084,253.519,41.062c157.824,32.632,378.84,91.49,618.486,205.605c117.292,55.886,238.148,124.809,355.184,208.608 c114.865,82.279,225.812,178.873,325.013,289.008c97.256,108.027,183.25,229.352,251.247,359.899 c66.923,128.569,116.622,266.809,145.544,407.825c57.211,279.545,29.203,574.9-60.37,831.082 c-91.633,261.67-243.886,486.59-400.965,659.27c-160.828,176.688-324.631,300.292-444.473,380.828 c-121.205,81.423-196.264,120.103-196.264,120.103"/> <path fill="none" stroke="#ffffff" stroke-width="3" stroke-miterlimit="10" d="M2979.254,413.137 c0,0,92.313,2.548,249.823,26.486c155.323,23.633,373.041,70.063,609.571,171.503c115.614,49.617,234.904,112.273,350.45,190.152 c113.481,76.521,223.264,167.841,321.446,273.311c96.545,103.763,182.055,221.658,249.88,349.516 c67.104,126.582,117.207,263.764,147.049,404.591c59.556,281.625,35.188,582.132-49.201,847.589 c-86.667,272.194-232.784,510.327-384.896,696.673c-155.422,190.285-314.855,327.349-431.797,417.608 c-118.014,91.057-191.538,135.709-191.538,135.709"/> <path fill="none" stroke="#ffffff" stroke-width="3" stroke-miterlimit="10" d="M2873.695,352.075 c0,0,90.444-4.706,245.934,7.056c153.034,11.604,368.227,41.27,604.272,124.935c115.282,40.895,234.789,94.663,351.205,163.986 c114.424,68.17,225.898,151.573,326.496,249.915c197.001,192.729,351.235,450.029,422.471,728.046 c71.605,280.104,61.677,584.179-7.982,858.446c-71.725,281.889-202.875,533.918-342.736,734.907 c-142.697,204.94-292.135,356.941-402.355,458.104c-111.061,101.903-181.029,153.365-181.029,153.365"/> <path fill="none" stroke="#ffffff" stroke-width="3" stroke-miterlimit="10" d="M2715.219,326.991 c0,0,89.108-12.253,243.855-13.526c152.178-1.224,367.125,10.337,606.641,74.012c116.901,31.111,238.923,74.701,358.978,134.038 c117.992,58.35,234.17,132.137,340.611,221.662c208.623,175.605,379.435,419.201,469.646,689.754 c45.368,136.25,71.943,279.936,80.269,423.647c8.391,145.466-1.728,291.533-26.452,432.025 c-50.598,286.975-161.979,548.962-285.689,761.055c-126.223,216.259-262.942,380.413-364.605,490.614 c-102.411,110.977-167.885,168.246-167.885,168.246"/> <path fill="none" stroke="#ffffff" stroke-width="3" stroke-miterlimit="10" d="M2538.707,343.409 c0,0,88.935-18.813,244.933-31.744c153.522-12.698,371.384-17.525,618.492,27.231c120.597,21.875,247.38,55.666,373.57,105.194 c123.917,48.667,247.298,112.691,362.265,193.105c224.729,157.315,417.404,384.667,530.781,645.404 c56.858,130.907,95.407,270.716,115.47,411.916c20.249,142.773,21.849,287.615,8.225,427.966 c-27.921,286.65-119.346,553.155-227.064,771.02c-110.051,222.42-234.75,393.935-328.38,509.775 c-94.41,116.769-155.775,177.831-155.775,177.831"/> <path fill="none" stroke="#ffffff" stroke-width="3" stroke-miterlimit="10" d="M2364.816,390.451 c0,0,90.024-23.334,249.17-44.563c157.04-20.92,380.926-37.623,638.918-7.39c126.11,14.81,259.507,40.956,393.731,82.619 c131.75,40.925,264.182,96.908,389.559,169.642c123.129,71.469,239.703,159.436,342.099,261.929 c101.133,101.284,188.96,217.444,258.22,342.827c138.012,250.097,200.554,542.191,194.682,817.342 c-6.15,282.044-79.662,548.345-173.613,766.87c-96.139,223.424-211.229,397.225-298.53,514.961 c-88.188,118.892-146.491,181.416-146.491,181.416"/> <path fill="none" stroke="#ffffff" stroke-width="3" stroke-miterlimit="10" d="M2203.378,449.973 c0,0,91.821-25.036,254.937-49.667c161.682-24.387,393.275-46.223,663.322-23.191c132.521,11.333,273.38,33.575,416.36,70.982 c140.504,36.788,282.746,88.253,419.208,156.465c133.797,66.918,262.036,150.101,376.985,248.328 c112.95,96.57,213.418,208.162,295.407,329.885c161.541,240.046,249.434,525.425,263.178,796.181 c13.825,275.053-44.016,537.981-126.645,753.184c-84.577,220.057-192.447,391.636-275.08,507.79 c-83.636,117.522-139.87,179.24-139.87,179.24"/> <path fill="none" stroke="#ffffff" stroke-width="3" stroke-miterlimit="10" d="M2061.985,504.365 c0,0,93.337-23.53,259.504-45.892c165.672-22.269,404.124-41.234,684.287-16.268c138.317,12.355,285.873,35.469,436.604,73.385 c148.565,37.398,299.721,89.138,446.189,157.289c143.687,66.893,282.563,149.569,409.018,247.226 c123.841,95.685,235.829,205.962,329.594,326.68c92.119,118.665,166.997,248.03,221.442,381.211 c53.908,131.971,88.165,268.598,103.906,402.263c31.407,267.591-12.472,525.433-85.624,734.633 c-74.67,213.286-176.794,378.988-255.723,490.586c-80.002,113.071-134.681,171.965-134.681,171.965"/> <path fill="none" stroke="#ffffff" stroke-width="3" stroke-miterlimit="10" d="M1949.231,542.287 c0,0,93.561-18.897,260.091-33.466c167.157-14.597,408.887-22.643,694.013,13.609c141.833,18.062,293.539,47.054,449.16,90.558 c154.073,43.097,311.362,100.307,464.834,173.355c150.958,71.886,297.65,158.912,432.76,260.299 c132.213,99.257,253.054,212.191,356.178,335.158c100.77,120.219,184.703,250.303,248.043,384.03 c62.141,131.286,104.737,266.807,127.997,399.171c45.77,261.077,14.476,512.976-50.405,714.524 c-65.74,203.931-162.531,360.929-237.919,465.559c-76.43,106.027-129.503,160.405-129.503,160.405"/> <path fill="none" stroke="#ffffff" stroke-width="3" stroke-miterlimit="10" d="M1872.132,561.196 c0,0,91.791-11.625,254.774-13.805c164.82-2.18,404.216,7.644,686.836,63.211c283.496,55.813,607.184,158.35,920.528,323.993 c154.028,81.473,304.195,177.316,443.619,286.451c136.616,106.979,262.311,226.342,371.074,354.657 c105.967,125.072,195.627,258.53,265.087,394.796c67.616,132.728,116.174,268.507,145.172,400.511 c28.37,129.309,38.168,255.844,32.791,373.296c-5.351,116.227-25.47,224.513-54.124,320.825 c-57.348,192.522-148.351,338.648-219.711,434.397C4645.948,3596.396,4595,3644.912,4595,3644.912"/> <path fill="none" stroke="#ffffff" stroke-width="3" stroke-miterlimit="10" d="M1832.317,566.14 c0,0,87.764-2.426,242.869,10.983c158.151,13.697,388.726,46.507,660.517,127.074c275.963,81.877,591.386,213.176,898.44,403.916 c152.06,94.506,300.59,202.474,439.277,322.341c136.237,117.789,262.106,246.37,372.13,382.308 c107.076,132.347,198.611,271.129,270.908,411.308c69.955,135.712,121.753,272.687,154.465,404.865 c31.667,128.093,45.498,252.262,44.048,366.637c-1.447,111.785-17.436,215.182-42.349,306.182 c-49.161,179.311-133.28,312.867-199.67,398.255c-66.941,86.047-114.925,127.69-114.925,127.69"/> <path fill="none" stroke="#ffffff" stroke-width="3" stroke-miterlimit="10" d="M1824.723,566.129 c0,0,81.589,7.949,224.791,38.659c73.186,15.703,162.854,37.909,265.668,69.681c104.508,32.306,222.743,74.594,350.41,129.343 c260.378,111.713,557.931,275.665,848.804,494.974c145.118,109.459,287.04,231.318,420.148,363.469 c131.124,130.219,252.636,269.409,359.713,414.038c104.18,140.762,193.922,285.717,265.908,430.265 c69.327,139.276,121.826,277.66,156.381,409.924c33.119,126.884,49.682,248.332,51.447,359.203 c1.675,106.852-10.398,204.706-31.479,289.792c-40.8,164.409-116.473,284.078-176.663,358.011 c-60.285,74-104.299,108.089-104.299,108.089"/> <path fill="none" stroke="#ffffff" stroke-width="3" stroke-miterlimit="10" d="M1839.285,570.262 c0,0,73.588,18.839,201.657,67.231c65.957,24.931,146.816,58.31,239.385,102.408c94.668,45.109,201.783,101.573,317.393,170.966 c117.95,70.814,244.49,154.952,375,252.705c132.172,99.019,267.661,211.438,401.491,336.042 c134.004,124.793,265.24,260.775,388.868,405.335c122.071,142.773,235.556,292.559,336.331,445.715 c98.021,149.014,183.084,299.854,252.316,448.3c33.568,72.001,63.324,143.224,89.06,213.121 c25.131,68.274,46.394,135.198,63.704,200.22c16.867,63.382,29.966,124.926,39.353,184.091 c9.134,57.615,14.748,113,17.049,165.64c4.407,101.224-3.662,192.77-20.534,271.33c-16.219,75.418-40.715,139.868-67.793,192.162 c-26.531,51.204-55.777,91.652-82,122.435c-52.15,61.185-91.152,87.356-91.152,87.356"/> <path fill="none" stroke="#ffffff" stroke-width="3" stroke-miterlimit="10" d="M1864.058,585.146 c0,0,64.144,29.689,174.881,95.135c57.48,33.979,127.991,78.265,208.643,134.276c82.957,57.621,176.851,127.83,278.252,211.31 c104.005,85.638,215.655,185.039,331.043,297.671c117.363,114.58,237.839,242.108,357.265,380.709 c119.942,139.223,237.715,288.321,349.281,444.266c110.313,154.223,213.359,313.468,305.692,474.006 c89.737,156.063,168.343,311.618,233.383,462.774c31.445,73.098,59.597,144.88,84.271,214.879 c24.019,68.154,44.688,134.474,61.911,198.515c16.706,62.136,30.141,122.032,40.306,179.266 c9.831,55.384,16.591,108.238,20.393,158.168c3.668,48.248,4.573,93.79,2.954,136.266c-1.57,41.06-5.504,79.336-11.42,114.528 c-11.303,67.156-30.171,123.694-51.955,168.484c-20.954,43.05-44.896,76.233-66.552,100.7 c-42.576,48.066-75.595,66.27-75.595,66.27"/> <path fill="none" stroke="#ffffff" stroke-width="3" stroke-miterlimit="10" d="M1888.063,613.975 c0,0,53.633,40.028,145.876,121.258c48.207,42.458,107.417,96.907,175.232,163.926 c70.068,69.254,149.502,152.134,235.534,248.516c88.577,99.245,183.892,212.516,282.827,338.586 c100.902,128.594,204.848,269.573,308.498,420.516c104.257,151.849,207.16,312.234,305.437,477.792 c97.191,163.754,188.697,330.607,271.697,496.775c40.607,81.307,78.982,162.059,114.844,241.79 c35.151,78.16,67.773,155.091,97.642,230.356c29.13,73.413,55.549,145.013,79.094,214.406 c22.847,67.347,42.919,132.417,60.117,194.86c16.607,60.31,30.489,118.014,41.613,172.804 c10.692,52.684,18.811,102.569,24.396,149.387c5.346,44.852,8.357,86.842,9.155,125.732c0.758,37.17-0.51,71.523-3.585,102.851 c-5.754,58.521-18.102,106.911-33.772,144.179c-14.631,34.763-32.482,60.769-48.941,78.994 c-31.725,35.095-57.948,45.572-57.948,45.572"/> <path fill="none" stroke="#ffffff" stroke-width="3" stroke-miterlimit="10" d="M1902.975,656.821 c0,0,42.438,49.44,115.88,144.884c38.544,50.096,86.034,113.651,140.719,190.5c56.642,79.608,121.138,173.69,191.474,281.44 c72.543,111.142,151.052,236.445,233.213,374.104c83.87,140.535,170.894,292.845,258.526,454.062 c88.146,162.179,175.955,331.607,260.865,504.646c83.889,170.976,163.879,343.287,237.709,513.092 c36.059,82.943,70.46,164.854,102.971,245.289c31.814,78.719,61.706,155.741,89.486,230.668 c27.032,72.916,51.967,143.583,74.664,211.663c21.956,65.864,41.737,129.069,59.249,189.337 c16.837,57.955,31.516,112.99,43.986,164.893c11.915,49.601,21.772,96.176,29.564,139.571 c7.397,41.21,12.909,79.429,16.572,114.548c3.454,33.151,5.25,63.467,5.472,90.866c0.396,49.822-4.579,90.011-13.301,120.034 c-7.723,26.547-18.727,45.73-29.479,58.01c-19.85,22.638-38.661,25.912-38.661,25.912"/> <path fill="none" stroke="#ffffff" stroke-width="3" stroke-miterlimit="10" d="M1903.648,711.517 c0,0,30.972,57.622,85.881,165.613c28.842,56.726,64.625,128.163,106.344,213.545c43.22,88.459,92.903,192.087,147.824,309.522 c56.627,121.089,118.609,256.398,184.423,403.636c67.129,150.188,137.696,311.555,209.905,480.845 c72.537,170.068,145.913,346.212,218.223,524.542c71.301,175.853,140.616,351.486,206.186,522.985 c31.957,83.59,62.848,165.736,92.488,246.005c28.954,78.413,56.602,154.732,82.792,228.581 c25.427,71.701,49.377,140.788,71.732,206.955c21.562,63.825,41.551,124.67,59.882,182.31 c17.556,55.208,33.516,107.236,47.83,155.941c13.602,46.288,25.655,89.361,36.139,129.151 c9.875,37.486,18.308,71.873,25.304,103.157c6.523,29.176,11.759,55.495,15.731,79.004c3.659,21.665,6.221,40.815,7.719,57.525 c1.359,15.183,1.83,28.261,1.455,39.302c-0.638,18.624-3.921,31.436-8.592,38.352c-7.29,10.765-18.239,7.805-18.239,7.805"/> <path fill="none" stroke="#ffffff" stroke-width="3" stroke-miterlimit="10" d="M1887.828,774.622 c0,0,19.635,64.438,56.604,183.277c19.377,62.285,43.786,140.322,73.004,232.902c30.216,95.741,65.634,207.216,105.825,332.623 c41.359,129.046,87.606,272.328,137.994,427.145c51.286,157.574,106.43,325.777,164.353,501.01 c58.052,175.623,118.226,356.292,179.227,537.879c59.994,178.589,119.971,355.636,178.63,527.125 c28.523,83.386,56.573,164.985,84.006,244.36c26.751,77.401,52.809,152.378,78.05,224.563 c24.457,69.939,48.044,136.962,70.666,200.781c21.766,61.405,42.541,119.57,62.256,174.292 c18.824,52.248,36.592,101.105,53.264,146.456c15.78,42.923,30.493,82.475,44.131,118.62 c12.775,33.859,24.527,64.519,35.27,92.014c9.937,25.429,18.936,47.959,27.038,67.682c7.368,17.935,13.919,33.367,19.715,46.431 c5.144,11.592,9.615,21.146,13.5,28.813c6.054,11.945,10.133,18.789,13.255,20.496c3.281,1.779,2.834-8.377,2.834-8.377"/> <path fill="none" stroke="#ffffff" stroke-width="3" stroke-miterlimit="10" d="M1855.496,842.218 c0,0,8.728,69.906,28.539,197.869c10.341,66.784,23.918,150.16,41.284,248.614c17.905,101.496,39.871,219.173,66.26,350.891 c27.072,135.112,58.685,284.442,94.851,444.946c36.701,162.864,77.777,335.865,122.842,515.103 c45.034,179.099,93.53,362.368,144.77,545.45c50.248,179.519,102.447,356.411,155.721,526.517 c25.846,82.521,51.8,162.974,77.753,240.911c25.269,75.876,50.436,149.062,75.406,219.182 c24.154,67.825,48.022,132.493,71.523,193.708c22.575,58.796,44.711,114.144,66.35,165.828 c20.626,49.258,40.702,94.955,60.192,136.95c18.417,39.678,36.217,75.85,53.386,108.441 c16.064,30.489,31.486,57.677,46.271,81.534c13.677,22.065,26.729,41.154,39.163,57.255c21.655,28.03,41.387,46.731,58.333,55.83 c13.95,7.478,26.945,7.994,35.618,4.782c18.52-6.884,24.134-22.4,24.134-22.4"/> <path fill="none" stroke="#ffffff" stroke-width="3" stroke-miterlimit="10" d="M1808.151,910.462 c0,0-1.568,74.126,1.981,209.486c1.846,70.281,5.254,157.797,11.52,260.851c6.438,105.833,15.91,228.174,29.543,364.639 c13.938,139.456,32.164,293.08,55.434,457.555c23.536,166.301,52.028,342.312,85.766,523.868 c33.609,180.817,72.034,365.084,115.114,548.219c21.197,90.094,43.416,179.462,66.602,267.546 c22.808,86.637,46.472,171.722,70.924,254.73c23.919,81.192,48.504,160.093,73.677,236.233 c24.481,74.035,49.424,145.173,74.754,213.008c24.479,65.547,49.22,127.75,74.151,186.276 c23.934,56.177,47.946,108.739,71.969,157.423c22.9,46.403,45.718,89.097,68.388,127.88 c21.455,36.697,42.698,69.755,63.654,99.017c38.132,53.228,75.217,93.556,109.888,120.06 c30.276,23.125,59.547,35.726,84.037,38.977c22.982,3.036,43.101-1.722,58.104-8.57c31.814-14.547,45.316-34.136,45.316-34.136"/> <path fill="none" stroke="#ffffff" stroke-width="3" stroke-miterlimit="10" d="M1748.199,975.918 c0,0-11.174,77.218-22.915,218.285c-6.059,72.852-12.1,163.397-16.137,269.848c-4.124,108.883-6.137,234.484-4.173,374.266 c2.006,142.275,8.125,298.637,19.84,465.567c11.81,168.153,29.198,345.653,53.109,528.111 c23.746,181.106,53.652,365.097,90.092,547.166c17.893,89.375,37.274,177.852,58.141,264.843 c20.502,85.454,42.367,169.18,65.568,250.626c22.673,79.58,46.542,156.702,71.555,230.858 c24.308,72.055,49.611,141.054,75.838,206.548c25.343,63.275,51.462,123.057,78.27,178.961 c25.755,53.698,52.064,103.643,78.817,149.504c25.561,43.809,51.463,83.775,77.554,119.616 c24.814,34.078,49.77,64.376,74.642,90.659c45.943,48.527,92.135,83.411,135.129,103.965 c39.543,18.883,77.732,26.02,109.882,24.944c31.739-1.077,59.026-9.622,80.385-19.444c44.769-20.614,66.11-43.539,66.11-43.539"/> <path fill="none" stroke="#ffffff" stroke-width="3" stroke-miterlimit="10" d="M1678.491,1035.717 c0,0-20.072,79.294-46.093,224.453c-13.363,74.578-28.121,167.134-41.656,275.87c-13.782,110.779-26.275,238.381-34.916,380.193 c-17.581,289.012-18.475,632.79,12.547,998.191c15.327,180.272,38.125,363.012,69.28,543.191 c15.271,88.279,32.476,175.533,51.662,261.142c18.833,84.014,39.513,166.175,62.043,245.89 c22.006,77.843,45.707,153.106,71.065,225.234c24.644,70.082,50.779,136.991,78.326,200.222 c26.641,61.137,54.53,118.668,83.542,172.14c27.934,51.472,56.853,99.073,86.564,142.401 c28.51,41.566,57.729,79.159,87.369,112.438c28.4,31.878,57.225,59.827,86.05,83.595 c54.242,44.705,109.492,74.825,160.636,90.811c96.167,29.992,183.076,10.009,237.655-13.921 c57.337-25.171,86.306-50.618,86.306-50.618"/> <path fill="none" stroke="#ffffff" stroke-width="3" stroke-miterlimit="10" d="M1602.018,1087.616 c0,0-28.273,80.453-67.553,228.184c-20.078,75.534-42.836,169.178-65.082,279.184c-22.57,111.65-44.578,240.133-62.808,382.826 c-36.908,289.166-57.267,632.588-40.655,996.216c8.184,178.579,25.104,359.351,52.126,537.069 c13.227,86.939,28.813,172.771,46.845,256.836c17.691,82.448,37.684,162.962,60.005,240.901 c21.802,76.104,45.765,149.545,71.853,219.717c25.372,68.229,52.694,133.202,81.858,194.352 c28.257,59.233,58.194,114.771,89.616,166.095c30.36,49.576,62.088,95.18,94.871,136.354 c62.154,78.028,128.63,140.265,195.107,184.511c62.735,41.725,126.724,68.054,185.928,80.773 c115.308,24.704,217.16-0.733,283.731-27.813c69.423-28.271,105.736-55.422,105.736-55.422"/> <path fill="none" stroke="#ffffff" stroke-width="3" stroke-miterlimit="10" d="M1521.714,1129.994 c0,0-35.799,80.777-87.326,229.672c-52.718,152.391-121.004,378.775-174.511,662.587 c-54.125,287.365-91.714,628.509-87.403,988.838c2.138,176.241,14.216,354.541,38.046,529.427 c11.654,85.462,26.067,169.772,43.359,252.229c16.962,80.856,36.652,159.735,59.108,235.946 c21.944,74.452,46.484,146.198,73.566,214.568c26.377,66.573,55.125,129.839,86.084,189.167 c30.079,57.625,62.227,111.49,96.151,161.02c32.926,48.058,67.549,92.056,103.419,131.514 c68.7,75.539,142.796,134.728,216.699,175.906c71.137,39.604,143.464,63.283,210.568,73.92 c133.376,21.073,249.919-7.369,327.987-36.245c80.938-29.967,124.258-58.023,124.258-58.023"/> <path fill="none" stroke="#ffffff" stroke-width="3" stroke-miterlimit="10" d="M1440.326,1161.809 c0,0-42.673,80.342-105.449,229.102c-63.888,151.443-147.612,376.093-216.696,658.363 c-69.423,283.893-122.243,621.153-128.435,976.964c-2.984,173.43,5.103,348.913,26.482,520.752 c10.451,83.924,24.034,166.688,40.892,247.549c16.542,79.31,36.205,156.634,59.029,231.23 c22.328,72.95,47.648,143.181,75.876,209.965c27.552,65.166,57.856,126.998,90.682,184.812 c63.186,111.238,136.095,207.677,214.753,284.989c75.232,73.899,156.639,130.982,237.688,170.286 c79.218,38.383,159.443,60.583,234.165,70.231c150.249,19.333,281.001-10.014,369.969-39.371 c91.8-30.32,141.746-58.512,141.746-58.512"/> <path fill="none" stroke="#ffffff" stroke-width="3" stroke-miterlimit="10" d="M1360.349,1182.546 c0,0-48.911,79.213-121.954,226.645c-73.978,149.366-171.607,370.737-254.678,649.844 c-41.554,139.695-79.15,292.881-108.14,455.892c-28.71,161.555-48.757,331.691-56.271,505.438 c-7.339,170.273-2.554,342.714,16.935,511.402c18.903,163.364,51.535,322.093,98.647,469.83 c45.232,141.736,103.78,272.872,173.863,387.372c67.143,109.632,145.285,204.334,229.507,279.879 c81.541,73.093,169.8,129.06,257.624,167.621c86.812,38.084,174.433,59.932,256.368,69.615 c165.838,19.53,310.086-8.84,409.263-37.418c101.93-29.4,158.079-56.995,158.079-56.995"/> <path fill="none" stroke="#ffffff" stroke-width="3" stroke-miterlimit="10" d="M1283.964,1192.152 c0,0-54.525,77.453-136.86,222.465c-83.022,146.268-193.085,362.983-288.642,637.478 c-47.597,136.8-91.203,286.981-125.657,446.989c-34.043,158.204-58.9,325.049-70.221,495.533 c-11.053,166.861-9.019,336.117,8.991,501.623c17.485,160.399,49.981,316.473,98.176,461.491 c46.459,139.684,107.605,268.977,181.083,381.577c70.973,108.695,154.01,202.41,243.383,277.158 c173.268,144.778,376.419,218.43,552.99,239.708c180.048,21.607,336.879-4.065,445.489-30.677 c111.252-27.287,173.141-53.592,173.141-53.592"/> </g> </g> </g> </svg>