<?xml version="1.0" encoding="UTF-8"?>
<svg id="Layer_1" xmlns="http://www.w3.org/2000/svg" version="1.1" viewBox="0 0 400 125">
  <!-- Generator: Adobe Illustrator 29.2.1, SVG Export Plug-In . SVG Version: 2.1.0 Build 116)  -->
  <defs>
    <style>
      .st0 {
        stroke: #fff;
        stroke-width: .2px;
      }

      .st0, .st1, .st2 {
        stroke-miterlimit: 10;
      }

      .st0, .st2 {
        fill: none;
      }

      .st1 {
        fill: #f5f5f5;
      }

      .st1, .st2 {
        stroke: #1400f4;
      }

      .st3, .st4 {
        fill: #fff;
      }

      .st5, .st4 {
        isolation: isolate;
      }

      .st4 {
        font-family: MyriadPro-LightIt, 'Myriad Pro';
        font-size: 22.1px;
        font-style: italic;
        font-weight: 300;
        letter-spacing: 0em;
      }
    </style>
  </defs>
  <g>
    <path class="st0" d="M25,40.7s1.2.3,3.3.3,2.5,0,4.1-.3c1.7-.2,3.5-.6,5.5-1.3,2-.6,4.1-1.6,6.1-2.8,1.9-1.2,3.8-2.6,5.3-4.3.7-.8,1.4-1.7,1.9-2.5s.9-1.7,1.2-2.6c.5-1.7.4-3.4-.2-4.8s-1.9-2.7-3.5-3.5c-.8-.4-1.7-.8-2.7-1.1-1-.3-2-.4-3.1-.6-2.2-.2-4.5,0-6.7.3-2.2.4-4.3,1-6.2,1.7-1.9.7-3.5,1.6-4.8,2.4-1.3.8-2.4,1.6-3.2,2.3-1.6,1.3-2.2,2.2-2.2,2.2,0,0-.9.3-2.5,1-1.4.7-3.4,2-4.9,4.1-.8,1.1-1.4,2.3-1.9,3.8s-.8,3.2-.9,4.9c0,1.9.1,3.8.6,5.9.4,2.2,1.2,4.3,2.2,6.6,1,2.2,2.2,4.5,3.6,6.6,1.4,2.2,3,4.3,4.7,6.3,3.4,4,7.1,7.5,10.6,10.2,3.5,2.7,6.5,4.6,8.7,5.8s3.5,1.9,3.5,1.9c0,0,.5-.7,1.7-1.8,1.2-1.1,3.2-2.6,5.9-3.7,1.4-.6,3-1,4.7-1.2,1.7-.2,3.4-.3,5,0,1.6.2,3.2.8,4.5,1.6,1.2.8,2.2,1.9,2.7,3.1.5,1.2.6,2.7.3,4.1-.4,1.4-1.2,2.9-2.2,4.2-1.1,1.3-2.5,2.5-3.9,3.4-1.5.9-3,1.7-4.5,2.2-3,1-5.6,1.1-7.2,1s-2.5-.4-2.5-.4c0,0-.8.6-2.3,1.5-1.4.8-3.6,1.8-6.2,2.1-2.5.3-5.6-.2-8.3-1.9-1.4-.9-2.8-2.2-4-3.7-.6-.8-1.2-1.7-1.8-2.6-.6-.9-1.1-1.9-1.6-3s-.9-2.2-1.3-3.5c-.4-1.2-.7-2.5-1-3.8-.6-2.7-1-5.4-1.2-8.2-.2-2.9-.2-5.7,0-8.4.1-2.7.4-5.4.8-7.8.8-4.8,1.9-8.8,2.7-11.5.9-2.7,1.4-4.1,1.4-4.1h0c0-.1,0-.1,0-.1Z"/>
    <path class="st0" d="M39.4,94.5s.6.7,2.2,1.6,1.9.9,3.2,1.2,3,.6,4.9.6,4.1-.3,6.3-.9c2.3-.6,4.6-1.5,6.8-2.8,2.2-1.2,4.1-2.8,5.7-4.6.7-.9,1.4-1.8,1.9-2.7.5-.9.9-1.9,1.2-2.9.4-1.9.4-3.8-.3-5.3-.6-1.6-1.9-3-3.3-4-1.6-1.1-3.4-1.7-5.3-2.1-1.9-.4-4-.4-5.8-.3-3.8.3-6.9,1.4-9,2.4-2,.9-3.1,1.7-3.1,1.7"/>
    <path class="st0" d="M37.3,94.4s.6.9,2.3,1.8c.9.5,2,1.1,3.4,1.4,1.4.4,3.2.7,5.3.8,2.1,0,4.5-.1,7-.7s5.1-1.5,7.6-2.9c2.4-1.3,4.6-3,6.4-5,.9-.9,1.7-1.9,2.2-3,.6-1,1.1-2.1,1.4-3.1.6-2,.6-4.1,0-5.9-.6-1.8-1.9-3.4-3.4-4.5-1.7-1.2-3.6-2-5.6-2.5-2.1-.5-4.3-.6-6.3-.5-4.2.2-7.6,1.4-9.9,2.4-2.3,1-3.5,1.7-3.5,1.7"/>
    <path class="st0" d="M35.1,94s.6.9,2.4,2.1c.9.6,2.1,1.2,3.5,1.7,1.6.5,3.5.9,5.7,1.1,2.3.1,4.8,0,7.6-.6s5.6-1.5,8.4-2.9c2.7-1.4,5.2-3.1,7.3-5.2,1-1,1.9-2.1,2.7-3.2.7-1.1,1.3-2.2,1.7-3.4s.6-2.2.7-3.4c0-1.1,0-2.2-.4-3.2-.6-2-1.8-3.8-3.4-5.1-1.7-1.4-3.8-2.3-5.8-2.9-2.2-.6-4.5-.8-6.7-.7-4.5.1-8.3,1.3-10.8,2.2-2.5,1-3.8,1.8-3.8,1.8"/>
    <path class="st0" d="M32.8,93.4s.6,1.1,2.3,2.4c.9.6,2.1,1.4,3.7,2,1.6.6,3.6,1.2,5.9,1.4,2.5.2,5.2.2,8.1-.3,3-.5,6.1-1.4,9.2-2.8,3-1.4,5.8-3.2,8.1-5.4,1.2-1.1,2.2-2.2,3-3.4s1.6-2.4,2.1-3.7c.5-1.2.9-2.5,1-3.7.1-1.2,0-2.4-.1-3.5-.4-2.2-1.7-4.2-3.2-5.7-.9-.8-1.8-1.4-2.8-2s-2.2-1-3.2-1.4c-2.4-.7-4.8-1-7.1-1.1-4.8,0-8.9,1.1-11.7,2.1-2.7,1-4.2,1.8-4.2,1.8"/>
    <path class="st0" d="M30.4,92.6s.1.3.5.7c.4.5.9,1.2,1.7,1.9.9.8,2.1,1.7,3.7,2.4s1.7.7,2.7,1.1c1,.3,2.2.6,3.4.8,1.2.2,2.6.3,4,.3s3,0,4.5-.3c3.2-.4,6.6-1.3,10-2.7,3.3-1.4,6.4-3.2,9.2-5.6,1.3-1.1,2.5-2.3,3.5-3.6,1-1.2,1.9-2.5,2.5-3.9.6-1.3,1.1-2.7,1.4-4,.2-1.3.3-2.6.1-3.8-.3-2.4-1.4-4.6-3-6.3-.8-.9-1.8-1.7-2.8-2.3-1.1-.6-2.2-1.2-3.4-1.7-2.5-.9-5-1.3-7.4-1.4-2.5-.1-4.9,0-7,.4-2.2.4-4,.9-5.5,1.4-3,.9-4.6,1.8-4.6,1.8"/>
    <path class="st0" d="M27.9,91.4s.1.3.4.8c.4.5.9,1.3,1.7,2.2.9.9,2,1.9,3.6,2.7.8.4,1.7.9,2.8,1.3,1.1.4,2.2.7,3.5,1,1.3.3,2.7.4,4.3.5h4.8c3.5-.3,7.1-1.1,10.7-2.5s7.1-3.2,10.2-5.6c1.5-1.2,2.8-2.4,4-3.8,1.2-1.3,2.2-2.7,3-4.1.8-1.4,1.4-2.8,1.7-4.3.4-1.4.5-2.7.5-4.1,0-2.6-1.1-5-2.6-7-.8-1-1.7-1.9-2.7-2.6-1.1-.8-2.2-1.4-3.4-1.9-1.2-.5-2.5-.9-3.8-1.2-1.3-.3-2.6-.5-3.9-.6-2.7-.2-5.2-.1-7.4.1-2.3.3-4.3.7-5.8,1.2-3.2.9-5,1.7-5,1.7"/>
    <path class="st0" d="M25.4,90s.1.4.4.9c.3.6.8,1.4,1.5,2.5.8,1,1.9,2.1,3.5,3.2.8.5,1.7,1.1,2.8,1.5,1.1.5,2.3.9,3.6,1.2,1.4.4,2.8.6,4.4.8,1.6.1,3.3.2,5,.1,3.6-.1,7.6-.9,11.5-2.2s7.7-3.2,11.2-5.6c1.7-1.2,3.2-2.5,4.6-3.9s2.5-2.8,3.5-4.3c.9-1.4,1.7-3,2.2-4.5.5-1.4.8-3,.9-4.4.1-2.8-.7-5.5-2.2-7.6-1.5-2.2-3.7-3.9-6.1-5.1-1.2-.6-2.5-1.1-3.9-1.5-1.4-.4-2.7-.6-4-.9-2.7-.4-5.4-.4-7.8-.1s-4.5.6-6.3,1.1c-3.5.9-5.3,1.7-5.3,1.7"/>
    <path class="st0" d="M22.9,88.2s.3,1.5,1.7,3.7,1.8,2.4,3.4,3.5c.8.6,1.7,1.2,2.7,1.7,1.1.6,2.3,1.1,3.6,1.5,1.4.4,2.9.8,4.5,1.1,1.7.3,3.4.4,5.3.4s3.9-.1,5.9-.4,4.2-.7,6.3-1.4c4.3-1.2,8.4-3.1,12.2-5.6,1.9-1.2,3.6-2.5,5.2-4,1.5-1.4,2.9-2.9,4.1-4.5,1.2-1.5,2.1-3.1,2.7-4.8.6-1.6,1.1-3.2,1.3-4.8.2-1.5.1-3-.1-4.4-.3-1.4-.8-2.7-1.4-3.9-1.4-2.5-3.5-4.4-5.9-5.8-1.2-.7-2.6-1.3-3.9-1.8-1.4-.5-2.7-.8-4.2-1.1-2.9-.5-5.6-.6-8.1-.5-2.5.1-4.8.5-6.6.9-3.7.8-5.7,1.6-5.7,1.6"/>
    <path class="st0" d="M20.4,86s.1,1.6,1.4,4c.6,1.2,1.7,2.6,3.2,4,.8.7,1.7,1.4,2.7,2,1.1.6,2.2,1.2,3.6,1.8,1.4.5,2.9,1,4.5,1.3,1.7.4,3.5.6,5.4.6,1.9,0,4,0,6.2-.1,2.2-.2,4.4-.6,6.6-1.2,4.5-1.2,9.1-3,13.2-5.4,2-1.2,4-2.5,5.8-4,1.7-1.4,3.3-3,4.7-4.7,1.3-1.6,2.5-3.2,3.3-5,.9-1.7,1.4-3.3,1.8-5,.4-1.6.4-3.2.3-4.8s-.6-3-1.2-4.3c-1.2-2.7-3.2-4.8-5.6-6.4-1.2-.8-2.5-1.5-3.9-2.1-1.4-.6-2.8-1-4.3-1.3-3-.6-5.8-.9-8.4-.9s-5,.3-6.9.6c-3.9.6-6.1,1.4-6.1,1.4"/>
    <path class="st0" d="M18,83.7s0,1.7,1.2,4.3c.6,1.3,1.5,2.9,2.9,4.4.7.8,1.6,1.5,2.6,2.2,1,.7,2.2,1.4,3.6,2.1s2.9,1.2,4.6,1.6,3.6.8,5.6.9c2,.2,4.2.2,6.4,0,2.2-.1,4.6-.4,7-.9,4.8-1,9.7-2.7,14.2-5.2,2.2-1.2,4.3-2.6,6.3-4,1.9-1.4,3.7-3.1,5.3-4.8,1.5-1.7,2.8-3.4,3.8-5.2,1-1.7,1.8-3.5,2.2-5.3.5-1.7.7-3.5.6-5,0-1.6-.4-3.2-.9-4.6-1-2.9-3-5.3-5.3-7.1-1.2-.9-2.5-1.7-3.9-2.4-1.4-.6-2.8-1.2-4.3-1.6-3-.8-5.9-1.2-8.7-1.2-2.7,0-5.2.1-7.2.4-4.1.6-6.4,1.3-6.4,1.3"/>
    <path class="st0" d="M15.6,81.1s-.1,1.8.9,4.6c.5,1.4,1.3,3.1,2.7,4.8.7.9,1.5,1.7,2.5,2.5,1,.8,2.2,1.6,3.5,2.3s2.9,1.4,4.6,1.9,3.7.9,5.7,1.2c2.1.3,4.3.4,6.6.4s4.8-.3,7.3-.7c5-.9,10.2-2.5,15.1-5,2.4-1.2,4.7-2.6,6.9-4.1,2.1-1.5,4-3.1,5.8-4.9,1.7-1.7,3.2-3.5,4.4-5.4,1.2-1.8,2.1-3.7,2.7-5.6.6-1.8.9-3.6,1-5.3,0-1.7-.1-3.4-.6-4.9-.9-3-2.7-5.7-5-7.7-1.2-1-2.5-1.9-3.9-2.6s-2.9-1.4-4.3-1.8c-1.5-.5-3-.9-4.5-1.1-1.5-.3-3-.4-4.3-.5-2.8-.1-5.4,0-7.5.2-4.3.4-6.7,1.2-6.7,1.2"/>
    <path class="st0" d="M13.4,78.5v1.3c0,.9.1,2.1.6,3.5.4,1.5,1.2,3.2,2.5,5,.6.9,1.5,1.8,2.5,2.7,1,.9,2.2,1.7,3.5,2.5,1.4.8,3,1.5,4.6,2.1,1.7.6,3.7,1.1,5.8,1.4,2.2.4,4.4.5,6.8.5s5-.2,7.6-.6c5.3-.8,10.7-2.4,15.9-4.8,2.5-1.2,5-2.6,7.4-4.1,2.2-1.5,4.4-3.2,6.3-5,1.8-1.7,3.5-3.6,4.8-5.6,1.3-1.9,2.4-3.8,3.1-5.8.7-1.9,1.2-3.8,1.4-5.6.1-1.8,0-3.5-.4-5.2-.7-3.2-2.5-6.1-4.8-8.2s-2.5-2-3.9-2.8c-1.4-.8-2.9-1.4-4.4-2s-3-.9-4.5-1.2c-1.5-.3-3-.5-4.5-.6-3-.2-5.6-.1-7.7,0-4.5.4-7,1-7,1"/>
    <path class="st0" d="M11.3,76v1.4c0,.9,0,2.2.4,3.7s1.1,3.4,2.4,5.3,1.4,1.9,2.5,2.8c1,.9,2.2,1.9,3.5,2.7,1.4.9,3,1.7,4.7,2.3,1.8.6,3.8,1.2,5.9,1.6s4.5.6,7,.6,5.1-.1,7.9-.5c5.5-.7,11.2-2.3,16.6-4.8,2.7-1.2,5.3-2.6,7.7-4.2,2.4-1.5,4.6-3.2,6.6-5.1,1.9-1.8,3.7-3.7,5.2-5.7,1.4-1.9,2.6-4,3.4-6,.8-1.9,1.4-3.9,1.6-5.8.2-1.9.1-3.7-.1-5.4-.6-3.4-2.5-6.3-4.8-8.6-1.2-1.2-2.5-2.2-3.9-3-1.4-.9-3-1.6-4.5-2.2-1.6-.6-3.1-1-4.7-1.4s-3.1-.6-4.6-.7c-3-.3-5.7-.2-8,0-4.6.3-7.2,1-7.2,1"/>
    <path class="st0" d="M9.3,73.7v1.4c0,.9,0,2.2.4,3.8.4,1.6,1.1,3.5,2.4,5.4.6,1,1.5,1.9,2.5,2.9,1,.9,2.2,1.9,3.6,2.7,1.4.9,3,1.7,4.8,2.3,1.9.7,3.9,1.2,6.1,1.7,2.2.4,4.7.6,7.2.6s5.3-.1,8.1-.5c5.7-.8,11.5-2.4,17.1-4.9,2.7-1.2,5.4-2.7,7.9-4.3,2.5-1.6,4.8-3.4,6.9-5.3,2-1.9,3.8-3.8,5.3-5.8,1.4-2,2.7-4,3.5-6.1.9-2,1.4-4,1.7-6,.2-1.9.1-3.8-.1-5.6-.6-3.5-2.5-6.5-4.9-8.8-1.2-1.2-2.6-2.2-4-3.1s-3-1.6-4.6-2.2c-1.6-.6-3.2-1-4.8-1.4s-3.2-.6-4.7-.7c-3.1-.3-5.9-.2-8.2,0-4.8.4-7.4,1-7.4,1"/>
    <path class="st0" d="M7.5,72v1.4c0,.9.1,2.2.6,3.8.4,1.6,1.2,3.5,2.7,5.4.7,1,1.6,1.9,2.7,2.9s2.3,1.9,3.8,2.7c1.5.9,3.2,1.7,5,2.3,1.9.6,4,1.2,6.3,1.5,2.3.4,4.8.6,7.4.6s5.5-.2,8.3-.6c5.8-.9,11.8-2.7,17.5-5.3,2.8-1.3,5.5-2.8,8.1-4.5,2.5-1.7,4.8-3.5,6.9-5.5,2-1.9,3.8-4,5.3-6.1,1.4-2,2.6-4.1,3.5-6.3.8-2,1.3-4.1,1.5-6.1.1-1.9,0-3.8-.4-5.6-.8-3.5-2.8-6.5-5.3-8.8-1.3-1.2-2.7-2.2-4.3-3s-3.2-1.6-4.8-2.1c-1.7-.6-3.3-1-5-1.3-1.7-.3-3.3-.5-4.8-.6-3.2-.2-6.1-.1-8.4,0-4.8.4-7.6,1.2-7.6,1.2"/>
    <path class="st0" d="M6,70.9s0,.5,0,1.4c0,.9.3,2.2.9,3.8.6,1.6,1.5,3.5,3.1,5.3.8.9,1.8,1.9,3,2.8,1.2.9,2.5,1.8,4.1,2.6s3.4,1.5,5.4,2.1,4.3,1,6.6,1.3c2.5.3,5,.4,7.7.2,2.7-.1,5.6-.4,8.5-1,5.9-1.1,11.9-3.1,17.5-6,2.8-1.4,5.5-3,7.9-4.8,2.5-1.7,4.7-3.7,6.6-5.7,1.9-1.9,3.6-4,5-6.2,1.3-2.1,2.4-4.2,3-6.3.6-2,1-4.1,1.1-6.1,0-1.9-.2-3.8-.8-5.5-1.1-3.4-3.4-6.3-6.1-8.5-1.4-1.1-3-2-4.5-2.8-1.7-.8-3.3-1.4-5-1.9s-3.5-.9-5.2-1.1c-1.7-.2-3.4-.4-5-.4-3.3-.1-6.2,0-8.7.4-4.9.6-7.7,1.4-7.7,1.4"/>
    <path class="st0" d="M5.1,70.7s0,.5.3,1.4c.2.9.6,2.2,1.4,3.7s2,3.3,3.8,5c.9.9,2.1,1.7,3.4,2.5s2.9,1.6,4.5,2.2c1.7.6,3.7,1.2,5.8,1.7,2.2.4,4.5.7,7,.9,2.5.1,5.2,0,8-.2,2.8-.3,5.7-.8,8.7-1.5,5.9-1.4,11.8-3.8,17.3-6.9,2.7-1.5,5.2-3.2,7.6-5.2,2.3-1.9,4.3-3.8,6.1-5.9,1.7-2,3.2-4.2,4.3-6.3,1.1-2.1,1.9-4.3,2.4-6.3.4-2,.6-4,.4-6-.2-1.9-.7-3.7-1.4-5.3-.8-1.7-1.8-3.1-3-4.4s-2.7-2.5-4.2-3.5c-1.6-1-3.2-1.8-5-2.5-1.8-.6-3.6-1.2-5.4-1.6-1.9-.4-3.7-.6-5.5-.8s-3.5-.2-5.2-.1c-3.4,0-6.3.4-8.8.9-5,.9-7.7,1.8-7.7,1.8"/>
    <path class="st0" d="M5,71.4s.1.4.5,1.3c.4.9.9,2,2,3.4,1.1,1.4,2.6,3,4.8,4.5,1.2.8,2.5,1.5,3.9,2.2,1.5.6,3.2,1.3,5.1,1.8,1.9.5,4,.9,6.3,1.2,2.3.2,4.8.3,7.4.2,2.7-.1,5.4-.4,8.2-.9,2.9-.5,5.8-1.2,8.7-2.2,2.9-.9,5.8-2.1,8.7-3.5s5.5-2.9,8-4.6c2.5-1.7,4.8-3.5,6.9-5.6,2-1.9,3.8-4,5.3-6.2,1.4-2.1,2.6-4.3,3.4-6.4.8-2.1,1.2-4.2,1.4-6.2.1-1.9,0-3.9-.6-5.7-.5-1.8-1.3-3.5-2.4-4.9-1.1-1.5-2.4-2.8-3.8-4-1.5-1.2-3.1-2.2-4.8-3-1.8-.9-3.6-1.5-5.5-1.9-1.9-.5-3.9-.9-5.8-1.1-1.9-.2-3.9-.3-5.7-.3s-3.7,0-5.3.3c-3.5.4-6.4.9-8.9,1.5-5,1.2-7.6,2.4-7.6,2.4"/>
    <path class="st0" d="M6,73s.2.4.8,1.2,1.4,1.9,2.8,3c.7.6,1.5,1.2,2.5,1.9s2.2,1.3,3.5,1.9c1.4.6,2.8,1.2,4.5,1.7,1.7.5,3.6.9,5.6,1.2,2.1.3,4.3.4,6.8.4s5-.2,7.7-.6c5.4-.8,11.2-2.3,16.8-4.7,2.8-1.2,5.6-2.6,8.1-4.2,2.6-1.6,5-3.3,7.3-5.2,2.2-1.9,4.2-3.8,5.9-5.9,1.7-2,3-4.1,4.1-6.3,1-2.1,1.7-4.2,2.2-6.3.4-2,.4-4,.1-6-.6-3.8-2.5-7.1-5.2-9.7-1.4-1.3-3-2.5-4.7-3.4s-3.6-1.7-5.6-2.3c-1.9-.6-4-1.1-6-1.4-2.1-.3-4.1-.4-6.1-.5-4.1,0-7.9.4-11.4,1s-6.4,1.4-8.9,2.2c-4.8,1.6-7.4,3-7.4,3"/>
    <path class="st0" d="M8.2,75.3s.4.4,1.1,1,1.9,1.6,3.6,2.5c.9.5,1.9,1,3,1.5,1.2.5,2.5.9,4,1.4s3.2.8,5.1,1c1.9.3,4,.4,6.1.4s4.6,0,7.1-.4c2.5-.3,5.1-.8,7.9-1.4,5.4-1.3,11-3.4,16.2-6.3,2.6-1.4,5.1-3,7.4-4.8,2.3-1.7,4.4-3.6,6.3-5.6,1.8-1.9,3.4-4,4.7-6.2,1.2-2.1,2.2-4.2,2.7-6.3.6-2,.9-4.1.7-6.1,0-1.9-.5-3.8-1.2-5.6s-1.7-3.3-3-4.7c-1.3-1.4-2.8-2.7-4.5-3.8-1.7-1.1-3.6-1.9-5.6-2.7-2-.7-4.1-1.2-6.2-1.6-2.2-.4-4.3-.6-6.5-.6-2.2,0-4.3,0-6.4.2-8.5.7-15.4,3.2-20.1,5.2-4.6,2-7.1,3.5-7.1,3.5"/>
    <path class="st0" d="M11.7,77.9s.4.3,1.4.9c.9.5,2.4,1.3,4.4,2,1,.4,2.2.7,3.5,1.1,1.4.4,2.9.6,4.5.9,1.7.2,3.5.4,5.6.4s4.3,0,6.5-.3c4.7-.5,9.8-1.6,15.1-3.5,2.6-.9,5.3-2.1,7.9-3.4,2.5-1.3,5-2.8,7.4-4.5,2.3-1.7,4.5-3.4,6.5-5.3,1.9-1.9,3.6-3.9,5.1-6,1.4-2,2.5-4.1,3.3-6.3.8-2.1,1.2-4.2,1.4-6.2,0-1.9-.1-4-.6-5.8-.6-1.8-1.4-3.5-2.5-5-1.2-1.5-2.6-2.9-4.2-4-1.7-1.2-3.5-2.2-5.4-3-2-.8-4.1-1.4-6.3-1.9-2.2-.4-4.5-.7-6.7-.8-2.3-.1-4.5,0-6.8.1s-4.5.5-6.6.9c-8.5,1.6-15.3,4.6-19.7,7-4.3,2.4-6.5,4.1-6.5,4.1"/>
    <path class="st0" d="M15.7,80.7s.6.3,1.6.6c1.1.4,2.7.9,5,1.4,1.2.2,2.5.5,3.9.6,1.5.1,3.1.3,4.9.3s3.8,0,5.9-.2c2.1-.2,4.4-.5,6.7-1,4.8-.9,9.8-2.5,14.9-4.9,2.5-1.2,5-2.5,7.4-4,2.4-1.5,4.6-3.2,6.7-5,2-1.8,3.9-3.7,5.6-5.7,1.6-1.9,2.9-4,4-6.1,1-2,1.7-4.2,2.1-6.3.4-2,.4-4,0-6-.3-1.9-.9-3.8-1.9-5.3-.9-1.7-2.2-3.2-3.7-4.5-1.5-1.4-3.2-2.5-5.1-3.5-1.9-.9-4-1.7-6.2-2.3-2.2-.6-4.5-.9-6.9-1.2-2.4-.2-4.8-.2-7.1-.1-4.8.2-9.4,1.1-13.6,2.2-4.2,1.2-7.9,2.6-11.2,4.1-3.2,1.5-5.8,3-7.8,4.4-2,1.4-3.5,2.5-4.5,3.3-.9.8-1.4,1.2-1.4,1.2"/>
    <path class="st0" d="M19.4,83.4s.6.2,1.8.5c1.2.3,3,.7,5.4,1,1.2.1,2.6.3,4.2.3h5.1c3.8-.2,8.1-.9,12.8-2.2,4.7-1.3,9.7-3.2,14.6-5.9,2.4-1.3,4.7-2.8,6.9-4.5,2.2-1.6,4.2-3.4,6.1-5.3,1.8-1.9,3.4-3.8,4.8-5.9,1.3-2,2.3-4.1,3-6.2.7-2,1.1-4.1,1.2-6.2,0-1.9-.3-4-.9-5.8-.6-1.8-1.6-3.5-2.7-5-1.2-1.5-2.7-2.9-4.5-4-1.7-1.2-3.7-2.2-5.8-3-2.2-.8-4.4-1.4-6.7-1.8-2.4-.4-4.8-.6-7.2-.6-2.5,0-4.9,0-7.3.4-4.9.6-9.4,1.7-13.6,3.1-4.1,1.4-7.8,3.1-10.9,4.8-3,1.7-5.5,3.4-7.4,4.8-1.9,1.4-3.2,2.7-4.1,3.5l-1.3,1.3"/>
    <path class="st0" d="M21.8,85.7s.6.2,1.9.4c1.2.3,3.1.6,5.6.8,2.5.2,5.8.2,9.5-.1,3.8-.4,8.2-1.2,12.8-2.7,4.7-1.4,9.6-3.5,14.3-6.3,2.3-1.4,4.5-3,6.6-4.6,2.1-1.7,4-3.5,5.7-5.5,1.7-1.9,3.1-3.9,4.3-6,1.2-2,2-4.1,2.6-6.3.5-2,.7-4.1.6-6.1-.1-1.9-.6-3.9-1.4-5.6-.8-1.7-1.9-3.4-3.2-4.8s-3-2.7-4.8-3.8c-1.9-1.1-3.9-2-6.1-2.7-2.2-.7-4.5-1.2-6.9-1.5-2.5-.3-4.9-.4-7.4-.4-2.5,0-5,.3-7.4.6-4.9.7-9.4,1.9-13.6,3.5-4.1,1.5-7.6,3.3-10.7,5.1-3,1.7-5.3,3.5-7.1,5s-3.1,2.7-3.9,3.6c-.9.9-1.2,1.4-1.2,1.4"/>
    <path class="st0" d="M23,87.3s.6.1,1.9.4c1.2.2,3.2.6,5.6.7,2.6.1,5.8.1,9.5-.3,3.8-.4,8.1-1.3,12.8-2.8,4.6-1.5,9.5-3.7,14.1-6.5,2.3-1.4,4.5-3,6.6-4.7,2-1.7,3.9-3.5,5.6-5.5,1.6-1.9,3-3.9,4.2-6.1,1.1-2,1.9-4.1,2.4-6.2.5-2,.6-4.1.4-6.1-.1-1.9-.7-3.8-1.5-5.6s-1.9-3.4-3.4-4.8c-1.4-1.4-3.1-2.7-4.9-3.8-1.9-1.1-4-1.9-6.1-2.6-2.2-.6-4.6-1.2-7-1.4-2.5-.3-4.9-.4-7.4-.3-2.5,0-5,.3-7.4.7-4.9.8-9.4,2.1-13.6,3.7-4,1.6-7.6,3.4-10.5,5.2-2.9,1.8-5.3,3.5-7.1,5.1-1.7,1.5-3,2.8-3.8,3.7-.8.9-1.2,1.4-1.2,1.4"/>
    <path class="st0" d="M24.4,88.5s.6.1,1.9.4,3.2.5,5.7.6c2.6,0,5.8,0,9.6-.4,3.8-.5,8.1-1.4,12.8-3s9.4-3.8,13.9-6.7c2.2-1.4,4.4-3,6.3-4.8,1.9-1.7,3.8-3.5,5.3-5.6,1.5-1.9,2.9-4,3.9-6.1,1-2,1.7-4.1,2.2-6.2.4-2,.4-4,.2-6-.3-1.9-.9-3.8-1.7-5.5-.9-1.7-2.1-3.2-3.6-4.6s-3.2-2.6-5.1-3.6c-1.9-1-4-1.9-6.3-2.5-2.3-.6-4.6-1-7.1-1.3-2.5-.2-5-.3-7.4-.1-2.5.1-5,.4-7.4.9-4.9.9-9.4,2.2-13.4,3.9s-7.5,3.5-10.4,5.3-5.1,3.6-6.9,5.2c-1.7,1.5-3,2.8-3.8,3.7-.8.9-1.2,1.4-1.2,1.4"/>
    <path class="st0" d="M26.8,89.5s.6.1,1.9.3c1.3.1,3.3.4,5.9.3,2.7,0,5.9-.2,9.7-.9,3.8-.6,8.1-1.8,12.7-3.5,2.2-.9,4.5-1.9,6.9-3.1,2.2-1.2,4.5-2.6,6.6-4.1,2.1-1.5,4.1-3.2,6-5,1.8-1.7,3.5-3.7,4.9-5.6,1.4-1.9,2.5-4,3.4-6.1.8-2,1.4-4.1,1.6-6.1.2-2,0-4-.4-5.9-.4-1.9-1.2-3.7-2.3-5.3-1.1-1.7-2.5-3.1-4-4.4-1.7-1.3-3.5-2.4-5.5-3.3-2.1-.9-4.3-1.7-6.6-2.2-2.4-.5-4.8-.8-7.2-.9-2.5-.1-5,0-7.5.1-2.5.2-5,.6-7.4,1.2-4.8,1-9.3,2.6-13.3,4.3-4,1.7-7.3,3.8-10.1,5.7-2.7,1.9-4.9,3.8-6.6,5.4-1.6,1.6-2.7,2.9-3.5,3.8-.7.9-1.1,1.4-1.1,1.4"/>
    <path class="st0" d="M30.2,89.9s.7,0,2.1.1h6.1c2.7-.2,6.1-.6,9.8-1.5,3.8-.9,8.1-2.2,12.5-4.3,2.2-1,4.4-2.2,6.6-3.5s4.3-2.7,6.3-4.4c1.9-1.6,3.8-3.3,5.5-5.2,1.6-1.8,3-3.8,4.3-5.8,1.2-1.9,2-4,2.7-6.1.6-2,.9-4,.8-6.1,0-3.8-1.6-7.6-4.1-10.6-1.3-1.5-2.9-2.9-4.6-4-1.8-1.2-3.8-2.1-6-2.9-2.2-.8-4.5-1.3-6.9-1.7-2.5-.4-5-.5-7.5-.5s-5.1.2-7.6.6-5,.9-7.4,1.5c-4.8,1.3-9.2,3-13.1,5-3.8,1.9-7,4.1-9.7,6.1-2.5,2-4.5,4-6.1,5.6-1.4,1.7-2.5,3-3.1,3.9-.6.9-.9,1.4-.9,1.4"/>
    <path class="st0" d="M33.8,89.6h2.2c1.4,0,3.5-.1,6.3-.5s6.1-1,9.9-2.2c3.8-1.2,7.9-2.8,12.2-5,2.1-1.2,4.2-2.4,6.2-3.8,2-1.4,3.9-3,5.7-4.7,1.7-1.7,3.4-3.5,4.8-5.4,1.4-1.9,2.5-3.8,3.5-5.8.9-1.9,1.5-4,1.8-6.1.3-1.9.3-4,0-5.8-.4-1.9-1-3.7-1.9-5.3-.9-1.7-2.2-3.2-3.8-4.5-1.5-1.4-3.3-2.5-5.3-3.5s-4.3-1.8-6.5-2.3c-2.4-.6-4.8-.9-7.4-1.2-2.6-.1-5.1-.1-7.7,0-5.3.4-10.4,1.5-15.1,3.1s-9,3.6-12.7,5.8c-3.6,2.2-6.6,4.4-9,6.6-2.4,2.2-4.1,4.2-5.4,5.9-1.3,1.7-2.1,3.1-2.6,4-.5.9-.7,1.4-.7,1.4"/>
    <path class="st0" d="M37.3,88.5s.8,0,2.2-.2c1.4-.1,3.6-.4,6.3-1,5.6-1.2,13.5-3.5,21.6-8.7,1.9-1.2,3.9-2.6,5.8-4.2,1.8-1.5,3.6-3.2,5.2-5,1.6-1.7,3-3.6,4.1-5.6,1.2-1.9,2.1-3.9,2.7-5.9.6-1.9.9-4,1-5.9,0-1.9-.3-3.8-.9-5.6-.6-1.8-1.5-3.5-2.7-5-1.2-1.5-2.7-3-4.5-4.1-1.8-1.2-3.8-2.2-5.9-3-2.2-.8-4.5-1.4-7-1.8-2.5-.4-5-.6-7.6-.6s-5.3.2-7.9.6c-5.3.7-10.5,2.2-15.1,4s-8.8,4-12.3,6.4c-3.4,2.3-6.2,4.8-8.4,7.1-2.1,2.2-3.7,4.3-4.8,6.1-1.1,1.7-1.7,3.1-2.2,4.1-.4.9-.6,1.4-.6,1.4"/>
    <path class="st0" d="M40.1,86.6s.8,0,2.2-.3,3.7-.6,6.4-1.4,6.1-1.8,9.7-3.4c3.6-1.6,7.5-3.7,11.3-6.3,1.9-1.3,3.7-2.8,5.4-4.4,1.7-1.6,3.2-3.2,4.7-5.1,1.4-1.8,2.5-3.7,3.5-5.6.9-1.9,1.6-3.9,2-5.8.4-1.9.5-3.9.3-5.8-.2-1.9-.7-3.7-1.6-5.4s-2-3.3-3.4-4.7c-1.4-1.4-3.2-2.7-5-3.7-1.9-1.1-4.1-1.9-6.4-2.6-2.4-.6-4.8-1.1-7.4-1.4-2.6-.2-5.3-.3-7.9-.1-2.7.1-5.4.5-8,1-5.3,1-10.4,2.7-15,4.8-4.5,2-8.5,4.5-11.8,7-3.2,2.5-5.8,5-7.8,7.4-1.9,2.3-3.2,4.5-4.2,6.2-.9,1.7-1.4,3.2-1.7,4.1-.3.9-.4,1.4-.4,1.4"/>
    <path class="st0" d="M42.1,84.1s3.2-.4,8.7-2.1c2.7-.9,6-2,9.5-3.8,3.5-1.7,7.3-3.9,10.9-6.7,1.7-1.4,3.5-2.9,5-4.5,1.5-1.6,3-3.3,4.3-5.2,1.2-1.8,2.2-3.7,3-5.6.7-1.9,1.3-3.8,1.5-5.8.2-1.9.1-3.8-.3-5.6-.4-1.8-1.1-3.5-2.1-5.2-1-1.6-2.3-3.1-3.9-4.4-1.6-1.3-3.5-2.5-5.5-3.4-2.1-.9-4.3-1.7-6.7-2.2-2.5-.6-5-.9-7.6-1-2.7-.1-5.3,0-8,.2-2.7.3-5.4.7-8.1,1.3-5.3,1.2-10.3,3.1-14.8,5.3-4.4,2.2-8.2,4.7-11.4,7.4-3.1,2.5-5.5,5.1-7.3,7.5-1.7,2.3-3,4.5-3.7,6.3-.7,1.7-1.2,3.2-1.4,4.1s-.3,1.4-.3,1.4"/>
    <path class="st0" d="M43,81.3s3.2-.5,8.6-2.3c2.7-.9,5.9-2.2,9.4-4,1.7-.9,3.5-1.9,5.3-3.1,1.7-1.2,3.5-2.5,5.3-3.8,1.7-1.4,3.3-2.9,4.8-4.6,1.4-1.6,2.8-3.3,4-5.2,1.1-1.8,2-3.7,2.7-5.6.6-1.9,1.1-3.8,1.2-5.7,0-1.9,0-3.8-.6-5.5-.5-1.7-1.3-3.5-2.4-5-1.1-1.5-2.5-3-4.1-4.2-1.7-1.2-3.6-2.3-5.6-3.2-2.2-.9-4.5-1.5-6.9-1.9-2.5-.4-5-.7-7.6-.7s-5.3.1-8,.4c-2.7.4-5.4.9-8,1.5-5.3,1.4-10.2,3.3-14.6,5.6-4.3,2.2-8,4.8-11.1,7.5-3,2.6-5.3,5.2-6.9,7.6-1.7,2.3-2.7,4.5-3.4,6.3-.6,1.7-1,3.1-1.2,4s-.2,1.4-.2,1.4"/>
    <path class="st0" d="M42.8,78.4s3.2-.5,8.4-2.4c2.7-.9,5.8-2.2,9.2-4,1.7-.9,3.4-1.9,5.2-3.1,1.7-1.2,3.5-2.5,5.1-3.8,1.7-1.4,3.2-2.9,4.7-4.5,1.4-1.6,2.7-3.3,3.8-5.1,1.1-1.7,1.9-3.6,2.6-5.5.6-1.8.9-3.7,1-5.6.1-3.6-1-7.3-3.2-10.2-1.2-1.5-2.6-2.9-4.2-4-1.7-1.2-3.6-2.2-5.7-3-2.2-.8-4.5-1.4-6.9-1.9-2.5-.4-5-.6-7.6-.6s-5.3.1-7.9.5c-2.7.4-5.3.9-7.9,1.6-5.2,1.4-10,3.4-14.4,5.7-2.1,1.2-4.1,2.4-5.9,3.6-1.8,1.2-3.5,2.5-4.9,3.8-2.9,2.5-5.1,5.1-6.7,7.5-1.6,2.3-2.6,4.4-3.2,6.2-.6,1.7-.9,3.1-1.1,4-.1.9-.1,1.4-.1,1.4"/>
    <path class="st0" d="M41.7,75.6s3.1-.5,8.3-2.3c2.6-.9,5.7-2.2,9.1-3.9,1.7-.9,3.4-1.9,5.1-3,1.7-1.1,3.4-2.4,5-3.8,1.6-1.4,3.2-2.8,4.6-4.5,1.4-1.6,2.7-3.2,3.8-5s1.9-3.5,2.6-5.3c.6-1.8,1-3.6,1.1-5.5.1-3.5-.9-7.1-3-10s-2.5-2.8-4-4c-1.7-1.2-3.5-2.2-5.6-3-2.1-.8-4.3-1.4-6.7-1.8-2.4-.4-4.9-.6-7.4-.6s-5.2.1-7.8.5c-2.7.4-5.3.9-7.8,1.5-5.1,1.4-9.9,3.2-14.1,5.6-4.2,2.2-7.8,4.8-10.7,7.4-2.8,2.5-5,5-6.6,7.4-1.6,2.2-2.6,4.3-3.2,6.1-.6,1.7-.9,3-1.1,3.9-.1.9-.1,1.4-.1,1.4"/>
    <path class="st0" d="M39.9,72.7s3-.4,8.1-2.1c2.5-.9,5.6-2,8.9-3.7,3.2-1.7,6.7-3.8,10.1-6.4,1.6-1.3,3.2-2.7,4.6-4.3,1.4-1.5,2.7-3.1,3.9-4.8,1.1-1.7,2-3.4,2.7-5.2.6-1.7,1.1-3.5,1.2-5.3.1-1.7,0-3.5-.4-5.2-.4-1.7-1.2-3.2-2.2-4.7s-2.3-2.8-3.8-4c-1.5-1.2-3.3-2.2-5.3-3-2-.9-4.2-1.4-6.4-1.9-2.3-.4-4.8-.7-7.2-.7s-5,0-7.6.4c-2.6.3-5.1.8-7.6,1.4-5,1.2-9.7,3.1-13.9,5.2-4.1,2.1-7.7,4.5-10.6,7-2.8,2.4-5,4.8-6.7,7.1-1.6,2.2-2.7,4.2-3.3,5.8-.6,1.6-1,3-1.2,3.8s-.2,1.3-.2,1.3"/>
    <path class="st0" d="M37.7,69.9s3-.4,7.9-1.8c2.5-.7,5.5-1.8,8.7-3.4,3.2-1.5,6.7-3.5,10-6,1.7-1.2,3.2-2.6,4.7-4s2.8-3,4-4.6c1.2-1.6,2.2-3.3,3-5,.7-1.7,1.3-3.5,1.5-5.2.2-1.7.2-3.5,0-5-.3-1.7-.9-3.2-1.7-4.7-.9-1.4-2-2.8-3.4-4-1.4-1.2-3-2.2-4.8-3.1-1.9-.9-3.9-1.5-6.1-2-2.2-.5-4.5-.8-6.9-.9-2.4-.1-4.9,0-7.4.2-2.5.2-5,.6-7.4,1.2-4.9,1.1-9.5,2.7-13.6,4.8-4.1,1.9-7.6,4.3-10.6,6.6-2.9,2.3-5.1,4.6-6.9,6.8-1.7,2.1-2.7,4-3.5,5.6-.7,1.6-1.1,2.8-1.3,3.7-.2.9-.3,1.3-.3,1.3"/>
    <path class="st0" d="M35.1,67.3s2.8-.2,7.6-1.5c2.5-.6,5.3-1.6,8.5-3s6.6-3.2,10-5.6c1.7-1.2,3.2-2.4,4.8-3.8,1.5-1.4,2.9-2.8,4.2-4.4,1.2-1.5,2.3-3.2,3.2-4.8.9-1.7,1.5-3.3,1.9-5,.4-1.7.5-3.3.4-5-.1-1.6-.6-3.2-1.3-4.6s-1.7-2.8-2.9-4c-1.2-1.2-2.7-2.3-4.4-3.2-1.7-.9-3.6-1.7-5.6-2.2-2.1-.6-4.3-.9-6.5-1.2-2.3-.2-4.6-.2-7,0-2.4.1-4.8.4-7.1.9-4.8.9-9.2,2.4-13.3,4.3-4,1.8-7.6,3.9-10.5,6.1-2.9,2.2-5.2,4.3-7,6.4-1.7,2-2.9,3.8-3.8,5.4-.8,1.5-1.2,2.7-1.5,3.5-.3.8-.4,1.2-.4,1.2"/>
    <path class="st0" d="M32.5,64.7s.6,0,1.9-.2c1.2-.1,3.1-.4,5.4-.9,4.7-1.1,11.4-3.2,18.2-7.6,1.7-1.1,3.3-2.2,4.8-3.5,1.5-1.3,3-2.7,4.3-4.1s2.5-3,3.5-4.6c.9-1.6,1.7-3.2,2.2-4.8.5-1.6.8-3.2.8-4.8s-.3-3.1-.8-4.6c-.5-1.4-1.4-2.8-2.4-4-1.1-1.2-2.4-2.4-3.8-3.3-1.5-.9-3.2-1.7-5.1-2.4-1.9-.6-3.9-1.1-6.1-1.4s-4.4-.4-6.6-.4-4.5.3-6.8.6c-4.5.7-8.9,2-13,3.7-4,1.6-7.5,3.5-10.5,5.6-2.9,2-5.3,4-7.1,6-1.8,1.9-3.1,3.7-4,5.1s-1.4,2.6-1.7,3.4c-.3.8-.4,1.2-.4,1.2"/>
    <path class="st0" d="M30.1,62.1s.6,0,1.8-.1c1.2,0,2.9-.3,5.1-.7,4.5-.9,11-2.7,17.7-6.6,1.7-.9,3.3-2,4.9-3.2,1.6-1.2,3.1-2.5,4.5-3.8,1.4-1.4,2.6-2.8,3.7-4.3,1-1.5,1.9-3,2.6-4.6.6-1.5,1.1-3.1,1.2-4.7.1-1.5,0-3.1-.3-4.5-.4-1.4-1-2.8-1.9-4-.9-1.3-2-2.4-3.3-3.4-1.4-1-2.9-1.9-4.5-2.5-1.7-.7-3.6-1.2-5.6-1.6-2-.4-4-.6-6.2-.6s-4.3,0-6.5.4c-4.4.5-8.7,1.6-12.5,3s-7.4,3.2-10.3,5c-2.9,1.8-5.3,3.8-7.2,5.6-1.8,1.7-3.2,3.5-4.2,4.8-.9,1.4-1.6,2.5-1.9,3.2-.4.7-.5,1.2-.5,1.2"/>
    <path class="st0" d="M27.9,59.5h1.7c1.1,0,2.7-.1,4.8-.4s4.7-.8,7.6-1.7c3-.9,6.2-2.1,9.5-3.8,1.7-.9,3.2-1.8,4.9-2.9,1.6-1.1,3.1-2.2,4.5-3.5,1.4-1.2,2.7-2.6,3.9-4,1.2-1.4,2.1-2.9,2.9-4.4.7-1.4,1.3-3,1.7-4.5.3-1.5.4-3,.2-4.4-.4-2.8-1.9-5.5-4-7.5-1.2-1-2.5-1.9-4-2.7s-3.2-1.4-5-1.8-3.8-.7-5.7-.9c-2-.1-4,0-6.1,0-4.2.4-8.2,1.2-12,2.5-3.8,1.2-7.2,2.8-10.2,4.5-2.9,1.7-5.3,3.5-7.3,5.1-1.9,1.7-3.3,3.2-4.3,4.5-1,1.3-1.7,2.4-2.1,3.1-.4.7-.6,1.1-.6,1.1"/>
    <path class="st0" d="M25.9,56.9h1.5c1,0,2.5,0,4.5-.2s4.5-.6,7.3-1.3,6-1.8,9.2-3.3c1.6-.7,3.2-1.6,4.8-2.6,1.6-.9,3.1-2,4.6-3.2,1.4-1.2,2.8-2.4,4-3.8,1.2-1.3,2.2-2.7,3.2-4.2.9-1.4,1.5-2.9,1.9-4.3s.6-2.9.6-4.3c0-2.7-1.2-5.4-3-7.5-.9-1.1-2.2-2-3.5-2.7-1.4-.8-2.9-1.4-4.5-1.9s-3.5-.9-5.3-1.1c-1.9-.2-3.8-.3-5.7-.2-3.9.1-7.8.9-11.4,1.9-3.7,1-7,2.4-9.9,3.9-2.9,1.5-5.3,3.1-7.2,4.7-1.9,1.5-3.4,3-4.5,4.2-1.1,1.2-1.8,2.2-2.2,2.9s-.6,1-.6,1"/>
    <path class="st0" d="M24.3,54.5h5.6c1.9-.1,4.2-.4,6.9-.9s5.7-1.4,8.9-2.8c3.1-1.3,6.3-3,9.3-5.2,1.4-1.1,2.8-2.2,4.1-3.5,1.2-1.2,2.4-2.5,3.3-3.9.9-1.3,1.7-2.7,2.2-4.1.6-1.4.9-2.7,1-4.1.2-2.6-.5-5.3-2.1-7.4-.8-1.1-1.8-2-3-2.8-1.2-.9-2.5-1.5-4-2.1s-3.1-1-4.8-1.2c-1.7-.3-3.5-.4-5.3-.4s-3.7.1-5.5.4-3.6.6-5.3,1c-3.5.9-6.7,2.1-9.5,3.4-2.8,1.3-5.2,2.8-7.1,4.3-1.9,1.4-3.4,2.7-4.5,3.9-1.1,1.1-1.9,2-2.4,2.7-.5.6-.7,1-.7,1"/>
    <path class="st0" d="M23.1,52s.4,0,1.3.1c.9,0,2.2.1,3.9.1s3.9-.2,6.4-.6c2.5-.4,5.4-1.2,8.4-2.3,3-1.2,6.1-2.7,9.1-4.6,1.4-.9,2.8-2,4.1-3.2,1.2-1.1,2.5-2.3,3.5-3.6,1-1.2,1.8-2.5,2.5-3.9.6-1.3,1.1-2.6,1.3-4,.2-1.3.2-2.6,0-3.8-.2-1.2-.6-2.4-1.3-3.4-.6-1.1-1.5-2-2.5-2.9-1-.9-2.2-1.6-3.5-2.2-1.4-.6-2.8-1.1-4.3-1.4-1.6-.4-3.2-.5-4.8-.6-1.7,0-3.4,0-5,.1-1.7.1-3.4.4-5,.8-3.3.7-6.4,1.7-9.2,2.9-2.7,1.2-5,2.5-7,3.8-1.9,1.3-3.4,2.5-4.5,3.5-1.1,1-1.9,1.9-2.4,2.5-.5.6-.7.9-.7.9"/>
    <path class="st0" d="M22.3,49.7s.4,0,1.2.2c.8.1,2,.2,3.5.3,1.6,0,3.6,0,5.9-.4,2.4-.4,5-.9,7.9-1.9s5.8-2.3,8.7-4c1.4-.9,2.8-1.8,4-2.9,1.2-1,2.5-2.1,3.5-3.3,1-1.2,1.9-2.4,2.7-3.6s1.2-2.5,1.6-3.8c.3-1.2.4-2.5.4-3.6s-.4-2.3-.9-3.3-1.2-2-2-2.8c-.9-.9-1.9-1.6-3.1-2.2-1.2-.6-2.5-1.2-3.9-1.5-1.4-.4-2.9-.6-4.4-.8-1.6-.1-3.2-.1-4.7,0-1.6,0-3.2.3-4.8.6-3.2.6-6.1,1.4-8.7,2.5-2.6,1-4.9,2.2-6.8,3.4s-3.3,2.3-4.5,3.2c-1.1.9-1.9,1.7-2.5,2.3-.5.6-.8.9-.8.9"/>
    <path class="st0" d="M21.7,47.4s.4,0,1.1.2c.7.1,1.8.3,3.2.4s3.3,0,5.5-.1c2.2-.2,4.7-.7,7.4-1.5s5.6-2,8.4-3.5c1.4-.8,2.7-1.7,4-2.6,1.2-.9,2.4-1.9,3.5-3,1-1.1,1.9-2.2,2.7-3.3.7-1.2,1.4-2.3,1.7-3.5s.6-2.3.6-3.5-.1-2.2-.5-3.2-.9-1.9-1.7-2.7c-.7-.9-1.7-1.6-2.7-2.2-1.1-.6-2.2-1.2-3.5-1.6-1.3-.4-2.7-.7-4-.9-1.4-.2-2.9-.3-4.3-.2-1.5,0-3,.1-4.4.4-3,.4-5.7,1.2-8.2,2.1-2.5.9-4.7,1.9-6.5,3-1.8,1-3.2,2.1-4.4,3-2.2,1.7-3.2,2.9-3.2,2.9"/>
    <path class="st0" d="M21.6,45.3s.4,0,.9.2c.6.1,1.7.4,3,.4,1.4.1,3,.1,5,0,2-.1,4.4-.5,6.9-1.2,2.5-.7,5.3-1.7,7.9-3.1,1.3-.6,2.6-1.4,3.8-2.3,1.2-.9,2.4-1.7,3.4-2.7,1-.9,1.9-2,2.7-3.1.8-1,1.4-2.2,1.9-3.2.4-1.1.7-2.2.9-3.2,0-1,0-2.1-.3-3-.5-1.9-1.9-3.6-3.6-4.8-.9-.6-1.9-1.2-3-1.6-1.2-.4-2.4-.7-3.6-.9-1.3-.2-2.7-.4-4-.4s-2.7,0-4.1.2c-2.7.3-5.3.9-7.7,1.7s-4.4,1.7-6.2,2.7c-1.7.9-3.1,1.9-4.2,2.7-2.1,1.6-3.1,2.7-3.1,2.7"/>
    <path class="st0" d="M21.7,43.2s.3,0,.9.2c.6.1,1.4.4,2.7.5s2.7.2,4.5.1c1.9,0,4-.4,6.3-.9,2.4-.6,4.9-1.4,7.4-2.7s4.8-2.7,6.9-4.5c1-.9,1.9-1.8,2.7-2.8.8-.9,1.4-1.9,1.9-3,.5-1,.8-2,.9-3,.1-.9.1-1.9,0-2.9-.4-1.8-1.4-3.5-3-4.7-.8-.6-1.7-1.2-2.7-1.6-1-.4-2.1-.8-3.2-1s-2.4-.4-3.6-.4h-3.8c-2.5.2-5,.7-7.1,1.4-4.4,1.4-7.7,3.2-9.8,4.8-2,1.4-3,2.4-3,2.4"/>
    <path class="st0" d="M22,41.2s1.1.4,3.1.8c1.1.1,2.5.3,4.1.2,1.7,0,3.7-.3,5.8-.7,2.2-.5,4.5-1.2,6.8-2.3s4.5-2.4,6.5-4c.9-.8,1.8-1.7,2.6-2.5.7-.9,1.4-1.8,1.9-2.7s.9-1.9,1.1-2.8c.2-.9.2-1.8.1-2.7-.2-1.7-1.2-3.2-2.5-4.4-.7-.6-1.5-1.1-2.4-1.5-.9-.4-1.9-.8-2.9-1-1.1-.2-2.2-.4-3.2-.5h-3.4c-2.3.1-4.5.6-6.6,1.2-4,1.2-7.1,2.9-9.2,4.2-1.9,1.3-2.8,2.2-2.8,2.2"/>
    <path class="st0" d="M22.5,39.3s.9.4,2.7.8c.9.1,2.2.3,3.7.3s3.3-.1,5.2-.6c1.9-.4,4.1-1.1,6.2-2s4.2-2.1,6-3.6c.9-.7,1.7-1.4,2.5-2.3.7-.8,1.3-1.6,1.8-2.5.5-.8.9-1.7,1.1-2.5.2-.8.3-1.7.2-2.5-.1-1.5-.9-3-1.9-4.1-.6-.6-1.3-1.1-2-1.4-.8-.4-1.7-.7-2.6-1-.9-.2-1.9-.4-2.9-.5-1,0-2-.1-3.1,0-2.1,0-4.1.4-6,.9-3.8,1-6.6,2.5-8.4,3.7-1.8,1.2-2.7,1.9-2.7,1.9"/>
    <path class="st0" d="M24.2,22s-.6,0-1.4.3c-.4.1-.9.4-1.3.8-.4.4-.9.9-1.2,1.7s-.6,1.8-.6,2.9v1.9c0,.7,0,1.5.2,2.3.1.9.3,1.7.5,2.6.2.9.4,1.9.7,2.9s.6,2.1,1,3.2.8,2.2,1.3,3.3c.9,2.3,2,4.7,3.2,7,1.2,2.4,2.5,4.8,3.9,7,2.7,4.6,5.6,8.8,8.2,12.2,2.6,3.4,4.8,6,6.4,7.8,1.6,1.7,2.5,2.7,2.5,2.7"/>
    <path class="st0" d="M25.4,21.2s-.4,0-1.1.2c-.3.1-.6.4-.9.7-.3.4-.6.9-.8,1.6,0,.4-.1.8-.2,1.2v1.6c0,.6,0,1.2.1,1.9,0,.7.2,1.5.4,2.3.1.9.4,1.7.6,2.6.2.9.5,1.9.9,2.9.4,1,.7,2.1,1.1,3.2.4,1.1.9,2.2,1.3,3.4.9,2.4,2,4.8,3.2,7.1,1.2,2.5,2.4,4.8,3.7,7.2,2.6,4.8,5.2,9,7.6,12.6,2.3,3.5,4.3,6.3,5.8,8.1,1.4,1.8,2.2,2.8,2.2,2.8"/>
    <path class="st0" d="M26.8,20.2s-.3,0-.7.1c-.2.1-.4.3-.6.6-.2.4-.3.9-.4,1.6v1.2c0,.5,0,1,.1,1.6,0,.6.2,1.2.3,1.9.1.7.3,1.5.5,2.3.2.9.4,1.7.7,2.6.3.9.6,1.9.9,3s.7,2.1,1.2,3.2.9,2.3,1.3,3.5c.9,2.4,1.9,4.8,3,7.3,1.1,2.5,2.2,5,3.4,7.4,2.4,4.8,4.7,9.3,6.8,13,2,3.6,3.8,6.5,5,8.4,1.2,1.9,1.9,3,1.9,3"/>
    <path class="st0" d="M28.6,19.4s-.2,0-.4.1c0,.1-.2.3-.2.6v1.5c0,.4.1.8.2,1.2,0,.5.2,1,.4,1.6.1.6.3,1.2.5,1.9s.4,1.5.6,2.3c.3.9.5,1.7.9,2.7.3.9.6,1.9,1,3,.4,1.1.7,2.2,1.2,3.2.4,1.2.9,2.3,1.3,3.5.9,2.5,1.9,4.9,2.9,7.4s2.1,5,3.1,7.6c2.1,5,4.2,9.5,5.9,13.3.9,1.9,1.7,3.6,2.4,5s1.3,2.7,1.8,3.7c1,1.9,1.5,3,1.5,3"/>
    <path class="st0" d="M30.7,18.5h0c0,.3,0,.4.1.8,0,.4.3.9.5,1.5.1.4.3.8.4,1.2.1.5.4,1,.5,1.6.2.6.4,1.3.6,1.9.2.7.5,1.5.8,2.4.3.9.6,1.7.9,2.7l1.1,3c.8,2.2,1.6,4.5,2.5,6.9s1.8,5,2.7,7.6c.9,2.6,1.9,5.2,2.7,7.7,1.8,5,3.5,9.7,5,13.7.7,1.9,1.4,3.7,1.9,5.2.6,1.5,1,2.7,1.4,3.8.7,2,1.2,3.1,1.2,3.1"/>
    <path class="st0" d="M33.1,17.7s.1,0,.4.1c.1.1.3.4.5.6.3.4.6.9.9,1.6.2.4.4.8.6,1.3s.4,1,.7,1.7c.3.6.5,1.3.8,2,.3.7.6,1.6.9,2.4.4.9.6,1.8,1,2.7.4,1,.7,2,1.1,3.1.8,2.2,1.6,4.6,2.4,7.1.8,2.5,1.7,5.1,2.5,7.8.8,2.7,1.6,5.3,2.4,7.9,1.5,5.2,2.8,10,3.9,14,.5,1.9,1,3.8,1.4,5.3.4,1.5.7,2.8.9,3.9.5,2,.7,3.2.7,3.2"/>
    <path class="st0" d="M35.8,17s.3,0,.7.1c.2.1.6.4.9.7s.9.9,1.3,1.7c.3.4.5.9.8,1.3.3.5.6,1.1.9,1.7s.6,1.4.9,2.1c.4.8.6,1.6,1,2.5.4.9.7,1.9,1.1,2.8.4,1,.7,2.1,1.1,3.2.8,2.3,1.5,4.7,2.2,7.2.7,2.6,1.4,5.3,2.1,7.9.6,2.7,1.3,5.4,1.9,8.1.6,2.7,1.1,5.2,1.5,7.6.4,2.4.8,4.6,1.2,6.6.3,2,.6,3.8.8,5.4.2,1.5.4,2.9.4,4,.2,2.1.3,3.2.3,3.2"/>
    <path class="st0" d="M39,16.4s.4,0,1.1.2c.4.1.8.4,1.3.8s1.1,1,1.7,1.8c.6.9,1.3,1.9,2,3.2.4.6.7,1.4,1.1,2.2s.7,1.7,1.1,2.5c.4.9.7,1.9,1.1,3l1.1,3.2c.7,2.3,1.4,4.8,2,7.4.6,2.7,1.2,5.3,1.7,8.1.5,2.7.9,5.5,1.3,8.1s.6,5.3.9,7.7c.2,2.4.4,4.7.4,6.7s.1,3.8.1,5.4v4c0,2.1-.1,3.2-.1,3.2"/>
    <path class="st0" d="M42.5,16.1s.6,0,1.4.4c.4.1,1,.4,1.7.9s1.4,1.1,2.1,1.9c.8.9,1.6,2,2.3,3.3.8,1.4,1.6,3,2.4,4.9.8,1.9,1.5,4.1,2.2,6.3.6,2.4,1.3,4.9,1.8,7.6s.9,5.5,1.2,8.2c.3,2.8.5,5.6.6,8.3.1,2.7.1,5.3.1,7.8s-.1,4.7-.3,6.8c-.1,2-.4,3.8-.6,5.4s-.4,2.9-.6,4c-.4,2.1-.6,3.2-.6,3.2"/>
    <path class="st0" d="M46.3,16.1s.6,0,1.8.4c.6.2,1.2.5,1.9,1,.8.5,1.6,1.2,2.4,2.1.9.9,1.7,2.1,2.6,3.5s1.7,3.2,2.5,5c.8,2,1.4,4.2,2.1,6.6.6,2.5,1.1,5,1.4,7.7.4,2.7.6,5.6.7,8.3v8.3c-.3,5.4-.9,10.4-1.8,14.5-.4,2-.9,3.8-1.3,5.3-.4,1.5-.9,2.8-1.2,3.9-.7,2-1.2,3.2-1.2,3.2"/>
    <path class="st0" d="M50.4,16.3s.8,0,2.1.6c1.3.5,3.2,1.5,5,3.5.9,1,1.9,2.2,2.8,3.7.9,1.5,1.8,3.3,2.5,5.3.8,2,1.4,4.3,1.9,6.7.5,2.5.9,5.1,1.1,7.8.2,2.7.2,5.6,0,8.4-.1,2.8-.4,5.6-.8,8.3-.8,5.4-2.1,10.2-3.5,14.3-1.4,3.9-2.8,6.9-3.9,8.9-1,1.9-1.7,3-1.7,3"/>
    <path class="st0" d="M54.3,17.1s.9.1,2.5.7,3.6,1.7,5.6,3.8c1.1,1.1,2.1,2.4,3,3.9.9,1.6,1.9,3.4,2.6,5.4.7,2.1,1.4,4.4,1.7,6.9.4,2.5.6,5.1.6,7.9s-.1,5.6-.5,8.3c-.4,2.8-.9,5.6-1.6,8.2-1.4,5.3-3.2,10-5.1,13.9-1.9,3.8-3.8,6.6-5.2,8.6-1.4,1.9-2.2,2.8-2.2,2.8"/>
    <path class="st0" d="M58.1,18.2s1,.2,2.7.9c1.7.6,4,1.9,6.2,4.1,1.2,1.1,2.2,2.5,3.2,4,1,1.6,1.9,3.5,2.6,5.6.7,2.1,1.2,4.5,1.6,6.9.3,2.5.4,5.1.3,7.8-.1,2.7-.5,5.5-1.1,8.2s-1.4,5.4-2.3,8c-1.9,5.1-4.3,9.7-6.7,13.3-2.4,3.6-4.8,6.3-6.4,8s-2.7,2.6-2.7,2.6"/>
    <path class="st0" d="M61.2,19.8s1.2.3,3,1c1.8.8,4.3,2.2,6.8,4.5,1.2,1.2,2.4,2.6,3.5,4.2,1.1,1.7,1.9,3.5,2.7,5.6.7,2.2,1.2,4.5,1.4,6.9.2,2.5.2,5.1,0,7.7-.3,2.7-.8,5.4-1.6,8-.8,2.7-1.7,5.3-2.9,7.7-2.3,4.9-5.3,9.2-8.1,12.5-2.8,3.4-5.6,5.8-7.5,7.4-1.9,1.6-3.1,2.4-3.1,2.4"/>
    <path class="st0" d="M63.5,21.7s1.2.3,3.2,1.2c1.9.9,4.7,2.4,7.3,4.8,2.6,2.5,5,5.9,6.5,10.1.7,2.2,1.2,4.5,1.4,6.9.2,2.5.1,5-.2,7.6-.4,2.6-1,5.2-1.9,7.7-.9,2.6-2.1,5-3.4,7.4-2.7,4.7-5.9,8.7-9.1,11.8-3.2,3.1-6.1,5.3-8.3,6.6-2.2,1.4-3.5,2.1-3.5,2.1"/>
    <path class="st0" d="M64.6,23.6s1.3.4,3.5,1.4c2.1.9,5,2.5,7.8,5,2.7,2.5,5.3,6,6.9,10.2.8,2.1,1.3,4.4,1.5,6.8.2,2.4.1,4.9-.3,7.4s-1.1,5-2.1,7.4c-1,2.5-2.2,4.8-3.6,6.9-2.9,4.4-6.3,8.1-9.7,10.8-3.4,2.8-6.6,4.7-8.8,5.9-2.3,1.2-3.7,1.8-3.7,1.8"/>
    <path class="st0" d="M64.5,25.4s1.4.4,3.7,1.4c2.2,1,5.3,2.7,8.3,5.3,3,2.5,5.8,6.1,7.6,10.3,1.7,4.2,2.4,9.2,1.7,14-.7,4.9-2.8,9.7-5.6,13.8-2.9,4.2-6.5,7.5-9.9,10-3.5,2.5-6.7,4.2-9.1,5.3-2.3,1.1-3.8,1.5-3.8,1.5"/>
    <path class="st0" d="M63.3,26.8s1.4.4,3.8,1.5,5.6,2.8,8.8,5.5c1.6,1.3,3.2,2.8,4.6,4.6,1.4,1.7,2.7,3.7,3.7,5.8,2,4.1,3,9,2.5,13.8s-2.5,9.4-5.1,13.3c-2.7,4-6.3,7.1-9.7,9.4-3.5,2.4-6.7,3.8-9,4.8-2.3.9-3.8,1.3-3.8,1.3"/>
    <path class="st0" d="M61.2,27.5s1.5.4,4,1.6c2.5,1.1,5.8,2.8,9.3,5.5,1.7,1.3,3.4,2.8,5,4.6,1.5,1.7,3,3.7,4.1,5.8s2.1,4.3,2.7,6.6c.6,2.3.9,4.7.7,7-.2,4.7-1.8,9.3-4.3,13.1-2.5,3.9-5.9,6.9-9.2,9.2-3.3,2.2-6.5,3.7-8.7,4.5-2.3.9-3.7,1.2-3.7,1.2"/>
    <path class="st0" d="M58.8,27.5s1.5.4,4.1,1.5c2.5,1,6.1,2.7,9.7,5.3,1.8,1.3,3.6,2.7,5.3,4.5,1.7,1.7,3.2,3.6,4.6,5.7,1.3,2,2.4,4.3,3.2,6.6.7,2.2,1.2,4.6,1.3,7,.1,4.6-1.2,9.3-3.3,13.1-2.2,3.9-5.4,6.9-8.5,9.2-3.2,2.3-6.2,3.7-8.4,4.6-2.2.9-3.6,1.2-3.6,1.2"/>
    <path class="st0" d="M56.5,26.9s1.6.4,4.2,1.3c2.6.9,6.2,2.5,10,5,1.9,1.2,3.8,2.7,5.6,4.3s3.5,3.5,5,5.6c1.4,2,2.7,4.2,3.7,6.5.9,2.2,1.5,4.6,1.8,7,.5,4.6-.4,9.4-2.4,13.2-1.9,4-4.9,7.1-7.8,9.5-3,2.4-5.9,3.9-8.1,4.9s-3.5,1.4-3.5,1.4"/>
    <path class="st0" d="M54.6,26.1s1.6.3,4.3,1.1c2.7.8,6.3,2.2,10.3,4.5,1.9,1.2,4,2.5,5.8,4,1.9,1.5,3.7,3.3,5.3,5.3,1.6,1.9,3,4.1,4,6.3s1.8,4.5,2.2,6.9c.8,4.6.1,9.4-1.6,13.5-1.7,4.1-4.5,7.5-7.2,10-2.8,2.6-5.7,4.3-7.8,5.3s-3.4,1.6-3.4,1.6"/>
    <path class="st0" d="M53.6,25.1s1.6.2,4.3.9c2.7.6,6.4,1.8,10.5,3.9,1.9,1,4,2.2,6,3.8,1.9,1.4,3.8,3.2,5.5,5,1.7,1.9,3.1,4,4.3,6.2,1.2,2.2,1.9,4.5,2.5,6.9.9,4.7.4,9.5-1.1,13.7-1.6,4.3-4.2,7.9-6.9,10.5-2.7,2.8-5.6,4.7-7.6,5.9-2.1,1.2-3.3,1.8-3.3,1.8"/>
    <path class="st0" d="M53.4,24.2s1.6.1,4.3.7c2.7.6,6.3,1.5,10.4,3.5,1.9.9,4,2.1,6,3.5,1.9,1.4,3.8,3,5.5,4.8,1.7,1.8,3.1,3.8,4.2,6.1,1.2,2.2,1.9,4.5,2.5,6.9.9,4.7.5,9.7-1,14-1.5,4.4-4.1,8.1-6.7,11.1-2.7,3-5.5,5-7.4,6.4-2,1.4-3.3,2-3.3,2"/>
    <path class="st0" d="M53,23s1.5,0,4.2.4c2.6.4,6.3,1.2,10.2,2.9,1.9.9,4,1.9,5.9,3.2,1.9,1.3,3.8,2.8,5.4,4.6,1.6,1.7,3,3.8,4.2,5.8,1.2,2.1,1.9,4.4,2.5,6.8,1,4.8.6,9.8-.8,14.2-1.4,4.5-3.9,8.6-6.5,11.7-2.6,3.2-5.3,5.5-7.3,7-1.9,1.5-3.2,2.3-3.2,2.3"/>
    <path class="st0" d="M51.2,22s1.5,0,4.1.1,6.2.7,10.2,2.1c1.9.7,4,1.6,5.9,2.7,1.9,1.2,3.8,2.5,5.5,4.2,3.3,3.2,5.9,7.6,7.1,12.3,1.2,4.7,1,9.8-.1,14.4-1.2,4.8-3.4,8.9-5.8,12.3-2.4,3.5-4.9,6-6.8,7.7-1.9,1.7-3,2.6-3,2.6"/>
    <path class="st0" d="M48.5,21.5s1.5-.2,4.1-.2,6.1.1,10.2,1.2c1.9.5,4,1.2,6.1,2.2,1.9,1,4,2.2,5.7,3.8,3.5,3,6.3,7.1,7.9,11.6.8,2.3,1.2,4.7,1.4,7.1.1,2.5,0,4.9-.4,7.3-.9,4.8-2.7,9.2-4.8,12.8-2.1,3.6-4.4,6.4-6.1,8.2-1.7,1.9-2.8,2.8-2.8,2.8"/>
    <path class="st0" d="M45.5,21.8s1.5-.3,4.1-.5,6.2-.3,10.4.4c2,.4,4.2.9,6.3,1.7,2.1.8,4.2,1.9,6.1,3.2,3.8,2.7,7,6.5,8.9,10.8.9,2.2,1.6,4.5,1.9,6.9.4,2.4.4,4.8.1,7.2-.5,4.8-2,9.3-3.8,13-1.9,3.8-4,6.6-5.5,8.6-1.6,1.9-2.6,3-2.6,3"/>
    <path class="st0" d="M42.6,22.6s1.5-.4,4.2-.7c2.7-.4,6.4-.6,10.7-.1,2.1.2,4.3.7,6.6,1.4,2.2.7,4.5,1.7,6.6,2.8,2.1,1.2,4,2.7,5.8,4.4s3.2,3.7,4.3,5.8c2.3,4.2,3.4,9.1,3.2,13.7,0,4.8-1.4,9.2-2.9,12.9-1.6,3.8-3.5,6.6-5,8.7s-2.5,3-2.5,3"/>
    <path class="st0" d="M39.9,23.6s1.5-.4,4.3-.9c2.7-.4,6.6-.8,11.1-.4s4.6.6,7,1.2c2.4.6,4.8,1.5,7.1,2.6,2.2,1.2,4.4,2.5,6.3,4.2,1.9,1.6,3.6,3.5,5,5.6,2.7,4,4.2,8.8,4.4,13.3.2,4.6-.7,9-2.1,12.6-1.4,3.7-3.2,6.6-4.6,8.5-1.4,1.9-2.4,3-2.4,3"/>
    <path class="st0" d="M37.5,24.6s1.6-.4,4.3-.8c2.8-.4,6.8-.7,11.5-.3,2.3.2,4.8.6,7.4,1.2,2.5.6,5,1.5,7.5,2.7,2.4,1.2,4.8,2.5,6.9,4.2,2.1,1.6,4,3.5,5.6,5.5,1.5,2,2.8,4.2,3.8,6.4.9,2.2,1.5,4.5,1.7,6.8.5,4.5-.2,8.8-1.4,12.3-1.2,3.6-3,6.3-4.3,8.2s-2.2,2.9-2.2,2.9"/>
    <path class="st0" d="M35.6,25.1s1.6-.3,4.4-.6c2.8-.2,6.9-.4,11.7.2,2.4.3,4.9.8,7.6,1.5,2.6.7,5.2,1.7,7.8,2.9,2.5,1.2,5,2.7,7.3,4.4,2.2,1.7,4.3,3.5,6,5.6,1.7,2,3.1,4.2,4.2,6.4,1,2.2,1.7,4.5,2.2,6.7.8,4.4.2,8.6-.9,12-1.1,3.4-2.7,6.1-4,7.8-1.3,1.8-2.2,2.7-2.2,2.7"/>
    <path class="st0" d="M34.4,25.5s1.5-.2,4.3-.2,6.8.1,11.5,1.1,10.2,2.7,15.4,5.4c2.6,1.4,5.1,3,7.4,4.8,2.3,1.8,4.4,3.8,6.2,6,1.8,2.1,3.3,4.3,4.5,6.6,1.2,2.2,1.9,4.5,2.5,6.7.5,2.2.6,4.3.6,6.3,0,1.9-.4,3.8-.9,5.4-.9,3.2-2.5,5.7-3.7,7.3-1.2,1.7-2.1,2.5-2.1,2.5"/>
    <path class="st0" d="M33.6,25.6s1.4,0,4.1.2,6.6.8,11.1,2.2c4.6,1.4,10,3.6,15.1,6.8,2.5,1.6,5,3.4,7.4,5.4,2.3,1.9,4.4,4.1,6.3,6.4,1.8,2.2,3.3,4.5,4.5,6.9,1.2,2.3,2,4.5,2.6,6.8.5,2.2.8,4.3.7,6.1,0,1.9-.3,3.6-.7,5.1-.8,3-2.2,5.3-3.3,6.7-1.2,1.4-1.9,2.2-1.9,2.2"/>
    <path class="st0" d="M33.6,25.6s1.4.1,3.8.6c1.2.3,2.7.6,4.5,1.2,1.7.6,3.8,1.2,5.9,2.2,4.4,1.9,9.4,4.6,14.3,8.3,2.5,1.8,4.8,3.9,7.1,6.1,2.2,2.2,4.3,4.5,6.1,6.9,1.7,2.4,3.2,4.8,4.5,7.2,1.2,2.3,2,4.7,2.6,6.9.6,2.2.9,4.2.9,6.1s-.1,3.5-.5,4.8c-.6,2.7-1.9,4.8-3,6-1,1.2-1.7,1.8-1.7,1.8"/>
    <path class="st0" d="M33.8,25.6s1.2.3,3.4,1.2,2.5,1,4,1.7c1.6.8,3.4,1.7,5.3,2.9,1.9,1.2,4.1,2.6,6.3,4.3,2.2,1.7,4.5,3.5,6.7,5.6,2.2,2.1,4.5,4.4,6.6,6.8,2,2.4,4,4.9,5.6,7.5,1.7,2.5,3.1,5,4.3,7.5.6,1.2,1.1,2.4,1.5,3.6.4,1.2.8,2.2,1.1,3.4.3,1.1.5,2.1.6,3.1.1.9.2,1.9.3,2.8,0,1.7,0,3.2-.4,4.5-.3,1.3-.6,2.4-1.2,3.2-.4.9-.9,1.5-1.4,2.1-.9,1-1.5,1.4-1.5,1.4"/>
    <path class="st0" d="M34.2,25.9s1.1.5,3,1.6c.9.6,2.2,1.3,3.5,2.2,1.4.9,3,2.2,4.7,3.5,1.7,1.4,3.6,3.1,5.6,5,1.9,1.9,4,4,6,6.4,2,2.3,4,4.8,5.8,7.4s3.6,5.3,5.1,7.9c1.5,2.6,2.8,5.3,3.9,7.8.5,1.2,1,2.5,1.4,3.6s.7,2.2,1,3.3c.3,1,.5,2,.6,3,.1.9.3,1.8.4,2.7v2.3c0,.7,0,1.3-.2,1.9-.2,1.2-.5,2.1-.9,2.8s-.7,1.3-1.1,1.7c-.7.8-1.3,1.1-1.3,1.1"/>
    <path class="st0" d="M34.6,26.4s.9.6,2.5,2c.8.7,1.8,1.7,3,2.7,1.2,1.2,2.5,2.5,4,4.2,1.5,1.7,3.1,3.5,4.8,5.7,1.7,2.2,3.5,4.5,5.2,7.1,1.7,2.5,3.5,5.3,5.1,8,1.7,2.7,3.2,5.6,4.5,8.4.6,1.4,1.3,2.7,1.9,4,.6,1.3,1.2,2.6,1.7,3.9.5,1.2.9,2.5,1.3,3.6s.7,2.2,1,3.2.5,1.9.7,2.9c.1.9.3,1.7.4,2.5,0,.7.1,1.4.1,2.1v1.7c0,1-.3,1.8-.6,2.5-.2.6-.6,1-.8,1.3-.5.6-.9.8-.9.8"/>
    <path class="st0" d="M34.9,27.1s.7.9,1.9,2.5c.6.9,1.4,1.9,2.4,3.2.9,1.4,2,2.9,3.2,4.8s2.5,4,3.9,6.3c1.4,2.4,2.9,4.9,4.3,7.6,1.5,2.7,3,5.6,4.4,8.5,1.4,2.9,2.7,5.8,4,8.6.6,1.4,1.2,2.7,1.7,4.1.5,1.3,1,2.6,1.5,3.9.4,1.2.9,2.4,1.2,3.5.4,1.1.7,2.2,1,3.2.3.9.5,1.9.7,2.7.2.9.4,1.6.5,2.3s.2,1.3.3,1.9v1.5c0,.9,0,1.5-.2,2-.1.4-.3.8-.5,1-.4.4-.6.4-.6.4"/>
    <path class="st0" d="M34.9,28s.5.9,1.4,2.8c.5.9,1.1,2.2,1.8,3.6.7,1.5,1.6,3.2,2.5,5.2.9,2,2,4.3,3.1,6.8,1.2,2.5,2.3,5.3,3.5,8.1,1.2,2.9,2.5,5.8,3.7,8.8s2.4,5.9,3.5,8.8c.5,1.4,1.1,2.8,1.6,4.1.5,1.3.9,2.6,1.4,3.8.4,1.2.8,2.4,1.2,3.5.4,1.1.7,2.1,1,3,.3.9.6,1.8.8,2.6.2.8.4,1.5.6,2.2.1.6.3,1.2.4,1.7.1.5.2.9.3,1.3,0,.4,0,.7.1.9v.6c0,.3,0,.5-.1.6-.1.2-.3.1-.3.1"/>
    <path class="st0" d="M34.6,29.1s.4,1.1.9,3.1c.4,1.1.7,2.4,1.2,3.9.5,1.6,1.1,3.5,1.8,5.6.7,2.2,1.4,4.5,2.3,7.1.9,2.7,1.8,5.5,2.7,8.4,1,3,2,6,3,9,1,3,2,6,3,8.9.5,1.4.9,2.7,1.4,4.1.4,1.3.9,2.5,1.3,3.8.4,1.2.8,2.3,1.2,3.4.4,1,.7,2,1,3,.3.9.6,1.7.9,2.5.3.7.5,1.4.7,2,.2.6.4,1.1.6,1.5.1.4.3.8.4,1.2.1.3.2.6.4.8,0,.2.1.4.2.5,0,.2.1.3.2.4h0"/>
    <path class="st0" d="M34.1,30.2s.1,1.2.5,3.3c.1,1.2.4,2.5.7,4.2.3,1.7.6,3.7,1.1,5.9.4,2.2,1,4.8,1.6,7.5.6,2.7,1.3,5.6,2.1,8.7.7,3,1.6,6.1,2.5,9.2.9,3,1.7,6,2.6,8.9.4,1.4.9,2.7,1.3,4,.4,1.3.9,2.5,1.3,3.7.4,1.2.8,2.2,1.2,3.2.4,1,.7,1.9,1.1,2.8.4.8.6,1.6,1,2.3.3.6.6,1.3.9,1.8.3.5.5.9.8,1.4.2.4.4.7.6.9.4.5.7.8,1,.9.2.1.4.1.6,0,.3-.1.4-.4.4-.4"/>
    <path class="st0" d="M33.3,31.3v3.5c0,1.2,0,2.7.2,4.4,0,1.8.3,3.8.5,6.1s.5,4.9.9,7.7c.4,2.8.9,5.8,1.4,8.8s1.2,6.1,1.9,9.2c.4,1.5.7,3,1.2,4.5.4,1.4.8,2.9,1.2,4.3.4,1.4.8,2.7,1.2,4,.4,1.2.9,2.5,1.2,3.6.4,1.1.8,2.2,1.2,3.1.4.9.8,1.8,1.2,2.7.4.8.8,1.5,1.2,2.2s.7,1.2,1.1,1.7c.6.9,1.3,1.6,1.9,2,.5.4,1,.6,1.4.6.4,0,.7,0,1-.1.5-.2.8-.6.8-.6"/>
    <path class="st0" d="M32.3,32.4s-.2,1.3-.4,3.7c0,1.2-.2,2.7-.3,4.5v6.3c0,2.4.1,5,.4,7.8.2,2.8.5,5.8.9,8.9.4,3,.9,6.1,1.5,9.2.3,1.5.6,3,1,4.5.4,1.4.7,2.8,1.1,4.2s.8,2.6,1.2,3.9c.4,1.2.9,2.4,1.3,3.5s.9,2.1,1.3,3c.4.9.9,1.7,1.3,2.5.4.7.9,1.4,1.3,2s.9,1.1,1.2,1.5c.8.8,1.5,1.4,2.2,1.7.6.3,1.3.4,1.9.4s1-.1,1.4-.4c.7-.4,1.1-.7,1.1-.7"/>
    <path class="st0" d="M31.1,33.4s-.4,1.3-.8,3.8-.5,2.8-.7,4.6c-.2,1.9-.4,4-.6,6.4-.3,4.8-.3,10.6.2,16.7.3,3,.6,6.1,1.2,9.1.3,1.5.6,3,.9,4.4s.6,2.8,1,4.1c.4,1.3.8,2.6,1.2,3.8.4,1.2.9,2.3,1.3,3.4.4,1,.9,2,1.4,2.9.5.9.9,1.7,1.4,2.4s.9,1.3,1.4,1.9c.5.5.9,1,1.4,1.4.9.7,1.8,1.2,2.7,1.5,1.6.5,3.1.1,4-.2.9-.4,1.4-.9,1.4-.9"/>
    <path class="st0" d="M29.8,34.3s-.5,1.4-1.2,3.8c-.4,1.3-.7,2.8-1.1,4.7s-.7,4-1.1,6.4c-.6,4.8-.9,10.6-.6,16.7.1,3,.4,6.1.9,9,.2,1.4.5,2.9.8,4.3.3,1.4.6,2.7,1,4,.4,1.3.8,2.5,1.2,3.7.4,1.2.9,2.2,1.4,3.2s1,1.9,1.5,2.8c.5.9,1,1.6,1.6,2.3,1,1.3,2.2,2.4,3.2,3.1s2.2,1.2,3.1,1.4c1.9.4,3.7,0,4.8-.4,1.2-.5,1.8-.9,1.8-.9"/>
    <path class="st0" d="M28.4,35s-.6,1.4-1.4,3.8c-.9,2.5-2,6.3-3,11.1-.9,4.8-1.5,10.5-1.4,16.6,0,3,.2,6,.6,8.9.2,1.4.4,2.9.7,4.3s.6,2.7,1,4c.4,1.2.8,2.5,1.2,3.6.4,1.2.9,2.2,1.4,3.2.5.9,1,1.9,1.6,2.7s1.2,1.5,1.7,2.2c1.2,1.3,2.4,2.2,3.6,3,1.2.6,2.4,1.1,3.5,1.2,2.2.4,4.2-.1,5.5-.6,1.4-.5,2.1-1,2.1-1"/>
    <path class="st0" d="M27.1,35.6s-.7,1.4-1.8,3.8c-1.1,2.5-2.5,6.3-3.6,11-1.2,4.8-2,10.5-2.2,16.4,0,2.9,0,5.8.4,8.7.1,1.4.4,2.8.7,4.2.3,1.3.6,2.6,1,3.9.4,1.2.8,2.4,1.3,3.5.4,1.1.9,2.2,1.5,3.1,1.1,1.9,2.3,3.5,3.6,4.8,1.3,1.2,2.6,2.2,4,2.9,1.3.6,2.7,1,4,1.2,2.5.4,4.7-.1,6.2-.6,1.5-.5,2.4-1,2.4-1"/>
    <path class="st0" d="M25.8,36s-.8,1.3-2,3.8-2.9,6.2-4.3,10.9c-.7,2.4-1.3,4.9-1.8,7.6-.5,2.7-.8,5.6-.9,8.5-.1,2.9,0,5.8.3,8.6.3,2.7.9,5.4,1.7,7.9.8,2.4,1.7,4.6,2.9,6.5s2.5,3.5,3.8,4.7c1.4,1.2,2.9,2.2,4.3,2.8s3,1,4.3,1.2c2.8.4,5.2-.1,6.9-.6,1.7-.5,2.7-.9,2.7-.9"/>
    <path class="st0" d="M24.5,36.1s-.9,1.3-2.3,3.8c-1.4,2.5-3.2,6.1-4.8,10.7-.8,2.3-1.5,4.8-2.1,7.5s-1,5.5-1.2,8.3c-.2,2.8-.1,5.6.1,8.4.3,2.7.9,5.3,1.7,7.7.8,2.4,1.8,4.5,3,6.4,1.2,1.8,2.6,3.4,4.1,4.7,2.9,2.5,6.3,3.7,9.3,4,3,.4,5.6,0,7.5-.5,1.9-.4,2.9-.9,2.9-.9"/>
  </g>
  <g class="st5">
    <g class="st5">
      <g class="st5">
        <path class="st3" d="M112.2,26.4c1.3,0,2.3.2,3.2.5.9.3,1.6.9,2.1,1.6.5.7.9,1.7,1.1,2.9.2,1.2.4,2.7.4,4.4s-.1,3.2-.4,4.4c-.2,1.2-.6,2.2-1.1,2.9-.5.7-1.2,1.3-2.1,1.6-.9.3-1.9.5-3.2.5s-2.3-.2-3.2-.5-1.6-.9-2.1-1.6c-.5-.7-.9-1.7-1.1-2.9-.2-1.2-.4-2.7-.4-4.4s.1-3.2.4-4.4c.2-1.2.6-2.2,1.1-2.9.5-.7,1.2-1.3,2.1-1.6.9-.3,1.9-.5,3.2-.5ZM112.2,27c-1.5,0-2.7.3-3.6.8s-1.5,1.5-1.9,2.8c-.4,1.3-.6,3-.6,5.2s.2,3.9.6,5.2c.4,1.3,1,2.2,1.9,2.8.9.6,2.1.8,3.6.8s2.7-.3,3.6-.8c.9-.6,1.5-1.5,1.9-2.8.4-1.3.6-3,.6-5.2s-.2-3.9-.6-5.2c-.4-1.3-1-2.2-1.9-2.8-.9-.6-2.1-.8-3.6-.8Z"/>
        <path class="st3" d="M130.8,26.5c1.3,0,2.3.2,3.1.5s1.3.9,1.7,1.6c.3.8.5,1.9.5,3.3s-.2,2.5-.5,3.3c-.3.8-.9,1.3-1.7,1.6-.8.3-1.8.5-3.1.5s-1.4,0-2,0-1.2,0-1.7,0c-.5,0-.9,0-1.2,0-.3,0-.6,0-.7,0v-.5h5.6c1.1,0,2-.2,2.7-.4.7-.3,1.1-.7,1.4-1.4s.5-1.7.5-2.9-.2-2.3-.5-2.9-.8-1.2-1.4-1.4c-.7-.3-1.6-.4-2.7-.4s-2.5,0-3.5,0c-1,0-1.6,0-2,0l-.4-.5c.6,0,1.2-.1,1.7-.1.5,0,1.1,0,1.8,0,.6,0,1.4,0,2.3,0ZM125.6,26.7v18.3h-.7v-18.3h.7Z"/>
        <path class="st3" d="M144.2,26.7h2.6c.9,0,1.7,0,2.6,0,.9,0,1.7,0,2.6,0v.5h-7.7c-.6,0-1.2.2-1.6.6-.4.4-.6.9-.6,1.6v12.8c0,.6.2,1.2.6,1.6.4.4.9.6,1.6.6h7.6v.5c-.8,0-1.7,0-2.5,0-.9,0-1.7,0-2.6,0h-2.6c-.8,0-1.4-.3-1.9-.8-.5-.5-.8-1.2-.8-1.9v-12.9c0-.8.3-1.4.8-1.9s1.2-.8,1.9-.8ZM142,34.9h8.9v.6h-8.9s0-.6,0-.6Z"/>
        <path class="st3" d="M170.4,26.7v17.9c0,.3-.1.4-.4.4h-1.1c-.1,0-.2,0-.3,0,0,0-.1-.1-.2-.2l-8.5-15.6c-.2-.3-.3-.6-.5-.9-.2-.3-.3-.6-.5-.9h-.7v17.7h-.7v-17.9c0-.3.1-.4.4-.4h1c.1,0,.2,0,.3,0,0,0,.1.1.2.2l8.3,15.3c.2.4.4.7.6,1.1.2.4.4.7.6,1.1h.7v-17.7h.7Z"/>
        <path class="st3" d="M195.5,26.7v.6h-13.5v-.6h13.5ZM189,26.7v18.3h-.7v-18.3h.7Z"/>
        <path class="st3" d="M202.8,26.7h2.6c.9,0,1.7,0,2.6,0s1.7,0,2.6,0v.5h-7.7c-.6,0-1.2.2-1.6.6-.4.4-.6.9-.6,1.6v12.8c0,.6.2,1.2.6,1.6.4.4.9.6,1.6.6h7.6v.5c-.8,0-1.7,0-2.5,0s-1.7,0-2.6,0h-2.6c-.8,0-1.4-.3-1.9-.8-.5-.5-.8-1.2-.8-1.9v-12.9c0-.8.3-1.4.8-1.9.5-.5,1.2-.8,1.9-.8ZM200.5,34.9h8.9v.6h-8.9s0-.6,0-.6Z"/>
        <path class="st3" d="M222,26.4c.7,0,1.3,0,1.8,0,.5,0,1,0,1.4.1.4,0,.9.1,1.4.3l-.2.5c-.5,0-1-.2-1.4-.2s-.9,0-1.4,0-1.1,0-1.7,0c-1.5,0-2.7.3-3.6.8-.9.6-1.5,1.5-1.9,2.8-.4,1.3-.6,3-.6,5.2s.2,3.9.6,5.2c.4,1.3,1,2.2,1.9,2.8.9.6,2.1.8,3.6.8s2,0,2.7,0c.7,0,1.4-.1,2.1-.3l.2.5c-.7.2-1.4.3-2.2.4s-1.7.1-2.8.1c-1.7,0-3-.3-4-.9s-1.7-1.6-2.1-3-.6-3.2-.6-5.6.2-4.2.6-5.6c.4-1.4,1.1-2.4,2.1-3,1-.6,2.3-.9,4-.9Z"/>
        <path class="st3" d="M232.8,26.7v18.3h-.7v-18.3h.7ZM243.7,34.9v.6h-11.1v-.6h11.1ZM244.1,26.7v18.3h-.7v-18.3h.7Z"/>
        <path class="st3" d="M271.1,26.7v17.9c0,.3-.1.4-.4.4h-1.1c-.1,0-.2,0-.3,0,0,0-.1-.1-.2-.2l-8.5-15.6c-.2-.3-.3-.6-.5-.9-.2-.3-.3-.6-.5-.9h-.7v17.7h-.7v-17.9c0-.3.1-.4.4-.4h1c.1,0,.2,0,.3,0,0,0,.1.1.2.2l8.3,15.3c.2.4.4.7.6,1.1.2.4.4.7.6,1.1h.7v-17.7h.7Z"/>
        <path class="st3" d="M280.4,26.7h2.6c.9,0,1.7,0,2.6,0,.9,0,1.7,0,2.6,0v.5h-7.7c-.6,0-1.2.2-1.6.6-.4.4-.6.9-.6,1.6v12.8c0,.6.2,1.2.6,1.6.4.4.9.6,1.6.6h7.6v.5c-.8,0-1.7,0-2.5,0-.9,0-1.7,0-2.6,0h-2.6c-.8,0-1.4-.3-1.9-.8-.5-.5-.8-1.2-.8-1.9v-12.9c0-.8.3-1.4.8-1.9.5-.5,1.2-.8,1.9-.8ZM278.2,34.9h8.9v.6h-8.9s0-.6,0-.6Z"/>
        <path class="st3" d="M305.3,26.7v.6h-13.5v-.6h13.5ZM298.9,26.7v18.3h-.7v-18.3h.7Z"/>
        <path class="st3" d="M331.1,26.7l-4.8,18c0,0,0,.1-.1.2,0,0-.2,0-.2,0h-1.1c0,0-.2,0-.2,0,0,0-.1-.1-.1-.2l-3.9-15.4c0-.4-.2-.7-.3-1,0-.3-.2-.7-.3-1h-.6c0,.3-.2.7-.3,1,0,.3-.2.7-.3,1l-3.9,15.4c0,0,0,.2-.1.2,0,0-.2,0-.2,0h-1.1c0,0-.2,0-.2,0,0,0-.1-.1-.1-.2l-4.8-18h.7l4.2,15.9c0,.3.2.6.3.9s.2.6.2.9h.7c0-.3.2-.6.2-.9,0-.3.1-.6.2-.9l4-15.6c0,0,0-.2.1-.2,0,0,.1,0,.2,0h1c0,0,.2,0,.2,0,0,0,.1.1.1.2l4,15.6c0,.3.2.6.2.9,0,.3.1.6.2.9h.7c0-.3.2-.6.3-.9,0-.3.2-.6.2-.9l4.2-15.9h.7Z"/>
        <path class="st3" d="M342.1,26.4c1.3,0,2.3.2,3.2.5.9.3,1.6.9,2.1,1.6.5.7.9,1.7,1.1,2.9.2,1.2.4,2.7.4,4.4s-.1,3.2-.4,4.4c-.2,1.2-.6,2.2-1.1,2.9-.5.7-1.2,1.3-2.1,1.6s-1.9.5-3.2.5-2.3-.2-3.2-.5-1.6-.9-2.1-1.6c-.5-.7-.9-1.7-1.1-2.9-.2-1.2-.4-2.7-.4-4.4s.1-3.2.4-4.4c.2-1.2.6-2.2,1.1-2.9.5-.7,1.2-1.3,2.1-1.6.9-.3,1.9-.5,3.2-.5ZM342.1,27c-1.5,0-2.7.3-3.6.8s-1.5,1.5-1.9,2.8c-.4,1.3-.6,3-.6,5.2s.2,3.9.6,5.2c.4,1.3,1,2.2,1.9,2.8.9.6,2.1.8,3.6.8s2.7-.3,3.6-.8c.9-.6,1.5-1.5,1.9-2.8.4-1.3.6-3,.6-5.2s-.2-3.9-.6-5.2c-.4-1.3-1-2.2-1.9-2.8-.9-.6-2.1-.8-3.6-.8Z"/>
        <path class="st3" d="M360.8,26.5c1.3,0,2.3.1,3.1.4.8.3,1.3.8,1.7,1.5.3.7.5,1.8.5,3.2s-.1,2-.4,2.7c-.2.7-.6,1.2-1.1,1.5-.5.3-1.1.6-1.9.7h0c.3.2.6.4.8.6s.5.5.7.9c.2.3.4.7.5,1.1l2,5.9h-.7l-2-5.8c-.3-.9-.7-1.5-1.2-1.9-.5-.4-1.1-.6-1.8-.6-1,0-1.9,0-2.7,0s-1.5,0-2,0c-.5,0-.9,0-1.1,0v-.5h5.6c1.1,0,2-.2,2.7-.4.7-.3,1.1-.7,1.4-1.4.3-.6.5-1.6.5-2.7s-.1-2.1-.5-2.8c-.3-.7-.8-1.1-1.4-1.4-.7-.3-1.6-.4-2.7-.4s-2.5,0-3.5,0-1.6,0-2,0l-.4-.5c.6,0,1.2-.1,1.7-.1.5,0,1.1,0,1.8,0,.6,0,1.4,0,2.3,0ZM355.6,26.7v18.3h-.7v-18.3h.7Z"/>
        <path class="st3" d="M372.9,26.7v6.3c0,.5,0,.9,0,1.2,0,.4,0,.8,0,1.2,0,.5,0,.9,0,1.3s0,.8,0,1.3v7h-.6v-18.3h.6ZM376.4,35.2v.6h-3.8v-.6h3.8ZM383.1,26.7l-6.1,8.1c-.1.1-.2.3-.3.4-.1.1-.2.2-.3.3h0c0,.1.2.2.3.3s.2.2.3.4l6.6,8.9h-.8l-7.1-9.5,6.7-8.7h.8Z"/>
      </g>
    </g>
  </g>
  <g class="st5">
    <g class="st5">
      <g class="st5">
        <path class="st1" d="M105.1,61.8v19.1h-.7v-19.1h.7Z"/>
        <path class="st1" d="M125.5,61.8v18.7c0,.3-.1.4-.4.4h-1.2c-.1,0-.2,0-.3,0,0,0-.2-.1-.2-.2l-8.8-16.3c-.2-.3-.3-.6-.5-.9s-.3-.6-.5-.9h-.7v18.5h-.7v-18.7c0-.3.1-.4.4-.4h1.1c.1,0,.2,0,.3,0,0,0,.2.1.2.2l8.7,15.9c.2.4.4.7.6,1.1.2.4.4.8.6,1.1h.8v-18.5h.7Z"/>
        <path class="st1" d="M145.9,61.8v18.7c0,.3-.1.4-.4.4h-1.2c-.1,0-.2,0-.3,0,0,0-.2-.1-.2-.2l-8.8-16.3c-.2-.3-.3-.6-.5-.9s-.3-.6-.5-.9h-.7v18.5h-.7v-18.7c0-.3.1-.4.4-.4h1.1c.1,0,.2,0,.3,0,0,0,.2.1.2.2l8.7,15.9c.2.4.4.7.6,1.1.2.4.4.8.6,1.1h.8v-18.5h.7Z"/>
        <path class="st1" d="M159.3,61.5c1.3,0,2.4.2,3.3.5.9.4,1.6.9,2.2,1.7.5.8.9,1.8,1.2,3,.2,1.3.4,2.8.4,4.6s-.1,3.4-.4,4.6c-.2,1.3-.6,2.3-1.2,3-.5.8-1.3,1.3-2.2,1.7-.9.3-2,.5-3.3.5s-2.4-.2-3.3-.5c-.9-.4-1.6-.9-2.2-1.7-.5-.8-.9-1.8-1.2-3-.2-1.3-.4-2.8-.4-4.6s.1-3.4.4-4.6c.2-1.3.6-2.3,1.2-3,.5-.8,1.3-1.3,2.2-1.7.9-.4,2-.5,3.3-.5ZM159.3,62.1c-1.6,0-2.8.3-3.7.9-.9.6-1.6,1.6-2,2.9-.4,1.3-.6,3.2-.6,5.4s.2,4.1.6,5.4c.4,1.3,1.1,2.3,2,2.9.9.6,2.2.9,3.7.9s2.8-.3,3.7-.9c.9-.6,1.6-1.6,2-2.9.4-1.3.6-3.2.6-5.4s-.2-4.1-.6-5.4c-.4-1.3-1.1-2.3-2-2.9-.9-.6-2.2-.9-3.7-.9Z"/>
        <path class="st1" d="M185.3,61.8l-6.5,18.8c0,0,0,.1-.1.2,0,0-.1,0-.2,0h-1.2c0,0-.1,0-.2,0,0,0-.1-.1-.2-.2l-6.5-18.8h.7l5.6,16.4c.1.4.2.7.4,1,.1.3.2.7.3,1h.8c.1-.3.2-.7.3-1,.1-.3.2-.7.4-1l5.6-16.4h.7Z"/>
        <path class="st1" d="M195.4,61.8c0,0,.2,0,.2,0,0,0,.1.1.1.2l6.9,18.8h-.7l-6.1-16.9c0-.3-.2-.5-.3-.8,0-.3-.2-.5-.3-.8h-.8c0,.3-.2.5-.3.8,0,.3-.2.5-.3.8l-6.1,16.9h-.7l6.9-18.8c0,0,0-.2.2-.2,0,0,.1,0,.2,0h1.2ZM199.6,73.3v.6h-9.7v-.6h9.7Z"/>
        <path class="st1" d="M217.6,61.8v.6h-14.1v-.6h14.1ZM210.9,61.8v19.1h-.7v-19.1h.7Z"/>
        <path class="st1" d="M223.3,61.8v19.1h-.7v-19.1h.7Z"/>
        <path class="st1" d="M236.7,61.5c1.3,0,2.4.2,3.3.5.9.4,1.6.9,2.2,1.7.5.8.9,1.8,1.2,3,.2,1.3.4,2.8.4,4.6s-.1,3.4-.4,4.6c-.2,1.3-.6,2.3-1.2,3-.5.8-1.3,1.3-2.2,1.7-.9.3-2,.5-3.3.5s-2.4-.2-3.3-.5c-.9-.4-1.6-.9-2.2-1.7-.5-.8-.9-1.8-1.2-3-.2-1.3-.4-2.8-.4-4.6s.1-3.4.4-4.6c.2-1.3.6-2.3,1.2-3,.5-.8,1.3-1.3,2.2-1.7.9-.4,2-.5,3.3-.5ZM236.7,62.1c-1.6,0-2.8.3-3.7.9-.9.6-1.6,1.6-2,2.9-.4,1.3-.6,3.2-.6,5.4s.2,4.1.6,5.4c.4,1.3,1.1,2.3,2,2.9s2.2.9,3.7.9,2.8-.3,3.7-.9,1.6-1.6,2-2.9c.4-1.3.6-3.2.6-5.4s-.2-4.1-.6-5.4c-.4-1.3-1.1-2.3-2-2.9-.9-.6-2.2-.9-3.7-.9Z"/>
        <path class="st1" d="M263.4,61.8v18.7c0,.3-.1.4-.4.4h-1.2c-.1,0-.2,0-.3,0,0,0-.2-.1-.2-.2l-8.8-16.3c-.2-.3-.3-.6-.5-.9-.2-.3-.3-.6-.5-.9h-.7v18.5h-.7v-18.7c0-.3.1-.4.4-.4h1.1c.1,0,.2,0,.3,0,0,0,.2.1.2.2l8.7,15.9c.2.4.4.7.6,1.1.2.4.4.8.6,1.1h.8v-18.5h.7Z"/>
        <path class="st1" d="M275.2,61.5c.9,0,1.7,0,2.6.1.9,0,1.7.1,2.6.2v.5c-.9,0-1.8-.1-2.6-.2-.8,0-1.7,0-2.6,0s-1.6,0-2.3,0-1.2.2-1.6.5c-.4.3-.7.7-.9,1.3-.2.6-.3,1.4-.3,2.4s.2,2.4.7,3.1c.5.6,1.2,1,2.3,1.2l4.2.6c1.4.2,2.4.6,3,1.4.6.7.9,2,.9,3.6s-.1,2-.4,2.7c-.3.7-.6,1.2-1.1,1.5-.5.3-1.1.5-1.8.6-.7.1-1.5.2-2.5.2s-1.6,0-2.5,0c-.9,0-2-.1-3.1-.2v-.5c.8,0,1.4,0,2,.1.6,0,1.2,0,1.7,0,.6,0,1.2,0,1.9,0,1.2,0,2.2-.1,3-.3.7-.2,1.3-.6,1.6-1.2.3-.6.5-1.6.5-2.8s-.1-1.8-.3-2.4c-.2-.6-.5-1-1-1.3-.5-.3-1.1-.5-1.9-.6l-4.2-.6c-1.3-.1-2.3-.6-2.9-1.4-.6-.8-.8-2-.8-3.5s.1-2,.4-2.7c.2-.7.6-1.2,1.1-1.5.5-.3,1.1-.5,1.8-.6s1.6-.1,2.5,0Z"/>
      </g>
      <g class="st5">
        <path class="st2" d="M105.1,61.8v19.1h-.7v-19.1h.7Z"/>
        <path class="st2" d="M125.5,61.8v18.7c0,.3-.1.4-.4.4h-1.2c-.1,0-.2,0-.3,0,0,0-.2-.1-.2-.2l-8.8-16.3c-.2-.3-.3-.6-.5-.9s-.3-.6-.5-.9h-.7v18.5h-.7v-18.7c0-.3.1-.4.4-.4h1.1c.1,0,.2,0,.3,0,0,0,.2.1.2.2l8.7,15.9c.2.4.4.7.6,1.1.2.4.4.8.6,1.1h.8v-18.5h.7Z"/>
        <path class="st2" d="M145.9,61.8v18.7c0,.3-.1.4-.4.4h-1.2c-.1,0-.2,0-.3,0,0,0-.2-.1-.2-.2l-8.8-16.3c-.2-.3-.3-.6-.5-.9s-.3-.6-.5-.9h-.7v18.5h-.7v-18.7c0-.3.1-.4.4-.4h1.1c.1,0,.2,0,.3,0,0,0,.2.1.2.2l8.7,15.9c.2.4.4.7.6,1.1.2.4.4.8.6,1.1h.8v-18.5h.7Z"/>
        <path class="st2" d="M159.3,61.5c1.3,0,2.4.2,3.3.5.9.4,1.6.9,2.2,1.7.5.8.9,1.8,1.2,3,.2,1.3.4,2.8.4,4.6s-.1,3.4-.4,4.6c-.2,1.3-.6,2.3-1.2,3-.5.8-1.3,1.3-2.2,1.7-.9.3-2,.5-3.3.5s-2.4-.2-3.3-.5c-.9-.4-1.6-.9-2.2-1.7-.5-.8-.9-1.8-1.2-3-.2-1.3-.4-2.8-.4-4.6s.1-3.4.4-4.6c.2-1.3.6-2.3,1.2-3,.5-.8,1.3-1.3,2.2-1.7.9-.4,2-.5,3.3-.5ZM159.3,62.1c-1.6,0-2.8.3-3.7.9-.9.6-1.6,1.6-2,2.9-.4,1.3-.6,3.2-.6,5.4s.2,4.1.6,5.4c.4,1.3,1.1,2.3,2,2.9.9.6,2.2.9,3.7.9s2.8-.3,3.7-.9c.9-.6,1.6-1.6,2-2.9.4-1.3.6-3.2.6-5.4s-.2-4.1-.6-5.4c-.4-1.3-1.1-2.3-2-2.9-.9-.6-2.2-.9-3.7-.9Z"/>
        <path class="st2" d="M185.3,61.8l-6.5,18.8c0,0,0,.1-.1.2,0,0-.1,0-.2,0h-1.2c0,0-.1,0-.2,0,0,0-.1-.1-.2-.2l-6.5-18.8h.7l5.6,16.4c.1.4.2.7.4,1,.1.3.2.7.3,1h.8c.1-.3.2-.7.3-1,.1-.3.2-.7.4-1l5.6-16.4h.7Z"/>
        <path class="st2" d="M195.4,61.8c0,0,.2,0,.2,0,0,0,.1.1.1.2l6.9,18.8h-.7l-6.1-16.9c0-.3-.2-.5-.3-.8,0-.3-.2-.5-.3-.8h-.8c0,.3-.2.5-.3.8,0,.3-.2.5-.3.8l-6.1,16.9h-.7l6.9-18.8c0,0,0-.2.2-.2,0,0,.1,0,.2,0h1.2ZM199.6,73.3v.6h-9.7v-.6h9.7Z"/>
        <path class="st2" d="M217.6,61.8v.6h-14.1v-.6h14.1ZM210.9,61.8v19.1h-.7v-19.1h.7Z"/>
        <path class="st2" d="M223.3,61.8v19.1h-.7v-19.1h.7Z"/>
        <path class="st2" d="M236.7,61.5c1.3,0,2.4.2,3.3.5.9.4,1.6.9,2.2,1.7.5.8.9,1.8,1.2,3,.2,1.3.4,2.8.4,4.6s-.1,3.4-.4,4.6c-.2,1.3-.6,2.3-1.2,3-.5.8-1.3,1.3-2.2,1.7-.9.3-2,.5-3.3.5s-2.4-.2-3.3-.5c-.9-.4-1.6-.9-2.2-1.7-.5-.8-.9-1.8-1.2-3-.2-1.3-.4-2.8-.4-4.6s.1-3.4.4-4.6c.2-1.3.6-2.3,1.2-3,.5-.8,1.3-1.3,2.2-1.7.9-.4,2-.5,3.3-.5ZM236.7,62.1c-1.6,0-2.8.3-3.7.9-.9.6-1.6,1.6-2,2.9-.4,1.3-.6,3.2-.6,5.4s.2,4.1.6,5.4c.4,1.3,1.1,2.3,2,2.9s2.2.9,3.7.9,2.8-.3,3.7-.9,1.6-1.6,2-2.9c.4-1.3.6-3.2.6-5.4s-.2-4.1-.6-5.4c-.4-1.3-1.1-2.3-2-2.9-.9-.6-2.2-.9-3.7-.9Z"/>
        <path class="st2" d="M263.4,61.8v18.7c0,.3-.1.4-.4.4h-1.2c-.1,0-.2,0-.3,0,0,0-.2-.1-.2-.2l-8.8-16.3c-.2-.3-.3-.6-.5-.9-.2-.3-.3-.6-.5-.9h-.7v18.5h-.7v-18.7c0-.3.1-.4.4-.4h1.1c.1,0,.2,0,.3,0,0,0,.2.1.2.2l8.7,15.9c.2.4.4.7.6,1.1.2.4.4.8.6,1.1h.8v-18.5h.7Z"/>
        <path class="st2" d="M275.2,61.5c.9,0,1.7,0,2.6.1.9,0,1.7.1,2.6.2v.5c-.9,0-1.8-.1-2.6-.2-.8,0-1.7,0-2.6,0s-1.6,0-2.3,0-1.2.2-1.6.5c-.4.3-.7.7-.9,1.3-.2.6-.3,1.4-.3,2.4s.2,2.4.7,3.1c.5.6,1.2,1,2.3,1.2l4.2.6c1.4.2,2.4.6,3,1.4.6.7.9,2,.9,3.6s-.1,2-.4,2.7c-.3.7-.6,1.2-1.1,1.5-.5.3-1.1.5-1.8.6-.7.1-1.5.2-2.5.2s-1.6,0-2.5,0c-.9,0-2-.1-3.1-.2v-.5c.8,0,1.4,0,2,.1.6,0,1.2,0,1.7,0,.6,0,1.2,0,1.9,0,1.2,0,2.2-.1,3-.3.7-.2,1.3-.6,1.6-1.2.3-.6.5-1.6.5-2.8s-.1-1.8-.3-2.4c-.2-.6-.5-1-1-1.3-.5-.3-1.1-.5-1.9-.6l-4.2-.6c-1.3-.1-2.3-.6-2.9-1.4-.6-.8-.8-2-.8-3.5s.1-2,.4-2.7c.2-.7.6-1.2,1.1-1.5.5-.3,1.1-.5,1.8-.6s1.6-.1,2.5,0Z"/>
      </g>
    </g>
  </g>
  <g class="st5">
    <g class="st5">
      <text class="st4" transform="translate(293 80.1)"><tspan x="0" y="0">DIVISION</tspan></text>
    </g>
  </g>
</svg>