<?xml version="1.0" encoding="UTF-8"?>
<svg id="Layer_1" xmlns="http://www.w3.org/2000/svg" version="1.1" viewBox="0 0 400 125">
  <!-- Generator: Adobe Illustrator 29.2.1, SVG Export Plug-In . SVG Version: 2.1.0 Build 116)  -->
  <defs>
    <style>
      .st0 {
        fill: none;
        stroke: #4868ec;
        stroke-miterlimit: 10;
        stroke-width: .2px;
      }

      .st1 {
        fill: #001000;
      }

      .st2 {
        fill: #4868ec;
      }
    </style>
  </defs>
  <g>
    <path class="st0" d="M33.1,34.4s1.6.4,4.4.4,3.3,0,5.5-.4c2.3-.3,4.7-.8,7.3-1.7,2.7-.8,5.5-2.1,8.1-3.7,2.5-1.6,5.1-3.5,7.1-5.7.9-1.1,1.9-2.3,2.5-3.3s1.2-2.3,1.6-3.5c.7-2.3.5-4.5-.3-6.4s-2.5-3.6-4.7-4.7-2.3-1.1-3.6-1.5c-1.3-.4-2.7-.5-4.1-.8-2.9-.3-6,0-8.9.4-2.9.5-5.7,1.3-8.3,2.3-2.5.9-4.7,2.1-6.4,3.2s-3.2,2.1-4.3,3.1c-2.1,1.7-2.9,2.9-2.9,2.9,0,0-1.2.4-3.3,1.3-1.9.9-4.5,2.7-6.5,5.5-1.1,1.5-1.9,3.1-2.5,5.1s-1.1,4.3-1.2,6.5c0,2.5.1,5.1.8,7.9.5,2.9,1.6,5.7,2.9,8.8,1.3,2.9,2.9,6,4.8,8.8,1.9,2.9,4,5.7,6.3,8.4,4.5,5.3,9.5,10,14.1,13.6,4.7,3.6,8.7,6.1,11.6,7.7s4.7,2.5,4.7,2.5c0,0,.7-.9,2.3-2.4,1.6-1.5,4.3-3.5,7.9-4.9,1.9-.8,4-1.3,6.3-1.6s4.5-.4,6.7,0c2.1.3,4.3,1.1,6,2.1,1.6,1.1,2.9,2.5,3.6,4.1s.8,3.6.4,5.5c-.5,1.9-1.6,3.9-2.9,5.6-1.5,1.7-3.3,3.3-5.2,4.5-2,1.2-4,2.3-6,2.9-4,1.3-7.5,1.5-9.6,1.3s-3.3-.5-3.3-.5c0,0-1.1.8-3.1,2-1.9,1.1-4.8,2.4-8.3,2.8-3.3.4-7.5-.3-11.1-2.5-1.9-1.2-3.7-2.9-5.3-4.9-.8-1.1-1.6-2.3-2.4-3.5-.8-1.2-1.5-2.5-2.1-4s-1.2-2.9-1.7-4.7c-.5-1.6-.9-3.3-1.3-5.1-.8-3.6-1.3-7.2-1.6-10.9-.3-3.9-.3-7.6,0-11.2.1-3.6.5-7.2,1.1-10.4,1.1-6.4,2.5-11.7,3.6-15.3,1.2-3.6,1.9-5.5,1.9-5.5h0c0-.1-.3-.1-.3-.1Z"/>
    <path class="st0" d="M52.3,106.2s.8.9,2.9,2.1,2.5,1.2,4.3,1.6,4,.8,6.5.8,5.5-.4,8.4-1.2c3.1-.8,6.1-2,9.1-3.7,2.9-1.6,5.5-3.7,7.6-6.1.9-1.2,1.9-2.4,2.5-3.6.7-1.2,1.2-2.5,1.6-3.9.5-2.5.5-5.1-.4-7.1-.8-2.1-2.5-4-4.4-5.3-2.1-1.5-4.5-2.3-7.1-2.8-2.5-.5-5.3-.5-7.7-.4-5.1.4-9.2,1.9-12,3.2-2.7,1.2-4.1,2.3-4.1,2.3"/>
    <path class="st0" d="M49.5,106s.8,1.2,3.1,2.4c1.2.7,2.7,1.5,4.5,1.9,1.9.5,4.3.9,7.1,1.1,2.8,0,6-.1,9.3-.9s6.8-2,10.1-3.9c3.2-1.7,6.1-4,8.5-6.7,1.2-1.2,2.3-2.5,2.9-4,.8-1.3,1.5-2.8,1.9-4.1.8-2.7.8-5.5,0-7.9s-2.5-4.5-4.5-6c-2.3-1.6-4.8-2.7-7.5-3.3-2.8-.7-5.7-.8-8.4-.7-5.6.3-10.1,1.9-13.2,3.2s-4.7,2.3-4.7,2.3"/>
    <path class="st0" d="M46.6,105.5s.8,1.2,3.2,2.8,2.8,1.6,4.7,2.3c2.1.7,4.7,1.2,7.6,1.5,3.1.1,6.4,0,10.1-.8s7.5-2,11.2-3.9c3.6-1.9,6.9-4.1,9.7-6.9,1.3-1.3,2.5-2.8,3.6-4.3.9-1.5,1.7-2.9,2.3-4.5s.8-2.9.9-4.5c0-1.5,0-2.9-.5-4.3-.8-2.7-2.4-5.1-4.5-6.8-2.3-1.9-5.1-3.1-7.7-3.9-2.9-.8-6-1.1-8.9-.9-6,.1-11.1,1.7-14.4,2.9-3.3,1.3-5.1,2.4-5.1,2.4"/>
    <path class="st0" d="M43.5,104.7s.8,1.5,3.1,3.2c1.2.8,2.8,1.9,4.9,2.7,2.1.8,4.8,1.6,7.9,1.9,3.3.3,6.9.3,10.8-.4,4-.7,8.1-1.9,12.3-3.7,4-1.9,7.7-4.3,10.8-7.2,1.6-1.5,2.9-2.9,4-4.5s2.1-3.2,2.8-4.9c.7-1.6,1.2-3.3,1.3-4.9s0-3.2-.1-4.7c-.5-2.9-2.3-5.6-4.3-7.6-1.2-1.1-2.4-1.9-3.7-2.7s-2.9-1.3-4.3-1.9c-3.2-.9-6.4-1.3-9.5-1.5-6.4,0-11.9,1.5-15.6,2.8-3.6,1.3-5.6,2.4-5.6,2.4"/>
    <path class="st0" d="M40.3,103.6s.1.4.7.9c.5.7,1.2,1.6,2.3,2.5,1.2,1.1,2.8,2.3,4.9,3.2s2.3.9,3.6,1.5c1.3.4,2.9.8,4.5,1.1,1.6.3,3.5.4,5.3.4s4,0,6-.4c4.3-.5,8.8-1.7,13.3-3.6,4.4-1.9,8.5-4.3,12.3-7.5,1.7-1.5,3.3-3.1,4.7-4.8,1.3-1.6,2.5-3.3,3.3-5.2.8-1.7,1.5-3.6,1.9-5.3.3-1.7.4-3.5.1-5.1-.4-3.2-1.9-6.1-4-8.4-1.1-1.2-2.4-2.3-3.7-3.1-1.5-.8-2.9-1.6-4.5-2.3-3.3-1.2-6.7-1.7-9.9-1.9-3.3-.1-6.5,0-9.3.5-2.9.5-5.3,1.2-7.3,1.9-4,1.2-6.1,2.4-6.1,2.4"/>
    <path class="st0" d="M37,102s.1.4.5,1.1c.5.7,1.2,1.7,2.3,2.9,1.2,1.2,2.7,2.5,4.8,3.6,1.1.5,2.3,1.2,3.7,1.7s2.9.9,4.7,1.3,3.6.5,5.7.7h6.4c4.7-.4,9.5-1.5,14.3-3.3,4.8-1.9,9.5-4.3,13.6-7.5,2-1.6,3.7-3.2,5.3-5.1,1.6-1.7,2.9-3.6,4-5.5s1.9-3.7,2.3-5.7c.5-1.9.7-3.6.7-5.5,0-3.5-1.5-6.7-3.5-9.3-1.1-1.3-2.3-2.5-3.6-3.5-1.5-1.1-2.9-1.9-4.5-2.5-1.6-.7-3.3-1.2-5.1-1.6s-3.5-.7-5.2-.8c-3.6-.3-6.9-.1-9.9.1-3.1.4-5.7.9-7.7,1.6-4.3,1.2-6.7,2.3-6.7,2.3"/>
    <path class="st0" d="M33.6,100.2s.1.5.5,1.2c.4.8,1.1,1.9,2,3.3,1.1,1.3,2.5,2.8,4.7,4.3,1.1.7,2.3,1.5,3.7,2,1.5.7,3.1,1.2,4.8,1.6,1.9.5,3.7.8,5.9,1.1,2.1.1,4.4.3,6.7.1,4.8-.1,10.1-1.2,15.3-2.9,5.2-1.7,10.3-4.3,14.9-7.5,2.3-1.6,4.3-3.3,6.1-5.2s3.3-3.7,4.7-5.7c1.2-1.9,2.3-4,2.9-6,.7-1.9,1.1-4,1.2-5.9.1-3.7-.9-7.3-2.9-10.1-2-2.9-4.9-5.2-8.1-6.8-1.6-.8-3.3-1.5-5.2-2s-3.6-.8-5.3-1.2c-3.6-.5-7.2-.5-10.4-.1s-6,.8-8.4,1.5c-4.7,1.2-7.1,2.3-7.1,2.3"/>
    <path class="st0" d="M30.3,97.8s.4,2,2.3,4.9,2.4,3.2,4.5,4.7c1.1.8,2.3,1.6,3.6,2.3,1.5.8,3.1,1.5,4.8,2,1.9.5,3.9,1.1,6,1.5,2.3.4,4.5.5,7.1.5s5.2-.1,7.9-.5,5.6-.9,8.4-1.9c5.7-1.6,11.2-4.1,16.3-7.5,2.5-1.6,4.8-3.3,6.9-5.3,2-1.9,3.9-3.9,5.5-6,1.6-2,2.8-4.1,3.6-6.4.8-2.1,1.5-4.3,1.7-6.4.3-2,.1-4-.1-5.9-.4-1.9-1.1-3.6-1.9-5.2-1.9-3.3-4.7-5.9-7.9-7.7-1.6-.9-3.5-1.7-5.2-2.4-1.9-.7-3.6-1.1-5.6-1.5-3.9-.7-7.5-.8-10.8-.7s-6.4.7-8.8,1.2c-4.9,1.1-7.6,2.1-7.6,2.1"/>
    <path class="st0" d="M26.9,94.8s.1,2.1,1.9,5.3c.8,1.6,2.3,3.5,4.3,5.3,1.1.9,2.3,1.9,3.6,2.7,1.5.8,2.9,1.6,4.8,2.4,1.9.7,3.9,1.3,6,1.7,2.3.5,4.7.8,7.2.8s5.3,0,8.3-.1c2.9-.3,5.9-.8,8.8-1.6,6-1.6,12.1-4,17.6-7.2,2.7-1.6,5.3-3.3,7.7-5.3,2.3-1.9,4.4-4,6.3-6.3,1.7-2.1,3.3-4.3,4.4-6.7,1.2-2.3,1.9-4.4,2.4-6.7.5-2.1.5-4.3.4-6.4s-.8-4-1.6-5.7c-1.6-3.6-4.3-6.4-7.5-8.5-1.6-1.1-3.3-2-5.2-2.8s-3.7-1.3-5.7-1.7c-4-.8-7.7-1.2-11.2-1.2s-6.7.4-9.2.8c-5.2.8-8.1,1.9-8.1,1.9"/>
    <path class="st0" d="M23.7,91.8s0,2.3,1.6,5.7,2,3.9,3.9,5.9c.9,1.1,2.1,2,3.5,2.9s2.9,1.9,4.8,2.8,3.9,1.6,6.1,2.1,4.8,1.1,7.5,1.2c2.7.3,5.6.3,8.5,0,2.9-.1,6.1-.5,9.3-1.2,6.4-1.3,12.9-3.6,18.9-6.9,2.9-1.6,5.7-3.5,8.4-5.3,2.5-1.9,4.9-4.1,7.1-6.4,2-2.3,3.7-4.5,5.1-6.9,1.3-2.3,2.4-4.7,2.9-7.1.7-2.3.9-4.7.8-6.7,0-2.1-.5-4.3-1.2-6.1-1.3-3.9-4-7.1-7.1-9.5-1.6-1.2-3.3-2.3-5.2-3.2-1.9-.8-3.7-1.6-5.7-2.1-4-1.1-7.9-1.6-11.6-1.6s-6.9.1-9.6.5c-5.5.8-8.5,1.7-8.5,1.7"/>
    <path class="st0" d="M20.5,88.3s-.1,2.4,1.2,6.1c.7,1.9,1.7,4.1,3.6,6.4.9,1.2,2,2.3,3.3,3.3s2.9,2.1,4.7,3.1,3.9,1.9,6.1,2.5,4.9,1.2,7.6,1.6c2.8.4,5.7.5,8.8.5s6.4-.4,9.7-.9c6.7-1.2,13.6-3.3,20.1-6.7,3.2-1.6,6.3-3.5,9.2-5.5,2.8-2,5.3-4.1,7.7-6.5s4.3-4.7,5.9-7.2c1.6-2.4,2.8-4.9,3.6-7.5.8-2.4,1.2-4.8,1.3-7.1,0-2.3-.1-4.5-.8-6.5-1.2-4-3.6-7.6-6.7-10.3-1.6-1.3-3.3-2.5-5.2-3.5s-3.9-1.9-5.7-2.4c-2-.7-4-1.2-6-1.5-2-.4-4-.5-5.7-.7-3.7-.1-7.2,0-10,.3-5.7.5-8.9,1.6-8.9,1.6"/>
    <path class="st0" d="M17.6,84.8v1.7c0,1.2.1,2.8.8,4.7.5,2,1.6,4.3,3.3,6.7.8,1.2,2,2.4,3.3,3.6,1.3,1.2,2.9,2.3,4.7,3.3,1.9,1.1,4,2,6.1,2.8,2.3.8,4.9,1.5,7.7,1.9,2.9.5,5.9.7,9.1.7s6.7-.3,10.1-.8c7.1-1.1,14.3-3.2,21.2-6.4,3.3-1.6,6.7-3.5,9.9-5.5,2.9-2,5.9-4.3,8.4-6.7,2.4-2.3,4.7-4.8,6.4-7.5,1.7-2.5,3.2-5.1,4.1-7.7.9-2.5,1.6-5.1,1.9-7.5.1-2.4,0-4.7-.5-6.9-.9-4.3-3.3-8.1-6.4-10.9s-3.3-2.7-5.2-3.7-3.9-1.9-5.9-2.7-4-1.2-6-1.6-4-.7-6-.8c-4-.3-7.5-.1-10.3,0-6,.5-9.3,1.3-9.3,1.3"/>
    <path class="st0" d="M14.8,81.5v1.9c0,1.2,0,2.9.5,4.9s1.5,4.5,3.2,7.1,1.9,2.5,3.3,3.7c1.3,1.2,2.9,2.5,4.7,3.6,1.9,1.2,4,2.3,6.3,3.1,2.4.8,5.1,1.6,7.9,2.1s6,.8,9.3.8,6.8-.1,10.5-.7c7.3-.9,14.9-3.1,22.1-6.4,3.6-1.6,7.1-3.5,10.3-5.6,3.2-2,6.1-4.3,8.8-6.8,2.5-2.4,4.9-4.9,6.9-7.6,1.9-2.5,3.5-5.3,4.5-8,1.1-2.5,1.9-5.2,2.1-7.7s.1-4.9-.1-7.2c-.8-4.5-3.3-8.4-6.4-11.5-1.6-1.6-3.3-2.9-5.2-4-1.9-1.2-4-2.1-6-2.9-2.1-.8-4.1-1.3-6.3-1.9s-4.1-.8-6.1-.9c-4-.4-7.6-.3-10.7,0-6.1.4-9.6,1.3-9.6,1.3"/>
    <path class="st0" d="M12.1,78.4v1.9c0,1.2,0,2.9.5,5.1.5,2.1,1.5,4.7,3.2,7.2.8,1.3,2,2.5,3.3,3.9,1.3,1.2,2.9,2.5,4.8,3.6,1.9,1.2,4,2.3,6.4,3.1,2.5.9,5.2,1.6,8.1,2.3,2.9.5,6.3.8,9.6.8s7.1-.1,10.8-.7c7.6-1.1,15.3-3.2,22.8-6.5,3.6-1.6,7.2-3.6,10.5-5.7,3.3-2.1,6.4-4.5,9.2-7.1,2.7-2.5,5.1-5.1,7.1-7.7,1.9-2.7,3.6-5.3,4.7-8.1,1.2-2.7,1.9-5.3,2.3-8,.3-2.5.1-5.1-.1-7.5-.8-4.7-3.3-8.7-6.5-11.7-1.6-1.6-3.5-2.9-5.3-4.1s-4-2.1-6.1-2.9c-2.1-.8-4.3-1.3-6.4-1.9s-4.3-.8-6.3-.9c-4.1-.4-7.9-.3-10.9,0-6.4.5-9.9,1.3-9.9,1.3"/>
    <path class="st0" d="M9.7,76.2v1.9c0,1.2.1,2.9.8,5.1.5,2.1,1.6,4.7,3.6,7.2.9,1.3,2.1,2.5,3.6,3.9s3.1,2.5,5.1,3.6c2,1.2,4.3,2.3,6.7,3.1,2.5.8,5.3,1.6,8.4,2,3.1.5,6.4.8,9.9.8s7.3-.3,11.1-.8c7.7-1.2,15.7-3.6,23.3-7.1,3.7-1.7,7.3-3.7,10.8-6,3.3-2.3,6.4-4.7,9.2-7.3,2.7-2.5,5.1-5.3,7.1-8.1,1.9-2.7,3.5-5.5,4.7-8.4,1.1-2.7,1.7-5.5,2-8.1.1-2.5,0-5.1-.5-7.5-1.1-4.7-3.7-8.7-7.1-11.7-1.7-1.6-3.6-2.9-5.7-4s-4.3-2.1-6.4-2.8c-2.3-.8-4.4-1.3-6.7-1.7s-4.4-.7-6.4-.8c-4.3-.3-8.1-.1-11.2,0-6.4.5-10.1,1.6-10.1,1.6"/>
    <path class="st0" d="M7.7,74.7v1.9c0,1.2.4,2.9,1.2,5.1.8,2.1,2,4.7,4.1,7.1s2.4,2.5,4,3.7,3.3,2.4,5.5,3.5,4.5,2,7.2,2.8,5.7,1.3,8.8,1.7c3.3.4,6.7.5,10.3.3,3.6-.1,7.5-.5,11.3-1.3,7.9-1.5,15.9-4.1,23.3-8,3.7-1.9,7.3-4,10.5-6.4,3.3-2.3,6.3-4.9,8.8-7.6,2.5-2.5,4.8-5.3,6.7-8.3,1.7-2.8,3.2-5.6,4-8.4.8-2.7,1.3-5.5,1.5-8.1,0-2.5-.3-5.1-1.1-7.3-1.5-4.5-4.5-8.4-8.1-11.3-1.9-1.5-4-2.7-6-3.7-2.3-1.1-4.4-1.9-6.7-2.5s-4.7-1.2-6.9-1.5c-2.3-.3-4.5-.5-6.7-.5-4.4-.1-8.3,0-11.6.5-6.5.8-10.3,1.9-10.3,1.9"/>
    <path class="st0" d="M6.5,74.4s0,.7.4,1.9c.3,1.2.8,2.9,1.9,4.9s2.7,4.4,5.1,6.7c1.2,1.2,2.8,2.3,4.5,3.3s3.9,2.1,6,2.9c2.3.8,4.9,1.6,7.7,2.3,2.9.5,6,.9,9.3,1.2,3.3.1,6.9,0,10.7-.3,3.7-.4,7.6-1.1,11.6-2,7.9-1.9,15.7-5.1,23.1-9.2,3.6-2,6.9-4.3,10.1-6.9,3.1-2.5,5.7-5.1,8.1-7.9,2.3-2.7,4.3-5.6,5.7-8.4,1.5-2.8,2.5-5.7,3.2-8.4.5-2.7.8-5.3.5-8-.3-2.5-.9-4.9-1.9-7.1-1.1-2.3-2.4-4.1-4-5.9s-3.6-3.3-5.6-4.7c-2.1-1.3-4.3-2.4-6.7-3.3-2.4-.8-4.8-1.6-7.2-2.1-2.5-.5-4.9-.8-7.3-1.1s-4.7-.3-6.9-.1c-4.5,0-8.4.5-11.7,1.2-6.7,1.2-10.3,2.4-10.3,2.4"/>
    <path class="st0" d="M6.4,75.4s.1.5.7,1.7,1.2,2.7,2.7,4.5c1.5,1.9,3.5,4,6.4,6,1.6,1.1,3.3,2,5.2,2.9,2,.8,4.3,1.7,6.8,2.4s5.3,1.2,8.4,1.6c3.1.3,6.4.4,9.9.3,3.6-.1,7.2-.5,10.9-1.2,3.9-.7,7.7-1.6,11.6-2.9,3.9-1.2,7.7-2.8,11.6-4.7s7.3-3.9,10.7-6.1,6.4-4.7,9.2-7.5c2.7-2.5,5.1-5.3,7.1-8.3,1.9-2.8,3.5-5.7,4.5-8.5,1.1-2.8,1.6-5.6,1.9-8.3.1-2.5,0-5.2-.8-7.6-.7-2.4-1.7-4.7-3.2-6.5-1.5-2-3.2-3.7-5.1-5.3-2-1.6-4.1-2.9-6.4-4-2.4-1.2-4.8-2-7.3-2.5-2.5-.7-5.2-1.2-7.7-1.5-2.5-.3-5.2-.4-7.6-.4s-4.9,0-7.1.4c-4.7.5-8.5,1.2-11.9,2-6.7,1.6-10.1,3.2-10.1,3.2"/>
    <path class="st0" d="M7.7,77.5s.3.5,1.1,1.6,1.9,2.5,3.7,4c.9.8,2,1.6,3.3,2.5s2.9,1.7,4.7,2.5c1.9.8,3.7,1.6,6,2.3s4.8,1.2,7.5,1.6c2.8.4,5.7.5,9.1.5s6.7-.3,10.3-.8c7.2-1.1,14.9-3.1,22.4-6.3,3.7-1.6,7.5-3.5,10.8-5.6,3.5-2.1,6.7-4.4,9.7-6.9,2.9-2.5,5.6-5.1,7.9-7.9,2.3-2.7,4-5.5,5.5-8.4,1.3-2.8,2.3-5.6,2.9-8.4.5-2.7.5-5.3.1-8-.8-5.1-3.3-9.5-6.9-12.9-1.9-1.7-4-3.3-6.3-4.5s-4.8-2.3-7.5-3.1c-2.5-.8-5.3-1.5-8-1.9-2.8-.4-5.5-.5-8.1-.7-5.5,0-10.5.5-15.2,1.3s-8.5,1.9-11.9,2.9c-6.4,2.1-9.9,4-9.9,4"/>
    <path class="st0" d="M10.7,80.6s.5.5,1.5,1.3,2.5,2.1,4.8,3.3c1.2.7,2.5,1.3,4,2,1.6.7,3.3,1.2,5.3,1.9s4.3,1.1,6.8,1.3c2.5.4,5.3.5,8.1.5s6.1,0,9.5-.5c3.3-.4,6.8-1.1,10.5-1.9,7.2-1.7,14.7-4.5,21.6-8.4,3.5-1.9,6.8-4,9.9-6.4,3.1-2.3,5.9-4.8,8.4-7.5,2.4-2.5,4.5-5.3,6.3-8.3,1.6-2.8,2.9-5.6,3.6-8.4.8-2.7,1.2-5.5.9-8.1,0-2.5-.7-5.1-1.6-7.5s-2.3-4.4-4-6.3-3.7-3.6-6-5.1c-2.3-1.5-4.8-2.5-7.5-3.6-2.7-.9-5.5-1.6-8.3-2.1-2.9-.5-5.7-.8-8.7-.8s-5.7,0-8.5.3c-11.3.9-20.5,4.3-26.8,6.9-6.1,2.7-9.5,4.7-9.5,4.7"/>
    <path class="st0" d="M15.3,84s.5.4,1.9,1.2c1.2.7,3.2,1.7,5.9,2.7,1.3.5,2.9.9,4.7,1.5,1.9.5,3.9.8,6,1.2,2.3.3,4.7.5,7.5.5s5.7,0,8.7-.4c6.3-.7,13.1-2.1,20.1-4.7,3.5-1.2,7.1-2.8,10.5-4.5,3.3-1.7,6.7-3.7,9.9-6,3.1-2.3,6-4.5,8.7-7.1,2.5-2.5,4.8-5.2,6.8-8,1.9-2.7,3.3-5.5,4.4-8.4,1.1-2.8,1.6-5.6,1.9-8.3,0-2.5-.1-5.3-.8-7.7-.8-2.4-1.9-4.7-3.3-6.7-1.6-2-3.5-3.9-5.6-5.3-2.3-1.6-4.7-2.9-7.2-4-2.7-1.1-5.5-1.9-8.4-2.5-2.9-.5-6-.9-8.9-1.1-3.1-.1-6,0-9.1.1s-6,.7-8.8,1.2c-11.3,2.1-20.4,6.1-26.3,9.3-5.7,3.2-8.7,5.5-8.7,5.5"/>
    <path class="st0" d="M20.7,87.8s.8.4,2.1.8c1.5.5,3.6,1.2,6.7,1.9,1.6.3,3.3.7,5.2.8,2,.1,4.1.4,6.5.4s5.1,0,7.9-.3c2.8-.3,5.9-.7,8.9-1.3,6.4-1.2,13.1-3.3,19.9-6.5,3.3-1.6,6.7-3.3,9.9-5.3,3.2-2,6.1-4.3,8.9-6.7,2.7-2.4,5.2-4.9,7.5-7.6,2.1-2.5,3.9-5.3,5.3-8.1,1.3-2.7,2.3-5.6,2.8-8.4.5-2.7.5-5.3,0-8-.4-2.5-1.2-5.1-2.5-7.1-1.2-2.3-2.9-4.3-4.9-6-2-1.9-4.3-3.3-6.8-4.7-2.5-1.2-5.3-2.3-8.3-3.1-2.9-.8-6-1.2-9.2-1.6-3.2-.3-6.4-.3-9.5-.1-6.4.3-12.5,1.5-18.1,2.9-5.6,1.6-10.5,3.5-14.9,5.5-4.3,2-7.7,4-10.4,5.9s-4.7,3.3-6,4.4c-1.2,1.1-1.9,1.6-1.9,1.6"/>
    <path class="st0" d="M25.6,91.4s.8.3,2.4.7c1.6.4,4,.9,7.2,1.3,1.6.1,3.5.4,5.6.4h6.8c5.1-.3,10.8-1.2,17.1-2.9,6.3-1.7,12.9-4.3,19.5-7.9,3.2-1.7,6.3-3.7,9.2-6,2.9-2.1,5.6-4.5,8.1-7.1,2.4-2.5,4.5-5.1,6.4-7.9,1.7-2.7,3.1-5.5,4-8.3.9-2.7,1.5-5.5,1.6-8.3,0-2.5-.4-5.3-1.2-7.7s-2.1-4.7-3.6-6.7c-1.6-2-3.6-3.9-6-5.3-2.3-1.6-4.9-2.9-7.7-4-2.9-1.1-5.9-1.9-8.9-2.4-3.2-.5-6.4-.8-9.6-.8s-6.5,0-9.7.5c-6.5.8-12.5,2.3-18.1,4.1-5.5,1.9-10.4,4.1-14.5,6.4-4,2.3-7.3,4.5-9.9,6.4-2.5,1.9-4.3,3.6-5.5,4.7l-1.7,1.7"/>
    <path class="st0" d="M28.8,94.4s.8.3,2.5.5c1.6.4,4.1.8,7.5,1.1,3.3.3,7.7.3,12.7-.1,5.1-.5,10.9-1.6,17.1-3.6,6.3-1.9,12.8-4.7,19.1-8.4,3.1-1.9,6-4,8.8-6.1,2.8-2.3,5.3-4.7,7.6-7.3,2.3-2.5,4.1-5.2,5.7-8,1.6-2.7,2.7-5.5,3.5-8.4.7-2.7.9-5.5.8-8.1-.1-2.5-.8-5.2-1.9-7.5-1.1-2.3-2.5-4.5-4.3-6.4s-4-3.6-6.4-5.1c-2.5-1.5-5.2-2.7-8.1-3.6s-6-1.6-9.2-2c-3.3-.4-6.5-.5-9.9-.5s-6.7.4-9.9.8c-6.5.9-12.5,2.5-18.1,4.7-5.5,2-10.1,4.4-14.3,6.8-4,2.3-7.1,4.7-9.5,6.7s-4.1,3.6-5.2,4.8c-1.2,1.2-1.6,1.9-1.6,1.9"/>
    <path class="st0" d="M30.4,96.6s.8.1,2.5.5c1.6.3,4.3.8,7.5.9,3.5.1,7.7.1,12.7-.4,5.1-.5,10.8-1.7,17.1-3.7,6.1-2,12.7-4.9,18.8-8.7,3.1-1.9,6-4,8.8-6.3,2.7-2.3,5.2-4.7,7.5-7.3,2.1-2.5,4-5.2,5.6-8.1,1.5-2.7,2.5-5.5,3.2-8.3.7-2.7.8-5.5.5-8.1-.1-2.5-.9-5.1-2-7.5s-2.5-4.5-4.5-6.4c-1.9-1.9-4.1-3.6-6.5-5.1-2.5-1.5-5.3-2.5-8.1-3.5-2.9-.8-6.1-1.6-9.3-1.9-3.3-.4-6.5-.5-9.9-.4-3.3,0-6.7.4-9.9.9-6.5,1.1-12.5,2.8-18.1,4.9-5.3,2.1-10.1,4.5-14,6.9s-7.1,4.7-9.5,6.8c-2.3,2-4,3.7-5.1,4.9s-1.6,1.9-1.6,1.9"/>
    <path class="st0" d="M32.3,98.2s.8.1,2.5.5,4.3.7,7.6.8c3.5,0,7.7,0,12.8-.5,5.1-.7,10.8-1.9,17.1-4s12.5-5.1,18.5-8.9c2.9-1.9,5.9-4,8.4-6.4,2.5-2.3,5.1-4.7,7.1-7.5,2-2.5,3.9-5.3,5.2-8.1,1.3-2.7,2.3-5.5,2.9-8.3.5-2.7.5-5.3.3-8-.4-2.5-1.2-5.1-2.3-7.3-1.2-2.3-2.8-4.3-4.8-6.1s-4.3-3.5-6.8-4.8-5.3-2.5-8.4-3.3-6.1-1.3-9.5-1.7c-3.3-.3-6.7-.4-9.9-.1-3.3.1-6.7.5-9.9,1.2-6.5,1.2-12.5,2.9-17.9,5.2s-10,4.7-13.9,7.1-6.8,4.8-9.2,6.9c-2.3,2-4,3.7-5.1,4.9s-1.6,1.9-1.6,1.9"/>
    <path class="st0" d="M35.5,99.5s.8.1,2.5.4c1.7.1,4.4.5,7.9.4,3.6,0,7.9-.3,12.9-1.2,5.1-.8,10.8-2.4,16.9-4.7,2.9-1.2,6-2.5,9.2-4.1,2.9-1.6,6-3.5,8.8-5.5s5.5-4.3,8-6.7c2.4-2.3,4.7-4.9,6.5-7.5s3.3-5.3,4.5-8.1c1.1-2.7,1.9-5.5,2.1-8.1s0-5.3-.5-7.9-1.6-4.9-3.1-7.1c-1.5-2.3-3.3-4.1-5.3-5.9-2.3-1.7-4.7-3.2-7.3-4.4-2.8-1.2-5.7-2.3-8.8-2.9-3.2-.7-6.4-1.1-9.6-1.2-3.3-.1-6.7,0-10,.1-3.3.3-6.7.8-9.9,1.6-6.4,1.3-12.4,3.5-17.7,5.7s-9.7,5.1-13.5,7.6c-3.6,2.5-6.5,5.1-8.8,7.2-2.1,2.1-3.6,3.9-4.7,5.1-.9,1.2-1.5,1.9-1.5,1.9"/>
    <path class="st0" d="M40,100s.9,0,2.8.1h8.1c3.6-.3,8.1-.8,13.1-2,5.1-1.2,10.8-2.9,16.7-5.7,2.9-1.3,5.9-2.9,8.8-4.7s5.7-3.6,8.4-5.9c2.5-2.1,5.1-4.4,7.3-6.9,2.1-2.4,4-5.1,5.7-7.7,1.6-2.5,2.7-5.3,3.6-8.1.8-2.7,1.2-5.3,1.1-8.1,0-5.1-2.1-10.1-5.5-14.1-1.7-2-3.9-3.9-6.1-5.3-2.4-1.6-5.1-2.8-8-3.9-2.9-1.1-6-1.7-9.2-2.3-3.3-.5-6.7-.7-10-.7s-6.8.3-10.1.8-6.7,1.2-9.9,2c-6.4,1.7-12.3,4-17.5,6.7-5.1,2.5-9.3,5.5-12.9,8.1-3.3,2.7-6,5.3-8.1,7.5-1.9,2.3-3.3,4-4.1,5.2s-1.2,1.9-1.2,1.9"/>
    <path class="st0" d="M44.8,99.6h2.9c1.9,0,4.7-.1,8.4-.7s8.1-1.3,13.2-2.9,10.5-3.7,16.3-6.7c2.8-1.6,5.6-3.2,8.3-5.1s5.2-4,7.6-6.3c2.3-2.3,4.5-4.7,6.4-7.2s3.3-5.1,4.7-7.7c1.2-2.5,2-5.3,2.4-8.1.4-2.5.4-5.3,0-7.7-.5-2.5-1.3-4.9-2.5-7.1-1.2-2.3-2.9-4.3-5.1-6-2-1.9-4.4-3.3-7.1-4.7s-5.7-2.4-8.7-3.1c-3.2-.8-6.4-1.2-9.9-1.6-3.5-.1-6.8-.1-10.3,0-7.1.5-13.9,2-20.1,4.1-6.3,2.1-12,4.8-16.9,7.7-4.8,2.9-8.8,5.9-12,8.8-3.2,2.9-5.5,5.6-7.2,7.9-1.7,2.3-2.8,4.1-3.5,5.3s-.9,1.9-.9,1.9"/>
    <path class="st0" d="M49.5,98.2s1.1,0,2.9-.3c1.9-.1,4.8-.5,8.4-1.3,7.5-1.6,18-4.7,28.8-11.6,2.5-1.6,5.2-3.5,7.7-5.6,2.4-2,4.8-4.3,6.9-6.7,2.1-2.3,4-4.8,5.5-7.5,1.6-2.5,2.8-5.2,3.6-7.9.8-2.5,1.2-5.3,1.3-7.9,0-2.5-.4-5.1-1.2-7.5s-2-4.7-3.6-6.7-3.6-4-6-5.5c-2.4-1.6-5.1-2.9-7.9-4-2.9-1.1-6-1.9-9.3-2.4-3.3-.5-6.7-.8-10.1-.8s-7.1.3-10.5.8c-7.1.9-14,2.9-20.1,5.3s-11.7,5.3-16.4,8.5c-4.5,3.1-8.3,6.4-11.2,9.5-2.8,2.9-4.9,5.7-6.4,8.1-1.5,2.3-2.3,4.1-2.9,5.5-.5,1.2-.8,1.9-.8,1.9"/>
    <path class="st0" d="M53.2,95.6s1.1,0,2.9-.4,4.9-.8,8.5-1.9,8.1-2.4,12.9-4.5c4.8-2.1,10-4.9,15.1-8.4s4.9-3.7,7.2-5.9c2.3-2.1,4.3-4.3,6.3-6.8,1.9-2.4,3.3-4.9,4.7-7.5,1.2-2.5,2.1-5.2,2.7-7.7.5-2.5.7-5.2.4-7.7-.3-2.5-.9-4.9-2.1-7.2s-2.7-4.4-4.5-6.3-4.3-3.6-6.7-4.9c-2.5-1.5-5.5-2.5-8.5-3.5-3.2-.8-6.4-1.5-9.9-1.9-3.5-.3-7.1-.4-10.5-.1-3.6.1-7.2.7-10.7,1.3-7.1,1.3-13.9,3.6-20,6.4-6,2.7-11.3,6-15.7,9.3-4.3,3.3-7.7,6.7-10.4,9.9-2.5,3.1-4.3,6-5.6,8.3-1.2,2.3-1.9,4.3-2.3,5.5-.4,1.2-.5,1.9-.5,1.9"/>
    <path class="st0" d="M55.9,92.3s4.3-.5,11.6-2.8c3.6-1.2,8-2.7,12.7-5.1,4.7-2.3,9.7-5.2,14.5-8.9,2.3-1.9,4.7-3.9,6.7-6s4-4.4,5.7-6.9c1.6-2.4,2.9-4.9,4-7.5.9-2.5,1.7-5.1,2-7.7.3-2.5.1-5.1-.4-7.5s-1.5-4.7-2.8-6.9c-1.3-2.1-3.1-4.1-5.2-5.9-2.1-1.7-4.7-3.3-7.3-4.5-2.8-1.2-5.7-2.3-8.9-2.9-3.3-.8-6.7-1.2-10.1-1.3-3.6-.1-7.1,0-10.7.3-3.6.4-7.2.9-10.8,1.7-7.1,1.6-13.7,4.1-19.7,7.1-5.9,2.9-10.9,6.3-15.2,9.9-4.1,3.3-7.3,6.8-9.7,10-2.3,3.1-4,6-4.9,8.4-.9,2.3-1.6,4.3-1.9,5.5s-.4,1.9-.4,1.9"/>
    <path class="st0" d="M57.1,88.6s4.3-.7,11.5-3.1c3.6-1.2,7.9-2.9,12.5-5.3,2.3-1.2,4.7-2.5,7.1-4.1,2.3-1.6,4.7-3.3,7.1-5.1,2.3-1.9,4.4-3.9,6.4-6.1,1.9-2.1,3.7-4.4,5.3-6.9,1.5-2.4,2.7-4.9,3.6-7.5.8-2.5,1.5-5.1,1.6-7.6,0-2.5,0-5.1-.8-7.3-.7-2.3-1.7-4.7-3.2-6.7s-3.3-4-5.5-5.6c-2.3-1.6-4.8-3.1-7.5-4.3-2.9-1.2-6-2-9.2-2.5-3.3-.5-6.7-.9-10.1-.9s-7.1.1-10.7.5c-3.6.5-7.2,1.2-10.7,2-7.1,1.9-13.6,4.4-19.5,7.5-5.7,2.9-10.7,6.4-14.8,10-4,3.5-7.1,6.9-9.2,10.1-2.3,3.1-3.6,6-4.5,8.4-.8,2.3-1.3,4.1-1.6,5.3s-.3,1.9-.3,1.9"/>
    <path class="st0" d="M56.8,84.7s4.3-.7,11.2-3.2c3.6-1.2,7.7-2.9,12.3-5.3s4.5-2.5,6.9-4.1c2.3-1.6,4.7-3.3,6.8-5.1,2.3-1.9,4.3-3.9,6.3-6,1.9-2.1,3.6-4.4,5.1-6.8,1.5-2.3,2.5-4.8,3.5-7.3.8-2.4,1.2-4.9,1.3-7.5.1-4.8-1.3-9.7-4.3-13.6-1.6-2-3.5-3.9-5.6-5.3-2.3-1.6-4.8-2.9-7.6-4-2.9-1.1-6-1.9-9.2-2.5-3.3-.5-6.7-.8-10.1-.8s-7.1.1-10.5.7c-3.6.5-7.1,1.2-10.5,2.1-6.9,1.9-13.3,4.5-19.2,7.6-2.8,1.6-5.5,3.2-7.9,4.8-2.4,1.6-4.7,3.3-6.5,5.1-3.9,3.3-6.8,6.8-8.9,10-2.1,3.1-3.5,5.9-4.3,8.3-.8,2.3-1.2,4.1-1.5,5.3-.1,1.2-.1,1.9-.1,1.9"/>
    <path class="st0" d="M55.4,81s4.1-.7,11.1-3.1c3.5-1.2,7.6-2.9,12.1-5.2,2.3-1.2,4.5-2.5,6.8-4s4.5-3.2,6.7-5.1c2.1-1.9,4.3-3.7,6.1-6,1.9-2.1,3.6-4.3,5.1-6.7s2.5-4.7,3.5-7.1c.8-2.4,1.3-4.8,1.5-7.3.1-4.7-1.2-9.5-4-13.3s-3.3-3.7-5.3-5.3c-2.3-1.6-4.7-2.9-7.5-4s-5.7-1.9-8.9-2.4c-3.2-.5-6.5-.8-9.9-.8s-6.9.1-10.4.7c-3.6.5-7.1,1.2-10.4,2-6.8,1.9-13.2,4.3-18.8,7.5-5.6,2.9-10.4,6.4-14.3,9.9-3.7,3.3-6.7,6.7-8.8,9.9-2.1,2.9-3.5,5.7-4.3,8.1-.8,2.3-1.2,4-1.5,5.2-.1,1.2-.1,1.9-.1,1.9"/>
    <path class="st0" d="M53,77.1s4-.5,10.8-2.8c3.3-1.2,7.5-2.7,11.9-4.9,4.3-2.3,8.9-5.1,13.5-8.5,2.1-1.7,4.3-3.6,6.1-5.7,1.9-2,3.6-4.1,5.2-6.4,1.5-2.3,2.7-4.5,3.6-6.9.8-2.3,1.5-4.7,1.6-7.1.1-2.3,0-4.7-.5-6.9s-1.6-4.3-2.9-6.3-3.1-3.7-5.1-5.3-4.4-2.9-7.1-4c-2.7-1.2-5.6-1.9-8.5-2.5-3.1-.5-6.4-.9-9.6-.9s-6.7,0-10.1.5c-3.5.4-6.8,1.1-10.1,1.9-6.7,1.6-12.9,4.1-18.5,6.9-5.5,2.8-10.3,6-14.1,9.3-3.7,3.2-6.7,6.4-8.9,9.5-2.1,2.9-3.6,5.6-4.4,7.7-.8,2.1-1.3,4-1.6,5.1s-.3,1.7-.3,1.7"/>
    <path class="st0" d="M50,73.4s4-.5,10.5-2.4c3.3-.9,7.3-2.4,11.6-4.5,4.3-2,8.9-4.7,13.3-8,2.3-1.6,4.3-3.5,6.3-5.3s3.7-4,5.3-6.1,2.9-4.4,4-6.7c.9-2.3,1.7-4.7,2-6.9s.3-4.7,0-6.7c-.4-2.3-1.2-4.3-2.3-6.3-1.2-1.9-2.7-3.7-4.5-5.3s-4-2.9-6.4-4.1c-2.5-1.2-5.2-2-8.1-2.7-2.9-.7-6-1.1-9.2-1.2s-6.5,0-9.9.3-6.7.8-9.9,1.6c-6.5,1.5-12.7,3.6-18.1,6.4-5.5,2.5-10.1,5.7-14.1,8.8-3.9,3.1-6.8,6.1-9.2,9.1-2.3,2.8-3.6,5.3-4.7,7.5-.9,2.1-1.5,3.7-1.7,4.9s-.4,1.7-.4,1.7"/>
    <path class="st0" d="M46.6,69.9s3.7-.3,10.1-2c3.3-.8,7.1-2.1,11.3-4s8.8-4.3,13.3-7.5c2.3-1.6,4.3-3.2,6.4-5.1,2-1.9,3.9-3.7,5.6-5.9,1.6-2,3.1-4.3,4.3-6.4,1.2-2.3,2-4.4,2.5-6.7s.7-4.4.5-6.7c-.1-2.1-.8-4.3-1.7-6.1s-2.3-3.7-3.9-5.3c-1.6-1.6-3.6-3.1-5.9-4.3-2.3-1.2-4.8-2.3-7.5-2.9-2.8-.8-5.7-1.2-8.7-1.6-3.1-.3-6.1-.3-9.3,0-3.2.1-6.4.5-9.5,1.2-6.4,1.2-12.3,3.2-17.7,5.7-5.3,2.4-10.1,5.2-14,8.1-3.9,2.9-6.9,5.7-9.3,8.5-2.3,2.7-3.9,5.1-5.1,7.2-1.1,2-1.6,3.6-2,4.7s-.5,1.6-.5,1.6"/>
    <path class="st0" d="M43.1,66.4s.8,0,2.5-.3c1.6-.1,4.1-.5,7.2-1.2,6.3-1.5,15.2-4.3,24.3-10.1,2.3-1.5,4.4-2.9,6.4-4.7s4-3.6,5.7-5.5,3.3-4,4.7-6.1c1.2-2.1,2.3-4.3,2.9-6.4s1.1-4.3,1.1-6.4-.4-4.1-1.1-6.1c-.7-1.9-1.9-3.7-3.2-5.3-1.5-1.6-3.2-3.2-5.1-4.4-2-1.2-4.3-2.3-6.8-3.2-2.5-.8-5.2-1.5-8.1-1.9s-5.9-.5-8.8-.5-6,.4-9.1.8c-6,.9-11.9,2.7-17.3,4.9-5.3,2.1-10,4.7-14,7.5-3.9,2.7-7.1,5.3-9.5,8-2.4,2.5-4.1,4.9-5.3,6.8s-1.9,3.5-2.3,4.5c-.4,1.1-.5,1.6-.5,1.6"/>
    <path class="st0" d="M39.9,63s.8,0,2.4-.1c1.6,0,3.9-.4,6.8-.9,6-1.2,14.7-3.6,23.6-8.8,2.3-1.2,4.4-2.7,6.5-4.3,2.1-1.6,4.1-3.3,6-5.1,1.9-1.9,3.5-3.7,4.9-5.7,1.3-2,2.5-4,3.5-6.1.8-2,1.5-4.1,1.6-6.3.1-2,0-4.1-.4-6-.5-1.9-1.3-3.7-2.5-5.3-1.2-1.7-2.7-3.2-4.4-4.5-1.9-1.3-3.9-2.5-6-3.3-2.3-.9-4.8-1.6-7.5-2.1s-5.3-.8-8.3-.8-5.7,0-8.7.5c-5.9.7-11.6,2.1-16.7,4s-9.9,4.3-13.7,6.7-7.1,5.1-9.6,7.5c-2.4,2.3-4.3,4.7-5.6,6.4-1.2,1.9-2.1,3.3-2.5,4.3-.5.9-.7,1.6-.7,1.6"/>
    <path class="st0" d="M37,59.5h2.3c1.5,0,3.6-.1,6.4-.5s6.3-1.1,10.1-2.3c4-1.2,8.3-2.8,12.7-5.1,2.3-1.2,4.3-2.4,6.5-3.9,2.1-1.5,4.1-2.9,6-4.7,1.9-1.6,3.6-3.5,5.2-5.3,1.6-1.9,2.8-3.9,3.9-5.9.9-1.9,1.7-4,2.3-6,.4-2,.5-4,.3-5.9-.5-3.7-2.5-7.3-5.3-10-1.6-1.3-3.3-2.5-5.3-3.6s-4.3-1.9-6.7-2.4-5.1-.9-7.6-1.2c-2.7-.1-5.3,0-8.1,0-5.6.5-10.9,1.6-16,3.3-5.1,1.6-9.6,3.7-13.6,6-3.9,2.3-7.1,4.7-9.7,6.8-2.5,2.3-4.4,4.3-5.7,6-1.3,1.7-2.3,3.2-2.8,4.1-.5.9-.8,1.5-.8,1.5"/>
    <path class="st0" d="M34.3,56h2c1.3,0,3.3,0,6-.3,2.7-.3,6-.8,9.7-1.7s8-2.4,12.3-4.4c2.1-.9,4.3-2.1,6.4-3.5,2.1-1.2,4.1-2.7,6.1-4.3,1.9-1.6,3.7-3.2,5.3-5.1,1.6-1.7,2.9-3.6,4.3-5.6,1.2-1.9,2-3.9,2.5-5.7s.8-3.9.8-5.7c0-3.6-1.6-7.2-4-10-1.2-1.5-2.9-2.7-4.7-3.6-1.9-1.1-3.9-1.9-6-2.5s-4.7-1.2-7.1-1.5c-2.5-.3-5.1-.4-7.6-.3-5.2.1-10.4,1.2-15.2,2.5-4.9,1.3-9.3,3.2-13.2,5.2s-7.1,4.1-9.6,6.3c-2.5,2-4.5,4-6,5.6s-2.4,2.9-2.9,3.9-.8,1.3-.8,1.3"/>
    <path class="st0" d="M32.1,52.8h7.5c2.5-.1,5.6-.5,9.2-1.2s7.6-1.9,11.9-3.7c4.1-1.7,8.4-4,12.4-6.9,1.9-1.5,3.7-2.9,5.5-4.7s3.2-3.3,4.4-5.2c1.2-1.7,2.3-3.6,2.9-5.5.8-1.9,1.2-3.6,1.3-5.5.3-3.5-.7-7.1-2.8-9.9-1.1-1.5-2.4-2.7-4-3.7-1.6-1.2-3.3-2-5.3-2.8s-4.1-1.3-6.4-1.6c-2.3-.4-4.7-.5-7.1-.5s-4.9.1-7.3.5-4.8.8-7.1,1.3c-4.7,1.2-8.9,2.8-12.7,4.5s-6.9,3.7-9.5,5.7c-2.5,1.9-4.5,3.6-6,5.2-1.5,1.5-2.5,2.7-3.2,3.6-.7.8-.9,1.3-.9,1.3"/>
    <path class="st0" d="M30.5,49.5s.5,0,1.7.1c1.2,0,2.9.1,5.2.1s5.2-.3,8.5-.8c3.3-.5,7.2-1.6,11.2-3.1,4-1.6,8.1-3.6,12.1-6.1,1.9-1.2,3.7-2.7,5.5-4.3,1.6-1.5,3.3-3.1,4.7-4.8,1.3-1.6,2.4-3.3,3.3-5.2.8-1.7,1.5-3.5,1.7-5.3.3-1.7.3-3.5,0-5.1-.3-1.6-.8-3.2-1.7-4.5-.8-1.5-2-2.7-3.3-3.9s-2.9-2.1-4.7-2.9c-1.9-.8-3.7-1.5-5.7-1.9-2.1-.5-4.3-.7-6.4-.8-2.3,0-4.5,0-6.7.1-2.3.1-4.5.5-6.7,1.1-4.4.9-8.5,2.3-12.3,3.9-3.6,1.6-6.7,3.3-9.3,5.1-2.5,1.7-4.5,3.3-6,4.7s-2.5,2.5-3.2,3.3-.9,1.2-.9,1.2"/>
    <path class="st0" d="M29.5,46.4s.5,0,1.6.3c1.1.1,2.7.3,4.7.4,2.1,0,4.8,0,7.9-.5,3.2-.5,6.7-1.2,10.5-2.5s7.7-3.1,11.6-5.3c1.9-1.2,3.7-2.4,5.3-3.9,1.6-1.3,3.3-2.8,4.7-4.4s2.5-3.2,3.6-4.8,1.6-3.3,2.1-5.1c.4-1.6.5-3.3.5-4.8s-.5-3.1-1.2-4.4-1.6-2.7-2.7-3.7c-1.2-1.2-2.5-2.1-4.1-2.9-1.6-.8-3.3-1.6-5.2-2-1.9-.5-3.9-.8-5.9-1.1-2.1-.1-4.3-.1-6.3,0-2.1,0-4.3.4-6.4.8-4.3.8-8.1,1.9-11.6,3.3-3.5,1.3-6.5,2.9-9.1,4.5s-4.4,3.1-6,4.3c-1.5,1.2-2.5,2.3-3.3,3.1-.7.8-1.1,1.2-1.1,1.2"/>
    <path class="st0" d="M28.7,43.4s.5,0,1.5.3c.9.1,2.4.4,4.3.5s4.4,0,7.3-.1c2.9-.3,6.3-.9,9.9-2s7.5-2.7,11.2-4.7c1.9-1.1,3.6-2.3,5.3-3.5,1.6-1.2,3.2-2.5,4.7-4,1.3-1.5,2.5-2.9,3.6-4.4.9-1.6,1.9-3.1,2.3-4.7s.8-3.1.8-4.7-.1-2.9-.7-4.3-1.2-2.5-2.3-3.6c-.9-1.2-2.3-2.1-3.6-2.9-1.5-.8-2.9-1.6-4.7-2.1s-3.6-.9-5.3-1.2c-1.9-.3-3.9-.4-5.7-.3-2,0-4,.1-5.9.5-4,.5-7.6,1.6-10.9,2.8s-6.3,2.5-8.7,4c-2.4,1.3-4.3,2.8-5.9,4-2.9,2.3-4.3,3.9-4.3,3.9"/>
    <path class="st0" d="M28.5,40.6s.5,0,1.2.3c.8.1,2.3.5,4,.5,1.9.1,4,.1,6.7,0s5.9-.7,9.2-1.6,7.1-2.3,10.5-4.1c1.7-.8,3.5-1.9,5.1-3.1,1.6-1.2,3.2-2.3,4.5-3.6,1.3-1.2,2.5-2.7,3.6-4.1,1.1-1.3,1.9-2.9,2.5-4.3.5-1.5.9-2.9,1.2-4.3,0-1.3,0-2.8-.4-4-.7-2.5-2.5-4.8-4.8-6.4-1.2-.8-2.5-1.6-4-2.1-1.6-.5-3.2-.9-4.8-1.2-1.7-.3-3.6-.5-5.3-.5s-3.6,0-5.5.3c-3.6.4-7.1,1.2-10.3,2.3s-5.9,2.3-8.3,3.6c-2.3,1.2-4.1,2.5-5.6,3.6-2.8,2.1-4.1,3.6-4.1,3.6"/>
    <path class="st0" d="M28.7,37.8s.4,0,1.2.3c.8.1,1.9.5,3.6.7s3.6.3,6,.1c2.5,0,5.3-.5,8.4-1.2,3.2-.8,6.5-1.9,9.9-3.6s6.4-3.6,9.2-6c1.3-1.2,2.5-2.4,3.6-3.7,1.1-1.2,1.9-2.5,2.5-4,.7-1.3,1.1-2.7,1.2-4,.1-1.2.1-2.5,0-3.9-.5-2.4-1.9-4.7-4-6.3-1.1-.8-2.3-1.6-3.6-2.1s-2.8-1.1-4.3-1.3-3.2-.5-4.8-.5h-5.1c-3.3.3-6.7.9-9.5,1.9-5.9,1.9-10.3,4.3-13.1,6.4-2.7,1.9-4,3.2-4,3.2"/>
    <path class="st0" d="M29.1,35.1s1.5.5,4.1,1.1c1.5.1,3.3.4,5.5.3,2.3,0,4.9-.4,7.7-.9,2.9-.7,6-1.6,9.1-3.1s6-3.2,8.7-5.3c1.2-1.1,2.4-2.3,3.5-3.3.9-1.2,1.9-2.4,2.5-3.6s1.2-2.5,1.5-3.7c.3-1.2.3-2.4.1-3.6-.3-2.3-1.6-4.3-3.3-5.9-.9-.8-2-1.5-3.2-2s-2.5-1.1-3.9-1.3c-1.5-.3-2.9-.5-4.3-.7h-4.5c-3.1.1-6,.8-8.8,1.6-5.3,1.6-9.5,3.9-12.3,5.6-2.5,1.7-3.7,2.9-3.7,2.9"/>
    <path class="st0" d="M29.7,32.5s1.2.5,3.6,1.1c1.2.1,2.9.4,4.9.4s4.4-.1,6.9-.8c2.5-.5,5.5-1.5,8.3-2.7s5.6-2.8,8-4.8c1.2-.9,2.3-1.9,3.3-3.1.9-1.1,1.7-2.1,2.4-3.3.7-1.1,1.2-2.3,1.5-3.3.3-1.1.4-2.3.3-3.3-.1-2-1.2-4-2.5-5.5-.8-.8-1.7-1.5-2.7-1.9-1.1-.5-2.3-.9-3.5-1.3-1.2-.3-2.5-.5-3.9-.7-1.3,0-2.7-.1-4.1,0-2.8,0-5.5.5-8,1.2-5.1,1.3-8.8,3.3-11.2,4.9s-3.6,2.5-3.6,2.5"/>
    <path class="st0" d="M32,9.5s-.8,0-1.9.4c-.5.1-1.2.5-1.7,1.1s-1.2,1.2-1.6,2.3-.8,2.4-.8,3.9v2.5c0,.9,0,2,.3,3.1.1,1.2.4,2.3.7,3.5.3,1.2.5,2.5.9,3.9s.8,2.8,1.3,4.3,1.1,2.9,1.7,4.4c1.2,3.1,2.7,6.3,4.3,9.3,1.6,3.2,3.3,6.4,5.2,9.3,3.6,6.1,7.5,11.7,10.9,16.3s6.4,8,8.5,10.4c2.1,2.3,3.3,3.6,3.3,3.6"/>
    <path class="st0" d="M33.6,8.4s-.5,0-1.5.3c-.4.1-.8.5-1.2.9-.4.5-.8,1.2-1.1,2.1,0,.5-.1,1.1-.3,1.6v2.1c0,.8,0,1.6.1,2.5,0,.9.3,2,.5,3.1.1,1.2.5,2.3.8,3.5s.7,2.5,1.2,3.9.9,2.8,1.5,4.3c.5,1.5,1.2,2.9,1.7,4.5,1.2,3.2,2.7,6.4,4.3,9.5,1.6,3.3,3.2,6.4,4.9,9.6,3.5,6.4,6.9,12,10.1,16.8,3.1,4.7,5.7,8.4,7.7,10.8,1.9,2.4,2.9,3.7,2.9,3.7"/>
    <path class="st0" d="M35.5,7.1s-.4,0-.9.1c-.3.1-.5.4-.8.8-.3.5-.4,1.2-.5,2.1v1.6c0,.7,0,1.3.1,2.1,0,.8.3,1.6.4,2.5.1.9.4,2,.7,3.1.3,1.2.5,2.3.9,3.5.4,1.2.8,2.5,1.2,4s.9,2.8,1.6,4.3,1.2,3.1,1.7,4.7c1.2,3.2,2.5,6.4,4,9.7,1.5,3.3,2.9,6.7,4.5,9.9,3.2,6.4,6.3,12.4,9.1,17.3,2.7,4.8,5.1,8.7,6.7,11.2s2.5,4,2.5,4"/>
    <path class="st0" d="M37.9,6s-.3,0-.5.1c0,.1-.3.4-.3.8v2c0,.5.1,1.1.3,1.6,0,.7.3,1.3.5,2.1.1.8.4,1.6.7,2.5s.5,2,.8,3.1c.4,1.2.7,2.3,1.2,3.6.4,1.2.8,2.5,1.3,4,.5,1.5.9,2.9,1.6,4.3.5,1.6,1.2,3.1,1.7,4.7,1.2,3.3,2.5,6.5,3.9,9.9s2.8,6.7,4.1,10.1c2.8,6.7,5.6,12.7,7.9,17.7,1.2,2.5,2.3,4.8,3.2,6.7s1.7,3.6,2.4,4.9c1.3,2.5,2,4,2,4"/>
    <path class="st0" d="M40.7,4.8h0c0,.4,0,.5.1,1.1,0,.5.4,1.2.7,2,.1.5.4,1.1.5,1.6.1.7.5,1.3.7,2.1.3.8.5,1.7.8,2.5.3.9.7,2,1.1,3.2s.8,2.3,1.2,3.6l1.5,4c1.1,2.9,2.1,6,3.3,9.2s2.4,6.7,3.6,10.1,2.5,6.9,3.6,10.3c2.4,6.7,4.7,12.9,6.7,18.3.9,2.5,1.9,4.9,2.5,6.9.8,2,1.3,3.6,1.9,5.1.9,2.7,1.6,4.1,1.6,4.1"/>
    <path class="st0" d="M43.9,3.7s.1,0,.5.1c.1.1.4.5.7.8.4.5.8,1.2,1.2,2.1.3.5.5,1.1.8,1.7s.5,1.3.9,2.3c.4.8.7,1.7,1.1,2.7s.8,2.1,1.2,3.2c.5,1.2.8,2.4,1.3,3.6.5,1.3.9,2.7,1.5,4.1,1.1,2.9,2.1,6.1,3.2,9.5,1.1,3.3,2.3,6.8,3.3,10.4s2.1,7.1,3.2,10.5c2,6.9,3.7,13.3,5.2,18.7.7,2.5,1.3,5.1,1.9,7.1s.9,3.7,1.2,5.2c.7,2.7.9,4.3.9,4.3"/>
    <path class="st0" d="M47.5,2.8s.4,0,.9.1c.3.1.8.5,1.2.9s1.2,1.2,1.7,2.3c.4.5.7,1.2,1.1,1.7.4.7.8,1.5,1.2,2.3s.8,1.9,1.2,2.8c.5,1.1.8,2.1,1.3,3.3s.9,2.5,1.5,3.7c.5,1.3.9,2.8,1.5,4.3,1.1,3.1,2,6.3,2.9,9.6.9,3.5,1.9,7.1,2.8,10.5.8,3.6,1.7,7.2,2.5,10.8.8,3.6,1.5,6.9,2,10.1.5,3.2,1.1,6.1,1.6,8.8.4,2.7.8,5.1,1.1,7.2.3,2,.5,3.9.5,5.3.3,2.8.4,4.3.4,4.3"/>
    <path class="st0" d="M51.8,2s.5,0,1.5.3c.5.1,1.1.5,1.7,1.1s1.5,1.3,2.3,2.4c.8,1.2,1.7,2.5,2.7,4.3.5.8.9,1.9,1.5,2.9s.9,2.3,1.5,3.3c.5,1.2.9,2.5,1.5,4l1.5,4.3c.9,3.1,1.9,6.4,2.7,9.9.8,3.6,1.6,7.1,2.3,10.8.7,3.6,1.2,7.3,1.7,10.8s.8,7.1,1.2,10.3c.3,3.2.5,6.3.5,8.9s.1,5.1.1,7.2v5.3c0,2.8-.1,4.3-.1,4.3"/>
    <path class="st0" d="M56.4,1.6s.8,0,1.9.5c.5.1,1.3.5,2.3,1.2s1.9,1.5,2.8,2.5c1.1,1.2,2.1,2.7,3.1,4.4,1.1,1.9,2.1,4,3.2,6.5,1.1,2.5,2,5.5,2.9,8.4.8,3.2,1.7,6.5,2.4,10.1s1.2,7.3,1.6,10.9c.4,3.7.7,7.5.8,11.1s.1,7.1.1,10.4-.1,6.3-.4,9.1c-.1,2.7-.5,5.1-.8,7.2s-.5,3.9-.8,5.3c-.5,2.8-.8,4.3-.8,4.3"/>
    <path class="st0" d="M61.5,1.6s.8,0,2.4.5c.8.3,1.6.7,2.5,1.3,1.1.7,2.1,1.6,3.2,2.8,1.2,1.2,2.3,2.8,3.5,4.7s2.3,4.3,3.3,6.7c1.1,2.7,1.9,5.6,2.8,8.8.8,3.3,1.5,6.7,1.9,10.3.5,3.6.8,7.5.9,11.1v11.1c-.4,7.2-1.2,13.9-2.4,19.3-.5,2.7-1.2,5.1-1.7,7.1-.5,2-1.2,3.7-1.6,5.2-.9,2.7-1.6,4.3-1.6,4.3"/>
    <path class="st0" d="M67,1.9s1.1,0,2.8.8c1.7.7,4.3,2,6.7,4.7,1.2,1.3,2.5,2.9,3.7,4.9,1.2,2,2.4,4.4,3.3,7.1,1.1,2.7,1.9,5.7,2.5,8.9.7,3.3,1.2,6.8,1.5,10.4s.3,7.5,0,11.2c-.1,3.7-.5,7.5-1.1,11.1-1.1,7.2-2.8,13.6-4.7,19.1-1.9,5.2-3.7,9.2-5.2,11.9-1.3,2.5-2.3,4-2.3,4"/>
    <path class="st0" d="M72.2,2.9s1.2.1,3.3.9,4.8,2.3,7.5,5.1c1.5,1.5,2.8,3.2,4,5.2,1.2,2.1,2.5,4.5,3.5,7.2.9,2.8,1.9,5.9,2.3,9.2.5,3.3.8,6.8.8,10.5s-.1,7.5-.7,11.1c-.5,3.7-1.2,7.5-2.1,10.9-1.9,7.1-4.3,13.3-6.8,18.5-2.5,5.1-5.1,8.8-6.9,11.5-1.9,2.5-2.9,3.7-2.9,3.7"/>
    <path class="st0" d="M77.2,4.4s1.3.3,3.6,1.2c2.3.8,5.3,2.5,8.3,5.5,1.6,1.5,2.9,3.3,4.3,5.3,1.3,2.1,2.5,4.7,3.5,7.5s1.6,6,2.1,9.2c.4,3.3.5,6.8.4,10.4s-.7,7.3-1.5,10.9-1.9,7.2-3.1,10.7c-2.5,6.8-5.7,12.9-8.9,17.7-3.2,4.8-6.4,8.4-8.5,10.7s-3.6,3.5-3.6,3.5"/>
    <path class="st0" d="M81.4,6.5s1.6.4,4,1.3c2.4,1.1,5.7,2.9,9.1,6,1.6,1.6,3.2,3.5,4.7,5.6,1.5,2.3,2.5,4.7,3.6,7.5.9,2.9,1.6,6,1.9,9.2.3,3.3.3,6.8,0,10.3-.4,3.6-1.1,7.2-2.1,10.7-1.1,3.6-2.3,7.1-3.9,10.3-3.1,6.5-7.1,12.3-10.8,16.7-3.7,4.5-7.5,7.7-10,9.9s-4.1,3.2-4.1,3.2"/>
    <path class="st0" d="M84.4,9.1s1.6.4,4.3,1.6c2.5,1.2,6.3,3.2,9.7,6.4,3.5,3.3,6.7,7.9,8.7,13.5.9,2.9,1.6,6,1.9,9.2.3,3.3.1,6.7-.3,10.1-.5,3.5-1.3,6.9-2.5,10.3-1.2,3.5-2.8,6.7-4.5,9.9-3.6,6.3-7.9,11.6-12.1,15.7-4.3,4.1-8.1,7.1-11.1,8.8-2.9,1.9-4.7,2.8-4.7,2.8"/>
    <path class="st0" d="M85.9,11.6s1.7.5,4.7,1.9c2.8,1.2,6.7,3.3,10.4,6.7,3.6,3.3,7.1,8,9.2,13.6,1.1,2.8,1.7,5.9,2,9.1.3,3.2.1,6.5-.4,9.9s-1.5,6.7-2.8,9.9c-1.3,3.3-2.9,6.4-4.8,9.2-3.9,5.9-8.4,10.8-12.9,14.4-4.5,3.7-8.8,6.3-11.7,7.9-3.1,1.6-4.9,2.4-4.9,2.4"/>
    <path class="st0" d="M85.8,14s1.9.5,4.9,1.9c2.9,1.3,7.1,3.6,11.1,7.1,4,3.3,7.7,8.1,10.1,13.7,2.3,5.6,3.2,12.3,2.3,18.7-.9,6.5-3.7,12.9-7.5,18.4-3.9,5.6-8.7,10-13.2,13.3-4.7,3.3-8.9,5.6-12.1,7.1-3.1,1.5-5.1,2-5.1,2"/>
    <path class="st0" d="M84.2,15.9s1.9.5,5.1,2,7.5,3.7,11.7,7.3c2.1,1.7,4.3,3.7,6.1,6.1,1.9,2.3,3.6,4.9,4.9,7.7,2.7,5.5,4,12,3.3,18.4s-3.3,12.5-6.8,17.7c-3.6,5.3-8.4,9.5-12.9,12.5-4.7,3.2-8.9,5.1-12,6.4-3.1,1.2-5.1,1.7-5.1,1.7"/>
    <path class="st0" d="M81.4,16.8s2,.5,5.3,2.1c3.3,1.5,7.7,3.7,12.4,7.3,2.3,1.7,4.5,3.7,6.7,6.1,2,2.3,4,4.9,5.5,7.7s2.8,5.7,3.6,8.8,1.2,6.3.9,9.3c-.3,6.3-2.4,12.4-5.7,17.5-3.3,5.2-7.9,9.2-12.3,12.3-4.4,2.9-8.7,4.9-11.6,6-3.1,1.2-4.9,1.6-4.9,1.6"/>
    <path class="st0" d="M78.2,16.8s2,.5,5.5,2c3.3,1.3,8.1,3.6,12.9,7.1,2.4,1.7,4.8,3.6,7.1,6,2.3,2.3,4.3,4.8,6.1,7.6,1.7,2.7,3.2,5.7,4.3,8.8.9,2.9,1.6,6.1,1.7,9.3.1,6.1-1.6,12.4-4.4,17.5-2.9,5.2-7.2,9.2-11.3,12.3-4.3,3.1-8.3,4.9-11.2,6.1-2.9,1.2-4.8,1.6-4.8,1.6"/>
    <path class="st0" d="M75.1,16s2.1.5,5.6,1.7c3.5,1.2,8.3,3.3,13.3,6.7,2.5,1.6,5.1,3.6,7.5,5.7s4.7,4.7,6.7,7.5c1.9,2.7,3.6,5.6,4.9,8.7,1.2,2.9,2,6.1,2.4,9.3.7,6.1-.5,12.5-3.2,17.6-2.5,5.3-6.5,9.5-10.4,12.7-4,3.2-7.9,5.2-10.8,6.5s-4.7,1.9-4.7,1.9"/>
    <path class="st0" d="M72.6,14.9s2.1.4,5.7,1.5c3.6,1.1,8.4,2.9,13.7,6,2.5,1.6,5.3,3.3,7.7,5.3,2.5,2,4.9,4.4,7.1,7.1,2.1,2.5,4,5.5,5.3,8.4s2.4,6,2.9,9.2c1.1,6.1.1,12.5-2.1,18s-6,10-9.6,13.3c-3.7,3.5-7.6,5.7-10.4,7.1s-4.5,2.1-4.5,2.1"/>
    <path class="st0" d="M71.2,13.6s2.1.3,5.7,1.2c3.6.8,8.5,2.4,14,5.2,2.5,1.3,5.3,2.9,8,5.1,2.5,1.9,5.1,4.3,7.3,6.7,2.3,2.5,4.1,5.3,5.7,8.3,1.6,2.9,2.5,6,3.3,9.2,1.2,6.3.5,12.7-1.5,18.3-2.1,5.7-5.6,10.5-9.2,14-3.6,3.7-7.5,6.3-10.1,7.9-2.8,1.6-4.4,2.4-4.4,2.4"/>
    <path class="st0" d="M71,12.4s2.1.1,5.7.9,8.4,2,13.9,4.7c2.5,1.2,5.3,2.8,8,4.7,2.5,1.9,5.1,4,7.3,6.4s4.1,5.1,5.6,8.1c1.6,2.9,2.5,6,3.3,9.2,1.2,6.3.7,12.9-1.3,18.7-2,5.9-5.5,10.8-8.9,14.8-3.6,4-7.3,6.7-9.9,8.5-2.7,1.9-4.4,2.7-4.4,2.7"/>
    <path class="st0" d="M70.4,10.8s2,0,5.6.5c3.5.5,8.4,1.6,13.6,3.9,2.5,1.2,5.3,2.5,7.9,4.3,2.5,1.7,5.1,3.7,7.2,6.1,2.1,2.3,4,5.1,5.6,7.7,1.6,2.8,2.5,5.9,3.3,9.1,1.3,6.4.8,13.1-1.1,18.9-1.9,6-5.2,11.5-8.7,15.6-3.5,4.3-7.1,7.3-9.7,9.3-2.5,2-4.3,3.1-4.3,3.1"/>
    <path class="st0" d="M68,9.5s2,0,5.5.1,8.3.9,13.6,2.8c2.5.9,5.3,2.1,7.9,3.6,2.5,1.6,5.1,3.3,7.3,5.6,4.4,4.3,7.9,10.1,9.5,16.4s1.3,13.1-.1,19.2c-1.6,6.4-4.5,11.9-7.7,16.4-3.2,4.7-6.5,8-9.1,10.3s-4,3.5-4,3.5"/>
    <path class="st0" d="M64.4,8.8s2-.3,5.5-.3,8.1.1,13.6,1.6c2.5.7,5.3,1.6,8.1,2.9,2.5,1.3,5.3,2.9,7.6,5.1,4.7,4,8.4,9.5,10.5,15.5,1.1,3.1,1.6,6.3,1.9,9.5.1,3.3,0,6.5-.5,9.7-1.2,6.4-3.6,12.3-6.4,17.1-2.8,4.8-5.9,8.5-8.1,10.9-2.3,2.5-3.7,3.7-3.7,3.7"/>
    <path class="st0" d="M60.4,9.2s2-.4,5.5-.7,8.3-.4,13.9.5c2.7.5,5.6,1.2,8.4,2.3,2.8,1.1,5.6,2.5,8.1,4.3,5.1,3.6,9.3,8.7,11.9,14.4,1.2,2.9,2.1,6,2.5,9.2.5,3.2.5,6.4.1,9.6-.7,6.4-2.7,12.4-5.1,17.3-2.5,5.1-5.3,8.8-7.3,11.5-2.1,2.5-3.5,4-3.5,4"/>
    <path class="st0" d="M56.6,10.3s2-.5,5.6-.9c3.6-.5,8.5-.8,14.3-.1,2.8.3,5.7.9,8.8,1.9,2.9.9,6,2.3,8.8,3.7,2.8,1.6,5.3,3.6,7.7,5.9,2.4,2.3,4.3,4.9,5.7,7.7,3.1,5.6,4.5,12.1,4.3,18.3,0,6.4-1.9,12.3-3.9,17.2-2.1,5.1-4.7,8.8-6.7,11.6s-3.3,4-3.3,4"/>
    <path class="st0" d="M53,11.6s2-.5,5.7-1.2c3.6-.5,8.8-1.1,14.8-.5s6.1.8,9.3,1.6,6.4,2,9.5,3.5c2.9,1.6,5.9,3.3,8.4,5.6,2.5,2.1,4.8,4.7,6.7,7.5,3.6,5.3,5.6,11.7,5.9,17.7.3,6.1-.9,12-2.8,16.8-1.9,4.9-4.3,8.8-6.1,11.3s-3.2,4-3.2,4"/>
    <path class="st0" d="M49.8,12.9s2.1-.5,5.7-1.1c3.7-.5,9.1-.9,15.3-.4,3.1.3,6.4.8,9.9,1.6,3.3.8,6.7,2,10,3.6,3.2,1.6,6.4,3.3,9.2,5.6,2.8,2.1,5.3,4.7,7.5,7.3,2,2.7,3.7,5.6,5.1,8.5,1.2,2.9,2,6,2.3,9.1.7,6-.3,11.7-1.9,16.4-1.6,4.8-4,8.4-5.7,10.9s-2.9,3.9-2.9,3.9"/>
    <path class="st0" d="M47.2,13.6s2.1-.4,5.9-.8c3.7-.3,9.2-.5,15.6.3,3.2.4,6.5,1.1,10.1,2,3.5.9,6.9,2.3,10.4,3.9,3.3,1.6,6.7,3.6,9.7,5.9,2.9,2.3,5.7,4.7,8,7.5,2.3,2.7,4.1,5.6,5.6,8.5,1.3,2.9,2.3,6,2.9,8.9,1.1,5.9.3,11.5-1.2,16-1.5,4.5-3.6,8.1-5.3,10.4-1.7,2.4-2.9,3.6-2.9,3.6"/>
    <path class="st0" d="M45.6,14.1s2-.3,5.7-.3,9.1.1,15.3,1.5,13.6,3.6,20.5,7.2c3.5,1.9,6.8,4,9.9,6.4s5.9,5.1,8.3,8c2.4,2.8,4.4,5.7,6,8.8,1.6,2.9,2.5,6,3.3,8.9.7,2.9.8,5.7.8,8.4s-.5,5.1-1.2,7.2c-1.2,4.3-3.3,7.6-4.9,9.7-1.6,2.3-2.8,3.3-2.8,3.3"/>
    <path class="st0" d="M44.6,14.3s1.9,0,5.5.3,8.8,1.1,14.8,2.9c6.1,1.9,13.3,4.8,20.1,9.1,3.3,2.1,6.7,4.5,9.9,7.2,3.1,2.5,5.9,5.5,8.4,8.5,2.4,2.9,4.4,6,6,9.2,1.6,3.1,2.7,6,3.5,9.1.7,2.9,1.1,5.7.9,8.1,0,2.5-.4,4.8-.9,6.8-1.1,4-2.9,7.1-4.4,8.9-1.6,1.9-2.5,2.9-2.5,2.9"/>
    <path class="st0" d="M44.6,14.3s1.9.1,5.1.8c1.6.4,3.6.8,6,1.6,2.3.8,5.1,1.6,7.9,2.9,5.9,2.5,12.5,6.1,19.1,11.1,3.3,2.4,6.4,5.2,9.5,8.1,2.9,2.9,5.7,6,8.1,9.2,2.3,3.2,4.3,6.4,6,9.6,1.6,3.1,2.7,6.3,3.5,9.2s1.2,5.6,1.2,8.1-.1,4.7-.7,6.4c-.8,3.6-2.5,6.4-4,8-1.3,1.6-2.3,2.4-2.3,2.4"/>
    <path class="st0" d="M44.8,14.3s1.6.4,4.5,1.6,3.3,1.3,5.3,2.3c2.1,1.1,4.5,2.3,7.1,3.9,2.5,1.6,5.5,3.5,8.4,5.7s6,4.7,8.9,7.5,6,5.9,8.8,9.1c2.7,3.2,5.3,6.5,7.5,10,2.3,3.3,4.1,6.7,5.7,10,.8,1.6,1.5,3.2,2,4.8s1.1,2.9,1.5,4.5c.4,1.5.7,2.8.8,4.1.1,1.2.3,2.5.4,3.7,0,2.3,0,4.3-.5,6-.4,1.7-.8,3.2-1.6,4.3-.5,1.2-1.2,2-1.9,2.8-1.2,1.3-2,1.9-2,1.9"/>
    <path class="st0" d="M45.4,14.7s1.5.7,4,2.1c1.2.8,2.9,1.7,4.7,2.9,1.9,1.2,4,2.9,6.3,4.7,2.3,1.9,4.8,4.1,7.5,6.7,2.5,2.5,5.3,5.3,8,8.5,2.7,3.1,5.3,6.4,7.7,9.9s4.8,7.1,6.8,10.5c2,3.5,3.7,7.1,5.2,10.4.7,1.6,1.3,3.3,1.9,4.8s.9,2.9,1.3,4.4c.4,1.3.7,2.7.8,4,.1,1.2.4,2.4.5,3.6v3.1c0,.9,0,1.7-.3,2.5-.3,1.6-.7,2.8-1.2,3.7s-.9,1.7-1.5,2.3c-.9,1.1-1.7,1.5-1.7,1.5"/>
    <path class="st0" d="M45.9,15.3s1.2.8,3.3,2.7c1.1.9,2.4,2.3,4,3.6,1.6,1.6,3.3,3.3,5.3,5.6s4.1,4.7,6.4,7.6,4.7,6,6.9,9.5c2.3,3.3,4.7,7.1,6.8,10.7,2.3,3.6,4.3,7.5,6,11.2.8,1.9,1.7,3.6,2.5,5.3s1.6,3.5,2.3,5.2c.7,1.6,1.2,3.3,1.7,4.8s.9,2.9,1.3,4.3.7,2.5.9,3.9c.1,1.2.4,2.3.5,3.3,0,.9.1,1.9.1,2.8v2.3c0,1.3-.4,2.4-.8,3.3-.3.8-.8,1.3-1.1,1.7-.7.8-1.2,1.1-1.2,1.1"/>
    <path class="st0" d="M46.3,16.3s.9,1.2,2.5,3.3c.8,1.2,1.9,2.5,3.2,4.3,1.2,1.9,2.7,3.9,4.3,6.4s3.3,5.3,5.2,8.4c1.9,3.2,3.9,6.5,5.7,10.1,2,3.6,4,7.5,5.9,11.3s3.6,7.7,5.3,11.5c.8,1.9,1.6,3.6,2.3,5.5.7,1.7,1.3,3.5,2,5.2.5,1.6,1.2,3.2,1.6,4.7.5,1.5.9,2.9,1.3,4.3.4,1.2.7,2.5.9,3.6.3,1.2.5,2.1.7,3.1s.3,1.7.4,2.5v2c0,1.2,0,2-.3,2.7-.1.5-.4,1.1-.7,1.3-.5.5-.8.5-.8.5"/>
    <path class="st0" d="M46.3,17.5s.7,1.2,1.9,3.7c.7,1.2,1.5,2.9,2.4,4.8.9,2,2.1,4.3,3.3,6.9s2.7,5.7,4.1,9.1c1.6,3.3,3.1,7.1,4.7,10.8,1.6,3.9,3.3,7.7,4.9,11.7,1.6,4,3.2,7.9,4.7,11.7.7,1.9,1.5,3.7,2.1,5.5.7,1.7,1.2,3.5,1.9,5.1.5,1.6,1.1,3.2,1.6,4.7s.9,2.8,1.3,4,.8,2.4,1.1,3.5c.3,1.1.5,2,.8,2.9.1.8.4,1.6.5,2.3.1.7.3,1.2.4,1.7,0,.5,0,.9.1,1.2v.8c0,.4,0,.7-.1.8-.1.3-.4.1-.4.1"/>
    <path class="st0" d="M45.9,18.9s.5,1.5,1.2,4.1c.5,1.5.9,3.2,1.6,5.2.7,2.1,1.5,4.7,2.4,7.5.9,2.9,1.9,6,3.1,9.5,1.2,3.6,2.4,7.3,3.6,11.2l4,12c1.3,4,2.7,8,4,11.9.7,1.9,1.2,3.6,1.9,5.5.5,1.7,1.2,3.3,1.7,5.1.5,1.6,1.1,3.1,1.6,4.5.5,1.3.9,2.7,1.3,4,.4,1.2.8,2.3,1.2,3.3.4.9.7,1.9.9,2.7s.5,1.5.8,2c.1.5.4,1.1.5,1.6.1.4.3.8.5,1.1,0,.3.1.5.3.7,0,.3.1.4.3.5h0"/>
    <path class="st0" d="M45.2,20.4s.1,1.6.7,4.4c.1,1.6.5,3.3.9,5.6s.8,4.9,1.5,7.9c.5,2.9,1.3,6.4,2.1,10s1.7,7.5,2.8,11.6c.9,4,2.1,8.1,3.3,12.3,1.2,4,2.3,8,3.5,11.9.5,1.9,1.2,3.6,1.7,5.3.5,1.7,1.2,3.3,1.7,4.9.5,1.6,1.1,2.9,1.6,4.3s.9,2.5,1.5,3.7c.5,1.1.8,2.1,1.3,3.1.4.8.8,1.7,1.2,2.4.4.7.7,1.2,1.1,1.9.3.5.5.9.8,1.2.5.7.9,1.1,1.3,1.2.3.1.5.1.8,0,.4-.1.5-.5.5-.5"/>
    <path class="st0" d="M44.2,21.9v4.7c0,1.6,0,3.6.3,5.9,0,2.4.4,5.1.7,8.1s.7,6.5,1.2,10.3,1.2,7.7,1.9,11.7c.7,4,1.6,8.1,2.5,12.3.5,2,.9,4,1.6,6,.5,1.9,1.1,3.9,1.6,5.7s1.1,3.6,1.6,5.3c.5,1.6,1.2,3.3,1.6,4.8.5,1.5,1.1,2.9,1.6,4.1s1.1,2.4,1.6,3.6c.5,1.1,1.1,2,1.6,2.9s.9,1.6,1.5,2.3c.8,1.2,1.7,2.1,2.5,2.7.7.5,1.3.8,1.9.8s.9,0,1.3-.1c.7-.3,1.1-.8,1.1-.8"/>
    <path class="st0" d="M42.8,23.3s-.3,1.7-.5,4.9c0,1.6-.3,3.6-.4,6v8.4c0,3.2.1,6.7.5,10.4.3,3.7.7,7.7,1.2,11.9.5,4,1.2,8.1,2,12.3.4,2,.8,4,1.3,6,.5,1.9.9,3.7,1.5,5.6s1.1,3.5,1.6,5.2c.5,1.6,1.2,3.2,1.7,4.7s1.2,2.8,1.7,4c.5,1.2,1.2,2.3,1.7,3.3.5.9,1.2,1.9,1.7,2.7s1.2,1.5,1.6,2c1.1,1.1,2,1.9,2.9,2.3.8.4,1.7.5,2.5.5s1.3-.1,1.9-.5c.9-.5,1.5-.9,1.5-.9"/>
    <path class="st0" d="M41.2,24.7s-.5,1.7-1.1,5.1-.7,3.7-.9,6.1c-.3,2.5-.5,5.3-.8,8.5-.4,6.4-.4,14.1.3,22.3.4,4,.8,8.1,1.6,12.1.4,2,.8,4,1.2,5.9s.8,3.7,1.3,5.5c.5,1.7,1.1,3.5,1.6,5.1.5,1.6,1.2,3.1,1.7,4.5.5,1.3,1.2,2.7,1.9,3.9s1.2,2.3,1.9,3.2,1.2,1.7,1.9,2.5c.7.7,1.2,1.3,1.9,1.9,1.2.9,2.4,1.6,3.6,2,2.1.7,4.1.1,5.3-.3,1.2-.5,1.9-1.2,1.9-1.2"/>
    <path class="st0" d="M39.5,25.9s-.7,1.9-1.6,5.1c-.5,1.7-.9,3.7-1.5,6.3s-.9,5.3-1.5,8.5c-.8,6.4-1.2,14.1-.8,22.3.1,4,.5,8.1,1.2,12,.3,1.9.7,3.9,1.1,5.7s.8,3.6,1.3,5.3,1.1,3.3,1.6,4.9c.5,1.6,1.2,2.9,1.9,4.3s1.3,2.5,2,3.7,1.3,2.1,2.1,3.1c1.3,1.7,2.9,3.2,4.3,4.1s2.9,1.6,4.1,1.9c2.5.5,4.9,0,6.4-.5,1.6-.7,2.4-1.2,2.4-1.2"/>
    <path class="st0" d="M37.6,26.8s-.8,1.9-1.9,5.1c-1.2,3.3-2.7,8.4-4,14.8-1.2,6.4-2,14-1.9,22.1,0,4,.3,8,.8,11.9.3,1.9.5,3.9.9,5.7s.8,3.6,1.3,5.3c.5,1.6,1.1,3.3,1.6,4.8.5,1.6,1.2,2.9,1.9,4.3.7,1.2,1.3,2.5,2.1,3.6s1.6,2,2.3,2.9c1.6,1.7,3.2,2.9,4.8,4,1.6.8,3.2,1.5,4.7,1.6,2.9.5,5.6-.1,7.3-.8,1.9-.7,2.8-1.3,2.8-1.3"/>
    <path class="st0" d="M35.9,27.6s-.9,1.9-2.4,5.1c-1.5,3.3-3.3,8.4-4.8,14.7-1.6,6.4-2.7,14-2.9,21.9,0,3.9,0,7.7.5,11.6.1,1.9.5,3.7.9,5.6.4,1.7.8,3.5,1.3,5.2.5,1.6,1.1,3.2,1.7,4.7.5,1.5,1.2,2.9,2,4.1,1.5,2.5,3.1,4.7,4.8,6.4,1.7,1.6,3.5,2.9,5.3,3.9,1.7.8,3.6,1.3,5.3,1.6,3.3.5,6.3-.1,8.3-.8s3.2-1.3,3.2-1.3"/>
    <path class="st0" d="M34.1,28.1s-1.1,1.7-2.7,5.1-3.9,8.3-5.7,14.5c-.9,3.2-1.7,6.5-2.4,10.1-.7,3.6-1.1,7.5-1.2,11.3s0,7.7.4,11.5c.4,3.6,1.2,7.2,2.3,10.5,1.1,3.2,2.3,6.1,3.9,8.7s3.3,4.7,5.1,6.3c1.9,1.6,3.9,2.9,5.7,3.7s4,1.3,5.7,1.6c3.7.5,6.9-.1,9.2-.8s3.6-1.2,3.6-1.2"/>
    <path class="st0" d="M32.4,28.3s-1.2,1.7-3.1,5.1-4.3,8.1-6.4,14.3c-1.1,3.1-2,6.4-2.8,10s-1.3,7.3-1.6,11.1-.1,7.5.1,11.2c.4,3.6,1.2,7.1,2.3,10.3,1.1,3.2,2.4,6,4,8.5,1.6,2.4,3.5,4.5,5.5,6.3,3.9,3.3,8.4,4.9,12.4,5.3,4,.5,7.5,0,10-.7,2.5-.5,3.9-1.2,3.9-1.2"/>
  </g>
  <path class="st1" d="M140.1,18.1c2.4,0,4.3.4,6,.9,1.7.6,3,1.7,3.9,3s1.7,3.2,2.1,5.4.7,5,.7,8.2-.2,6-.7,8.2c-.4,2.2-1.1,4.1-2.1,5.4s-2.2,2.4-3.9,3-3.5.9-6,.9-4.3-.4-6-.9-3-1.7-3.9-3c-.9-1.3-1.7-3.2-2.1-5.4s-.7-5-.7-8.2.2-6,.7-8.2c.4-2.2,1.1-4.1,2.1-5.4.9-1.3,2.2-2.4,3.9-3,1.7-.6,3.5-.9,6-.9ZM140.1,19.2c-2.8,0-5,.6-6.7,1.5s-2.8,2.8-3.5,5.2-1.1,5.6-1.1,9.7.4,7.3,1.1,9.7,1.9,4.1,3.5,5.2,3.9,1.5,6.7,1.5,5-.6,6.7-1.5c1.7-1.1,2.8-2.8,3.5-5.2s1.1-5.6,1.1-9.7-.4-7.3-1.1-9.7c-.7-2.4-1.9-4.1-3.5-5.2-1.7-1.1-3.9-1.5-6.7-1.5Z"/>
  <path class="st1" d="M174.8,18.3c2.4,0,4.3.4,5.8.9s2.4,1.7,3.2,3c.6,1.5.9,3.5.9,6.2s-.4,4.7-.9,6.2-1.7,2.4-3.2,3-3.4.9-5.8.9h-10.5v-.9h10.5c2.1,0,3.7-.4,5-.7,1.3-.6,2.1-1.3,2.6-2.6s.9-3.2.9-5.4-.4-4.3-.9-5.4-1.5-2.2-2.6-2.6c-1.3-.6-3-.7-5-.7h-10.3l-.7-.9c1.1,0,2.2-.2,3.2-.2h7.7l.2-.6ZM165.1,18.7v34.2h-1.3V18.7h1.3Z"/>
  <path class="st1" d="M199.8,18.7h14.6v.9h-14.4c-1.1,0-2.2.4-3,1.1-.7.7-1.1,1.7-1.1,3v23.9c0,1.1.4,2.2,1.1,3,.7.7,1.7,1.1,3,1.1h14.2v.9h-14.4c-1.5,0-2.6-.6-3.5-1.5s-1.5-2.2-1.5-3.5v-24.1c0-1.5.6-2.6,1.5-3.5s2.2-1.5,3.5-1.5v.2ZM195.7,34h16.6v1.1h-16.6v-1.1Z"/>
  <path class="st1" d="M248.7,18.4v33.4c0,.6-.2.7-.7.7h-2.6s-.2-.2-.4-.4l-15.9-29.1c-.4-.6-.6-1.1-.9-1.7s-.6-1.1-.9-1.7h-1.3v33h-1.3V19.4c0-.6.2-.7.7-.7h2.4s.2.2.4.4l15.5,28.6c.4.7.7,1.3,1.1,2.1.4.7.7,1.3,1.1,2.1h1.3V18.6h1.3l.2-.2Z"/>
  <path class="st1" d="M295.5,18.5v1.1h-25.2v-1.1h25.2ZM283.4,18.5v34.2h-1.3V18.5h1.3Z"/>
  <path class="st1" d="M309.1,18.7h14.6v.9h-14.4c-1.1,0-2.2.4-3,1.1-.7.7-1.1,1.7-1.1,3v23.9c0,1.1.4,2.2,1.1,3,.7.7,1.7,1.1,3,1.1h14.2v.9h-14.4c-1.5,0-2.6-.6-3.5-1.5s-1.5-2.2-1.5-3.5v-24.1c0-1.5.6-2.6,1.5-3.5s2.2-1.5,3.5-1.5v.2ZM304.9,34h16.6v1.1h-16.6v-1.1Z"/>
  <path class="st1" d="M345,17.9h3.4c.9,0,1.9,0,2.6.2.7,0,1.7.2,2.6.6l-.4.9c-.9,0-1.9-.4-2.6-.4h-5.8c-2.8,0-5,.6-6.7,1.5-1.7,1.1-2.8,2.8-3.5,5.2s-1.1,5.6-1.1,9.7.4,7.3,1.1,9.7c.7,2.4,1.9,4.1,3.5,5.2s3.9,1.5,6.7,1.5h5c1.3,0,2.6-.2,3.9-.6l.4.9c-1.3.4-2.6.6-4.1.7s-3.2.2-5.2.2c-3.2,0-5.6-.6-7.5-1.7s-3.2-3-3.9-5.6c-.7-2.6-1.1-6-1.1-10.5s.4-7.8,1.1-10.5c.7-2.6,2.1-4.5,3.9-5.6s4.3-1.7,7.5-1.7h.2Z"/>
  <path class="st1" d="M365.1,18.5v34.2h-1.3V18.5h1.3ZM385.5,33.8v1.1h-20.7v-1.1h20.7ZM386.2,18.5v34.2h-1.3V18.5h1.3Z"/>
  <g>
    <path class="st2" d="M126.4,66.6v30.3h-4.4v-30.3h4.4Z"/>
    <path class="st2" d="M157.6,66.6v28.6c0,1.1-.5,1.7-1.6,1.7h-3.8c-.5,0-.9-.1-1.2-.4-.3-.2-.5-.6-.7-1l-9.9-20.5c-.3-.6-.6-1.3-.9-2-.4-.7-.6-1.4-.8-2.1h-.7c0,.7.1,1.4.1,2,0,.7,0,1.4,0,2.1v21.8h-4.3v-28.6c0-1.1.6-1.7,1.7-1.7h3.6c.5,0,.9.1,1.2.4.3.2.5.6.7,1l9.6,20c.3.6.7,1.3,1,2.1.4.8.7,1.6,1.1,2.3h.7c0-.8-.1-1.6-.1-2.4,0-.8,0-1.5,0-2.3v-21.1h4.3Z"/>
    <path class="st2" d="M188.7,66.6v28.6c0,1.1-.5,1.7-1.6,1.7h-3.8c-.5,0-.9-.1-1.2-.4-.3-.2-.5-.6-.7-1l-9.9-20.5c-.3-.6-.6-1.3-.9-2-.4-.7-.6-1.4-.8-2.1h-.7c0,.7.1,1.4.1,2,0,.7,0,1.4,0,2.1v21.8h-4.3v-28.6c0-1.1.6-1.7,1.7-1.7h3.6c.5,0,.9.1,1.2.4.3.2.5.6.7,1l9.6,20c.3.6.7,1.3,1,2.1.4.8.7,1.6,1.1,2.3h.7c0-.8-.1-1.6-.1-2.4,0-.8,0-1.5,0-2.3v-21.1h4.3Z"/>
    <path class="st2" d="M207.2,66.1c2.2,0,4.1.3,5.7.8s2.8,1.4,3.8,2.6c.9,1.2,1.6,2.8,2,4.8.4,2,.6,4.5.6,7.5s-.2,5.5-.6,7.5c-.4,2-1.1,3.7-2,4.9-.9,1.2-2.2,2.1-3.8,2.6s-3.5.8-5.7.8-4.1-.3-5.7-.8c-1.6-.5-2.8-1.4-3.8-2.6-1-1.2-1.6-2.8-2.1-4.9-.4-2-.7-4.5-.7-7.5s.2-5.5.7-7.5c.4-2,1.1-3.6,2.1-4.8,1-1.2,2.2-2.1,3.8-2.6,1.6-.5,3.5-.8,5.7-.8ZM207.2,69.9c-1.9,0-3.4.4-4.5,1.1-1.1.7-1.9,2-2.4,3.7-.5,1.7-.7,4.1-.7,7.1s.2,5.4.7,7.1c.5,1.7,1.2,3,2.4,3.7s2.6,1.1,4.5,1.1,3.4-.4,4.5-1.1c1.1-.7,1.9-2,2.4-3.7.5-1.7.7-4.1.7-7.1s-.2-5.4-.7-7.1-1.3-2.9-2.4-3.7c-1.1-.7-2.6-1.1-4.5-1.1Z"/>
    <path class="st2" d="M248,66.6l-9.1,29.1c-.1.3-.3.6-.6.9-.3.2-.6.4-1,.4h-4.4c-.4,0-.8-.1-1.1-.4-.3-.2-.5-.5-.6-.9l-9-29.1h4.6l6.9,23.7c.1.6.3,1.1.4,1.6.1.5.3,1.1.4,1.6h1.2c.1-.6.2-1.1.4-1.7.1-.6.3-1.1.5-1.7l6.8-23.6h4.6Z"/>
    <path class="st2" d="M263.3,66.6c.4,0,.7.1,1,.3.3.2.5.5.6.9l9.6,29.2h-4.6l-7.6-24.4c-.1-.4-.2-.8-.4-1.3-.1-.5-.2-.9-.4-1.3h-1.2c-.1.4-.2.8-.4,1.3-.1.5-.2.9-.4,1.3l-7.6,24.4h-4.5l9.6-29.2c.1-.4.3-.6.6-.9.3-.2.6-.3,1-.3h4.5ZM268.7,84.1v3.6h-15.5v-3.6h15.5Z"/>
    <path class="st2" d="M296.9,66.6v3.8h-23.7v-3.8h23.7ZM287.3,66.6v30.3h-4.4v-30.3h4.4Z"/>
    <path class="st2" d="M306,66.6v30.3h-4.4v-30.3h4.4Z"/>
    <path class="st2" d="M324.5,66.1c2.2,0,4.1.3,5.7.8,1.6.5,2.8,1.4,3.8,2.6.9,1.2,1.6,2.8,2,4.8s.6,4.5.6,7.5-.2,5.5-.6,7.5c-.4,2-1.1,3.7-2,4.9-.9,1.2-2.2,2.1-3.8,2.6-1.6.5-3.5.8-5.7.8s-4.1-.3-5.7-.8c-1.6-.5-2.8-1.4-3.8-2.6-1-1.2-1.6-2.8-2.1-4.9-.4-2-.7-4.5-.7-7.5s.2-5.5.7-7.5,1.1-3.6,2.1-4.8c1-1.2,2.2-2.1,3.8-2.6,1.6-.5,3.5-.8,5.7-.8ZM324.5,69.9c-1.9,0-3.4.4-4.5,1.1-1.1.7-1.9,2-2.4,3.7-.5,1.7-.7,4.1-.7,7.1s.2,5.4.7,7.1c.5,1.7,1.2,3,2.4,3.7,1.1.7,2.6,1.1,4.5,1.1s3.4-.4,4.5-1.1c1.1-.7,1.9-2,2.4-3.7.5-1.7.7-4.1.7-7.1s-.2-5.4-.7-7.1-1.3-2.9-2.4-3.7c-1.1-.7-2.6-1.1-4.5-1.1Z"/>
    <path class="st2" d="M366.7,66.6v28.6c0,1.1-.5,1.7-1.6,1.7h-3.8c-.5,0-.9-.1-1.2-.4s-.5-.6-.7-1l-9.9-20.5c-.3-.6-.6-1.3-.9-2-.4-.7-.6-1.4-.8-2.1h-.7c0,.7.1,1.4.1,2,0,.7,0,1.4,0,2.1v21.8h-4.3v-28.6c0-1.1.6-1.7,1.7-1.7h3.6c.5,0,.9.1,1.2.4.3.2.5.6.7,1l9.6,20c.3.6.7,1.3,1,2.1.4.8.7,1.6,1.1,2.3h.7c0-.8-.1-1.6-.1-2.4s0-1.5,0-2.3v-21.1h4.3Z"/>
    <path class="st2" d="M382.8,66.1c1.5,0,3,.1,4.6.2,1.6.1,3.1.4,4.7.7l-.3,3.1c-1.3,0-2.7-.1-4.2-.1-1.6,0-3.1,0-4.6,0s-1.9,0-2.6,0c-.7,0-1.3.2-1.8.5-.5.3-.8.7-1,1.3-.2.6-.3,1.4-.3,2.4,0,1.6.3,2.6.9,3.3.6.6,1.5,1.1,2.9,1.4l6.1,1.6c2.3.6,4,1.6,4.8,3,.9,1.4,1.3,3.3,1.3,5.6s-.2,3.2-.6,4.3c-.4,1.1-1,1.9-1.8,2.5-.8.6-1.9,1-3.2,1.2-1.3.2-2.9.4-4.7.4s-2.3,0-4-.1c-1.6,0-3.5-.3-5.7-.7l.3-3.2c1.7,0,3.1.1,4.2.2,1.1,0,2,0,2.8,0h2.4c1.5,0,2.6-.1,3.5-.3.8-.2,1.5-.7,1.8-1.3.4-.7.5-1.6.5-2.9s-.1-1.9-.4-2.5c-.2-.6-.6-1.1-1.2-1.4-.5-.3-1.2-.6-2.1-.8l-6.3-1.7c-2.2-.6-3.8-1.6-4.7-2.9-.9-1.4-1.3-3.2-1.3-5.5s.2-3.2.6-4.3,1-1.9,1.8-2.4c.8-.5,1.9-.9,3.1-1.1,1.3-.2,2.8-.3,4.5-.3Z"/>
  </g>
</svg>