<?xml version="1.0" encoding="UTF-8"?>
<svg id="Layer_1" xmlns="http://www.w3.org/2000/svg" version="1.1" viewBox="0 0 400 125">
  <!-- Generator: Adobe Illustrator 29.2.1, SVG Export Plug-In . SVG Version: 2.1.0 Build 116)  -->
  <defs>
    <style>
      .st0 {
        fill: #f5f5f5;
      }

      .st0, .st1, .st2, .st3, .st4 {
        isolation: isolate;
      }

      .st0, .st1, .st4 {
        font-weight: 300;
      }

      .st0, .st4 {
        font-family: MyriadPro-Light, 'Myriad Pro';
        font-size: 24.9px;
      }

      .st1 {
        font-family: MyriadPro-LightIt, 'Myriad Pro';
        font-size: 22.1px;
        font-style: italic;
      }

      .st1, .st3 {
        fill: #fff;
      }

      .st5, .st4 {
        fill: none;
      }

      .st3 {
        font-family: MyriadPro-Black, 'Myriad Pro';
        font-size: 26.5px;
        font-weight: 800;
      }
    </style>
  </defs>
  <g>
    <path class="st5" d="M34.6,39s1.6.4,4.6.4,3.5,0,5.7-.4c2.3-.3,4.9-.9,7.6-1.8,2.8-.9,5.7-2.2,8.5-3.9,2.7-1.6,5.3-3.6,7.4-5.9,1-1.1,1.9-2.3,2.6-3.5s1.3-2.4,1.6-3.6c.7-2.3.6-4.7-.3-6.7s-2.7-3.8-4.8-4.9c-1.1-.6-2.4-1.1-3.7-1.5-1.4-.4-2.8-.6-4.3-.8-3.1-.3-6.2,0-9.3.4-3.1.5-6,1.4-8.6,2.4-2.6,1-4.8,2.2-6.7,3.3-1.8,1.1-3.3,2.2-4.4,3.2-2.2,1.8-3.1,3.1-3.1,3.1,0,0-1.3.4-3.4,1.4-2,1-4.7,2.8-6.8,5.7-1.1,1.5-2,3.2-2.7,5.2s-1.1,4.4-1.2,6.8c0,2.6.2,5.3.8,8.2.6,3,1.6,6,3,9.1,1.4,3.1,3.1,6.2,5,9.2,2,3.1,4.2,6,6.5,8.8,4.7,5.6,9.9,10.4,14.7,14.1s9,6.4,12,8.1,4.8,2.6,4.8,2.6c0,0,.7-1,2.3-2.5,1.7-1.5,4.4-3.6,8.2-5.1,1.9-.8,4.1-1.4,6.5-1.7,2.3-.3,4.7-.4,7,0,2.2.3,4.4,1.1,6.2,2.2,1.7,1.1,3.1,2.6,3.8,4.3.7,1.7.8,3.7.4,5.7-.5,2-1.6,4-3,5.8-1.5,1.8-3.4,3.4-5.4,4.7-2.1,1.3-4.2,2.3-6.3,3-4.1,1.4-7.7,1.5-10,1.4s-3.5-.5-3.5-.5c0,0-1.1.9-3.2,2.1-2,1.1-5,2.5-8.6,2.9-3.5.4-7.7-.3-11.5-2.7-2-1.3-3.9-3-5.6-5.1-.9-1.1-1.7-2.3-2.5-3.6-.8-1.3-1.5-2.7-2.2-4.2s-1.3-3.1-1.8-4.8c-.6-1.7-1-3.5-1.4-5.3-.8-3.7-1.4-7.5-1.7-11.4-.3-4-.3-7.9,0-11.6.2-3.8.6-7.5,1.1-10.8,1.1-6.7,2.6-12.2,3.8-15.9,1.2-3.7,2-5.7,2-5.7v-.2h0Z"/>
    <path class="st5" d="M54.6,113.6s.9,1,3.1,2.2,2.6,1.2,4.5,1.7,4.2.8,6.8.8,5.7-.4,8.8-1.2c3.2-.8,6.4-2.1,9.4-3.9,3-1.7,5.7-3.9,7.9-6.4,1-1.2,1.9-2.5,2.7-3.8.7-1.3,1.2-2.6,1.6-4,.6-2.6.5-5.2-.4-7.4-.9-2.2-2.6-4.2-4.6-5.5-2.2-1.5-4.7-2.4-7.3-2.9-2.7-.5-5.5-.6-8-.4-5.3.4-9.6,2-12.5,3.3-2.8,1.3-4.3,2.3-4.3,2.3"/>
    <path class="st5" d="M51.7,113.5s.9,1.2,3.2,2.5c1.2.7,2.8,1.5,4.7,2,2,.6,4.5,1,7.4,1.1,2.9,0,6.2-.2,9.7-1s7.1-2.1,10.5-4c3.3-1.8,6.4-4.1,8.9-6.9,1.2-1.3,2.3-2.7,3.1-4.1.8-1.4,1.5-2.9,1.9-4.3.8-2.8.8-5.7,0-8.2-.9-2.5-2.6-4.7-4.7-6.3-2.3-1.7-5-2.8-7.8-3.4-2.9-.7-5.9-.8-8.7-.7-5.8.3-10.6,1.9-13.7,3.3-3.2,1.4-4.8,2.4-4.8,2.4"/>
    <path class="st5" d="M48.7,113s.9,1.3,3.3,2.9c1.2.8,2.9,1.7,4.9,2.4,2.2.7,4.8,1.3,7.9,1.5,3.2.2,6.7,0,10.5-.8s7.8-2.1,11.6-4c3.7-1.9,7.2-4.3,10.1-7.2,1.4-1.4,2.6-2.9,3.7-4.5,1-1.5,1.8-3.1,2.4-4.7s.9-3.1,1-4.7c0-1.5,0-3-.5-4.4-.8-2.8-2.5-5.2-4.7-7.1-2.3-1.9-5.2-3.2-8.1-4-3.1-.8-6.3-1.1-9.3-1-6.2.2-11.5,1.8-15,3.1-3.5,1.4-5.3,2.5-5.3,2.5"/>
    <path class="st5" d="M45.5,112.2s.9,1.5,3.2,3.3c1.2.9,2.9,2,5.1,2.8,2.2.9,5,1.6,8.2,2,3.4.3,7.2.3,11.2-.4,4.1-.7,8.5-2,12.7-3.9,4.1-1.9,8.1-4.5,11.3-7.5,1.6-1.5,3-3.1,4.2-4.7s2.2-3.3,2.9-5.1c.7-1.7,1.2-3.4,1.4-5.1.2-1.6,0-3.3-.2-4.8-.6-3-2.3-5.8-4.5-7.9-1.2-1.1-2.5-2-3.9-2.8s-3-1.4-4.5-1.9c-3.3-1-6.6-1.4-9.8-1.5-6.7,0-12.3,1.5-16.2,2.9-3.8,1.4-5.8,2.5-5.8,2.5"/>
    <path class="st5" d="M42.1,111s.2.4.7,1c.5.7,1.3,1.6,2.4,2.7,1.2,1.1,2.9,2.3,5.1,3.3s2.4,1,3.8,1.5c1.4.4,3,.8,4.7,1.1,1.7.3,3.6.4,5.6.4s4.1,0,6.3-.4c4.5-.6,9.2-1.8,13.8-3.7,4.6-1.9,8.9-4.5,12.7-7.7,1.8-1.5,3.5-3.2,4.9-5,1.4-1.7,2.6-3.5,3.5-5.4.9-1.8,1.5-3.7,1.9-5.5.3-1.8.4-3.6.2-5.3-.4-3.3-1.9-6.4-4.2-8.8-1.1-1.2-2.5-2.3-3.9-3.2-1.5-.9-3-1.7-4.7-2.3-3.4-1.2-6.9-1.8-10.3-2-3.5-.2-6.8,0-9.7.6-3,.5-5.5,1.2-7.6,1.9-4.2,1.3-6.4,2.5-6.4,2.5"/>
    <path class="st5" d="M38.7,109.4s.2.4.6,1.1c.5.7,1.2,1.8,2.3,3,1.2,1.2,2.8,2.6,5,3.8,1.1.6,2.4,1.2,3.9,1.8,1.5.5,3.1,1,4.9,1.4,1.8.4,3.8.6,5.9.7h6.7c4.8-.4,9.8-1.5,14.8-3.4s9.8-4.5,14.1-7.8c2.1-1.6,3.9-3.3,5.6-5.2,1.6-1.8,3-3.7,4.1-5.7,1.1-1.9,1.9-3.9,2.4-5.9.5-1.9.7-3.8.7-5.7,0-3.6-1.5-7-3.6-9.7-1.1-1.4-2.4-2.6-3.8-3.6-1.5-1.1-3.1-1.9-4.7-2.6-1.7-.7-3.5-1.3-5.3-1.7-1.8-.4-3.6-.7-5.4-.9-3.7-.3-7.2-.2-10.3.2-3.2.4-5.9,1-8.1,1.7-4.5,1.3-6.9,2.4-6.9,2.4"/>
    <path class="st5" d="M35.2,107.4s.2.5.6,1.3c.4.8,1.1,2,2.1,3.4,1.1,1.4,2.7,2.9,4.9,4.4,1.1.7,2.4,1.5,3.9,2.1,1.5.7,3.2,1.2,5,1.7,1.9.5,3.9.9,6.1,1.1,2.2.2,4.6.3,7,.2,5-.2,10.5-1.2,15.9-3s10.7-4.4,15.5-7.8c2.3-1.6,4.4-3.4,6.4-5.4s3.5-3.9,4.9-6c1.3-2,2.4-4.1,3.1-6.2.7-2,1.1-4.1,1.2-6.1.2-3.9-1-7.6-3-10.6-2.1-3.1-5.1-5.4-8.4-7.1-1.7-.9-3.5-1.5-5.4-2.1-1.9-.5-3.8-.9-5.6-1.2-3.8-.5-7.5-.5-10.8-.2s-6.3.9-8.7,1.5c-4.8,1.2-7.4,2.3-7.4,2.3"/>
    <path class="st5" d="M31.7,104.9s.4,2.1,2.4,5.1,2.5,3.3,4.7,4.9c1.1.9,2.4,1.7,3.8,2.4,1.5.8,3.2,1.5,5,2.1,1.9.6,4,1.1,6.2,1.5,2.3.4,4.7.5,7.3.5s5.4-.2,8.2-.6,5.8-1,8.7-1.9c5.9-1.7,11.7-4.3,16.9-7.7,2.6-1.7,5-3.5,7.2-5.5,2.1-2,4-4,5.7-6.2,1.6-2.1,2.9-4.3,3.8-6.6.9-2.2,1.5-4.4,1.8-6.6.3-2.1.2-4.2-.2-6.1-.4-1.9-1.1-3.8-2-5.4-1.9-3.4-4.9-6.1-8.2-8-1.7-1-3.6-1.8-5.4-2.5-1.9-.7-3.8-1.1-5.8-1.5-4-.7-7.8-.8-11.2-.7-3.5.2-6.6.7-9.1,1.2-5.1,1.1-7.9,2.2-7.9,2.2"/>
    <path class="st5" d="M28.2,101.9s.2,2.2,2,5.5c.9,1.7,2.3,3.6,4.4,5.5,1.1,1,2.3,1.9,3.7,2.8,1.5.9,3.1,1.7,5,2.5,1.9.7,4,1.4,6.3,1.8,2.3.5,4.9.8,7.5.9,2.7,0,5.6,0,8.6-.2,3-.3,6.1-.8,9.2-1.6,6.3-1.6,12.6-4.1,18.3-7.5,2.8-1.7,5.5-3.5,8-5.6,2.4-2,4.6-4.2,6.5-6.5,1.8-2.2,3.4-4.5,4.6-6.9,1.2-2.3,2-4.6,2.5-7,.5-2.2.6-4.5.4-6.6s-.8-4.1-1.6-5.9c-1.7-3.7-4.5-6.7-7.8-8.9-1.7-1.1-3.5-2.1-5.4-2.9-1.9-.8-3.9-1.4-5.9-1.8-4.1-.9-8-1.2-11.6-1.2s-6.9.4-9.6.9c-5.4.9-8.4,2-8.4,2"/>
    <path class="st5" d="M24.9,98.7s0,2.4,1.6,6c.8,1.8,2.1,4,4,6.1,1,1.1,2.2,2.1,3.6,3.1,1.4,1,3.1,2,5,2.9s4,1.6,6.4,2.2,5,1.1,7.7,1.3c2.8.3,5.8.3,8.9,0,3.1-.2,6.4-.6,9.7-1.3,6.7-1.4,13.4-3.8,19.7-7.2,3.1-1.7,6-3.6,8.8-5.6,2.7-2,5.1-4.3,7.3-6.6,2.1-2.3,3.9-4.7,5.3-7.2,1.4-2.4,2.5-4.9,3.1-7.3.7-2.4,1-4.8.9-7,0-2.2-.5-4.4-1.2-6.4-1.4-4-4.2-7.4-7.4-9.8-1.7-1.3-3.5-2.4-5.4-3.3-1.9-.9-3.9-1.6-6-2.2-4.1-1.1-8.2-1.6-12-1.7-3.8,0-7.2.2-10,.6-5.7.8-8.9,1.8-8.9,1.8"/>
    <path class="st5" d="M21.6,95.1s-.2,2.5,1.2,6.4c.7,2,1.8,4.3,3.7,6.6,1,1.2,2.1,2.3,3.5,3.5,1.4,1.1,3,2.2,4.9,3.2s4,1.9,6.4,2.6,5.1,1.3,7.9,1.7c2.9.4,6,.5,9.2.5s6.7-.4,10.1-1c7-1.2,14.2-3.5,20.9-6.9,3.3-1.7,6.5-3.6,9.5-5.7,2.9-2.1,5.6-4.3,8-6.8,2.3-2.4,4.4-4.9,6.1-7.5,1.6-2.5,2.9-5.1,3.8-7.7.9-2.5,1.3-5,1.4-7.4,0-2.4-.2-4.7-.8-6.8-1.2-4.2-3.8-7.9-7-10.7-1.7-1.4-3.5-2.6-5.4-3.6s-4-1.9-6-2.5c-2.1-.7-4.2-1.2-6.2-1.5-2.1-.4-4.1-.6-6-.7-3.9-.2-7.5,0-10.4.3-5.9.6-9.3,1.6-9.3,1.6"/>
    <path class="st5" d="M18.5,91.5v1.8c0,1.2.2,2.9.8,4.9.6,2.1,1.6,4.5,3.4,7,.9,1.3,2.1,2.5,3.4,3.7,1.4,1.2,3,2.4,4.8,3.5,1.9,1.1,4.1,2.1,6.4,2.9,2.4.9,5.1,1.5,8,2,3,.5,6.1.7,9.4.7s6.9-.3,10.5-.8c7.3-1.1,14.9-3.3,22-6.7,3.5-1.7,7-3.6,10.2-5.7,3.1-2.1,6.1-4.4,8.7-6.9,2.5-2.4,4.8-5,6.7-7.7,1.8-2.6,3.3-5.3,4.3-8,1-2.6,1.7-5.2,1.9-7.8.2-2.5,0-4.9-.5-7.2-1-4.5-3.5-8.4-6.7-11.4s-3.5-2.8-5.4-3.9c-2-1.1-4-2-6.1-2.8s-4.2-1.3-6.3-1.7c-2.1-.4-4.2-.7-6.2-.9-4.1-.3-7.7-.2-10.7,0-6.2.5-9.7,1.4-9.7,1.4"/>
    <path class="st5" d="M15.6,88v1.9c0,1.2.1,3,.6,5.1s1.5,4.7,3.3,7.3,2,2.7,3.4,3.9c1.4,1.3,3,2.6,4.9,3.7,1.9,1.2,4.1,2.3,6.5,3.2,2.5.9,5.2,1.7,8.2,2.2s6.3.9,9.7.9,7.1-.2,10.9-.7c7.6-1,15.5-3.2,23-6.6,3.7-1.7,7.3-3.6,10.7-5.8,3.3-2.1,6.4-4.5,9.2-7.1,2.7-2.5,5.1-5.1,7.2-7.9,2-2.7,3.6-5.5,4.7-8.3,1.1-2.7,1.9-5.4,2.2-8.1.3-2.6.2-5.1-.2-7.5-.9-4.7-3.4-8.8-6.6-11.9-1.6-1.6-3.5-3-5.4-4.2-2-1.2-4.1-2.2-6.2-3-2.2-.8-4.3-1.4-6.5-1.9s-4.3-.8-6.4-1c-4.2-.4-7.9-.3-11.1,0-6.4.4-10,1.4-10,1.4"/>
    <path class="st5" d="M12.8,84.8v1.9c0,1.2.1,3.1.6,5.3.5,2.2,1.5,4.8,3.3,7.5.9,1.4,2.1,2.7,3.4,4,1.4,1.3,3.1,2.6,5,3.8,2,1.2,4.2,2.3,6.7,3.2,2.6,1,5.4,1.7,8.4,2.3,3.1.6,6.5.9,10,.9s7.4-.2,11.2-.7c7.9-1.1,16-3.3,23.7-6.8,3.8-1.7,7.5-3.7,11-6,3.4-2.2,6.6-4.7,9.5-7.3,2.8-2.6,5.3-5.3,7.4-8.1,2-2.8,3.7-5.6,4.9-8.5,1.2-2.8,1.9-5.6,2.3-8.3.3-2.6.2-5.2-.2-7.7-.9-4.8-3.5-9-6.8-12.2-1.7-1.6-3.6-3.1-5.6-4.3s-4.2-2.2-6.4-3c-2.2-.8-4.5-1.4-6.7-1.9s-4.4-.8-6.5-1c-4.3-.4-8.2-.3-11.4,0-6.6.5-10.3,1.4-10.3,1.4"/>
    <path class="st5" d="M10.4,82.4v1.9c0,1.3.2,3.1.8,5.3.6,2.2,1.7,4.9,3.7,7.5,1,1.4,2.2,2.7,3.7,4s3.2,2.6,5.3,3.8c2.1,1.2,4.4,2.3,7,3.2,2.7.9,5.6,1.7,8.8,2.1,3.2.5,6.7.8,10.3.8s7.6-.3,11.5-.9c8.1-1.2,16.3-3.7,24.2-7.3,3.9-1.8,7.6-3.9,11.2-6.3,3.5-2.3,6.7-4.8,9.5-7.6,2.8-2.6,5.3-5.5,7.3-8.4,2-2.8,3.6-5.7,4.8-8.7,1.1-2.8,1.8-5.7,2.1-8.4.2-2.7,0-5.3-.5-7.7-1.1-4.8-3.9-9-7.4-12.2-1.8-1.6-3.8-3-5.9-4.2s-4.4-2.2-6.6-2.9c-2.3-.8-4.6-1.4-6.9-1.8-2.3-.4-4.6-.7-6.7-.9-4.4-.3-8.4-.2-11.7,0-6.7.6-10.5,1.6-10.5,1.6"/>
    <path class="st5" d="M8.3,80.9s0,.7.1,1.9c.1,1.2.4,3.1,1.2,5.3.8,2.2,2.1,4.8,4.3,7.4,1.1,1.3,2.5,2.6,4.1,3.9,1.6,1.3,3.5,2.5,5.7,3.6s4.7,2.1,7.5,2.9,5.9,1.4,9.2,1.8c3.4.4,7,.5,10.7.3,3.8-.2,7.8-.6,11.8-1.4,8.2-1.5,16.5-4.3,24.3-8.3,3.9-2,7.6-4.2,11-6.7,3.4-2.4,6.5-5.1,9.2-7.9,2.7-2.7,5-5.6,6.9-8.6,1.8-2.9,3.3-5.8,4.2-8.8.9-2.8,1.4-5.7,1.5-8.4,0-2.7-.3-5.3-1.1-7.6-1.5-4.7-4.7-8.8-8.4-11.8-2-1.5-4.1-2.8-6.3-3.9-2.3-1.1-4.6-2-7-2.7s-4.8-1.2-7.2-1.5c-2.4-.3-4.7-.5-7-.6-4.6-.2-8.6.1-12,.5-6.8.8-10.7,2-10.7,2"/>
    <path class="st5" d="M7,80.6s0,.7.4,1.9c.3,1.2.8,3,1.9,5.1s2.8,4.6,5.3,6.9c1.3,1.2,2.9,2.4,4.7,3.5s4,2.2,6.3,3.1c2.4.9,5.1,1.7,8,2.3,3,.6,6.3,1,9.7,1.2,3.5.2,7.2,0,11.1-.3,3.9-.4,7.9-1.1,12-2.1,8.2-2,16.4-5.2,24-9.6,3.7-2.1,7.2-4.5,10.5-7.2,3.2-2.6,6-5.3,8.5-8.2,2.4-2.8,4.4-5.8,6-8.8,1.5-2.9,2.6-5.9,3.3-8.8.6-2.8.8-5.6.5-8.3-.3-2.6-1-5.1-2-7.3-1.1-2.3-2.5-4.3-4.2-6.1s-3.7-3.4-5.8-4.8c-2.2-1.4-4.5-2.5-6.9-3.4-2.5-.9-5-1.6-7.5-2.2-2.6-.5-5.1-.9-7.6-1.1s-4.9-.3-7.2-.2c-4.7.1-8.8.6-12.2,1.2-6.9,1.2-10.7,2.5-10.7,2.5"/>
    <path class="st5" d="M6.9,81.6s.2.6.7,1.8c.5,1.2,1.3,2.8,2.8,4.7,1.5,2,3.6,4.2,6.7,6.2,1.6,1.1,3.4,2.1,5.4,3,2.1.9,4.5,1.8,7.1,2.5,2.7.7,5.6,1.2,8.7,1.6,3.2.3,6.6.4,10.2.3,3.7-.2,7.5-.6,11.4-1.3,4-.7,8-1.7,12-3s8.1-2.9,12-4.8,7.6-4,11.1-6.4c3.4-2.4,6.6-4.9,9.5-7.7,2.8-2.7,5.3-5.6,7.3-8.6,2-2.9,3.6-5.9,4.7-8.9,1.1-2.9,1.7-5.8,1.9-8.6.2-2.7,0-5.4-.8-7.9-.7-2.5-1.8-4.8-3.3-6.8-1.5-2.1-3.3-3.9-5.3-5.5-2.1-1.6-4.3-3-6.7-4.1-2.5-1.2-5-2.1-7.6-2.7-2.7-.7-5.4-1.2-8-1.5-2.7-.3-5.4-.4-7.9-.4s-5.1.1-7.4.4c-4.8.5-8.9,1.3-12.3,2.1-6.9,1.7-10.6,3.3-10.6,3.3"/>
    <path class="st5" d="M8.3,83.8s.3.6,1.1,1.6,2,2.6,3.9,4.2c1,.9,2.1,1.7,3.5,2.6s3,1.8,4.8,2.6c1.9.8,3.9,1.6,6.3,2.3,2.4.7,5,1.2,7.8,1.6,2.9.4,6,.6,9.4.6s7-.3,10.7-.8c7.5-1.1,15.5-3.2,23.3-6.5,3.9-1.6,7.7-3.6,11.3-5.8,3.6-2.2,7-4.6,10.1-7.2,3-2.6,5.8-5.3,8.2-8.2,2.3-2.8,4.2-5.7,5.7-8.8,1.4-2.9,2.4-5.8,3-8.8.5-2.8.6-5.6.2-8.3-.8-5.2-3.5-9.9-7.2-13.4-1.9-1.8-4.1-3.4-6.5-4.7s-5-2.4-7.7-3.2c-2.7-.9-5.5-1.5-8.3-1.9-2.9-.4-5.7-.6-8.5-.7-5.7,0-11,.5-15.8,1.4s-8.9,2-12.3,3.1c-6.7,2.2-10.3,4.1-10.3,4.1"/>
    <path class="st5" d="M11.4,87s.5.5,1.5,1.4,2.7,2.2,5,3.5c1.2.7,2.6,1.4,4.2,2.1,1.6.7,3.5,1.3,5.6,1.9s4.5,1.1,7.1,1.4c2.6.4,5.5.6,8.5.6s6.4,0,9.9-.5c3.5-.4,7.1-1.1,10.9-2,7.5-1.8,15.2-4.7,22.5-8.8,3.6-2,7.1-4.2,10.3-6.7,3.2-2.4,6.1-5,8.7-7.8,2.5-2.7,4.7-5.6,6.5-8.6,1.7-2.9,3-5.8,3.8-8.8.8-2.8,1.2-5.7,1-8.5,0-2.7-.7-5.3-1.7-7.7s-2.4-4.6-4.2-6.5c-1.8-2-3.9-3.7-6.2-5.2-2.4-1.5-5-2.7-7.7-3.7-2.8-1-5.7-1.7-8.6-2.2-3-.5-6-.8-9-.9-3,0-6,0-8.9.3-11.8,1-21.4,4.4-27.9,7.2-6.4,2.8-9.8,4.9-9.8,4.9"/>
    <path class="st5" d="M16.2,90.7s.6.4,1.9,1.2c1.3.7,3.3,1.8,6.1,2.8,1.4.5,3.1,1,4.9,1.5,1.9.5,4,.9,6.3,1.2,2.4.3,4.9.5,7.7.5s5.9,0,9-.4c6.5-.7,13.6-2.2,20.9-4.8,3.6-1.3,7.3-2.9,10.9-4.7,3.5-1.8,7-3.9,10.3-6.2,3.2-2.3,6.3-4.7,9-7.4,2.7-2.6,5-5.4,7.1-8.3,1.9-2.8,3.5-5.7,4.6-8.7,1.1-2.9,1.7-5.8,1.9-8.6,0-2.7-.2-5.5-.9-8-.8-2.5-2-4.9-3.5-7-1.6-2.1-3.6-4-5.8-5.6-2.3-1.7-4.8-3-7.5-4.1-2.8-1.1-5.7-2-8.7-2.6-3.1-.6-6.2-1-9.3-1.1-3.2-.2-6.3,0-9.4.2s-6.2.7-9.1,1.2c-11.8,2.2-21.2,6.4-27.3,9.7-6,3.3-9,5.7-9,5.7"/>
    <path class="st5" d="M21.8,94.6s.8.4,2.2.9c1.5.6,3.8,1.3,7,2,1.6.3,3.4.7,5.4.9,2.1.2,4.3.4,6.8.4s5.2,0,8.2-.3c2.9-.3,6.1-.7,9.3-1.4,6.6-1.3,13.6-3.5,20.6-6.8,3.5-1.6,6.9-3.5,10.2-5.6,3.3-2.1,6.4-4.4,9.3-6.9,2.8-2.5,5.4-5.1,7.7-7.9,2.2-2.7,4-5.6,5.5-8.5,1.4-2.8,2.4-5.8,2.9-8.7.5-2.8.5-5.6,0-8.3-.4-2.6-1.3-5.2-2.6-7.4-1.3-2.3-3-4.4-5.1-6.2-2.1-1.9-4.5-3.5-7.1-4.8-2.7-1.3-5.6-2.4-8.6-3.2-3.1-.8-6.3-1.3-9.5-1.6-3.3-.3-6.6-.3-9.8-.2-6.6.3-13,1.5-18.8,3-5.8,1.6-11,3.6-15.5,5.7-4.4,2.1-8,4.2-10.8,6.1-2.8,1.9-4.9,3.5-6.2,4.6-1.3,1.1-2,1.7-2,1.7"/>
    <path class="st5" d="M26.9,98.3s.8.3,2.5.7c1.7.4,4.2,1,7.5,1.4,1.7.2,3.6.4,5.8.4h7.1c5.2-.3,11.3-1.2,17.8-3s13.4-4.5,20.2-8.2c3.3-1.8,6.5-3.9,9.6-6.2,3-2.2,5.8-4.7,8.4-7.4,2.5-2.6,4.7-5.3,6.6-8.2,1.8-2.8,3.2-5.7,4.2-8.6,1-2.8,1.5-5.7,1.6-8.6,0-2.7-.4-5.5-1.2-8-.9-2.5-2.2-4.9-3.8-7-1.7-2.1-3.8-4-6.2-5.6-2.4-1.6-5.1-3-8-4.1-3-1.1-6.1-1.9-9.3-2.5-3.3-.6-6.6-.8-10-.9-3.4,0-6.8.1-10.1.5-6.8.8-13.1,2.3-18.9,4.3-5.7,2-10.8,4.3-15.1,6.6-4.2,2.3-7.6,4.7-10.3,6.7-2.6,2-4.5,3.7-5.7,4.9l-1.8,1.8"/>
    <path class="st5" d="M30.2,101.5s.9.3,2.6.6c1.7.4,4.3.8,7.8,1.1,3.5.3,8,.3,13.2-.2,5.3-.5,11.4-1.6,17.8-3.7,6.5-2,13.3-4.9,19.8-8.8,3.2-1.9,6.3-4.1,9.2-6.4,2.9-2.3,5.5-4.9,7.9-7.6,2.3-2.6,4.3-5.4,6-8.3,1.6-2.8,2.8-5.7,3.6-8.7.7-2.8,1-5.7.9-8.5-.2-2.7-.8-5.4-1.9-7.8-1.1-2.4-2.6-4.7-4.5-6.7s-4.2-3.8-6.7-5.3c-2.6-1.5-5.4-2.8-8.4-3.7-3.1-1-6.3-1.7-9.6-2.1-3.4-.4-6.8-.6-10.2-.5-3.5,0-6.9.4-10.2.9-6.8,1-13.1,2.7-18.8,4.9-5.7,2.1-10.6,4.6-14.8,7.1-4.1,2.4-7.4,4.9-9.9,7s-4.3,3.8-5.4,5c-1.2,1.2-1.7,1.9-1.7,1.9"/>
    <path class="st5" d="M31.9,103.7s.9.2,2.6.6c1.7.3,4.4.8,7.8,1,3.6.2,8,.2,13.2-.4,5.3-.6,11.3-1.8,17.8-3.9,6.4-2.1,13.2-5.1,19.6-9,3.2-1.9,6.2-4.1,9.1-6.5,2.8-2.3,5.4-4.9,7.7-7.6,2.2-2.6,4.2-5.4,5.8-8.4,1.5-2.8,2.6-5.7,3.3-8.6.7-2.8.9-5.7.6-8.4-.2-2.7-1-5.3-2.1-7.7s-2.7-4.7-4.7-6.6c-2-2-4.3-3.7-6.8-5.2-2.6-1.5-5.5-2.7-8.5-3.6-3.1-.9-6.4-1.6-9.7-2-3.4-.4-6.8-.5-10.2-.4-3.5.1-6.9.4-10.2,1-6.8,1.1-13.1,2.9-18.8,5.1-5.6,2.2-10.5,4.7-14.6,7.2-4,2.5-7.3,4.9-9.8,7.1-2.4,2.1-4.2,3.9-5.3,5.1-1.1,1.2-1.7,1.9-1.7,1.9"/>
    <path class="st5" d="M33.8,105.4s.9.2,2.7.5,4.4.7,7.9.8c3.6,0,8.1,0,13.3-.6,5.3-.7,11.3-2,17.7-4.2s13-5.3,19.3-9.3c3.1-2,6.1-4.2,8.8-6.6,2.7-2.4,5.2-4.9,7.4-7.7,2.1-2.7,4-5.5,5.4-8.4,1.4-2.8,2.4-5.7,3-8.6.5-2.8.6-5.6.3-8.3-.4-2.7-1.2-5.2-2.4-7.6-1.3-2.4-2.9-4.5-5-6.4s-4.5-3.6-7.1-5c-2.7-1.4-5.6-2.6-8.7-3.4-3.2-.9-6.4-1.4-9.8-1.8-3.4-.3-6.9-.4-10.3-.2-3.5.2-6.9.6-10.2,1.2-6.8,1.2-13,3.1-18.6,5.4s-10.4,4.9-14.4,7.4-7.1,5-9.5,7.2c-2.4,2.1-4.1,3.9-5.2,5.1-1.1,1.2-1.6,1.9-1.6,1.9"/>
    <path class="st5" d="M37.2,106.7s.9.2,2.7.4c1.8.2,4.6.5,8.2.4,3.7,0,8.2-.3,13.4-1.2,5.3-.9,11.3-2.5,17.6-4.9,3.1-1.2,6.3-2.7,9.5-4.3,3.1-1.7,6.2-3.6,9.2-5.7,2.9-2.1,5.7-4.4,8.3-6.9,2.5-2.4,4.8-5.1,6.8-7.8,1.9-2.7,3.5-5.5,4.7-8.4,1.1-2.8,1.9-5.7,2.2-8.5.3-2.8,0-5.5-.5-8.2-.6-2.6-1.7-5.1-3.2-7.3-1.5-2.3-3.4-4.3-5.6-6.1-2.3-1.8-4.8-3.3-7.6-4.6-2.9-1.3-5.9-2.3-9.1-3-3.3-.7-6.6-1.1-10-1.3-3.5-.2-7,0-10.4.2-3.5.3-6.9.8-10.3,1.6-6.7,1.4-12.9,3.6-18.4,6-5.5,2.4-10.1,5.2-14,7.9-3.8,2.6-6.8,5.2-9.1,7.5-2.2,2.2-3.8,4-4.8,5.3-1,1.2-1.5,1.9-1.5,1.9"/>
    <path class="st5" d="M41.8,107.3s1,0,2.9.2h8.4c3.7-.3,8.4-.8,13.6-2.1,5.3-1.2,11.2-3.1,17.3-5.9,3-1.4,6.1-3,9.1-4.8s5.9-3.8,8.7-6.1c2.7-2.2,5.3-4.6,7.6-7.2,2.2-2.5,4.2-5.2,5.9-8,1.6-2.7,2.8-5.6,3.7-8.4.8-2.8,1.2-5.6,1.1-8.4,0-5.3-2.2-10.6-5.7-14.7-1.8-2.1-4-4-6.4-5.5-2.5-1.6-5.3-2.9-8.3-4-3.1-1.1-6.3-1.8-9.6-2.3-3.4-.5-6.9-.7-10.4-.7s-7.1.3-10.6.8-7,1.2-10.3,2.1c-6.7,1.8-12.8,4.2-18.1,7-5.3,2.7-9.7,5.7-13.4,8.5-3.5,2.8-6.3,5.5-8.4,7.8-2,2.3-3.4,4.1-4.3,5.4-.9,1.3-1.3,2-1.3,2"/>
    <path class="st5" d="M46.8,106.9h3c2,0,4.9-.2,8.7-.7s8.5-1.4,13.7-3,11-3.9,16.9-7c2.9-1.6,5.8-3.3,8.6-5.3,2.8-2,5.4-4.1,7.9-6.5,2.4-2.3,4.7-4.8,6.7-7.5,1.9-2.6,3.5-5.3,4.8-8.1,1.2-2.7,2.1-5.5,2.5-8.4.4-2.7.4-5.5,0-8.1-.5-2.6-1.4-5.1-2.7-7.4-1.3-2.3-3.1-4.5-5.2-6.3-2.1-1.9-4.6-3.5-7.4-4.9s-5.9-2.5-9-3.2c-3.3-.8-6.7-1.3-10.2-1.6-3.6-.2-7.1-.2-10.7,0-7.3.6-14.4,2.1-21,4.3s-12.5,5-17.6,8c-5,3-9.2,6.1-12.5,9.2-3.3,3-5.7,5.8-7.5,8.2-1.8,2.3-2.9,4.3-3.6,5.6-.7,1.3-1,2-1,2"/>
    <path class="st5" d="M51.7,105.3s1.1,0,3.1-.3c2-.2,5-.6,8.8-1.4,7.7-1.6,18.7-4.9,29.9-12,2.7-1.7,5.4-3.6,8-5.8,2.5-2.1,5-4.4,7.2-6.9,2.2-2.4,4.1-5,5.7-7.7,1.6-2.6,2.9-5.4,3.7-8.2.9-2.7,1.3-5.5,1.4-8.2,0-2.7-.4-5.3-1.2-7.8-.8-2.5-2.1-4.8-3.8-7-1.7-2.1-3.8-4.1-6.2-5.7-2.5-1.7-5.2-3.1-8.2-4.2-3.1-1.1-6.3-2-9.7-2.5-3.5-.6-7-.8-10.6-.8s-7.3.3-11,.8c-7.4,1-14.5,3-20.9,5.5s-12.2,5.6-17,8.9c-4.7,3.2-8.6,6.6-11.7,9.8-2.9,3.1-5.1,6-6.6,8.4-1.5,2.4-2.4,4.3-3,5.7-.6,1.3-.8,2-.8,2"/>
    <path class="st5" d="M55.6,102.7s1.1,0,3.1-.4,5.1-.9,8.9-1.9,8.4-2.5,13.5-4.7c5-2.2,10.4-5.1,15.7-8.8,2.6-1.8,5.1-3.9,7.5-6.1,2.3-2.2,4.5-4.5,6.5-7.1,1.9-2.5,3.5-5.1,4.9-7.8,1.3-2.6,2.2-5.4,2.8-8.1.5-2.7.7-5.4.4-8-.3-2.6-1-5.1-2.2-7.5s-2.8-4.6-4.7-6.5c-2-2-4.4-3.7-7-5.1-2.7-1.5-5.7-2.7-8.9-3.6-3.3-.9-6.7-1.5-10.2-1.9-3.6-.3-7.3-.4-10.9-.2-3.7.2-7.5.7-11.1,1.4-7.4,1.4-14.4,3.7-20.8,6.6-6.3,2.8-11.8,6.2-16.4,9.7-4.5,3.4-8.1,6.9-10.8,10.2-2.7,3.2-4.5,6.2-5.8,8.6-1.2,2.4-2,4.4-2.4,5.7-.4,1.3-.6,2-.6,2"/>
    <path class="st5" d="M58.3,99.3s4.5-.5,12-2.9c3.8-1.2,8.3-2.8,13.2-5.2,4.9-2.4,10.1-5.4,15.1-9.3,2.4-1.9,4.8-4,7-6.3,2.1-2.2,4.1-4.6,5.9-7.2,1.7-2.5,3.1-5.1,4.2-7.8,1-2.6,1.8-5.3,2.1-8,.3-2.6.2-5.3-.4-7.8-.5-2.5-1.5-4.9-2.9-7.2-1.4-2.2-3.2-4.3-5.4-6.1-2.2-1.8-4.8-3.4-7.6-4.7-2.9-1.3-6-2.3-9.3-3.1-3.4-.8-6.9-1.2-10.5-1.4-3.7-.2-7.4,0-11.1.3-3.8.4-7.5,1-11.2,1.8-7.4,1.7-14.3,4.3-20.5,7.3-6.1,3-11.4,6.5-15.8,10.2-4.3,3.5-7.6,7.1-10.1,10.4-2.4,3.2-4.1,6.2-5.1,8.7-1,2.4-1.6,4.4-1.9,5.7s-.4,2-.4,2"/>
    <path class="st5" d="M59.6,95.4s4.4-.7,11.9-3.2c3.7-1.3,8.2-3,13-5.5,2.4-1.2,4.8-2.6,7.3-4.3,2.4-1.6,4.9-3.4,7.3-5.3,2.3-1.9,4.6-4,6.7-6.4,2-2.2,3.9-4.6,5.5-7.2,1.5-2.5,2.8-5.1,3.8-7.7.9-2.6,1.5-5.2,1.6-7.9,0-2.6,0-5.2-.8-7.6-.7-2.4-1.8-4.8-3.3-6.9-1.5-2.1-3.5-4.1-5.7-5.8-2.3-1.7-5-3.2-7.8-4.4-3-1.2-6.2-2.1-9.5-2.7-3.4-.6-7-1-10.6-1s-7.4.2-11.1.6c-3.8.5-7.5,1.2-11.1,2.1-7.3,1.9-14.1,4.6-20.2,7.8-6,3.1-11.1,6.7-15.4,10.4-4.1,3.6-7.3,7.2-9.6,10.5-2.3,3.2-3.7,6.2-4.7,8.7-.9,2.4-1.4,4.3-1.6,5.6s-.3,2-.3,2"/>
    <path class="st5" d="M59.3,91.4s4.4-.7,11.7-3.3c3.7-1.3,8-3.1,12.8-5.6,2.3-1.2,4.7-2.7,7.2-4.3,2.4-1.6,4.8-3.4,7.1-5.3,2.3-1.9,4.4-4,6.5-6.3,2-2.2,3.7-4.6,5.3-7.1,1.5-2.4,2.7-5,3.6-7.6.8-2.5,1.3-5.1,1.4-7.7.2-5-1.4-10.1-4.5-14.1-1.6-2.1-3.6-4-5.8-5.6-2.3-1.7-5-3.1-7.9-4.2-3-1.1-6.2-2-9.5-2.6-3.4-.6-7-.9-10.5-.9s-7.4.2-11,.7c-3.7.5-7.4,1.3-11,2.2-7.2,1.9-13.9,4.7-19.9,7.9-2.9,1.6-5.7,3.3-8.2,5-2.5,1.7-4.8,3.5-6.8,5.3-4,3.5-7.1,7.1-9.3,10.4-2.2,3.2-3.6,6.1-4.5,8.6-.9,2.4-1.3,4.3-1.5,5.5-.2,1.3-.2,1.9-.2,1.9"/>
    <path class="st5" d="M57.8,87.4s4.3-.7,11.5-3.2c3.6-1.3,7.9-3,12.6-5.4,2.3-1.2,4.7-2.6,7.1-4.2,2.4-1.5,4.7-3.3,7-5.2,2.2-1.9,4.4-3.9,6.4-6.2,1.9-2.2,3.7-4.5,5.2-6.9s2.7-4.9,3.6-7.4c.8-2.5,1.4-5,1.5-7.6.2-4.9-1.2-9.9-4.2-13.9s-3.4-3.9-5.6-5.5c-2.3-1.6-4.9-3-7.7-4.1-2.9-1.1-6-2-9.3-2.5-3.3-.6-6.8-.9-10.3-.9s-7.2.2-10.8.7c-3.7.5-7.3,1.2-10.8,2.1-7.1,1.9-13.7,4.5-19.6,7.7-5.8,3.1-10.8,6.6-14.8,10.2-3.9,3.5-7,7-9.2,10.2-2.2,3.1-3.6,6-4.4,8.4-.9,2.3-1.3,4.2-1.5,5.4-.2,1.2-.2,1.9-.2,1.9"/>
    <path class="st5" d="M55.3,83.4s4.2-.6,11.2-2.9c3.5-1.2,7.8-2.8,12.3-5.1,4.5-2.3,9.3-5.2,14-8.9,2.2-1.8,4.4-3.8,6.4-5.9,2-2.1,3.8-4.3,5.4-6.7,1.5-2.3,2.8-4.7,3.8-7.2.9-2.4,1.5-4.9,1.7-7.4.2-2.4,0-4.8-.6-7.2-.6-2.3-1.6-4.5-3-6.5s-3.2-3.9-5.3-5.5c-2.1-1.6-4.6-3-7.3-4.1-2.8-1.2-5.8-2-8.9-2.6-3.2-.6-6.6-1-10-1s-7,.1-10.5.5c-3.6.4-7.1,1.1-10.6,1.9-7,1.7-13.5,4.3-19.3,7.2-5.7,2.9-10.7,6.3-14.7,9.7-3.9,3.3-7,6.7-9.3,9.9-2.2,3-3.7,5.8-4.6,8.1-.9,2.2-1.4,4.1-1.6,5.3s-.3,1.8-.3,1.8"/>
    <path class="st5" d="M52.2,79.6s4.1-.5,10.9-2.5c3.5-1,7.6-2.5,12.1-4.7,4.5-2.1,9.3-4.8,13.9-8.3,2.3-1.7,4.5-3.6,6.5-5.6s3.9-4.1,5.5-6.4c1.6-2.2,3-4.6,4.1-7,1-2.3,1.8-4.8,2.1-7.2.3-2.4.3-4.8,0-7-.4-2.3-1.2-4.5-2.4-6.5-1.2-2-2.8-3.9-4.7-5.5-2-1.7-4.2-3.1-6.7-4.3-2.6-1.2-5.4-2.1-8.4-2.8-3.1-.7-6.3-1.1-9.5-1.3-3.3-.2-6.8,0-10.2.3-3.5.3-6.9.9-10.2,1.6-6.8,1.5-13.2,3.8-18.9,6.6-5.7,2.7-10.6,5.9-14.7,9.2-4,3.2-7.1,6.4-9.5,9.4-2.3,2.9-3.8,5.6-4.9,7.8-1,2.2-1.5,3.9-1.8,5.1-.3,1.2-.4,1.8-.4,1.8"/>
    <path class="st5" d="M48.7,75.9s3.9-.3,10.5-2.1c3.4-.9,7.4-2.2,11.8-4.1s9.2-4.4,13.8-7.7c2.3-1.6,4.5-3.3,6.6-5.3,2.1-1.9,4-3.9,5.8-6.1,1.7-2.1,3.2-4.4,4.4-6.7,1.2-2.3,2.1-4.6,2.6-7,.5-2.3.7-4.6.5-6.9-.2-2.2-.8-4.4-1.8-6.4s-2.4-3.9-4-5.6c-1.7-1.7-3.8-3.2-6.1-4.4-2.4-1.3-5-2.3-7.8-3-2.9-.8-5.9-1.3-9-1.6-3.2-.3-6.4-.3-9.7,0-3.3.2-6.6.6-9.9,1.3-6.6,1.3-12.8,3.3-18.5,5.9-5.6,2.5-10.5,5.4-14.6,8.5-4,3-7.2,6-9.7,8.9-2.4,2.8-4,5.3-5.2,7.5-1.1,2.1-1.7,3.8-2.1,4.9-.4,1.1-.5,1.7-.5,1.7"/>
    <path class="st5" d="M45.1,72.3s.9,0,2.6-.3c1.7-.2,4.3-.6,7.5-1.3,6.5-1.5,15.8-4.4,25.2-10.5,2.3-1.5,4.6-3.1,6.7-4.9,2.1-1.8,4.2-3.7,6-5.7s3.4-4.1,4.8-6.4c1.3-2.2,2.4-4.4,3.1-6.7.7-2.2,1.1-4.5,1.1-6.7s-.4-4.3-1.1-6.4c-.7-2-1.9-3.9-3.3-5.6-1.5-1.7-3.3-3.3-5.3-4.6-2.1-1.3-4.5-2.4-7.1-3.3-2.6-.9-5.4-1.5-8.4-1.9s-6.1-.5-9.1-.5-6.3.4-9.4.9c-6.3,1-12.4,2.8-18,5.1-5.5,2.2-10.4,4.9-14.5,7.8-4,2.8-7.3,5.6-9.9,8.3-2.5,2.6-4.3,5.1-5.5,7.1s-2,3.6-2.4,4.7c-.4,1.1-.6,1.7-.6,1.7"/>
    <path class="st5" d="M41.7,68.7s.9,0,2.5-.2c1.6,0,4-.4,7.1-1,6.2-1.2,15.2-3.7,24.6-9.1,2.3-1.3,4.6-2.8,6.8-4.5,2.2-1.6,4.3-3.4,6.2-5.3,1.9-1.9,3.6-3.9,5.1-6,1.4-2.1,2.7-4.2,3.6-6.4.9-2.1,1.5-4.3,1.7-6.5.2-2.1,0-4.3-.4-6.3-.5-2-1.4-3.9-2.6-5.6-1.2-1.8-2.8-3.3-4.6-4.7-1.9-1.4-4-2.6-6.3-3.5-2.4-1-5-1.7-7.7-2.2-2.8-.5-5.6-.8-8.6-.8s-6,0-9,.5c-6.1.7-12,2.2-17.4,4.2s-10.2,4.4-14.3,7c-4,2.5-7.4,5.2-10,7.7-2.5,2.4-4.4,4.8-5.8,6.7-1.3,1.9-2.2,3.4-2.7,4.5-.5,1-.7,1.6-.7,1.6"/>
    <path class="st5" d="M38.6,65.1h2.3c1.5,0,3.8-.2,6.7-.6s6.5-1.1,10.6-2.4c4.1-1.2,8.6-2.9,13.2-5.3,2.3-1.2,4.5-2.5,6.8-4,2.2-1.5,4.3-3.1,6.3-4.9,2-1.7,3.8-3.6,5.4-5.6,1.6-1.9,2.9-4,4-6.1,1-2,1.8-4.2,2.3-6.3.4-2.1.5-4.1.3-6.1-.5-3.9-2.6-7.6-5.6-10.4-1.6-1.4-3.5-2.7-5.6-3.7s-4.5-1.9-7-2.5-5.2-1-7.9-1.2c-2.8-.2-5.6,0-8.4,0-5.8.5-11.4,1.7-16.6,3.4-5.2,1.7-10,3.9-14.1,6.2-4,2.3-7.4,4.8-10.1,7.1-2.6,2.3-4.6,4.4-6,6.3-1.4,1.8-2.3,3.3-2.9,4.3-.6,1-.8,1.5-.8,1.5"/>
    <path class="st5" d="M35.9,61.6h2.1c1.4,0,3.5,0,6.3-.3s6.2-.8,10.1-1.8,8.3-2.5,12.8-4.6c2.2-1,4.5-2.2,6.7-3.6,2.2-1.3,4.3-2.8,6.4-4.5,2-1.6,3.9-3.3,5.6-5.2,1.7-1.8,3.1-3.7,4.4-5.8,1.2-1.9,2.1-4,2.7-6s.9-4,.9-5.9c0-3.8-1.6-7.5-4.2-10.4-1.3-1.5-3-2.8-4.8-3.8-1.9-1.1-4-2-6.3-2.7s-4.8-1.2-7.3-1.5c-2.6-.3-5.2-.4-7.9-.3-5.4.2-10.8,1.2-15.8,2.6-5.1,1.4-9.7,3.3-13.7,5.4-4,2.1-7.3,4.3-10,6.5-2.6,2.1-4.7,4.1-6.2,5.8-1.5,1.7-2.5,3.1-3.1,4s-.9,1.4-.9,1.4"/>
    <path class="st5" d="M33.7,58.2h7.8c2.6-.2,5.8-.5,9.5-1.3s7.9-2,12.3-3.9c4.3-1.8,8.8-4.2,12.9-7.2,2-1.5,3.9-3.1,5.7-4.8,1.7-1.7,3.3-3.5,4.6-5.4,1.3-1.8,2.4-3.7,3.1-5.7.8-1.9,1.2-3.8,1.4-5.7.3-3.6-.7-7.3-2.9-10.2-1.1-1.5-2.5-2.8-4.1-3.9-1.7-1.2-3.5-2.1-5.6-2.9s-4.3-1.4-6.6-1.7c-2.4-.4-4.8-.6-7.3-.6s-5.1.2-7.6.5-5,.8-7.4,1.4c-4.8,1.2-9.3,2.9-13.2,4.7-3.9,1.8-7.2,3.9-9.9,5.9-2.7,1.9-4.7,3.8-6.3,5.4-1.5,1.5-2.6,2.8-3.3,3.7-.7.9-1,1.4-1,1.4"/>
    <path class="st5" d="M32,54.8s.6,0,1.8.2c1.2,0,3,.2,5.4.2s5.4-.3,8.9-.9c3.5-.6,7.5-1.6,11.7-3.2,4.2-1.6,8.5-3.7,12.6-6.4,2-1.3,3.9-2.8,5.7-4.4,1.7-1.5,3.4-3.2,4.8-5,1.4-1.7,2.5-3.5,3.5-5.4.9-1.8,1.5-3.6,1.8-5.5.3-1.8.3-3.6,0-5.2-.3-1.7-.9-3.3-1.8-4.7-.9-1.5-2.1-2.8-3.4-4-1.4-1.2-3.1-2.2-4.9-3-1.9-.8-3.9-1.5-6-1.9-2.2-.5-4.4-.7-6.7-.9-2.3,0-4.7,0-7,.2-2.4.2-4.7.6-7,1.1-4.6,1-8.9,2.4-12.7,4-3.8,1.6-7,3.5-9.7,5.3-2.6,1.8-4.7,3.5-6.3,4.9-1.5,1.4-2.6,2.6-3.3,3.5-.7.8-1,1.3-1,1.3"/>
    <path class="st5" d="M30.9,51.6s.6,0,1.6.3c1.1.2,2.8.3,4.9.4,2.2,0,5,0,8.2-.5,3.3-.5,7-1.3,11-2.6s8.1-3.2,12.1-5.6c2-1.2,3.9-2.5,5.6-4,1.7-1.4,3.4-2.9,4.8-4.6,1.4-1.6,2.7-3.3,3.7-5s1.7-3.4,2.2-5.2c.4-1.7.6-3.4.5-5s-.5-3.2-1.2-4.6-1.7-2.8-2.8-3.9c-1.2-1.2-2.7-2.2-4.3-3.1-1.7-.9-3.5-1.6-5.4-2.1-2-.5-4-.9-6.1-1.1-2.2-.2-4.4-.2-6.5,0-2.2,0-4.4.4-6.6.8-4.4.8-8.4,2-12.1,3.4-3.6,1.4-6.8,3.1-9.4,4.7s-4.6,3.2-6.2,4.5c-1.5,1.3-2.6,2.4-3.4,3.2-.7.8-1.1,1.2-1.1,1.2"/>
    <path class="st5" d="M30.1,48.4s.5,0,1.5.3c1,.2,2.5.4,4.5.5s4.6,0,7.6-.2c3.1-.3,6.5-1,10.3-2.1s7.7-2.8,11.6-4.9c1.9-1.1,3.7-2.3,5.5-3.6,1.7-1.3,3.3-2.7,4.8-4.2,1.4-1.5,2.7-3,3.8-4.6,1-1.6,1.9-3.2,2.4-4.8s.9-3.2.9-4.8-.2-3-.7-4.4-1.3-2.7-2.3-3.8c-1-1.2-2.3-2.2-3.7-3.1-1.5-.9-3.1-1.6-4.8-2.2-1.8-.6-3.7-1-5.6-1.2-2-.3-4-.4-6-.3-2.1,0-4.1.2-6.1.5-4.1.6-7.9,1.6-11.4,2.9-3.5,1.3-6.5,2.7-9,4.2-2.5,1.4-4.5,2.9-6.1,4.1-3,2.4-4.4,4-4.4,4"/>
    <path class="st5" d="M29.9,45.4s.5,0,1.3.3c.9.2,2.3.5,4.1.6,1.9.2,4.2.2,6.9,0,2.8-.2,6.1-.7,9.5-1.7,3.5-1,7.3-2.4,10.9-4.3,1.8-.9,3.6-2,5.3-3.2,1.7-1.2,3.3-2.4,4.7-3.8,1.4-1.3,2.7-2.8,3.8-4.3,1.1-1.4,1.9-3,2.6-4.5.6-1.5,1-3,1.2-4.5,0-1.4,0-2.9-.4-4.2-.7-2.7-2.6-5-5-6.7-1.3-.9-2.7-1.6-4.2-2.2-1.6-.6-3.3-1-5-1.3-1.8-.3-3.7-.5-5.5-.5s-3.8,0-5.7.3c-3.8.4-7.4,1.3-10.7,2.4s-6.1,2.4-8.6,3.7c-2.4,1.3-4.3,2.6-5.8,3.7-2.9,2.2-4.3,3.7-4.3,3.7"/>
    <path class="st5" d="M30,42.5s.4,0,1.2.3c.8.2,2,.5,3.7.7s3.8.3,6.3.2c2.6,0,5.6-.5,8.8-1.3,3.3-.8,6.8-2,10.2-3.7s6.7-3.8,9.5-6.3c1.4-1.2,2.6-2.5,3.7-3.9,1.1-1.3,1.9-2.7,2.6-4.2.7-1.4,1.1-2.8,1.3-4.2.2-1.3.2-2.7,0-4-.5-2.5-2-4.8-4.1-6.5-1.1-.9-2.4-1.6-3.7-2.2-1.4-.6-2.9-1.1-4.5-1.4s-3.3-.5-5-.6h-5.2c-3.5.3-6.9,1-9.9,2-6.1,1.9-10.7,4.5-13.6,6.6-2.8,2-4.1,3.3-4.1,3.3"/>
    <path class="st5" d="M30.5,39.7s1.5.6,4.3,1.1c1.5.2,3.4.4,5.7.3,2.3,0,5.1-.4,8-1,3-.7,6.2-1.7,9.4-3.2s6.2-3.3,9-5.6c1.3-1.1,2.5-2.3,3.6-3.5,1-1.2,1.9-2.5,2.6-3.8s1.2-2.6,1.5-3.9c.3-1.2.3-2.5.2-3.7-.3-2.3-1.6-4.5-3.4-6.1-1-.8-2.1-1.5-3.3-2.1-1.3-.6-2.6-1.1-4-1.4-1.5-.3-3-.6-4.5-.7h-4.7c-3.2.2-6.3.8-9.1,1.6-5.6,1.6-9.9,4-12.7,5.8-2.6,1.8-3.9,3-3.9,3"/>
    <path class="st5" d="M31.2,37.1s1.3.6,3.8,1.1c1.3.2,3.1.4,5.1.4s4.6-.2,7.2-.8c2.7-.6,5.7-1.5,8.6-2.8s5.8-2.9,8.3-5c1.2-1,2.4-2,3.4-3.2,1-1.1,1.8-2.2,2.5-3.4.7-1.1,1.2-2.3,1.5-3.5.3-1.1.4-2.3.3-3.4-.2-2.1-1.2-4.2-2.7-5.7-.8-.8-1.8-1.5-2.8-2-1.1-.6-2.3-1-3.6-1.4-1.3-.3-2.7-.6-4-.7-1.4,0-2.8-.2-4.3,0-2.9,0-5.7.6-8.3,1.3-5.2,1.4-9.1,3.5-11.7,5.1-2.5,1.6-3.7,2.7-3.7,2.7"/>
    <path class="st5" d="M33.5,13.2s-.8,0-1.9.4c-.6.2-1.2.6-1.8,1.1-.6.6-1.2,1.3-1.7,2.4s-.8,2.5-.9,4v2.7c0,1,.1,2.1.3,3.2.2,1.2.4,2.4.7,3.6.3,1.3.6,2.6,1,4s.9,2.9,1.4,4.4,1.1,3.1,1.8,4.6c1.3,3.2,2.8,6.5,4.5,9.7,1.7,3.3,3.5,6.6,5.4,9.7,3.8,6.4,7.8,12.2,11.4,16.9,3.6,4.7,6.7,8.3,8.9,10.8,2.2,2.4,3.4,3.7,3.4,3.7"/>
    <path class="st5" d="M35.2,12s-.6,0-1.5.3c-.4.2-.9.5-1.3,1-.4.5-.8,1.3-1.1,2.2-.1.5-.2,1.1-.3,1.7v2.2c0,.8,0,1.7.2,2.7.1,1,.3,2.1.5,3.2.2,1.2.5,2.4.8,3.6.3,1.3.7,2.7,1.2,4,.5,1.4,1,2.9,1.5,4.4.6,1.5,1.2,3.1,1.8,4.7,1.3,3.3,2.8,6.6,4.4,9.9,1.6,3.4,3.3,6.7,5.1,10,3.6,6.6,7.2,12.5,10.5,17.5,3.2,4.9,6,8.7,8,11.3,1.9,2.5,3,3.9,3,3.9"/>
    <path class="st5" d="M37.2,10.7s-.4,0-1,.2c-.3.2-.6.4-.8.9-.3.5-.4,1.2-.5,2.2v1.7c0,.7,0,1.4.2,2.2,0,.8.3,1.7.4,2.7.2,1,.4,2.1.7,3.2.3,1.2.6,2.4,1,3.6.4,1.3.8,2.7,1.3,4.1s1,2.9,1.6,4.5,1.2,3.2,1.8,4.8c1.3,3.3,2.7,6.7,4.2,10.1,1.5,3.5,3.1,6.9,4.7,10.2,3.3,6.7,6.5,12.9,9.4,18,2.8,5,5.3,9,7,11.7,1.6,2.6,2.6,4.1,2.6,4.1"/>
    <path class="st5" d="M39.6,9.5s-.3,0-.5.2c0,.2-.3.4-.3.9v2.1c0,.5.2,1.1.3,1.7,0,.7.3,1.4.5,2.2.2.8.4,1.7.7,2.7s.6,2.1.9,3.2c.4,1.2.7,2.4,1.2,3.7.4,1.3.9,2.7,1.4,4.1.5,1.5,1,3,1.6,4.5.6,1.6,1.2,3.2,1.8,4.9,1.3,3.4,2.6,6.8,4,10.3s2.9,7,4.3,10.5c2.9,6.9,5.8,13.2,8.2,18.5,1.2,2.6,2.3,5,3.3,7s1.8,3.7,2.5,5.1c1.4,2.7,2.1,4.2,2.1,4.2"/>
    <path class="st5" d="M42.5,8.3h0v.2c0,.2,0,.4.2.9,0,.5.4,1.2.7,2.1.2.5.4,1.1.6,1.7.2.7.5,1.4.7,2.2.3.8.6,1.8.9,2.7.3,1,.7,2.1,1.1,3.3.4,1.2.8,2.4,1.3,3.8l1.5,4.2c1.1,3,2.2,6.2,3.4,9.6s2.5,7,3.7,10.5c1.3,3.6,2.6,7.2,3.8,10.7,2.5,7,4.9,13.5,6.9,19,1,2.7,1.9,5.1,2.6,7.2.8,2.1,1.4,3.8,1.9,5.3,1,2.8,1.6,4.3,1.6,4.3"/>
    <path class="st5" d="M45.8,7.2s.2,0,.5.2c.2.2.4.5.7.9.4.5.8,1.3,1.2,2.2.3.5.5,1.1.8,1.8s.6,1.4,1,2.3c.4.9.7,1.8,1.1,2.8.4,1,.8,2.2,1.3,3.3.5,1.2.9,2.5,1.4,3.8.5,1.4,1,2.8,1.5,4.3,1.1,3.1,2.2,6.4,3.3,9.8,1.1,3.5,2.3,7.1,3.4,10.8,1.1,3.7,2.2,7.4,3.3,10.9,2.1,7.2,3.9,13.8,5.4,19.4.7,2.7,1.4,5.2,1.9,7.4.5,2.1,1,3.9,1.3,5.4.7,2.8,1,4.4,1,4.4"/>
    <path class="st5" d="M49.6,6.2s.4,0,1,.2c.3.2.8.5,1.3,1s1.2,1.3,1.8,2.3c.4.5.7,1.2,1.1,1.8.4.7.8,1.5,1.2,2.4s.9,1.9,1.3,2.9c.5,1.1.9,2.2,1.4,3.4.5,1.3,1,2.6,1.5,3.9.5,1.4,1,2.9,1.5,4.4,1.1,3.2,2.1,6.5,3.1,10,1,3.6,2,7.3,2.9,11,.9,3.8,1.8,7.5,2.6,11.2.8,3.7,1.5,7.2,2.1,10.5.6,3.3,1.1,6.4,1.6,9.2.4,2.8.8,5.3,1.1,7.5.3,2.1.5,4,.6,5.5.3,2.9.4,4.5.4,4.5"/>
    <path class="st5" d="M54,5.4s.6,0,1.5.3c.5.2,1.1.5,1.8,1.1s1.5,1.4,2.4,2.5c.9,1.2,1.8,2.6,2.8,4.4.5.9,1,1.9,1.5,3s1,2.3,1.5,3.5c.5,1.3,1,2.6,1.5,4.1l1.5,4.5c1,3.2,2,6.7,2.8,10.3.9,3.7,1.7,7.4,2.4,11.2.7,3.8,1.3,7.6,1.8,11.3s.9,7.3,1.2,10.7c.3,3.3.5,6.5.6,9.3s.2,5.3.2,7.5v5.5c0,2.9-.2,4.5-.2,4.5"/>
    <path class="st5" d="M58.9,5s.8,0,2,.5c.6.2,1.4.6,2.3,1.2s1.9,1.5,2.9,2.7c1.1,1.2,2.2,2.8,3.2,4.6,1.1,2,2.2,4.2,3.3,6.8,1.1,2.7,2.1,5.7,3,8.8.9,3.3,1.8,6.8,2.5,10.5s1.3,7.6,1.7,11.4c.4,3.9.7,7.7.9,11.5.2,3.7.2,7.4.2,10.8s-.2,6.5-.4,9.4c-.2,2.8-.5,5.3-.8,7.5s-.6,4-.9,5.5c-.5,2.9-.9,4.5-.9,4.5"/>
    <path class="st5" d="M64.2,4.9s.9,0,2.5.6c.8.3,1.7.7,2.7,1.4,1.1.7,2.2,1.7,3.3,2.9,1.2,1.3,2.4,2.9,3.6,4.9s2.4,4.4,3.4,7c1.1,2.8,2,5.8,2.9,9.1.8,3.4,1.5,7,2,10.7.5,3.8.8,7.7,1,11.5v11.5c-.4,7.5-1.3,14.4-2.5,20.1-.6,2.8-1.2,5.3-1.8,7.4-.6,2.1-1.2,3.9-1.7,5.4-1,2.8-1.7,4.4-1.7,4.4"/>
    <path class="st5" d="M69.8,5.3s1.1,0,2.9.8c1.8.7,4.4,2.1,7,4.8,1.3,1.4,2.7,3.1,3.9,5.1,1.3,2.1,2.5,4.6,3.5,7.3,1.1,2.8,2,6,2.7,9.3.7,3.4,1.2,7.1,1.5,10.8.3,3.8.3,7.7,0,11.6-.2,3.9-.6,7.8-1.1,11.5-1.1,7.5-2.9,14.2-4.8,19.8-1.9,5.4-3.9,9.6-5.4,12.4-1.4,2.7-2.4,4.2-2.4,4.2"/>
    <path class="st5" d="M75.3,6.3s1.3.2,3.4,1,5,2.4,7.8,5.2c1.5,1.5,2.9,3.3,4.2,5.4,1.3,2.2,2.6,4.7,3.6,7.5,1,2.9,1.9,6.1,2.4,9.5.6,3.5.9,7.1.9,10.9s-.2,7.7-.7,11.5c-.5,3.9-1.2,7.7-2.2,11.4-1.9,7.3-4.5,13.9-7.1,19.3-2.6,5.2-5.3,9.2-7.2,11.9-1.9,2.6-3.1,3.9-3.1,3.9"/>
    <path class="st5" d="M80.5,7.9s1.4.3,3.8,1.2c2.3.9,5.5,2.7,8.6,5.7,1.6,1.5,3.1,3.4,4.5,5.6,1.4,2.2,2.6,4.8,3.6,7.7,1,2.9,1.7,6.2,2.2,9.5.4,3.5.6,7.1.4,10.8-.2,3.8-.7,7.6-1.5,11.4s-1.9,7.5-3.2,11.1c-2.6,7.1-6,13.4-9.3,18.5-3.3,5-6.6,8.7-8.9,11.1s-3.8,3.6-3.8,3.6"/>
    <path class="st5" d="M84.8,10.1s1.6.4,4.2,1.4c2.5,1.1,6,3,9.4,6.2,1.7,1.6,3.3,3.6,4.8,5.8,1.5,2.3,2.7,4.9,3.7,7.8,1,3,1.7,6.2,2,9.6.3,3.5.3,7.1,0,10.7-.4,3.7-1.1,7.5-2.2,11.1-1.1,3.7-2.4,7.3-4,10.7-3.2,6.8-7.3,12.8-11.2,17.4-3.9,4.7-7.7,8-10.4,10.2-2.7,2.2-4.3,3.3-4.3,3.3"/>
    <path class="st5" d="M88,12.7s1.7.4,4.5,1.7c2.7,1.2,6.5,3.3,10.1,6.6,3.6,3.4,7,8.2,9,14,1,3,1.7,6.2,2,9.5.3,3.4.2,7-.3,10.5-.5,3.6-1.4,7.2-2.7,10.7-1.3,3.6-2.9,7-4.7,10.2-3.7,6.5-8.2,12-12.6,16.3s-8.5,7.3-11.5,9.2c-3,1.9-4.8,2.9-4.8,2.9"/>
    <path class="st5" d="M89.5,15.4s1.8.5,4.8,1.9c2.9,1.3,6.9,3.5,10.8,7,3.8,3.5,7.4,8.3,9.6,14.2,1.1,2.9,1.8,6.1,2.1,9.4.3,3.3.2,6.8-.4,10.3s-1.5,7-2.9,10.3c-1.4,3.4-3.1,6.6-5,9.6-4,6.1-8.8,11.2-13.5,15-4.7,3.9-9.1,6.5-12.2,8.2-3.2,1.7-5.1,2.5-5.1,2.5"/>
    <path class="st5" d="M89.4,17.9s1.9.6,5.1,2c3.1,1.4,7.3,3.7,11.5,7.4,4.1,3.5,8,8.4,10.5,14.3,2.4,5.8,3.3,12.7,2.4,19.4-1,6.8-3.9,13.5-7.8,19.1-4,5.8-9,10.4-13.7,13.9-4.8,3.5-9.3,5.8-12.6,7.3-3.2,1.5-5.2,2.1-5.2,2.1"/>
    <path class="st5" d="M87.7,19.8s2,.6,5.3,2.1,7.7,3.9,12.2,7.6c2.2,1.8,4.4,3.9,6.4,6.4,2,2.4,3.7,5.1,5.1,8,2.8,5.7,4.1,12.5,3.4,19.1s-3.4,13.1-7.1,18.4c-3.8,5.5-8.7,9.9-13.4,13.1-4.8,3.3-9.3,5.3-12.5,6.6-3.2,1.3-5.2,1.8-5.2,1.8"/>
    <path class="st5" d="M84.8,20.8s2.1.6,5.5,2.2c3.4,1.5,8.1,3.9,12.9,7.6,2.3,1.8,4.7,3.9,6.9,6.4,2.1,2.4,4.1,5.1,5.7,8s2.9,6,3.7,9.2c.8,3.2,1.2,6.5,1,9.7-.3,6.5-2.5,12.9-6,18.1-3.5,5.4-8.2,9.6-12.7,12.7-4.6,3.1-9,5.1-12.1,6.3-3.2,1.2-5.1,1.7-5.1,1.7"/>
    <path class="st5" d="M81.5,20.8s2.1.6,5.7,2.1c3.5,1.4,8.4,3.7,13.4,7.4,2.5,1.8,5,3.8,7.4,6.2,2.3,2.3,4.5,5,6.4,7.9,1.8,2.8,3.3,5.9,4.4,9.1,1,3.1,1.7,6.4,1.8,9.7.2,6.4-1.6,12.9-4.6,18.1-3.1,5.4-7.5,9.6-11.8,12.7-4.4,3.2-8.6,5.1-11.7,6.4-3.1,1.2-5,1.7-5,1.7"/>
    <path class="st5" d="M78.3,20s2.2.5,5.8,1.8c3.6,1.3,8.6,3.4,13.9,6.9,2.6,1.7,5.3,3.7,7.8,6s4.9,4.8,6.9,7.7c2,2.8,3.8,5.8,5.1,9,1.3,3.1,2.1,6.4,2.5,9.7.7,6.4-.6,13-3.3,18.3-2.7,5.5-6.8,9.9-10.8,13.2-4.1,3.3-8.2,5.4-11.2,6.8s-4.8,1.9-4.8,1.9"/>
    <path class="st5" d="M75.7,18.8s2.2.4,5.9,1.5c3.7,1.1,8.8,3,14.3,6.2,2.7,1.6,5.5,3.4,8.1,5.6,2.6,2.1,5.1,4.6,7.4,7.4,2.2,2.7,4.1,5.7,5.6,8.8s2.5,6.3,3.1,9.6c1.1,6.4.2,13.1-2.2,18.7-2.4,5.7-6.2,10.4-10,13.9-3.9,3.6-7.9,5.9-10.8,7.4s-4.7,2.2-4.7,2.2"/>
    <path class="st5" d="M74.3,17.5s2.2.3,5.9,1.2c3.7.9,8.9,2.5,14.5,5.4,2.7,1.4,5.6,3.1,8.3,5.2,2.7,2,5.3,4.4,7.6,7,2.3,2.6,4.3,5.5,5.9,8.6,1.6,3,2.7,6.3,3.4,9.5,1.3,6.5.6,13.2-1.5,19-2.2,5.9-5.8,10.9-9.5,14.6-3.8,3.9-7.7,6.5-10.5,8.2-2.9,1.7-4.6,2.5-4.6,2.5"/>
    <path class="st5" d="M74,16.2s2.2.2,5.9,1c3.7.8,8.8,2.1,14.4,4.8,2.7,1.3,5.5,2.9,8.3,4.9,2.7,1.9,5.3,4.2,7.6,6.7,2.3,2.5,4.3,5.3,5.8,8.4,1.6,3,2.7,6.2,3.4,9.5,1.3,6.5.7,13.4-1.4,19.4-2.1,6.1-5.7,11.3-9.3,15.4-3.7,4.1-7.6,7-10.3,8.9-2.8,1.9-4.6,2.8-4.6,2.8"/>
    <path class="st5" d="M73.4,14.5s2.1,0,5.8.6c3.6.6,8.7,1.6,14.2,4,2.7,1.2,5.5,2.6,8.2,4.4,2.6,1.8,5.2,3.9,7.5,6.4,2.2,2.4,4.2,5.2,5.8,8.1,1.6,2.9,2.7,6.1,3.4,9.4,1.4,6.6.8,13.6-1.1,19.7-2,6.3-5.4,11.9-9,16.2-3.6,4.4-7.3,7.6-10.1,9.7-2.7,2.1-4.5,3.2-4.5,3.2"/>
    <path class="st5" d="M70.9,13.1s2.1-.1,5.7.2,8.6,1,14.1,2.9c2.7,1,5.5,2.2,8.2,3.8,2.7,1.6,5.3,3.5,7.6,5.8,4.6,4.5,8.2,10.5,9.8,17,1.7,6.5,1.4,13.6-.2,20-1.7,6.6-4.7,12.4-8,17.1-3.3,4.8-6.8,8.3-9.4,10.7-2.6,2.4-4.2,3.6-4.2,3.6"/>
    <path class="st5" d="M67.2,12.5s2.1-.3,5.7-.3,8.5.2,14.1,1.7c2.7.7,5.6,1.7,8.4,3.1,2.7,1.4,5.5,3.1,7.9,5.2,4.9,4.1,8.8,9.8,10.9,16.1,1.1,3.2,1.7,6.5,1.9,9.9.2,3.4,0,6.8-.6,10.1-1.2,6.7-3.8,12.8-6.7,17.7-2.9,5-6.1,8.9-8.5,11.4-2.4,2.6-3.9,3.9-3.9,3.9"/>
    <path class="st5" d="M63.1,12.9s2.1-.4,5.7-.7,8.6-.4,14.4.6c2.8.5,5.8,1.3,8.7,2.4,2.9,1.1,5.8,2.6,8.4,4.5,5.2,3.7,9.7,9,12.4,15,1.3,3,2.2,6.3,2.7,9.6.5,3.3.5,6.7.2,10-.7,6.7-2.8,12.9-5.3,18-2.6,5.2-5.5,9.2-7.6,11.9-2.2,2.7-3.6,4.1-3.6,4.1"/>
    <path class="st5" d="M59,14s2.1-.5,5.8-1c3.7-.5,8.9-.9,14.9-.2,2.9.3,6,1,9.2,1.9,3.1,1,6.2,2.3,9.1,3.9,2.9,1.7,5.6,3.7,8,6.1s4.4,5.1,6,8c3.2,5.8,4.7,12.6,4.5,19,0,6.6-1.9,12.8-4,17.9-2.2,5.2-4.9,9.2-7,12s-3.4,4.2-3.4,4.2"/>
    <path class="st5" d="M55.3,15.4s2.1-.6,5.9-1.2c3.8-.6,9.2-1.1,15.4-.5s6.4.8,9.7,1.7c3.3.9,6.6,2.1,9.8,3.6,3.1,1.6,6.1,3.5,8.8,5.8,2.6,2.2,5,4.8,6.9,7.7,3.8,5.6,5.8,12.2,6.1,18.5.3,6.4-1,12.5-2.9,17.5-2,5.1-4.5,9.1-6.4,11.8-1.9,2.7-3.3,4.2-3.3,4.2"/>
    <path class="st5" d="M52,16.7s2.2-.5,6-1.1c3.9-.5,9.4-1,15.9-.4,3.2.3,6.7.8,10.2,1.7,3.5.9,7,2.1,10.4,3.7,3.3,1.6,6.6,3.5,9.5,5.8,2.9,2.2,5.5,4.8,7.7,7.6,2.1,2.8,3.9,5.8,5.2,8.9,1.3,3.1,2.1,6.3,2.4,9.4.7,6.2-.3,12.2-2,17.1-1.7,5-4.1,8.8-6,11.4s-3.1,4-3.1,4"/>
    <path class="st5" d="M49.4,17.5s2.2-.4,6.1-.8c3.9-.3,9.5-.5,16.2.3,3.3.4,6.8,1.1,10.5,2.1,3.6,1,7.2,2.3,10.8,4,3.5,1.7,6.9,3.7,10.1,6.1,3.1,2.3,5.9,4.9,8.3,7.8,2.3,2.8,4.3,5.8,5.8,8.9,1.4,3.1,2.4,6.2,3,9.3,1.1,6.1.3,11.9-1.2,16.6-1.5,4.7-3.8,8.4-5.5,10.8-1.8,2.5-3,3.7-3,3.7"/>
    <path class="st5" d="M47.6,18s2.1-.3,5.9-.3,9.4.2,16,1.5,14.1,3.7,21.4,7.5c3.6,1.9,7.1,4.1,10.3,6.7,3.2,2.5,6.1,5.3,8.6,8.3,2.5,2.9,4.6,6,6.2,9.2,1.6,3.1,2.7,6.3,3.4,9.3.7,3,.9,6,.8,8.7,0,2.7-.6,5.2-1.3,7.5-1.3,4.5-3.5,7.9-5.1,10.1-1.7,2.3-2.9,3.4-2.9,3.4"/>
    <path class="st5" d="M46.6,18.1s2,0,5.7.3,9.1,1.1,15.4,3c6.4,1.9,13.8,5,20.9,9.4,3.5,2.2,7,4.7,10.2,7.5,3.2,2.7,6.1,5.7,8.7,8.9,2.5,3.1,4.6,6.3,6.3,9.6,1.6,3.2,2.8,6.3,3.6,9.4.7,3,1.1,5.9,1,8.5,0,2.6-.4,5-1,7.1-1.1,4.2-3.1,7.3-4.6,9.3-1.6,2-2.7,3-2.7,3"/>
    <path class="st5" d="M46.5,18.1s1.9.2,5.2.9c1.7.4,3.8.9,6.2,1.6,2.4.8,5.2,1.7,8.2,3,6.1,2.6,13,6.4,19.8,11.5,3.4,2.5,6.7,5.4,9.8,8.5,3.1,3,5.9,6.3,8.4,9.6,2.4,3.3,4.5,6.7,6.2,10,1.6,3.2,2.8,6.5,3.6,9.5.8,3,1.2,5.8,1.2,8.4s-.2,4.8-.7,6.7c-.9,3.8-2.7,6.6-4.1,8.3-1.4,1.7-2.4,2.5-2.4,2.5"/>
    <path class="st5" d="M46.8,18.2s1.7.4,4.7,1.6,3.4,1.4,5.6,2.4c2.2,1.1,4.7,2.4,7.4,4,2.7,1.6,5.7,3.6,8.7,5.9,3.1,2.3,6.2,4.9,9.3,7.8,3.1,2.9,6.2,6.1,9.1,9.4,2.8,3.3,5.5,6.8,7.8,10.4,2.3,3.5,4.3,7,5.9,10.4.8,1.7,1.5,3.3,2.1,5,.6,1.6,1.1,3.1,1.5,4.7.4,1.5.7,2.9.9,4.3.2,1.3.3,2.6.4,3.9,0,2.4,0,4.5-.5,6.3-.4,1.8-.9,3.3-1.6,4.5-.6,1.2-1.3,2.1-1.9,2.9-1.2,1.4-2.1,2-2.1,2"/>
    <path class="st5" d="M47.4,18.5s1.5.7,4.1,2.2c1.3.8,3,1.8,4.9,3.1,1.9,1.3,4.1,3,6.5,4.9,2.4,2,5,4.3,7.7,6.9,2.7,2.7,5.5,5.6,8.3,8.9,2.8,3.2,5.5,6.7,8.1,10.3s5,7.3,7.1,11c2.1,3.6,3.9,7.3,5.4,10.8.7,1.7,1.4,3.4,2,5s1,3.1,1.4,4.6c.4,1.4.7,2.8.9,4.2.2,1.3.4,2.5.5,3.7v3.2c0,1,0,1.8-.3,2.7-.3,1.6-.7,2.9-1.2,3.9s-1,1.8-1.5,2.3c-1,1.1-1.8,1.5-1.8,1.5"/>
    <path class="st5" d="M47.9,19.2s1.2.9,3.4,2.8c1.1,1,2.5,2.3,4.1,3.8,1.6,1.6,3.5,3.5,5.5,5.8,2.1,2.3,4.3,4.9,6.6,7.9,2.3,3,4.8,6.3,7.2,9.8,2.4,3.5,4.8,7.3,7.1,11.1,2.3,3.8,4.4,7.7,6.3,11.6.9,1.9,1.8,3.8,2.7,5.6.8,1.8,1.6,3.6,2.3,5.4.7,1.7,1.3,3.4,1.8,5s1,3.1,1.4,4.5.7,2.7,1,4c.2,1.2.4,2.4.6,3.5,0,1,.2,2,.2,2.9v2.4c0,1.4-.4,2.5-.8,3.4-.3.8-.8,1.4-1.1,1.8-.7.8-1.3,1.1-1.3,1.1"/>
    <path class="st5" d="M48.3,20.2s1,1.2,2.7,3.4c.9,1.2,2,2.6,3.3,4.4,1.3,1.9,2.8,4,4.5,6.6s3.5,5.5,5.4,8.7c2,3.3,4,6.8,6,10.6,2.1,3.8,4.1,7.7,6.1,11.8,2,4,3.8,8,5.5,11.9.8,1.9,1.6,3.8,2.4,5.7.7,1.8,1.4,3.6,2.1,5.4.6,1.7,1.2,3.3,1.7,4.9.5,1.5,1,3,1.4,4.4.4,1.3.7,2.6,1,3.8.3,1.2.5,2.2.7,3.2s.3,1.8.4,2.7v2.1c0,1.2,0,2.1-.3,2.8-.2.6-.4,1.1-.7,1.4-.5.5-.9.6-.9.6"/>
    <path class="st5" d="M48.3,21.5s.7,1.3,2,3.9c.7,1.3,1.5,3,2.5,5,1,2.1,2.2,4.5,3.4,7.2,1.3,2.8,2.8,6,4.3,9.4,1.6,3.5,3.2,7.3,4.9,11.2,1.7,4,3.4,8.1,5.1,12.2s3.3,8.2,4.8,12.2c.7,1.9,1.5,3.9,2.2,5.7.7,1.8,1.3,3.6,1.9,5.3.6,1.7,1.1,3.3,1.7,4.8.5,1.5,1,2.9,1.4,4.2.4,1.3.8,2.5,1.1,3.6.3,1.1.6,2.1.8,3,.2.9.4,1.7.6,2.4.2.7.3,1.3.4,1.8,0,.5,0,1,.2,1.3v.9c0,.4,0,.7-.2.9-.2.3-.4.2-.4.2"/>
    <path class="st5" d="M47.9,23s.5,1.5,1.3,4.3c.5,1.5,1,3.3,1.7,5.4.7,2.2,1.5,4.8,2.5,7.7,1,3,2,6.3,3.2,9.9,1.2,3.7,2.5,7.6,3.8,11.7,1.4,4.1,2.8,8.3,4.2,12.5,1.4,4.2,2.8,8.3,4.2,12.3.7,1.9,1.3,3.8,2,5.7.6,1.8,1.2,3.5,1.8,5.2.6,1.6,1.1,3.2,1.6,4.7.5,1.4,1,2.8,1.4,4.1.4,1.2.9,2.4,1.2,3.4.4,1,.7,1.9,1,2.8.3.8.6,1.5.8,2.1.2.6.4,1.1.6,1.6.2.4.3.8.5,1.1,0,.3.2.5.3.7,0,.3.2.4.3.5v-.2"/>
    <path class="st5" d="M47.2,24.5s.2,1.6.7,4.6c.2,1.6.6,3.5,1,5.8.4,2.4.9,5.1,1.5,8.2.6,3.1,1.4,6.6,2.2,10.4.9,3.8,1.8,7.8,2.9,12,1,4.2,2.2,8.4,3.4,12.7,1.2,4.2,2.4,8.3,3.6,12.3.6,1.9,1.2,3.8,1.8,5.6.6,1.8,1.2,3.5,1.8,5.1.6,1.6,1.1,3.1,1.7,4.5.5,1.4,1,2.7,1.5,3.9.5,1.1.9,2.2,1.4,3.2.4.9.8,1.8,1.2,2.5.4.7.7,1.3,1.1,1.9.3.5.6,1,.9,1.3.5.7,1,1.1,1.4,1.3.3.2.6.2.8,0,.4-.2.6-.5.6-.5"/>
    <path class="st5" d="M46.1,26.1v4.9c0,1.6,0,3.7.3,6.1,0,2.5.4,5.3.7,8.5s.7,6.8,1.3,10.7c.5,3.9,1.2,8,2,12.2s1.7,8.5,2.7,12.8c.5,2.1,1,4.2,1.6,6.2.5,2,1.1,4,1.7,5.9.6,1.9,1.1,3.7,1.7,5.5.6,1.7,1.2,3.4,1.7,5,.6,1.5,1.1,3,1.7,4.3.6,1.3,1.1,2.5,1.7,3.7.5,1.1,1.1,2.1,1.6,3s1,1.6,1.5,2.3c.9,1.2,1.8,2.2,2.6,2.8.7.5,1.4.8,2,.9.5,0,1,0,1.4-.2.7-.3,1.1-.8,1.1-.8"/>
    <path class="st5" d="M44.7,27.6s-.3,1.8-.5,5.1c0,1.7-.3,3.8-.4,6.3v8.7c0,3.3.2,7,.5,10.8.3,3.9.7,8,1.2,12.3.6,4.2,1.2,8.5,2.1,12.7.4,2.1.9,4.1,1.4,6.2.5,2,1,3.9,1.5,5.8s1.1,3.6,1.7,5.4c.6,1.7,1.2,3.3,1.8,4.8s1.2,2.9,1.8,4.2c.6,1.3,1.2,2.4,1.8,3.5.6,1,1.2,2,1.8,2.8s1.2,1.5,1.7,2.1c1.1,1.1,2.1,1.9,3.1,2.4.9.4,1.8.6,2.6.6s1.4-.2,1.9-.5c1-.5,1.5-1,1.5-1"/>
    <path class="st5" d="M43.1,29s-.5,1.8-1.1,5.2-.7,3.9-1,6.4c-.3,2.6-.6,5.6-.8,8.9-.4,6.7-.4,14.7.3,23.2.4,4.2.9,8.5,1.6,12.6.4,2.1.8,4.1,1.2,6.1s.9,3.9,1.4,5.7c.5,1.8,1.1,3.6,1.7,5.2.6,1.6,1.2,3.2,1.8,4.7.6,1.4,1.3,2.8,1.9,4,.7,1.2,1.3,2.3,2,3.3s1.3,1.8,2,2.6c.7.7,1.3,1.4,2,1.9,1.3,1,2.5,1.7,3.7,2.1,2.2.7,4.3.2,5.5-.3,1.3-.6,2-1.2,2-1.2"/>
    <path class="st5" d="M41.3,30.2s-.7,1.9-1.6,5.3c-.5,1.8-1,3.9-1.5,6.5s-1,5.6-1.5,8.9c-.9,6.7-1.3,14.7-.9,23.2.2,4.2.6,8.4,1.2,12.5.3,2,.7,4,1.1,6,.4,1.9.9,3.8,1.4,5.6.5,1.8,1.1,3.5,1.7,5.1.6,1.6,1.2,3.1,1.9,4.5s1.4,2.7,2.1,3.9c.7,1.2,1.4,2.2,2.2,3.2,1.4,1.8,3,3.3,4.5,4.3s3,1.6,4.3,1.9c2.7.6,5.1,0,6.6-.6,1.6-.7,2.5-1.3,2.5-1.3"/>
    <path class="st5" d="M39.4,31.2s-.8,1.9-2,5.3c-1.2,3.5-2.8,8.8-4.1,15.4-1.3,6.7-2.1,14.6-2,23,0,4.1.3,8.3.9,12.3.3,2,.6,4,1,5.9s.9,3.7,1.4,5.5c.5,1.7,1.1,3.4,1.7,5,.6,1.6,1.3,3,2,4.4.7,1.3,1.4,2.6,2.2,3.7s1.6,2.1,2.4,3.1c1.6,1.8,3.3,3.1,5,4.1,1.7.9,3.3,1.5,4.9,1.7,3.1.5,5.8-.2,7.6-.8,1.9-.7,2.9-1.4,2.9-1.4"/>
    <path class="st5" d="M37.5,32s-1,1.9-2.5,5.3c-1.5,3.5-3.4,8.8-5,15.3-1.6,6.6-2.8,14.5-3,22.7,0,4,.1,8.1.6,12.1.2,2,.6,3.9,1,5.8.4,1.8.8,3.6,1.4,5.4.5,1.7,1.1,3.3,1.8,4.9.6,1.5,1.3,3,2.1,4.3,1.5,2.6,3.2,4.8,5,6.6,1.8,1.7,3.6,3,5.5,4,1.8.9,3.7,1.4,5.5,1.6,3.5.5,6.5-.2,8.6-.9,2.1-.7,3.3-1.4,3.3-1.4"/>
    <path class="st5" d="M35.7,32.5s-1.1,1.8-2.8,5.3-4,8.6-5.9,15.1c-1,3.3-1.8,6.8-2.5,10.6-.7,3.8-1.1,7.7-1.3,11.8-.2,4,0,8,.4,11.9.4,3.8,1.2,7.5,2.3,10.9,1.1,3.3,2.4,6.4,4,9s3.4,4.8,5.3,6.5c1.9,1.7,4,3,6,3.9s4.1,1.4,6,1.6c3.9.5,7.2-.2,9.5-.9,2.4-.7,3.7-1.3,3.7-1.3"/>
    <path class="st5" d="M33.9,32.7s-1.3,1.8-3.2,5.2c-1.9,3.4-4.5,8.5-6.7,14.8-1.1,3.2-2.1,6.7-2.9,10.4s-1.4,7.6-1.6,11.5c-.3,3.9-.2,7.8.2,11.7.4,3.7,1.2,7.4,2.3,10.7,1.1,3.3,2.5,6.3,4.2,8.9,1.7,2.5,3.6,4.7,5.7,6.5,4,3.4,8.8,5.1,12.9,5.6,4.2.5,7.8,0,10.4-.7,2.6-.6,4-1.2,4-1.2"/>
  </g>
  <g class="st2">
    <g class="st2">
      <text class="st3" transform="translate(124.3 57.7)"><tspan x="0" y="0">OPEN TECH NETWORK</tspan></text>
    </g>
  </g>
  <g class="st2">
    <g class="st2">
      <text class="st0" transform="translate(142.9 91.1)"><tspan x="0" y="0">INNOVATIONS</tspan></text>
      <text class="st4" transform="translate(142.9 91.1)"><tspan x="0" y="0">INNOVATIONS</tspan></text>
    </g>
  </g>
  <g class="st2">
    <g class="st2">
      <text class="st1" transform="translate(292.3 91.1)"><tspan x="0" y="0">DIVISION</tspan></text>
    </g>
  </g>
</svg>