<?xml version="1.0" encoding="UTF-8"?>
<svg id="Layer_1" xmlns="http://www.w3.org/2000/svg" version="1.1" viewBox="0 0 400 125">
  <!-- Generator: Adobe Illustrator 29.2.1, SVG Export Plug-In . SVG Version: 2.1.0 Build 116)  -->
  <defs>
    <style>
      .st0 {
        fill: none;
        stroke: #4868ec;
        stroke-miterlimit: 10;
        stroke-width: .2px;
      }

      .st1 {
        fill: #001000;
      }

      .st2 {
        fill: #4868ec;
      }
    </style>
  </defs>
  <g>
    <path class="st0" d="M32.8,39.5s1.6.4,4.5.4,3.4,0,5.6-.4c2.3-.3,4.8-.8,7.5-1.7,2.7-.8,5.6-2.1,8.3-3.7,2.6-1.6,5.2-3.4,7.2-5.7,1-1.1,1.9-2.3,2.6-3.3s1.2-2.3,1.6-3.4c.7-2.3.5-4.5-.3-6.4s-2.6-3.6-4.8-4.6-2.3-1.1-3.7-1.5c-1.4-.4-2.7-.5-4.2-.8-3-.3-6.1,0-9.2.4-3,.5-5.9,1.3-8.5,2.3-2.6.9-4.8,2.1-6.6,3.2s-3.3,2.1-4.4,3c-2.2,1.7-3,2.9-3,2.9,0,0-1.2.4-3.4,1.3-1.9.9-4.6,2.6-6.7,5.4-1.1,1.5-1.9,3-2.6,5s-1.1,4.2-1.2,6.5c0,2.5.1,5,.8,7.8.5,2.9,1.6,5.7,3,8.7,1.4,2.9,3,6,4.9,8.7,1.9,2.9,4.1,5.7,6.4,8.3,4.6,5.3,9.7,9.9,14.5,13.5,4.8,3.6,8.9,6.1,11.9,7.7s4.8,2.5,4.8,2.5c0,0,.7-.9,2.3-2.4,1.6-1.5,4.4-3.4,8.1-4.9,1.9-.8,4.1-1.3,6.4-1.6s4.6-.4,6.8,0c2.2.3,4.4,1.1,6.1,2.1,1.6,1.1,3,2.5,3.7,4.1s.8,3.6.4,5.4c-.5,1.9-1.6,3.8-3,5.6-1.5,1.7-3.4,3.3-5.3,4.5-2,1.2-4.1,2.3-6.1,2.9-4.1,1.3-7.7,1.5-9.8,1.3-2.2-.1-3.4-.5-3.4-.5,0,0-1.1.8-3.1,2-1.9,1.1-4.9,2.4-8.5,2.8-3.4.4-7.7-.3-11.3-2.5-1.9-1.2-3.8-2.9-5.5-4.9-.8-1.1-1.6-2.3-2.5-3.4-.8-1.2-1.5-2.5-2.2-4s-1.2-2.9-1.8-4.6c-.5-1.6-1-3.3-1.4-5-.8-3.6-1.4-7.2-1.6-10.9-.3-3.8-.3-7.6,0-11.1.1-3.6.5-7.2,1.1-10.3,1.1-6.4,2.6-11.7,3.7-15.2,1.2-3.6,1.9-5.4,1.9-5.4h0c0-.1-.3-.1-.3-.1Z"/>
    <path class="st0" d="M52.5,110.8s.8.9,3,2.1c2.2,1.2,2.6,1.2,4.4,1.6s4.1.8,6.7.8,5.6-.4,8.6-1.2c3.1-.8,6.3-2,9.3-3.7,3-1.6,5.6-3.7,7.8-6.1,1-1.2,1.9-2.4,2.6-3.6.7-1.2,1.2-2.5,1.6-3.8.5-2.5.5-5-.4-7-.8-2.1-2.6-4-4.5-5.3-2.2-1.5-4.6-2.3-7.2-2.8-2.6-.5-5.5-.5-7.9-.4-5.2.4-9.4,1.9-12.3,3.2-2.7,1.2-4.2,2.3-4.2,2.3"/>
    <path class="st0" d="M49.6,110.7s.8,1.2,3.1,2.4c1.2.7,2.7,1.5,4.6,1.9,1.9.5,4.4.9,7.2,1.1,2.9,0,6.1-.1,9.6-.9s7-2,10.4-3.8c3.3-1.7,6.3-4,8.7-6.6,1.2-1.2,2.3-2.5,3-4,.8-1.3,1.5-2.8,1.9-4.1.8-2.6.8-5.4,0-7.8s-2.6-4.5-4.6-6c-2.3-1.6-4.9-2.6-7.7-3.3-2.9-.7-5.9-.8-8.6-.7-5.7.3-10.4,1.9-13.5,3.2s-4.8,2.3-4.8,2.3"/>
    <path class="st0" d="M46.6,110.2s.8,1.2,3.3,2.8,2.9,1.6,4.8,2.3c2.2.7,4.8,1.2,7.8,1.5,3.1.1,6.6,0,10.4-.8s7.7-2,11.5-3.8c3.7-1.9,7.1-4.1,10-6.9,1.4-1.3,2.6-2.8,3.7-4.2,1-1.5,1.8-2.9,2.3-4.5s.8-2.9,1-4.5c0-1.5,0-2.9-.5-4.2-.8-2.6-2.5-5-4.6-6.8-2.3-1.9-5.2-3-7.9-3.8-3-.8-6.1-1.1-9.2-.9-6.1.1-11.3,1.7-14.8,2.9-3.4,1.3-5.2,2.4-5.2,2.4"/>
    <path class="st0" d="M43.4,109.4s.8,1.5,3.1,3.2c1.2.8,2.9,1.9,5.1,2.6,2.2.8,4.9,1.6,8.1,1.9,3.4.3,7.1.3,11.1-.4,4.1-.7,8.3-1.9,12.6-3.7,4.1-1.9,7.9-4.2,11.1-7.2,1.6-1.5,3-2.9,4.1-4.5s2.2-3.2,2.9-4.9c.7-1.6,1.2-3.3,1.4-4.9s0-3.2-.1-4.6c-.5-2.9-2.3-5.6-4.4-7.6-1.2-1.1-2.5-1.9-3.8-2.6s-3-1.3-4.4-1.9c-3.3-.9-6.6-1.3-9.7-1.5-6.6,0-12.2,1.5-16,2.8-3.7,1.3-5.7,2.4-5.7,2.4"/>
    <path class="st0" d="M40.2,108.3s.1.4.7.9c.5.7,1.2,1.6,2.3,2.5,1.2,1.1,2.9,2.3,5.1,3.2,2.2.9,2.3.9,3.7,1.5,1.4.4,3,.8,4.6,1.1,1.6.3,3.6.4,5.5.4s4.1,0,6.1-.4c4.4-.5,9-1.7,13.7-3.6,4.5-1.9,8.7-4.2,12.6-7.4,1.8-1.5,3.4-3,4.8-4.8,1.4-1.6,2.6-3.3,3.4-5.2.8-1.7,1.5-3.6,1.9-5.3.3-1.7.4-3.4.1-5-.4-3.2-1.9-6.1-4.1-8.3-1.1-1.2-2.5-2.3-3.8-3-1.5-.8-3-1.6-4.6-2.3-3.4-1.2-6.8-1.7-10.1-1.9-3.4-.1-6.7,0-9.6.5-3,.5-5.5,1.2-7.5,1.9-4.1,1.2-6.3,2.4-6.3,2.4"/>
    <path class="st0" d="M36.8,106.7s.1.4.5,1.1c.5.7,1.2,1.7,2.3,2.9,1.2,1.2,2.7,2.5,4.9,3.6,1.1.5,2.3,1.2,3.8,1.7s3,.9,4.8,1.3c1.8.4,3.7.5,5.9.7h6.6c4.8-.4,9.7-1.5,14.6-3.3,4.9-1.9,9.7-4.2,13.9-7.4,2-1.6,3.8-3.2,5.5-5,1.6-1.7,3-3.6,4.1-5.4s1.9-3.7,2.3-5.7c.5-1.9.7-3.6.7-5.4,0-3.4-1.5-6.6-3.6-9.3-1.1-1.3-2.3-2.5-3.7-3.4-1.5-1.1-3-1.9-4.6-2.5-1.6-.7-3.4-1.2-5.2-1.6s-3.6-.7-5.3-.8c-3.7-.3-7.1-.1-10.1.1-3.1.4-5.9.9-7.9,1.6-4.4,1.2-6.8,2.3-6.8,2.3"/>
    <path class="st0" d="M33.3,104.9s.1.5.5,1.2c.4.8,1.1,1.9,2,3.3,1.1,1.3,2.6,2.8,4.8,4.2,1.1.7,2.3,1.5,3.8,2,1.5.7,3.1,1.2,4.9,1.6,1.9.5,3.8.8,6,1.1,2.2.1,4.5.3,6.8.1,4.9-.1,10.4-1.2,15.7-2.9s10.5-4.2,15.3-7.4c2.3-1.6,4.4-3.3,6.3-5.2s3.4-3.7,4.8-5.7c1.2-1.9,2.3-4,3-6,.7-1.9,1.1-4,1.2-5.8.1-3.7-1-7.3-3-10.1-2-2.9-5.1-5.2-8.3-6.8-1.6-.8-3.4-1.5-5.3-2s-3.7-.8-5.5-1.2c-3.7-.5-7.4-.5-10.7-.1s-6.1.8-8.6,1.5c-4.8,1.2-7.2,2.3-7.2,2.3"/>
    <path class="st0" d="M29.9,102.5s.4,2,2.3,4.9,2.5,3.2,4.6,4.6c1.1.8,2.3,1.6,3.7,2.3,1.5.8,3.1,1.5,4.9,2,1.9.5,4,1.1,6.1,1.5,2.3.4,4.6.5,7.2.5s5.3-.1,8.1-.5,5.7-.9,8.6-1.9c5.9-1.6,11.5-4.1,16.7-7.4,2.6-1.6,4.9-3.3,7.1-5.3,2-1.9,4-3.8,5.6-6,1.6-2,2.9-4.1,3.7-6.4.8-2.1,1.5-4.2,1.8-6.4.3-2,.1-4-.1-5.8-.4-1.9-1.1-3.6-1.9-5.2-1.9-3.3-4.8-5.8-8.1-7.7-1.6-.9-3.6-1.7-5.3-2.4-1.9-.7-3.7-1.1-5.7-1.5-4-.7-7.7-.8-11.1-.7s-6.6.7-9,1.2c-5.1,1.1-7.8,2.1-7.8,2.1"/>
    <path class="st0" d="M26.5,99.6s.1,2.1,1.9,5.3c.8,1.6,2.3,3.4,4.4,5.3,1.1.9,2.3,1.9,3.7,2.6,1.5.8,3,1.6,4.9,2.4,1.9.7,4,1.3,6.1,1.7,2.3.5,4.8.8,7.4.8s5.5,0,8.5-.1c3-.3,6-.8,9-1.6,6.1-1.6,12.4-4,18-7.2,2.7-1.6,5.5-3.3,7.9-5.3,2.3-1.9,4.5-4,6.4-6.2,1.8-2.1,3.4-4.2,4.5-6.6,1.2-2.3,1.9-4.4,2.5-6.6.5-2.1.5-4.2.4-6.4s-.8-4-1.6-5.7c-1.6-3.6-4.4-6.4-7.7-8.5-1.6-1.1-3.4-2-5.3-2.8s-3.8-1.3-5.9-1.7c-4.1-.8-7.9-1.2-11.5-1.2s-6.8.4-9.4.8c-5.3.8-8.3,1.9-8.3,1.9"/>
    <path class="st0" d="M23.2,96.5s0,2.3,1.6,5.7,2,3.8,4,5.8c1,1.1,2.2,2,3.6,2.9s3,1.9,4.9,2.8,4,1.6,6.3,2.1,4.9,1.1,7.7,1.2c2.7.3,5.7.3,8.7,0,3-.1,6.3-.5,9.6-1.2,6.6-1.3,13.3-3.6,19.4-6.9,3-1.6,5.9-3.4,8.6-5.3,2.6-1.9,5.1-4.1,7.2-6.4,2-2.3,3.8-4.5,5.2-6.9,1.4-2.3,2.5-4.6,3-7,.7-2.3,1-4.6.8-6.6,0-2.1-.5-4.2-1.2-6.1-1.4-3.8-4.1-7-7.2-9.4-1.6-1.2-3.4-2.3-5.3-3.2-1.9-.8-3.8-1.6-5.9-2.1-4.1-1.1-8.1-1.6-11.9-1.6s-7.1.1-9.8.5c-5.6.8-8.7,1.7-8.7,1.7"/>
    <path class="st0" d="M19.9,93.1s-.1,2.4,1.2,6.1c.7,1.9,1.8,4.1,3.7,6.4,1,1.2,2,2.3,3.4,3.3s3,2.1,4.8,3,4,1.9,6.3,2.5c2.3.7,5.1,1.2,7.8,1.6,2.9.4,5.9.5,9,.5s6.6-.4,10-.9c6.8-1.2,13.9-3.3,20.6-6.6,3.3-1.6,6.4-3.4,9.4-5.4,2.9-2,5.5-4.1,7.9-6.5,2.3-2.3,4.4-4.6,6-7.2,1.6-2.4,2.9-4.9,3.7-7.4.8-2.4,1.2-4.8,1.4-7,0-2.3-.1-4.5-.8-6.5-1.2-4-3.7-7.6-6.8-10.2-1.6-1.3-3.4-2.5-5.3-3.4s-4-1.9-5.9-2.4c-2-.7-4.1-1.2-6.1-1.5-2-.4-4.1-.5-5.9-.7-3.8-.1-7.4,0-10.2.3-5.9.5-9.2,1.6-9.2,1.6"/>
    <path class="st0" d="M16.9,89.6v1.7c0,1.2.1,2.8.8,4.6.5,2,1.6,4.2,3.4,6.6.8,1.2,2,2.4,3.4,3.6,1.4,1.2,3,2.3,4.8,3.3,1.9,1.1,4.1,2,6.3,2.8,2.3.8,5.1,1.5,7.9,1.9,3,.5,6,.7,9.3.7s6.8-.3,10.4-.8c7.2-1.1,14.6-3.2,21.7-6.4,3.4-1.6,6.8-3.4,10.1-5.4,3-2,6-4.2,8.6-6.6,2.5-2.3,4.8-4.8,6.6-7.4,1.8-2.5,3.3-5,4.2-7.7,1-2.5,1.6-5,1.9-7.4.1-2.4,0-4.6-.5-6.9-1-4.2-3.4-8.1-6.6-10.9s-3.4-2.6-5.3-3.7-4-1.9-6-2.6-4.1-1.2-6.1-1.6-4.1-.7-6.1-.8c-4.1-.3-7.7-.1-10.5,0-6.1.5-9.6,1.3-9.6,1.3"/>
    <path class="st0" d="M14.1,86.3v1.9c0,1.2,0,2.9.5,4.9s1.5,4.5,3.3,7,1.9,2.5,3.4,3.7c1.4,1.2,3,2.5,4.8,3.6,1.9,1.2,4.1,2.3,6.4,3,2.5.8,5.2,1.6,8.1,2.1,2.9.5,6.1.8,9.6.8s7-.1,10.8-.7c7.5-.9,15.3-3,22.7-6.4,3.7-1.6,7.2-3.4,10.5-5.6,3.3-2,6.3-4.2,9-6.8,2.6-2.4,5.1-4.9,7.1-7.6,1.9-2.5,3.6-5.3,4.6-7.9,1.1-2.5,1.9-5.2,2.2-7.7s.1-4.9-.1-7.2c-.8-4.5-3.4-8.3-6.6-11.4-1.6-1.6-3.4-2.9-5.3-4-1.9-1.2-4.1-2.1-6.1-2.9-2.2-.8-4.2-1.3-6.4-1.9s-4.2-.8-6.3-.9c-4.1-.4-7.8-.3-10.9,0-6.3.4-9.8,1.3-9.8,1.3"/>
    <path class="st0" d="M11.3,83.3v1.9c0,1.2,0,2.9.5,5,.5,2.1,1.5,4.6,3.3,7.2.8,1.3,2,2.5,3.4,3.8,1.4,1.2,3,2.5,4.9,3.6,1.9,1.2,4.1,2.3,6.6,3,2.6.9,5.3,1.6,8.3,2.3,3,.5,6.4.8,9.8.8s7.2-.1,11.1-.7c7.8-1.1,15.7-3.2,23.4-6.5,3.7-1.6,7.4-3.6,10.8-5.7,3.4-2.1,6.6-4.5,9.4-7,2.7-2.5,5.2-5,7.2-7.7,1.9-2.6,3.7-5.3,4.8-8.1,1.2-2.6,1.9-5.3,2.3-7.9.3-2.5.1-5-.1-7.4-.8-4.6-3.4-8.6-6.7-11.7-1.6-1.6-3.6-2.9-5.5-4.1s-4.1-2.1-6.3-2.9c-2.2-.8-4.4-1.3-6.6-1.9s-4.4-.8-6.4-.9c-4.2-.4-8.1-.3-11.2,0-6.6.5-10.1,1.3-10.1,1.3"/>
    <path class="st0" d="M8.9,81v1.9c0,1.2.1,2.9.8,5,.5,2.1,1.6,4.6,3.7,7.2,1,1.3,2.2,2.5,3.7,3.8s3.1,2.5,5.2,3.6c2,1.2,4.4,2.3,6.8,3,2.6.8,5.5,1.6,8.6,2,3.1.5,6.6.8,10.1.8s7.5-.3,11.3-.8c7.9-1.2,16.1-3.6,23.9-7,3.8-1.7,7.5-3.7,11.1-6,3.4-2.3,6.6-4.6,9.4-7.3,2.7-2.5,5.2-5.3,7.2-8.1,1.9-2.6,3.6-5.4,4.8-8.3,1.1-2.6,1.8-5.4,2-8.1.1-2.5,0-5-.5-7.4-1.1-4.6-3.8-8.6-7.2-11.7-1.8-1.6-3.7-2.9-5.9-4s-4.4-2.1-6.6-2.8c-2.3-.8-4.5-1.3-6.8-1.7s-4.5-.7-6.6-.8c-4.4-.3-8.3-.1-11.5,0-6.6.5-10.4,1.6-10.4,1.6"/>
    <path class="st0" d="M6.8,79.6v1.9c0,1.2.4,2.9,1.2,5,.8,2.1,2,4.6,4.2,7s2.5,2.5,4.1,3.7,3.4,2.4,5.6,3.4,4.6,2,7.4,2.8,5.9,1.3,9,1.7c3.4.4,6.8.5,10.5.3,3.7-.1,7.7-.5,11.6-1.3,8.1-1.5,16.3-4.1,23.9-7.9,3.8-1.9,7.5-4,10.8-6.4,3.4-2.3,6.4-4.9,9-7.6,2.6-2.5,4.9-5.3,6.8-8.2,1.8-2.8,3.3-5.6,4.1-8.3.8-2.6,1.4-5.4,1.5-8.1,0-2.5-.3-5-1.1-7.3-1.5-4.5-4.6-8.3-8.3-11.3-1.9-1.5-4.1-2.6-6.1-3.7-2.3-1.1-4.5-1.9-6.8-2.5s-4.8-1.2-7.1-1.5c-2.3-.3-4.6-.5-6.8-.5-4.5-.1-8.5,0-11.9.5-6.7.8-10.5,1.9-10.5,1.9"/>
    <path class="st0" d="M5.6,79.3s0,.7.4,1.9c.3,1.2.8,2.9,1.9,4.9s2.7,4.4,5.2,6.6c1.2,1.2,2.9,2.3,4.6,3.3s4,2.1,6.1,2.9c2.3.8,5.1,1.6,7.9,2.3,3,.5,6.1.9,9.6,1.2,3.4.1,7.1,0,10.9-.3,3.8-.4,7.8-1.1,11.9-2,8.1-1.9,16.1-5,23.6-9.1,3.7-2,7.1-4.2,10.4-6.9,3.1-2.5,5.9-5,8.3-7.8,2.3-2.6,4.4-5.6,5.9-8.3,1.5-2.8,2.6-5.7,3.3-8.3.5-2.6.8-5.3.5-7.9-.3-2.5-1-4.9-1.9-7-1.1-2.3-2.5-4.1-4.1-5.8s-3.7-3.3-5.7-4.6c-2.2-1.3-4.4-2.4-6.8-3.3-2.5-.8-4.9-1.6-7.4-2.1-2.6-.5-5.1-.8-7.5-1.1s-4.8-.3-7.1-.1c-4.6,0-8.6.5-12,1.2-6.8,1.2-10.5,2.4-10.5,2.4"/>
    <path class="st0" d="M5.5,80.2s.1.5.7,1.7,1.2,2.6,2.7,4.5c1.5,1.9,3.6,4,6.6,6,1.6,1.1,3.4,2,5.3,2.9,2,.8,4.4,1.7,7,2.4,2.6.7,5.5,1.2,8.6,1.6,3.1.3,6.6.4,10.1.3,3.7-.1,7.4-.5,11.2-1.2,4-.7,7.9-1.6,11.9-2.9,4-1.2,7.9-2.8,11.9-4.6s7.5-3.8,10.9-6.1,6.6-4.6,9.4-7.4c2.7-2.5,5.2-5.3,7.2-8.2,1.9-2.8,3.6-5.7,4.6-8.5,1.1-2.8,1.6-5.6,1.9-8.2.1-2.5,0-5.2-.8-7.6-.7-2.4-1.8-4.6-3.3-6.5-1.5-2-3.3-3.7-5.2-5.3-2-1.6-4.2-2.9-6.6-4-2.5-1.2-4.9-2-7.5-2.5-2.6-.7-5.3-1.2-7.9-1.5-2.6-.3-5.3-.4-7.8-.4s-5.1,0-7.2.4c-4.8.5-8.7,1.2-12.2,2-6.8,1.6-10.4,3.2-10.4,3.2"/>
    <path class="st0" d="M6.8,82.3s.3.5,1.1,1.6,1.9,2.5,3.8,4c1,.8,2,1.6,3.4,2.5s3,1.7,4.8,2.5c1.9.8,3.8,1.6,6.1,2.3,2.3.7,4.9,1.2,7.7,1.6,2.9.4,5.9.5,9.3.5s6.8-.3,10.5-.8c7.4-1.1,15.3-3,23-6.2,3.8-1.6,7.7-3.4,11.1-5.6,3.6-2.1,6.8-4.4,10-6.9,3-2.5,5.7-5,8.1-7.8,2.3-2.6,4.1-5.4,5.6-8.3,1.4-2.8,2.3-5.6,3-8.3.5-2.6.5-5.3.1-7.9-.8-5-3.4-9.4-7.1-12.9-1.9-1.7-4.1-3.3-6.4-4.5s-4.9-2.3-7.7-3c-2.6-.8-5.5-1.5-8.2-1.9-2.9-.4-5.6-.5-8.3-.7-5.6,0-10.8.5-15.6,1.3s-8.7,1.9-12.2,2.9c-6.6,2.1-10.1,4-10.1,4"/>
    <path class="st0" d="M9.8,85.4s.5.5,1.5,1.3,2.6,2.1,4.9,3.3c1.2.7,2.6,1.3,4.1,2,1.6.7,3.4,1.2,5.5,1.9s4.4,1.1,7,1.3c2.6.4,5.5.5,8.3.5s6.3,0,9.7-.5c3.4-.4,7-1.1,10.8-1.9,7.4-1.7,15-4.5,22.1-8.3,3.6-1.9,7-4,10.1-6.4,3.1-2.3,6-4.8,8.6-7.4,2.5-2.5,4.6-5.3,6.4-8.2,1.6-2.8,3-5.6,3.7-8.3.8-2.6,1.2-5.4,1-8.1,0-2.5-.7-5-1.6-7.4s-2.3-4.4-4.1-6.2-3.8-3.6-6.1-5c-2.3-1.5-4.9-2.5-7.7-3.6-2.7-.9-5.6-1.6-8.5-2.1-3-.5-5.9-.8-8.9-.8s-5.9,0-8.7.3c-11.6.9-21,4.2-27.5,6.9-6.3,2.6-9.7,4.6-9.7,4.6"/>
    <path class="st0" d="M14.6,88.8s.5.4,1.9,1.2c1.2.7,3.3,1.7,6,2.6,1.4.5,3,.9,4.8,1.5,1.9.5,4,.8,6.1,1.2,2.3.3,4.8.5,7.7.5s5.9,0,8.9-.4c6.4-.7,13.4-2.1,20.6-4.6,3.6-1.2,7.2-2.8,10.8-4.5,3.4-1.7,6.8-3.7,10.1-6,3.1-2.3,6.1-4.5,8.9-7,2.6-2.5,4.9-5.2,7-7.9,1.9-2.6,3.4-5.4,4.5-8.3,1.1-2.8,1.6-5.6,1.9-8.2,0-2.5-.1-5.3-.8-7.7-.8-2.4-1.9-4.6-3.4-6.6-1.6-2-3.6-3.8-5.7-5.3-2.3-1.6-4.8-2.9-7.4-4-2.7-1.1-5.6-1.9-8.6-2.5-3-.5-6.1-.9-9.2-1.1-3.1-.1-6.1,0-9.3.1s-6.1.7-9,1.2c-11.6,2.1-20.9,6.1-26.9,9.3-5.9,3.2-8.9,5.4-8.9,5.4"/>
    <path class="st0" d="M20.1,92.5s.8.4,2.2.8c1.5.5,3.7,1.2,6.8,1.9,1.6.3,3.4.7,5.3.8,2,.1,4.2.4,6.7.4s5.2,0,8.1-.3c2.9-.3,6-.7,9.2-1.3,6.6-1.2,13.4-3.3,20.4-6.5,3.4-1.6,6.8-3.3,10.1-5.3,3.3-2,6.3-4.2,9.2-6.6,2.7-2.4,5.3-4.9,7.7-7.6,2.2-2.5,4-5.3,5.5-8.1,1.4-2.6,2.3-5.6,2.9-8.3.5-2.6.5-5.3,0-7.9-.4-2.5-1.2-5-2.6-7-1.2-2.3-3-4.2-5.1-6-2-1.9-4.4-3.3-7-4.6-2.6-1.2-5.5-2.3-8.5-3-3-.8-6.1-1.2-9.4-1.6-3.3-.3-6.6-.3-9.7-.1-6.6.3-12.8,1.5-18.6,2.9-5.7,1.6-10.8,3.4-15.3,5.4-4.4,2-7.9,4-10.7,5.8s-4.8,3.3-6.1,4.4c-1.2,1.1-1.9,1.6-1.9,1.6"/>
    <path class="st0" d="M25.1,96.1s.8.3,2.5.7c1.6.4,4.1.9,7.4,1.3,1.6.1,3.6.4,5.7.4h7c5.2-.3,11.1-1.2,17.5-2.9,6.4-1.7,13.3-4.2,19.9-7.8,3.3-1.7,6.4-3.7,9.4-6,3-2.1,5.7-4.5,8.3-7,2.5-2.5,4.6-5,6.6-7.8,1.8-2.6,3.1-5.4,4.1-8.2,1-2.6,1.5-5.4,1.6-8.2,0-2.5-.4-5.3-1.2-7.7s-2.2-4.6-3.7-6.6c-1.6-2-3.7-3.8-6.1-5.3-2.3-1.6-5.1-2.9-7.9-4-3-1.1-6-1.9-9.2-2.4-3.3-.5-6.6-.8-9.8-.8s-6.7,0-10,.5c-6.7.8-12.8,2.3-18.6,4.1-5.6,1.9-10.7,4.1-14.9,6.4-4.1,2.3-7.5,4.5-10.1,6.4-2.6,1.9-4.4,3.6-5.6,4.6l-1.8,1.7"/>
    <path class="st0" d="M28.4,99.2s.8.3,2.6.5c1.6.4,4.2.8,7.7,1.1,3.4.3,7.9.3,13-.1,5.2-.5,11.2-1.6,17.5-3.6,6.4-1.9,13.1-4.6,19.5-8.3,3.1-1.9,6.1-4,9-6.1,2.9-2.3,5.5-4.6,7.8-7.3,2.3-2.5,4.2-5.2,5.9-7.9,1.6-2.6,2.7-5.4,3.6-8.3.7-2.6,1-5.4.8-8.1-.1-2.5-.8-5.2-1.9-7.4-1.1-2.3-2.6-4.5-4.4-6.4-1.8-1.9-4.1-3.6-6.6-5-2.6-1.5-5.3-2.6-8.3-3.6s-6.1-1.6-9.4-2c-3.4-.4-6.7-.5-10.1-.5s-6.8.4-10.1.8c-6.7.9-12.8,2.5-18.6,4.6-5.6,2-10.4,4.4-14.6,6.8-4.1,2.3-7.2,4.6-9.7,6.6s-4.2,3.6-5.3,4.8c-1.2,1.2-1.6,1.9-1.6,1.9"/>
    <path class="st0" d="M30.1,101.3s.8.1,2.6.5c1.6.3,4.4.8,7.7.9,3.6.1,7.9.1,13-.4,5.2-.5,11.1-1.7,17.5-3.7,6.3-2,13-4.9,19.3-8.6,3.1-1.9,6.1-4,9-6.2,2.7-2.3,5.3-4.6,7.7-7.3,2.2-2.5,4.1-5.2,5.7-8.1,1.5-2.6,2.6-5.4,3.3-8.2.7-2.6.8-5.4.5-8.1-.1-2.5-1-5-2-7.4s-2.6-4.5-4.6-6.4c-1.9-1.9-4.2-3.6-6.7-5-2.6-1.5-5.5-2.5-8.3-3.4-3-.8-6.3-1.6-9.6-1.9-3.4-.4-6.7-.5-10.1-.4-3.4,0-6.8.4-10.1.9-6.7,1.1-12.8,2.8-18.6,4.9-5.5,2.1-10.4,4.5-14.3,6.9s-7.2,4.6-9.7,6.8c-2.3,2-4.1,3.7-5.2,4.9s-1.6,1.9-1.6,1.9"/>
    <path class="st0" d="M32,102.9s.8.1,2.6.5,4.4.7,7.8.8c3.6,0,7.9,0,13.1-.5,5.2-.7,11.1-1.9,17.5-4,6.4-2.1,12.8-5,19-8.9,3-1.9,6-4,8.6-6.4,2.6-2.3,5.2-4.6,7.2-7.4,2-2.5,4-5.3,5.3-8.1,1.4-2.6,2.3-5.4,3-8.2.5-2.6.5-5.3.3-7.9-.4-2.5-1.2-5-2.3-7.3-1.2-2.3-2.9-4.2-4.9-6.1s-4.4-3.4-7-4.8-5.5-2.5-8.6-3.3-6.3-1.3-9.7-1.7c-3.4-.3-6.8-.4-10.1-.1-3.4.1-6.8.5-10.1,1.2-6.7,1.2-12.8,2.9-18.3,5.2s-10.2,4.6-14.2,7-7,4.8-9.4,6.9c-2.3,2-4.1,3.7-5.2,4.9s-1.6,1.9-1.6,1.9"/>
    <path class="st0" d="M35.3,104.2s.8.1,2.6.4c1.8.1,4.5.5,8.1.4,3.7,0,8.1-.3,13.3-1.2,5.2-.8,11.1-2.4,17.4-4.6,3-1.2,6.1-2.5,9.4-4.1,3-1.6,6.1-3.4,9-5.4,2.9-2,5.6-4.2,8.2-6.6,2.5-2.3,4.8-4.9,6.7-7.4s3.4-5.3,4.6-8.1c1.1-2.6,1.9-5.4,2.2-8.1s0-5.3-.5-7.8-1.6-4.9-3.1-7c-1.5-2.3-3.4-4.1-5.5-5.8-2.3-1.7-4.8-3.2-7.5-4.4-2.9-1.2-5.9-2.3-9-2.9-3.3-.7-6.6-1.1-9.8-1.2-3.4-.1-6.8,0-10.2.1-3.4.3-6.8.8-10.1,1.6-6.6,1.3-12.7,3.4-18.2,5.7s-10,5-13.8,7.6c-3.7,2.5-6.7,5-9,7.2-2.2,2.1-3.7,3.8-4.8,5-1,1.2-1.5,1.9-1.5,1.9"/>
    <path class="st0" d="M39.9,104.7s1,0,2.9.1h8.3c3.7-.3,8.3-.8,13.4-2,5.2-1.2,11.1-2.9,17.1-5.7,3-1.3,6-2.9,9-4.6s5.9-3.6,8.6-5.8c2.6-2.1,5.2-4.4,7.5-6.9,2.2-2.4,4.1-5,5.9-7.7,1.6-2.5,2.7-5.3,3.7-8.1.8-2.6,1.2-5.3,1.1-8.1,0-5-2.2-10.1-5.6-14-1.8-2-4-3.8-6.3-5.3-2.5-1.6-5.2-2.8-8.2-3.8-3-1.1-6.1-1.7-9.4-2.3-3.4-.5-6.8-.7-10.2-.7s-7,.3-10.4.8-6.8,1.2-10.1,2c-6.6,1.7-12.6,4-17.9,6.6-5.2,2.5-9.6,5.4-13.3,8.1-3.4,2.6-6.1,5.3-8.3,7.4-1.9,2.3-3.4,4-4.2,5.2s-1.2,1.9-1.2,1.9"/>
    <path class="st0" d="M44.8,104.3h3c1.9,0,4.8-.1,8.6-.7s8.3-1.3,13.5-2.9c5.2-1.6,10.8-3.7,16.7-6.6,2.9-1.6,5.7-3.2,8.5-5,2.7-1.9,5.3-4,7.8-6.2,2.3-2.3,4.6-4.6,6.6-7.2,1.9-2.5,3.4-5,4.8-7.7,1.2-2.5,2-5.3,2.5-8.1.4-2.5.4-5.3,0-7.7-.5-2.5-1.4-4.9-2.6-7-1.2-2.3-3-4.2-5.2-6-2-1.9-4.5-3.3-7.2-4.6s-5.9-2.4-8.9-3c-3.3-.8-6.6-1.2-10.1-1.6-3.6-.1-7-.1-10.5,0-7.2.5-14.2,2-20.6,4.1-6.4,2.1-12.3,4.8-17.4,7.7-4.9,2.9-9,5.8-12.3,8.7-3.3,2.9-5.6,5.6-7.4,7.8-1.8,2.3-2.9,4.1-3.6,5.3s-1,1.9-1,1.9"/>
    <path class="st0" d="M49.6,102.9s1.1,0,3-.3c1.9-.1,4.9-.5,8.6-1.3,7.7-1.6,18.4-4.6,29.5-11.5,2.6-1.6,5.3-3.4,7.9-5.6,2.5-2,4.9-4.2,7.1-6.6,2.2-2.3,4.1-4.8,5.6-7.4,1.6-2.5,2.9-5.2,3.7-7.8.8-2.5,1.2-5.3,1.4-7.8,0-2.5-.4-5-1.2-7.4s-2-4.6-3.7-6.6c-1.6-2-3.7-4-6.1-5.4-2.5-1.6-5.2-2.9-8.1-4-3-1.1-6.1-1.9-9.6-2.4-3.4-.5-6.8-.8-10.4-.8s-7.2.3-10.8.8c-7.2.9-14.3,2.9-20.6,5.3-6.3,2.4-12,5.3-16.8,8.5-4.6,3-8.5,6.4-11.5,9.4-2.9,2.9-5.1,5.7-6.6,8.1-1.5,2.3-2.3,4.1-3,5.4-.5,1.2-.8,1.9-.8,1.9"/>
    <path class="st0" d="M53.4,100.4s1.1,0,3-.4,5.1-.8,8.7-1.9c3.7-1.1,8.3-2.4,13.3-4.5,4.9-2.1,10.2-4.9,15.4-8.3s5.1-3.7,7.4-5.8c2.3-2.1,4.4-4.2,6.4-6.8,1.9-2.4,3.4-4.9,4.8-7.4,1.2-2.5,2.2-5.2,2.7-7.7.5-2.5.7-5.2.4-7.7-.3-2.5-1-4.9-2.2-7.2s-2.7-4.4-4.6-6.2-4.4-3.6-6.8-4.9c-2.6-1.5-5.6-2.5-8.7-3.4-3.3-.8-6.6-1.5-10.1-1.9-3.6-.3-7.2-.4-10.8-.1-3.7.1-7.4.7-10.9,1.3-7.2,1.3-14.2,3.6-20.5,6.4-6.1,2.6-11.6,6-16.1,9.3-4.4,3.3-7.9,6.6-10.7,9.8-2.6,3-4.4,6-5.7,8.2-1.2,2.3-1.9,4.2-2.3,5.4-.4,1.2-.5,1.9-.5,1.9"/>
    <path class="st0" d="M56.2,97s4.4-.5,11.9-2.8c3.7-1.2,8.2-2.6,13-5,4.8-2.3,10-5.2,14.9-8.9,2.3-1.9,4.8-3.8,6.8-6s4.1-4.4,5.9-6.9c1.6-2.4,3-4.9,4.1-7.4,1-2.5,1.8-5,2-7.7.3-2.5.1-5-.4-7.4s-1.5-4.6-2.9-6.9c-1.4-2.1-3.1-4.1-5.3-5.8-2.2-1.7-4.8-3.3-7.5-4.5-2.9-1.2-5.9-2.3-9.2-2.9-3.4-.8-6.8-1.2-10.4-1.3-3.7-.1-7.2,0-10.9.3-3.7.4-7.4.9-11.1,1.7-7.2,1.6-14.1,4.1-20.2,7-6,2.9-11.2,6.2-15.6,9.8-4.2,3.3-7.5,6.8-10,9.9-2.3,3-4.1,6-5.1,8.3-1,2.3-1.6,4.2-1.9,5.4s-.4,1.9-.4,1.9"/>
    <path class="st0" d="M57.4,93.3s4.4-.7,11.8-3c3.7-1.2,8.1-2.9,12.8-5.3,2.3-1.2,4.8-2.5,7.2-4.1,2.3-1.6,4.8-3.3,7.2-5,2.3-1.9,4.5-3.8,6.6-6.1,1.9-2.1,3.8-4.4,5.5-6.9,1.5-2.4,2.7-4.9,3.7-7.4.8-2.5,1.5-5,1.6-7.6,0-2.5,0-5-.8-7.3-.7-2.3-1.8-4.6-3.3-6.6s-3.4-4-5.6-5.6c-2.3-1.6-4.9-3-7.7-4.2-3-1.2-6.1-2-9.4-2.5-3.4-.5-6.8-.9-10.4-.9s-7.2.1-10.9.5c-3.7.5-7.4,1.2-10.9,2-7.2,1.9-13.9,4.4-19.9,7.4-5.9,2.9-10.9,6.4-15.2,9.9-4.1,3.4-7.2,6.9-9.4,10.1-2.3,3-3.7,6-4.6,8.3-.8,2.3-1.4,4.1-1.6,5.3s-.3,1.9-.3,1.9"/>
    <path class="st0" d="M57.1,89.5s4.4-.7,11.5-3.2c3.7-1.2,7.9-2.9,12.6-5.3s4.6-2.5,7.1-4.1c2.3-1.6,4.8-3.3,7-5,2.3-1.9,4.4-3.8,6.4-6,1.9-2.1,3.7-4.4,5.2-6.8,1.5-2.3,2.6-4.8,3.6-7.3.8-2.4,1.2-4.9,1.4-7.4.1-4.8-1.4-9.7-4.4-13.5-1.6-2-3.6-3.8-5.7-5.3-2.3-1.6-4.9-2.9-7.8-4-3-1.1-6.1-1.9-9.4-2.5-3.4-.5-6.8-.8-10.4-.8s-7.2.1-10.8.7c-3.7.5-7.2,1.2-10.8,2.1-7.1,1.9-13.7,4.5-19.7,7.6-2.9,1.6-5.6,3.2-8.1,4.8-2.5,1.6-4.8,3.3-6.7,5-4,3.3-7,6.8-9.2,9.9-2.2,3-3.6,5.8-4.4,8.2-.8,2.3-1.2,4.1-1.5,5.3-.1,1.2-.1,1.9-.1,1.9"/>
    <path class="st0" d="M55.6,85.8s4.2-.7,11.3-3c3.6-1.2,7.8-2.9,12.4-5.2,2.3-1.2,4.6-2.5,7-4s4.6-3.2,6.8-5c2.2-1.9,4.4-3.7,6.3-6,1.9-2.1,3.7-4.2,5.2-6.6s2.6-4.6,3.6-7c.8-2.4,1.4-4.8,1.5-7.3.1-4.6-1.2-9.4-4.1-13.2s-3.4-3.7-5.5-5.3c-2.3-1.6-4.8-2.9-7.7-4s-5.9-1.9-9.2-2.4c-3.3-.5-6.7-.8-10.1-.8s-7.1.1-10.7.7c-3.7.5-7.2,1.2-10.7,2-7,1.9-13.5,4.2-19.3,7.4-5.7,2.9-10.7,6.4-14.6,9.8-3.8,3.3-6.8,6.6-9,9.8-2.2,2.9-3.6,5.7-4.4,8.1-.8,2.3-1.2,4-1.5,5.2-.1,1.2-.1,1.9-.1,1.9"/>
    <path class="st0" d="M53.2,81.9s4.1-.5,11.1-2.8c3.4-1.2,7.7-2.6,12.2-4.9,4.4-2.3,9.2-5,13.8-8.5,2.2-1.7,4.4-3.6,6.3-5.7,1.9-2,3.7-4.1,5.3-6.4,1.5-2.3,2.7-4.5,3.7-6.9.8-2.3,1.5-4.6,1.6-7,.1-2.3,0-4.6-.5-6.9s-1.6-4.2-3-6.2-3.1-3.7-5.2-5.3-4.5-2.9-7.2-4c-2.7-1.2-5.7-1.9-8.7-2.5-3.1-.5-6.6-.9-9.8-.9s-6.8,0-10.4.5c-3.6.4-7,1.1-10.4,1.9-6.8,1.6-13.3,4.1-19,6.9-5.6,2.8-10.5,6-14.5,9.3-3.8,3.2-6.8,6.4-9.2,9.4-2.2,2.9-3.7,5.6-4.5,7.7-.8,2.1-1.4,4-1.6,5s-.3,1.7-.3,1.7"/>
    <path class="st0" d="M50.1,78.2s4.1-.5,10.8-2.4c3.4-.9,7.5-2.4,11.9-4.5,4.4-2,9.2-4.6,13.7-7.9,2.3-1.6,4.4-3.4,6.4-5.3s3.8-4,5.5-6.1,3-4.4,4.1-6.6c1-2.3,1.8-4.6,2-6.9s.3-4.6,0-6.6c-.4-2.3-1.2-4.2-2.3-6.2-1.2-1.9-2.7-3.7-4.6-5.3s-4.1-2.9-6.6-4.1c-2.6-1.2-5.3-2-8.3-2.6-3-.7-6.1-1.1-9.4-1.2s-6.7,0-10.1.3-6.8.8-10.1,1.6c-6.7,1.5-13,3.6-18.6,6.4-5.6,2.5-10.4,5.7-14.5,8.7-4,3-7,6.1-9.4,9-2.3,2.8-3.7,5.3-4.8,7.4-1,2.1-1.5,3.7-1.8,4.9s-.4,1.7-.4,1.7"/>
    <path class="st0" d="M46.6,74.8s3.8-.3,10.4-2c3.4-.8,7.2-2.1,11.6-4s9-4.2,13.7-7.4c2.3-1.6,4.4-3.2,6.6-5,2-1.9,4-3.7,5.7-5.8,1.6-2,3.1-4.2,4.4-6.4,1.2-2.3,2-4.4,2.6-6.6s.7-4.4.5-6.6c-.1-2.1-.8-4.2-1.8-6.1s-2.3-3.7-4-5.3c-1.6-1.6-3.7-3-6-4.2-2.3-1.2-4.9-2.3-7.7-2.9-2.9-.8-5.9-1.2-8.9-1.6-3.1-.3-6.3-.3-9.6,0-3.3.1-6.6.5-9.7,1.2-6.6,1.2-12.6,3.2-18.2,5.7-5.5,2.4-10.4,5.2-14.3,8.1-4,2.9-7.1,5.7-9.6,8.5-2.3,2.6-4,5-5.2,7.2-1.1,2-1.6,3.6-2,4.6s-.5,1.6-.5,1.6"/>
    <path class="st0" d="M43,71.3s.8,0,2.6-.3c1.6-.1,4.2-.5,7.4-1.2,6.4-1.5,15.6-4.2,24.9-10.1,2.3-1.5,4.5-2.9,6.6-4.6s4.1-3.6,5.9-5.4,3.4-4,4.8-6.1c1.2-2.1,2.3-4.2,3-6.4s1.1-4.2,1.1-6.4-.4-4.1-1.1-6.1c-.7-1.9-1.9-3.7-3.3-5.3-1.5-1.6-3.3-3.2-5.2-4.4-2-1.2-4.4-2.3-7-3.2-2.6-.8-5.3-1.5-8.3-1.9s-6-.5-9-.5-6.1.4-9.3.8c-6.1.9-12.2,2.6-17.8,4.9-5.5,2.1-10.2,4.6-14.3,7.4-4,2.6-7.2,5.3-9.7,7.9-2.5,2.5-4.2,4.9-5.5,6.8s-1.9,3.4-2.3,4.5c-.4,1.1-.5,1.6-.5,1.6"/>
    <path class="st0" d="M39.8,67.9s.8,0,2.5-.1c1.6,0,4-.4,7-.9,6.1-1.2,15-3.6,24.2-8.7,2.3-1.2,4.5-2.6,6.7-4.2,2.2-1.6,4.2-3.3,6.1-5,1.9-1.9,3.6-3.7,5.1-5.7,1.4-2,2.6-4,3.6-6.1.8-2,1.5-4.1,1.6-6.2.1-2,0-4.1-.4-6-.5-1.9-1.4-3.7-2.6-5.3-1.2-1.7-2.7-3.2-4.5-4.5-1.9-1.3-4-2.5-6.1-3.3-2.3-.9-4.9-1.6-7.7-2.1s-5.5-.8-8.5-.8-5.9,0-8.9.5c-6,.7-11.9,2.1-17.1,4s-10.1,4.2-14.1,6.6-7.2,5-9.8,7.4c-2.5,2.3-4.4,4.6-5.7,6.4-1.2,1.9-2.2,3.3-2.6,4.2-.5.9-.7,1.6-.7,1.6"/>
    <path class="st0" d="M36.8,64.5h2.3c1.5,0,3.7-.1,6.6-.5,2.9-.4,6.4-1.1,10.4-2.3,4.1-1.2,8.5-2.8,13-5,2.3-1.2,4.4-2.4,6.7-3.8,2.2-1.5,4.2-2.9,6.1-4.6,1.9-1.6,3.7-3.4,5.3-5.3,1.6-1.9,2.9-3.8,4-5.8,1-1.9,1.8-4,2.3-6,.4-2,.5-4,.3-5.8-.5-3.7-2.6-7.3-5.5-9.9-1.6-1.3-3.4-2.5-5.5-3.6s-4.4-1.9-6.8-2.4-5.2-.9-7.8-1.2c-2.7-.1-5.5,0-8.3,0-5.7.5-11.2,1.6-16.4,3.3-5.2,1.6-9.8,3.7-13.9,6-4,2.3-7.2,4.6-10,6.8-2.6,2.3-4.5,4.2-5.9,6-1.4,1.7-2.3,3.2-2.9,4.1-.5.9-.8,1.5-.8,1.5"/>
    <path class="st0" d="M34,61h2c1.4,0,3.4,0,6.1-.3,2.7-.3,6.1-.8,10-1.7s8.2-2.4,12.6-4.4c2.2-.9,4.4-2.1,6.6-3.4,2.2-1.2,4.2-2.6,6.3-4.2,1.9-1.6,3.8-3.2,5.5-5,1.6-1.7,3-3.6,4.4-5.6,1.2-1.9,2-3.8,2.6-5.7s.8-3.8.8-5.7c0-3.6-1.6-7.2-4.1-9.9-1.2-1.5-3-2.6-4.8-3.6-1.9-1.1-4-1.9-6.1-2.5s-4.8-1.2-7.2-1.5c-2.6-.3-5.2-.4-7.8-.3-5.3.1-10.7,1.2-15.6,2.5-5.1,1.3-9.6,3.2-13.5,5.2s-7.2,4.1-9.8,6.2c-2.6,2-4.6,4-6.1,5.6s-2.5,2.9-3,3.8-.8,1.3-.8,1.3"/>
    <path class="st0" d="M31.8,57.8h7.7c2.6-.1,5.7-.5,9.4-1.2s7.8-1.9,12.2-3.7c4.2-1.7,8.6-4,12.7-6.9,1.9-1.5,3.8-2.9,5.6-4.6s3.3-3.3,4.5-5.2c1.2-1.7,2.3-3.6,3-5.4.8-1.9,1.2-3.6,1.4-5.4.3-3.4-.7-7-2.9-9.8-1.1-1.5-2.5-2.6-4.1-3.7-1.6-1.2-3.4-2-5.5-2.8s-4.2-1.3-6.6-1.6c-2.3-.4-4.8-.5-7.2-.5s-5.1.1-7.5.5-4.9.8-7.2,1.3c-4.8,1.2-9.2,2.8-13,4.5s-7.1,3.7-9.7,5.7c-2.6,1.9-4.6,3.6-6.1,5.2-1.5,1.5-2.6,2.6-3.3,3.6-.7.8-1,1.3-1,1.3"/>
    <path class="st0" d="M30.2,54.5s.5,0,1.8.1c1.2,0,3,.1,5.3.1s5.3-.3,8.7-.8c3.4-.5,7.4-1.6,11.5-3,4.1-1.6,8.3-3.6,12.4-6.1,1.9-1.2,3.8-2.6,5.6-4.2,1.6-1.5,3.4-3,4.8-4.8,1.4-1.6,2.5-3.3,3.4-5.2.8-1.7,1.5-3.4,1.8-5.3.3-1.7.3-3.4,0-5-.3-1.6-.8-3.2-1.8-4.5-.8-1.5-2-2.6-3.4-3.8s-3-2.1-4.8-2.9c-1.9-.8-3.8-1.5-5.9-1.9-2.2-.5-4.4-.7-6.6-.8-2.3,0-4.6,0-6.8.1-2.3.1-4.6.5-6.8,1.1-4.5.9-8.7,2.3-12.6,3.8-3.7,1.6-6.8,3.3-9.6,5-2.6,1.7-4.6,3.3-6.1,4.6s-2.6,2.5-3.3,3.3-1,1.2-1,1.2"/>
    <path class="st0" d="M29.1,51.5s.5,0,1.6.3c1.1.1,2.7.3,4.8.4,2.2,0,4.9,0,8.1-.5,3.3-.5,6.8-1.2,10.8-2.5s7.9-3,11.9-5.3c1.9-1.2,3.8-2.4,5.5-3.8,1.6-1.3,3.4-2.8,4.8-4.4s2.6-3.2,3.7-4.8,1.6-3.3,2.2-5c.4-1.6.5-3.3.5-4.8s-.5-3-1.2-4.4-1.6-2.6-2.7-3.7c-1.2-1.2-2.6-2.1-4.2-2.9-1.6-.8-3.4-1.6-5.3-2-1.9-.5-4-.8-6-1.1-2.2-.1-4.4-.1-6.4,0-2.2,0-4.4.4-6.6.8-4.4.8-8.3,1.9-11.9,3.3-3.6,1.3-6.7,2.9-9.3,4.5s-4.5,3-6.1,4.2c-1.5,1.2-2.6,2.3-3.4,3-.7.8-1.1,1.2-1.1,1.2"/>
    <path class="st0" d="M28.3,48.4s.5,0,1.5.3c1,.1,2.5.4,4.4.5s4.5,0,7.5-.1c3-.3,6.4-.9,10.1-2s7.7-2.6,11.5-4.6c1.9-1.1,3.7-2.3,5.5-3.4,1.6-1.2,3.3-2.5,4.8-4,1.4-1.5,2.6-2.9,3.7-4.4,1-1.6,1.9-3,2.3-4.6s.8-3,.8-4.6-.1-2.9-.7-4.2-1.2-2.5-2.3-3.6c-1-1.2-2.3-2.1-3.7-2.9-1.5-.8-3-1.6-4.8-2.1s-3.7-.9-5.5-1.2c-1.9-.3-4-.4-5.9-.3-2,0-4.1.1-6,.5-4.1.5-7.8,1.6-11.2,2.8s-6.4,2.5-8.9,4c-2.5,1.3-4.4,2.8-6,4-3,2.3-4.4,3.8-4.4,3.8"/>
    <path class="st0" d="M28.1,45.6s.5,0,1.2.3c.8.1,2.3.5,4.1.5,1.9.1,4.1.1,6.8,0s6-.7,9.4-1.6,7.2-2.3,10.8-4.1c1.8-.8,3.6-1.9,5.2-3,1.6-1.2,3.3-2.3,4.6-3.6,1.4-1.2,2.6-2.6,3.7-4.1,1.1-1.3,1.9-2.9,2.6-4.2.5-1.5,1-2.9,1.2-4.2,0-1.3,0-2.8-.4-4-.7-2.5-2.6-4.8-4.9-6.4-1.2-.8-2.6-1.6-4.1-2.1-1.6-.5-3.3-.9-4.9-1.2-1.8-.3-3.7-.5-5.5-.5s-3.7,0-5.6.3c-3.7.4-7.2,1.2-10.5,2.3s-6,2.3-8.5,3.6c-2.3,1.2-4.2,2.5-5.7,3.6-2.9,2.1-4.2,3.6-4.2,3.6"/>
    <path class="st0" d="M28.3,42.9s.4,0,1.2.3c.8.1,1.9.5,3.7.7s3.7.3,6.1.1c2.6,0,5.5-.5,8.6-1.2,3.3-.8,6.7-1.9,10.1-3.6s6.6-3.6,9.4-6c1.4-1.2,2.6-2.4,3.7-3.7,1.1-1.2,1.9-2.5,2.6-4,.7-1.3,1.1-2.6,1.2-4,.1-1.2.1-2.5,0-3.8-.5-2.4-1.9-4.6-4.1-6.2-1.1-.8-2.3-1.6-3.7-2.1s-2.9-1.1-4.4-1.3-3.3-.5-4.9-.5h-5.2c-3.4.3-6.8.9-9.7,1.9-6,1.9-10.5,4.2-13.4,6.4-2.7,1.9-4.1,3.2-4.1,3.2"/>
    <path class="st0" d="M28.7,40.2s1.5.5,4.2,1.1c1.5.1,3.4.4,5.6.3,2.3,0,5.1-.4,7.9-.9,3-.7,6.1-1.6,9.3-3s6.1-3.2,8.9-5.3c1.2-1.1,2.5-2.3,3.6-3.3,1-1.2,1.9-2.4,2.6-3.6s1.2-2.5,1.5-3.7c.3-1.2.3-2.4.1-3.6-.3-2.3-1.6-4.2-3.4-5.8-1-.8-2-1.5-3.3-2s-2.6-1.1-4-1.3c-1.5-.3-3-.5-4.4-.7h-4.6c-3.1.1-6.1.8-9,1.6-5.5,1.6-9.7,3.8-12.6,5.6-2.6,1.7-3.8,2.9-3.8,2.9"/>
    <path class="st0" d="M29.4,37.7s1.2.5,3.7,1.1c1.2.1,3,.4,5.1.4s4.5-.1,7.1-.8c2.6-.5,5.6-1.5,8.5-2.6s5.7-2.8,8.2-4.8c1.2-.9,2.3-1.9,3.4-3,1-1.1,1.8-2.1,2.5-3.3.7-1.1,1.2-2.3,1.5-3.3.3-1.1.4-2.3.3-3.3-.1-2-1.2-4-2.6-5.4-.8-.8-1.8-1.5-2.7-1.9-1.1-.5-2.3-.9-3.6-1.3-1.2-.3-2.6-.5-4-.7-1.4,0-2.7-.1-4.2,0-2.9,0-5.6.5-8.2,1.2-5.2,1.3-9,3.3-11.5,4.9s-3.7,2.5-3.7,2.5"/>
    <path class="st0" d="M31.7,14.8s-.8,0-1.9.4c-.5.1-1.2.5-1.8,1.1s-1.2,1.2-1.6,2.3-.8,2.4-.8,3.8v2.5c0,.9,0,2,.3,3,.1,1.2.4,2.3.7,3.4.3,1.2.5,2.5,1,3.8s.8,2.8,1.4,4.2,1.1,2.9,1.8,4.4c1.2,3,2.7,6.2,4.4,9.3,1.6,3.2,3.4,6.4,5.3,9.3,3.7,6.1,7.7,11.7,11.2,16.2s6.6,7.9,8.7,10.3c2.2,2.3,3.4,3.6,3.4,3.6"/>
    <path class="st0" d="M33.3,13.7s-.5,0-1.5.3c-.4.1-.8.5-1.2.9-.4.5-.8,1.2-1.1,2.1,0,.5-.1,1.1-.3,1.6v2.1c0,.8,0,1.6.1,2.5,0,.9.3,2,.5,3,.1,1.2.5,2.3.8,3.4s.7,2.5,1.2,3.8,1,2.8,1.5,4.2c.5,1.5,1.2,2.9,1.8,4.5,1.2,3.2,2.7,6.4,4.4,9.4,1.6,3.3,3.3,6.4,5.1,9.5,3.6,6.4,7.1,11.9,10.4,16.7,3.1,4.6,5.9,8.3,7.9,10.7,1.9,2.4,3,3.7,3,3.7"/>
    <path class="st0" d="M35.3,12.4s-.4,0-1,.1c-.3.1-.5.4-.8.8-.3.5-.4,1.2-.5,2.1v1.6c0,.7,0,1.3.1,2.1,0,.8.3,1.6.4,2.5.1.9.4,2,.7,3,.3,1.2.5,2.3,1,3.4.4,1.2.8,2.5,1.2,4s1,2.8,1.6,4.2,1.2,3,1.8,4.6c1.2,3.2,2.6,6.4,4.1,9.7,1.5,3.3,3,6.6,4.6,9.8,3.3,6.4,6.4,12.3,9.3,17.2,2.7,4.8,5.2,8.6,6.8,11.1s2.6,4,2.6,4"/>
    <path class="st0" d="M37.7,11.3s-.3,0-.5.1c0,.1-.3.4-.3.8v2c0,.5.1,1.1.3,1.6,0,.7.3,1.3.5,2.1.1.8.4,1.6.7,2.5s.5,2,.8,3c.4,1.2.7,2.3,1.2,3.6.4,1.2.8,2.5,1.4,4,.5,1.5,1,2.9,1.6,4.2.5,1.6,1.2,3,1.8,4.6,1.2,3.3,2.6,6.5,4,9.8s2.9,6.6,4.2,10.1c2.9,6.6,5.7,12.6,8.1,17.6,1.2,2.5,2.3,4.8,3.3,6.6s1.8,3.6,2.5,4.9c1.4,2.5,2,4,2,4"/>
    <path class="st0" d="M40.6,10.1h0c0,.4,0,.5.1,1.1,0,.5.4,1.2.7,2,.1.5.4,1.1.5,1.6.1.7.5,1.3.7,2.1.3.8.5,1.7.8,2.5.3.9.7,2,1.1,3.2s.8,2.3,1.2,3.6l1.5,4c1.1,2.9,2.2,6,3.4,9.1s2.5,6.6,3.7,10.1,2.6,6.9,3.7,10.2c2.5,6.6,4.8,12.9,6.8,18.1,1,2.5,1.9,4.9,2.6,6.9.8,2,1.4,3.6,1.9,5,1,2.6,1.6,4.1,1.6,4.1"/>
    <path class="st0" d="M43.9,9.1s.1,0,.5.1c.1.1.4.5.7.8.4.5.8,1.2,1.2,2.1.3.5.5,1.1.8,1.7s.5,1.3,1,2.3c.4.8.7,1.7,1.1,2.6s.8,2.1,1.2,3.2c.5,1.2.8,2.4,1.4,3.6.5,1.3,1,2.6,1.5,4.1,1.1,2.9,2.2,6.1,3.3,9.4,1.1,3.3,2.3,6.8,3.4,10.3s2.2,7,3.3,10.5c2,6.9,3.8,13.2,5.3,18.5.7,2.5,1.4,5,1.9,7s1,3.7,1.2,5.2c.7,2.6,1,4.2,1,4.2"/>
    <path class="st0" d="M47.5,8.1s.4,0,1,.1c.3.1.8.5,1.2.9s1.2,1.2,1.8,2.3c.4.5.7,1.2,1.1,1.7.4.7.8,1.5,1.2,2.3s.8,1.9,1.2,2.8c.5,1.1.8,2.1,1.4,3.3s1,2.5,1.5,3.7c.5,1.3,1,2.8,1.5,4.2,1.1,3,2,6.2,3,9.5,1,3.4,1.9,7,2.9,10.5.8,3.6,1.8,7.2,2.6,10.7.8,3.6,1.5,6.9,2,10.1.5,3.2,1.1,6.1,1.6,8.7.4,2.6.8,5,1.1,7.2.3,2,.5,3.8.5,5.3.3,2.8.4,4.2.4,4.2"/>
    <path class="st0" d="M51.9,7.4s.5,0,1.5.3c.5.1,1.1.5,1.8,1.1s1.5,1.3,2.3,2.4c.8,1.2,1.8,2.5,2.7,4.2.5.8,1,1.9,1.5,2.9s1,2.3,1.5,3.3c.5,1.2,1,2.5,1.5,4l1.5,4.2c1,3,1.9,6.4,2.7,9.8.8,3.6,1.6,7,2.3,10.7.7,3.6,1.2,7.3,1.8,10.7s.8,7,1.2,10.2c.3,3.2.5,6.2.5,8.9s.1,5,.1,7.2v5.3c0,2.8-.1,4.2-.1,4.2"/>
    <path class="st0" d="M56.7,7s.8,0,1.9.5c.5.1,1.4.5,2.3,1.2s1.9,1.5,2.9,2.5c1.1,1.2,2.2,2.6,3.1,4.4,1.1,1.9,2.2,4,3.3,6.5,1.1,2.5,2,5.4,3,8.3.8,3.2,1.8,6.5,2.5,10.1s1.2,7.3,1.6,10.9c.4,3.7.7,7.4.8,11s.1,7,.1,10.3-.1,6.2-.4,9c-.1,2.6-.5,5-.8,7.2s-.5,3.8-.8,5.3c-.5,2.8-.8,4.2-.8,4.2"/>
    <path class="st0" d="M61.9,7s.8,0,2.5.5c.8.3,1.6.7,2.6,1.3,1.1.7,2.2,1.6,3.3,2.8,1.2,1.2,2.3,2.8,3.6,4.6s2.3,4.2,3.4,6.6c1.1,2.6,1.9,5.6,2.9,8.7.8,3.3,1.5,6.6,1.9,10.2.5,3.6.8,7.4,1,11v11c-.4,7.2-1.2,13.8-2.5,19.2-.5,2.6-1.2,5-1.8,7-.5,2-1.2,3.7-1.6,5.2-1,2.6-1.6,4.2-1.6,4.2"/>
    <path class="st0" d="M67.5,7.2s1.1,0,2.9.8c1.8.7,4.4,2,6.8,4.6,1.2,1.3,2.6,2.9,3.8,4.9,1.2,2,2.5,4.4,3.4,7,1.1,2.6,1.9,5.7,2.6,8.9.7,3.3,1.2,6.8,1.5,10.3s.3,7.4,0,11.1c-.1,3.7-.5,7.4-1.1,11-1.1,7.2-2.9,13.5-4.8,18.9-1.9,5.2-3.8,9.1-5.3,11.8-1.4,2.5-2.3,4-2.3,4"/>
    <path class="st0" d="M72.8,8.3s1.2.1,3.4.9,4.9,2.3,7.7,5c1.5,1.5,2.9,3.2,4.1,5.2,1.2,2.1,2.6,4.5,3.6,7.2,1,2.8,1.9,5.8,2.3,9.1.5,3.3.8,6.8.8,10.5s-.1,7.4-.7,11c-.5,3.7-1.2,7.4-2.2,10.9-1.9,7-4.4,13.2-7,18.4-2.6,5-5.2,8.7-7.1,11.4-1.9,2.5-3,3.7-3,3.7"/>
    <path class="st0" d="M78,9.7s1.4.3,3.7,1.2c2.3.8,5.5,2.5,8.5,5.4,1.6,1.5,3,3.3,4.4,5.3,1.4,2.1,2.6,4.6,3.6,7.4s1.6,6,2.2,9.1c.4,3.3.5,6.8.4,10.3s-.7,7.3-1.5,10.9-1.9,7.2-3.1,10.6c-2.6,6.8-5.9,12.9-9.2,17.6-3.3,4.8-6.6,8.3-8.7,10.6s-3.7,3.4-3.7,3.4"/>
    <path class="st0" d="M82.3,11.9s1.6.4,4.1,1.3c2.5,1.1,5.9,2.9,9.3,6,1.6,1.6,3.3,3.4,4.8,5.6,1.5,2.3,2.6,4.6,3.7,7.4,1,2.9,1.6,6,1.9,9.1.3,3.3.3,6.8,0,10.2-.4,3.6-1.1,7.2-2.2,10.6-1.1,3.6-2.3,7-4,10.2-3.1,6.5-7.2,12.2-11.1,16.6-3.8,4.5-7.7,7.7-10.2,9.8s-4.2,3.2-4.2,3.2"/>
    <path class="st0" d="M85.4,14.4s1.6.4,4.4,1.6c2.6,1.2,6.4,3.2,10,6.4,3.6,3.3,6.8,7.8,8.9,13.4,1,2.9,1.6,6,1.9,9.1.3,3.3.1,6.6-.3,10.1-.5,3.4-1.4,6.9-2.6,10.2-1.2,3.4-2.9,6.6-4.6,9.8-3.7,6.2-8.1,11.5-12.4,15.6-4.4,4.1-8.3,7-11.3,8.7-3,1.9-4.8,2.8-4.8,2.8"/>
    <path class="st0" d="M86.9,16.9s1.8.5,4.8,1.9c2.9,1.2,6.8,3.3,10.7,6.6,3.7,3.3,7.2,7.9,9.4,13.5,1.1,2.8,1.8,5.8,2,9,.3,3.2.1,6.5-.4,9.8s-1.5,6.6-2.9,9.8c-1.4,3.3-3,6.4-4.9,9.1-4,5.8-8.6,10.7-13.3,14.3-4.6,3.7-9,6.2-12,7.8-3.1,1.6-5.1,2.4-5.1,2.4"/>
    <path class="st0" d="M86.8,19.3s1.9.5,5.1,1.9c3,1.3,7.2,3.6,11.3,7,4.1,3.3,7.9,8.1,10.4,13.6,2.3,5.6,3.3,12.2,2.3,18.5-1,6.5-3.8,12.9-7.7,18.3-4,5.6-8.9,9.9-13.5,13.2-4.8,3.3-9.2,5.6-12.4,7-3.1,1.5-5.2,2-5.2,2"/>
    <path class="st0" d="M85.1,21.1s1.9.5,5.2,2c3.3,1.5,7.7,3.7,12,7.3,2.2,1.7,4.4,3.7,6.3,6.1,1.9,2.3,3.7,4.9,5.1,7.7,2.7,5.4,4.1,11.9,3.4,18.3s-3.4,12.5-7,17.6c-3.7,5.3-8.6,9.4-13.3,12.5-4.8,3.2-9.2,5-12.3,6.4-3.1,1.2-5.2,1.7-5.2,1.7"/>
    <path class="st0" d="M82.3,22.1s2,.5,5.5,2.1c3.4,1.5,7.9,3.7,12.7,7.3,2.3,1.7,4.6,3.7,6.8,6.1,2,2.3,4.1,4.9,5.6,7.7s2.9,5.7,3.7,8.7c.8,3,1.2,6.2,1,9.3-.3,6.2-2.5,12.3-5.9,17.4-3.4,5.2-8.1,9.1-12.6,12.2-4.5,2.9-8.9,4.9-11.9,6-3.1,1.2-5.1,1.6-5.1,1.6"/>
    <path class="st0" d="M79,22.1s2,.5,5.6,2c3.4,1.3,8.3,3.6,13.3,7,2.5,1.7,4.9,3.6,7.2,6,2.3,2.3,4.4,4.8,6.3,7.6,1.8,2.6,3.3,5.7,4.4,8.7,1,2.9,1.6,6.1,1.8,9.3.1,6.1-1.6,12.3-4.5,17.4-3,5.2-7.4,9.1-11.6,12.2-4.4,3-8.5,4.9-11.5,6.1-3,1.2-4.9,1.6-4.9,1.6"/>
    <path class="st0" d="M75.8,21.3s2.2.5,5.7,1.7c3.6,1.2,8.5,3.3,13.7,6.6,2.6,1.6,5.2,3.6,7.7,5.7s4.8,4.6,6.8,7.4c1.9,2.6,3.7,5.6,5.1,8.6,1.2,2.9,2,6.1,2.5,9.3.7,6.1-.5,12.5-3.3,17.5-2.6,5.3-6.7,9.4-10.7,12.6-4.1,3.2-8.1,5.2-11.1,6.5s-4.8,1.9-4.8,1.9"/>
    <path class="st0" d="M73.2,20.2s2.2.4,5.9,1.5c3.7,1.1,8.6,2.9,14.1,6,2.6,1.6,5.5,3.3,7.9,5.3,2.6,2,5.1,4.4,7.2,7,2.2,2.5,4.1,5.4,5.5,8.3s2.5,6,3,9.1c1.1,6.1.1,12.5-2.2,17.9s-6.1,9.9-9.8,13.2c-3.8,3.4-7.8,5.7-10.7,7s-4.6,2.1-4.6,2.1"/>
    <path class="st0" d="M71.9,18.9s2.2.3,5.9,1.2c3.7.8,8.7,2.4,14.3,5.2,2.6,1.3,5.5,2.9,8.2,5,2.6,1.9,5.2,4.2,7.5,6.6,2.3,2.5,4.2,5.3,5.9,8.2,1.6,2.9,2.6,6,3.4,9.1,1.2,6.2.5,12.6-1.5,18.1-2.2,5.7-5.7,10.5-9.4,13.9-3.7,3.7-7.7,6.2-10.4,7.8-2.9,1.6-4.5,2.4-4.5,2.4"/>
    <path class="st0" d="M71.6,17.7s2.2.1,5.9.9,8.6,2,14.2,4.6c2.6,1.2,5.5,2.8,8.2,4.6,2.6,1.9,5.2,4,7.5,6.4s4.2,5,5.7,8.1c1.6,2.9,2.6,6,3.4,9.1,1.2,6.2.7,12.9-1.4,18.5-2,5.8-5.6,10.7-9.2,14.7-3.7,4-7.5,6.6-10.1,8.5-2.7,1.9-4.5,2.6-4.5,2.6"/>
    <path class="st0" d="M71,16.1s2,0,5.7.5c3.6.5,8.6,1.6,13.9,3.8,2.6,1.2,5.5,2.5,8.1,4.2,2.6,1.7,5.2,3.7,7.4,6.1,2.2,2.3,4.1,5,5.7,7.7,1.6,2.8,2.6,5.8,3.4,9,1.4,6.4.8,13-1.1,18.8-1.9,6-5.3,11.4-8.9,15.5-3.6,4.2-7.2,7.3-10,9.3-2.6,2-4.4,3-4.4,3"/>
    <path class="st0" d="M68.6,14.8s2,0,5.6.1,8.5.9,13.9,2.8c2.6.9,5.5,2.1,8.1,3.6,2.6,1.6,5.2,3.3,7.5,5.6,4.5,4.2,8.1,10.1,9.7,16.3s1.4,13-.1,19.1c-1.6,6.4-4.6,11.8-7.9,16.3-3.3,4.6-6.7,7.9-9.3,10.2-2.6,2.3-4.1,3.4-4.1,3.4"/>
    <path class="st0" d="M64.9,14.1s2-.3,5.6-.3,8.3.1,13.9,1.6c2.6.7,5.5,1.6,8.3,2.9,2.6,1.3,5.5,2.9,7.8,5,4.8,4,8.6,9.4,10.8,15.4,1.1,3,1.6,6.2,1.9,9.4.1,3.3,0,6.5-.5,9.7-1.2,6.4-3.7,12.2-6.6,17-2.9,4.8-6,8.5-8.3,10.9-2.3,2.5-3.8,3.7-3.8,3.7"/>
    <path class="st0" d="M60.8,14.5s2-.4,5.6-.7,8.5-.4,14.2.5c2.7.5,5.7,1.2,8.6,2.3,2.9,1.1,5.7,2.5,8.3,4.2,5.2,3.6,9.6,8.6,12.2,14.3,1.2,2.9,2.2,6,2.6,9.1.5,3.2.5,6.4.1,9.5-.7,6.4-2.7,12.3-5.2,17.2-2.6,5-5.5,8.7-7.5,11.4-2.2,2.5-3.6,4-3.6,4"/>
    <path class="st0" d="M56.8,15.6s2-.5,5.7-.9c3.7-.5,8.7-.8,14.6-.1,2.9.3,5.9.9,9,1.9,3,.9,6.1,2.3,9,3.7,2.9,1.6,5.5,3.6,7.9,5.8,2.5,2.3,4.4,4.9,5.9,7.7,3.1,5.6,4.6,12.1,4.4,18.1,0,6.4-1.9,12.2-4,17.1-2.2,5-4.8,8.7-6.8,11.5s-3.4,4-3.4,4"/>
    <path class="st0" d="M53.2,16.9s2-.5,5.9-1.2c3.7-.5,9-1.1,15.2-.5,6.1.5,6.3.8,9.6,1.6,3.3.8,6.6,2,9.7,3.4,3,1.6,6,3.3,8.6,5.6,2.6,2.1,4.9,4.6,6.8,7.4,3.7,5.3,5.7,11.7,6,17.6.3,6.1-1,11.9-2.9,16.7-1.9,4.9-4.4,8.7-6.3,11.3s-3.3,4-3.3,4"/>
    <path class="st0" d="M49.9,18.2s2.2-.5,5.9-1.1c3.8-.5,9.3-.9,15.7-.4,3.1.3,6.6.8,10.1,1.6,3.4.8,6.8,2,10.2,3.6,3.3,1.6,6.6,3.3,9.4,5.6,2.9,2.1,5.5,4.6,7.7,7.3,2,2.6,3.8,5.6,5.2,8.5,1.2,2.9,2,6,2.3,9,.7,6-.3,11.7-1.9,16.3-1.6,4.8-4.1,8.3-5.9,10.9s-3,3.8-3,3.8"/>
    <path class="st0" d="M47.3,18.9s2.2-.4,6-.8c3.8-.3,9.4-.5,16,.3,3.3.4,6.7,1.1,10.4,2,3.6.9,7.1,2.3,10.7,3.8,3.4,1.6,6.8,3.6,10,5.8,3,2.3,5.9,4.6,8.2,7.4,2.3,2.6,4.2,5.6,5.7,8.5,1.4,2.9,2.3,6,3,8.9,1.1,5.8.3,11.4-1.2,15.9-1.5,4.5-3.7,8.1-5.5,10.3-1.8,2.4-3,3.6-3,3.6"/>
    <path class="st0" d="M45.6,19.4s2-.3,5.9-.3,9.3.1,15.7,1.5,13.9,3.6,21,7.2c3.6,1.9,7,4,10.1,6.4s6,5,8.5,7.9c2.5,2.8,4.5,5.7,6.1,8.7,1.6,2.9,2.6,6,3.4,8.9.7,2.9.8,5.7.8,8.3s-.5,5-1.2,7.2c-1.2,4.2-3.4,7.6-5.1,9.7-1.6,2.3-2.9,3.3-2.9,3.3"/>
    <path class="st0" d="M44.5,19.5s1.9,0,5.6.3c3.7.3,9,1.1,15.2,2.9,6.3,1.9,13.7,4.8,20.6,9,3.4,2.1,6.8,4.5,10.1,7.2,3.1,2.5,6,5.4,8.6,8.5,2.5,2.9,4.5,6,6.1,9.1,1.6,3,2.7,6,3.6,9,.7,2.9,1.1,5.7,1,8.1,0,2.5-.4,4.8-1,6.8-1.1,4-3,7-4.5,8.9-1.6,1.9-2.6,2.9-2.6,2.9"/>
    <path class="st0" d="M44.5,19.5s1.9.1,5.2.8c1.6.4,3.7.8,6.1,1.6,2.3.8,5.2,1.6,8.1,2.9,6,2.5,12.8,6.1,19.5,11,3.4,2.4,6.6,5.2,9.7,8.1,3,2.9,5.9,6,8.3,9.1,2.3,3.2,4.4,6.4,6.1,9.5,1.6,3,2.7,6.2,3.6,9.1.8,2.9,1.2,5.6,1.2,8.1s-.1,4.6-.7,6.4c-.8,3.6-2.6,6.4-4.1,7.9-1.4,1.6-2.3,2.4-2.3,2.4"/>
    <path class="st0" d="M44.8,19.5s1.6.4,4.6,1.6,3.4,1.3,5.5,2.3c2.2,1.1,4.6,2.3,7.2,3.8,2.6,1.6,5.6,3.4,8.6,5.7s6.1,4.6,9.2,7.4c3,2.8,6.1,5.8,9,9,2.7,3.2,5.5,6.5,7.7,9.9,2.3,3.3,4.2,6.6,5.9,9.9.8,1.6,1.5,3.2,2,4.8s1.1,2.9,1.5,4.5c.4,1.5.7,2.8.8,4.1.1,1.2.3,2.5.4,3.7,0,2.3,0,4.2-.5,6-.4,1.7-.8,3.2-1.6,4.2-.5,1.2-1.2,2-1.9,2.8-1.2,1.3-2,1.9-2,1.9"/>
    <path class="st0" d="M45.4,19.9s1.5.7,4.1,2.1c1.2.8,3,1.7,4.8,2.9,1.9,1.2,4.1,2.9,6.4,4.6,2.3,1.9,4.9,4.1,7.7,6.6,2.6,2.5,5.5,5.3,8.2,8.5,2.7,3,5.5,6.4,7.9,9.8s4.9,7,7,10.5c2,3.4,3.8,7,5.3,10.3.7,1.6,1.4,3.3,1.9,4.8s1,2.9,1.4,4.4c.4,1.3.7,2.6.8,4,.1,1.2.4,2.4.5,3.6v3c0,.9,0,1.7-.3,2.5-.3,1.6-.7,2.8-1.2,3.7s-1,1.7-1.5,2.3c-1,1.1-1.8,1.5-1.8,1.5"/>
    <path class="st0" d="M45.9,20.6s1.2.8,3.4,2.6c1.1.9,2.5,2.3,4.1,3.6,1.6,1.6,3.4,3.3,5.5,5.6s4.2,4.6,6.6,7.6,4.8,6,7.1,9.4c2.3,3.3,4.8,7,7,10.6,2.3,3.6,4.4,7.4,6.1,11.1.8,1.9,1.8,3.6,2.6,5.3s1.6,3.4,2.3,5.2c.7,1.6,1.2,3.3,1.8,4.8s1,2.9,1.4,4.2.7,2.5,1,3.8c.1,1.2.4,2.3.5,3.3,0,.9.1,1.9.1,2.8v2.3c0,1.3-.4,2.4-.8,3.3-.3.8-.8,1.3-1.1,1.7-.7.8-1.2,1.1-1.2,1.1"/>
    <path class="st0" d="M46.3,21.5s1,1.2,2.6,3.3c.8,1.2,1.9,2.5,3.3,4.2,1.2,1.9,2.7,3.8,4.4,6.4s3.4,5.3,5.3,8.3c1.9,3.2,4,6.5,5.9,10.1,2,3.6,4.1,7.4,6,11.3,1.9,3.8,3.7,7.7,5.5,11.4.8,1.9,1.6,3.6,2.3,5.4.7,1.7,1.4,3.4,2,5.2.5,1.6,1.2,3.2,1.6,4.6.5,1.5,1,2.9,1.4,4.2.4,1.2.7,2.5,1,3.6.3,1.2.5,2.1.7,3s.3,1.7.4,2.5v2c0,1.2,0,2-.3,2.6-.1.5-.4,1.1-.7,1.3-.5.5-.8.5-.8.5"/>
    <path class="st0" d="M46.3,22.7s.7,1.2,1.9,3.7c.7,1.2,1.5,2.9,2.5,4.8,1,2,2.2,4.2,3.4,6.9s2.7,5.7,4.2,9c1.6,3.3,3.1,7,4.8,10.7,1.6,3.8,3.4,7.7,5.1,11.7,1.6,4,3.3,7.8,4.8,11.7.7,1.9,1.5,3.7,2.2,5.4.7,1.7,1.2,3.4,1.9,5,.5,1.6,1.1,3.2,1.6,4.6s1,2.8,1.4,4,.8,2.4,1.1,3.4c.3,1.1.5,2,.8,2.9.1.8.4,1.6.5,2.3.1.7.3,1.2.4,1.7,0,.5,0,.9.1,1.2v.8c0,.4,0,.7-.1.8-.1.3-.4.1-.4.1"/>
    <path class="st0" d="M45.9,24.2s.5,1.5,1.2,4.1c.5,1.5,1,3.2,1.6,5.2.7,2.1,1.5,4.6,2.5,7.4,1,2.9,1.9,6,3.1,9.4,1.2,3.6,2.5,7.3,3.7,11.1l4.1,11.9c1.4,4,2.7,7.9,4.1,11.8.7,1.9,1.2,3.6,1.9,5.4.5,1.7,1.2,3.3,1.8,5,.5,1.6,1.1,3,1.6,4.5.5,1.3,1,2.6,1.4,4,.4,1.2.8,2.3,1.2,3.3.4.9.7,1.9,1,2.6s.5,1.5.8,2c.1.5.4,1.1.5,1.6.1.4.3.8.5,1.1,0,.3.1.5.3.7,0,.3.1.4.3.5h0"/>
    <path class="st0" d="M45.2,25.6s.1,1.6.7,4.4c.1,1.6.5,3.3,1,5.6s.8,4.9,1.5,7.8c.5,2.9,1.4,6.4,2.2,9.9s1.8,7.4,2.9,11.5c1,4,2.2,8.1,3.4,12.2,1.2,4,2.3,7.9,3.6,11.8.5,1.9,1.2,3.6,1.8,5.3.5,1.7,1.2,3.3,1.8,4.9.5,1.6,1.1,2.9,1.6,4.2s1,2.5,1.5,3.7c.5,1.1.8,2.1,1.4,3,.4.8.8,1.7,1.2,2.4.4.7.7,1.2,1.1,1.9.3.5.5.9.8,1.2.5.7,1,1.1,1.4,1.2.3.1.5.1.8,0,.4-.1.5-.5.5-.5"/>
    <path class="st0" d="M44.1,27.1v4.6c0,1.6,0,3.6.3,5.8,0,2.4.4,5,.7,8.1s.7,6.5,1.2,10.2,1.2,7.7,1.9,11.7c.7,4,1.6,8.1,2.6,12.2.5,2,1,4,1.6,6,.5,1.9,1.1,3.8,1.6,5.7s1.1,3.6,1.6,5.3c.5,1.6,1.2,3.3,1.6,4.8.5,1.5,1.1,2.9,1.6,4.1s1.1,2.4,1.6,3.6c.5,1.1,1.1,2,1.6,2.9s1,1.6,1.5,2.3c.8,1.2,1.8,2.1,2.6,2.6.7.5,1.4.8,1.9.8s1,0,1.4-.1c.7-.3,1.1-.8,1.1-.8"/>
    <path class="st0" d="M42.8,28.5s-.3,1.7-.5,4.9c0,1.6-.3,3.6-.4,6v8.3c0,3.2.1,6.6.5,10.3.3,3.7.7,7.7,1.2,11.8.5,4,1.2,8.1,2,12.2.4,2,.8,4,1.4,6,.5,1.9,1,3.7,1.5,5.6s1.1,3.4,1.6,5.2c.5,1.6,1.2,3.2,1.8,4.6s1.2,2.8,1.8,4c.5,1.2,1.2,2.3,1.8,3.3.5.9,1.2,1.9,1.8,2.6s1.2,1.5,1.6,2c1.1,1.1,2,1.9,3,2.3.8.4,1.8.5,2.6.5s1.4-.1,1.9-.5c1-.5,1.5-.9,1.5-.9"/>
    <path class="st0" d="M41.1,29.9s-.5,1.7-1.1,5-.7,3.7-1,6.1c-.3,2.5-.5,5.3-.8,8.5-.4,6.4-.4,14,.3,22.1.4,4,.8,8.1,1.6,12.1.4,2,.8,4,1.2,5.8s.8,3.7,1.4,5.4c.5,1.7,1.1,3.4,1.6,5,.5,1.6,1.2,3,1.8,4.5.5,1.3,1.2,2.6,1.9,3.8s1.2,2.3,1.9,3.2,1.2,1.7,1.9,2.5c.7.7,1.2,1.3,1.9,1.9,1.2.9,2.5,1.6,3.7,2,2.2.7,4.2.1,5.5-.3,1.2-.5,1.9-1.2,1.9-1.2"/>
    <path class="st0" d="M39.4,31.1s-.7,1.9-1.6,5c-.5,1.7-1,3.7-1.5,6.2s-1,5.3-1.5,8.5c-.8,6.4-1.2,14-.8,22.1.1,4,.5,8.1,1.2,11.9.3,1.9.7,3.8,1.1,5.7s.8,3.6,1.4,5.3,1.1,3.3,1.6,4.9c.5,1.6,1.2,2.9,1.9,4.2s1.4,2.5,2,3.7,1.4,2.1,2.2,3c1.4,1.7,3,3.2,4.4,4.1s3,1.6,4.2,1.9c2.6.5,5.1,0,6.6-.5,1.6-.7,2.5-1.2,2.5-1.2"/>
    <path class="st0" d="M37.4,32s-.8,1.9-1.9,5c-1.2,3.3-2.7,8.3-4.1,14.7-1.2,6.4-2,13.9-1.9,22,0,4,.3,7.9.8,11.8.3,1.9.5,3.8,1,5.7s.8,3.6,1.4,5.3c.5,1.6,1.1,3.3,1.6,4.8.5,1.6,1.2,2.9,1.9,4.2.7,1.2,1.4,2.5,2.2,3.6s1.6,2,2.3,2.9c1.6,1.7,3.3,2.9,4.9,4,1.6.8,3.3,1.5,4.8,1.6,3,.5,5.7-.1,7.5-.8,1.9-.7,2.9-1.3,2.9-1.3"/>
    <path class="st0" d="M35.7,32.8s-1,1.9-2.5,5c-1.5,3.3-3.4,8.3-4.9,14.6-1.6,6.4-2.7,13.9-3,21.7,0,3.8,0,7.7.5,11.5.1,1.9.5,3.7,1,5.6.4,1.7.8,3.4,1.4,5.2.5,1.6,1.1,3.2,1.8,4.6.5,1.5,1.2,2.9,2,4.1,1.5,2.5,3.1,4.6,4.9,6.4,1.8,1.6,3.6,2.9,5.5,3.8,1.8.8,3.7,1.3,5.5,1.6,3.4.5,6.4-.1,8.5-.8s3.3-1.3,3.3-1.3"/>
    <path class="st0" d="M33.9,33.3s-1.1,1.7-2.7,5-4,8.2-5.9,14.4c-1,3.2-1.8,6.5-2.5,10.1-.7,3.6-1.1,7.4-1.2,11.3s0,7.7.4,11.4c.4,3.6,1.2,7.2,2.3,10.5,1.1,3.2,2.3,6.1,4,8.6s3.4,4.6,5.2,6.2c1.9,1.6,4,2.9,5.9,3.7s4.1,1.3,5.9,1.6c3.8.5,7.1-.1,9.4-.8,2.3-.7,3.7-1.2,3.7-1.2"/>
    <path class="st0" d="M32.1,33.5s-1.2,1.7-3.1,5-4.4,8.1-6.6,14.2c-1.1,3-2,6.4-2.9,9.9s-1.4,7.3-1.6,11-.1,7.4.1,11.1c.4,3.6,1.2,7,2.3,10.2,1.1,3.2,2.5,6,4.1,8.5,1.6,2.4,3.6,4.5,5.6,6.2,4,3.3,8.6,4.9,12.7,5.3,4.1.5,7.7,0,10.2-.7,2.6-.5,4-1.2,4-1.2"/>
  </g>
  <path class="st1" d="M133.1,20.8c2.4,0,4.3.4,6,1.1,1.7.6,3,1.9,4,3.4s1.7,3.6,2.1,6.1.8,5.7.8,9.3-.2,6.7-.8,9.3c-.4,2.5-1.1,4.6-2.1,6.1s-2.3,2.7-4,3.4-3.6,1.1-6,1.1-4.3-.4-6-1.1-3-1.9-4-3.4c-.9-1.5-1.7-3.6-2.1-6.1s-.8-5.7-.8-9.3.2-6.7.8-9.3c.4-2.5,1.1-4.6,2.1-6.1.9-1.5,2.3-2.7,4-3.4,1.7-.6,3.6-1.1,6-1.1ZM133.1,22c-2.8,0-5.1.6-6.8,1.7s-2.8,3.2-3.6,5.9-1.1,6.3-1.1,10.9.4,8.2,1.1,10.9,1.9,4.6,3.6,5.9,4,1.7,6.8,1.7,5.1-.6,6.8-1.7c1.7-1.3,2.8-3.2,3.6-5.9s1.1-6.3,1.1-10.9-.4-8.2-1.1-10.9c-.8-2.7-1.9-4.6-3.6-5.9-1.7-1.3-4-1.7-6.8-1.7Z"/>
  <path class="st1" d="M168.1,21.1c2.4,0,4.3.4,5.8,1.1s2.4,1.9,3.2,3.4c.6,1.7.9,4,.9,6.9s-.4,5.3-.9,6.9-1.7,2.7-3.2,3.4-3.4,1.1-5.8,1.1h-10.5v-1.1h10.5c2.1,0,3.8-.4,5.1-.8,1.3-.6,2.1-1.5,2.6-2.9s.9-3.6.9-6.1-.4-4.8-.9-6.1-1.5-2.5-2.6-2.9c-1.3-.6-3-.8-5.1-.8h-10.3l-.8-1.1c1.1,0,2.3-.2,3.2-.2h7.7l.2-.6ZM158.3,21.5v38.5h-1.3V21.5h1.3Z"/>
  <path class="st1" d="M193.3,21.5h14.7v1.1h-14.5c-1.1,0-2.3.4-3,1.3-.8.8-1.1,1.9-1.1,3.4v26.9c0,1.3.4,2.5,1.1,3.4.8.8,1.7,1.3,3,1.3h14.3v1.1h-14.5c-1.5,0-2.6-.6-3.6-1.7s-1.5-2.5-1.5-4v-27.2c0-1.7.6-2.9,1.5-4s2.3-1.7,3.6-1.7v.2ZM189.2,38.8h16.7v1.3h-16.7v-1.3Z"/>
  <path class="st1" d="M242.6,21.2v37.7c0,.6-.2.8-.8.8h-2.6s-.2-.2-.4-.4l-16-32.8c-.4-.6-.6-1.3-.9-1.9s-.6-1.3-.9-1.9h-1.3v37.3h-1.3V22.2c0-.6.2-.8.8-.8h2.4s.2.2.4.4l15.6,32.2c.4.8.8,1.5,1.1,2.3.4.8.8,1.5,1.1,2.3h1.3V21.4h1.3l.2-.2Z"/>
  <path class="st1" d="M288.8,21.3v1.3h-25.4v-1.3h25.4ZM276.6,21.3v38.5h-1.3V21.3h1.3Z"/>
  <path class="st1" d="M302.6,21.5h14.7v1.1h-14.5c-1.1,0-2.3.4-3,1.3-.8.8-1.1,1.9-1.1,3.4v26.9c0,1.3.4,2.5,1.1,3.4.8.8,1.7,1.3,3,1.3h14.3v1.1h-14.5c-1.5,0-2.6-.6-3.6-1.7s-1.5-2.5-1.5-4v-27.2c0-1.7.6-2.9,1.5-4s2.3-1.7,3.6-1.7v.2ZM298.3,38.8h16.7v1.3h-16.7v-1.3Z"/>
  <path class="st1" d="M338.7,20.6h3.4c.9,0,1.9,0,2.6.2.8,0,1.7.2,2.6.6l-.4,1.1c-.9,0-1.9-.4-2.6-.4h-5.8c-2.8,0-5.1.6-6.8,1.7-1.7,1.3-2.8,3.2-3.6,5.9s-1.1,6.3-1.1,10.9.4,8.2,1.1,10.9c.8,2.7,1.9,4.6,3.6,5.9s4,1.7,6.8,1.7h5.1c1.3,0,2.6-.2,4-.6l.4,1.1c-1.3.4-2.6.6-4.1.8s-3.2.2-5.3.2c-3.2,0-5.6-.6-7.5-1.9-1.9-1.3-3.2-3.4-4-6.3-.8-2.9-1.1-6.7-1.1-11.8s.4-8.8,1.1-11.8c.8-2.9,2.1-5.1,4-6.3s4.3-1.9,7.5-1.9h.2Z"/>
  <path class="st1" d="M359,21.3v38.5h-1.3V21.3h1.3ZM379.5,38.6v1.3h-20.9v-1.3h20.9ZM380.3,21.3v38.5h-1.3V21.3h1.3Z"/>
  <g>
    <path class="st2" d="M124.4,73v30.1h-4.4v-30.1h4.4Z"/>
    <path class="st2" d="M155.3,73v28.4c0,1.1-.5,1.7-1.6,1.7h-3.8c-.5,0-.9-.1-1.2-.3-.3-.2-.5-.6-.7-1l-9.9-20.3c-.3-.6-.6-1.2-.9-2s-.6-1.4-.8-2.1h-.7c0,.7.1,1.3.1,2,0,.7,0,1.4,0,2.1v21.7h-4.3v-28.4c0-1.1.6-1.7,1.7-1.7h3.6c.5,0,.9.1,1.2.3.3.2.5.6.7,1l9.5,19.8c.3.6.7,1.3,1,2.1.4.8.7,1.6,1.1,2.3h.7c0-.8-.1-1.6-.1-2.3,0-.8,0-1.5,0-2.3v-21h4.2Z"/>
    <path class="st2" d="M186.2,73v28.4c0,1.1-.5,1.7-1.6,1.7h-3.8c-.5,0-.9-.1-1.2-.3-.3-.2-.5-.6-.7-1l-9.9-20.3c-.3-.6-.6-1.2-.9-2s-.6-1.4-.8-2.1h-.7c0,.7.1,1.3.1,2,0,.7,0,1.4,0,2.1v21.7h-4.3v-28.4c0-1.1.6-1.7,1.7-1.7h3.6c.5,0,.9.1,1.2.3.3.2.5.6.7,1l9.5,19.8c.3.6.7,1.3,1,2.1.4.8.7,1.6,1.1,2.3h.7c0-.8-.1-1.6-.1-2.3,0-.8,0-1.5,0-2.3v-21h4.2Z"/>
    <path class="st2" d="M204.5,72.4c2.2,0,4.1.3,5.7.8,1.6.5,2.8,1.4,3.7,2.6s1.6,2.8,2,4.8c.4,2,.6,4.5.6,7.5s-.2,5.4-.6,7.4c-.4,2-1.1,3.6-2,4.8s-2.2,2.1-3.7,2.6c-1.6.5-3.4.8-5.7.8s-4.1-.3-5.7-.8c-1.6-.5-2.8-1.4-3.8-2.6-.9-1.2-1.6-2.8-2.1-4.8-.4-2-.7-4.5-.7-7.4s.2-5.5.7-7.5c.4-2,1.1-3.6,2.1-4.8.9-1.2,2.2-2.1,3.8-2.6,1.6-.5,3.4-.8,5.7-.8ZM204.5,76.2c-1.9,0-3.4.4-4.5,1.1-1.1.7-1.9,1.9-2.3,3.6-.5,1.7-.7,4.1-.7,7.1s.2,5.4.7,7.1c.5,1.7,1.2,2.9,2.3,3.7,1.1.7,2.6,1.1,4.5,1.1s3.4-.4,4.5-1.1,1.9-1.9,2.3-3.7c.5-1.7.7-4.1.7-7.1s-.2-5.4-.7-7.1c-.5-1.7-1.2-2.9-2.3-3.6s-2.6-1.1-4.5-1.1Z"/>
    <path class="st2" d="M245.1,73l-9,28.9c-.1.3-.3.6-.6.9-.3.2-.6.4-1,.4h-4.3c-.4,0-.8-.1-1-.4-.3-.2-.5-.5-.6-.9l-8.9-28.9h4.5l6.8,23.5c.1.6.3,1.1.4,1.6.1.5.3,1.1.4,1.6h1.2c.1-.6.2-1.1.4-1.7.1-.6.3-1.1.5-1.7l6.8-23.4h4.5Z"/>
    <path class="st2" d="M260.2,73c.4,0,.7.1,1,.3.3.2.5.5.6.9l9.5,28.9h-4.5l-7.5-24.2c-.1-.4-.2-.8-.3-1.3-.1-.5-.2-.9-.3-1.2h-1.2c-.1.4-.2.8-.3,1.2-.1.5-.2.9-.4,1.3l-7.5,24.2h-4.5l9.5-28.9c.1-.3.3-.6.6-.9.3-.2.6-.3,1-.3h4.5ZM265.6,90.3v3.6h-15.4v-3.6h15.4Z"/>
    <path class="st2" d="M293.7,73v3.8h-23.5v-3.8h23.5ZM284.1,73v30.1h-4.4v-30.1h4.4Z"/>
    <path class="st2" d="M302.7,73v30.1h-4.4v-30.1h4.4Z"/>
    <path class="st2" d="M321,72.4c2.2,0,4.1.3,5.7.8,1.6.5,2.8,1.4,3.7,2.6s1.6,2.8,2,4.8c.4,2,.6,4.5.6,7.5s-.2,5.4-.6,7.4c-.4,2-1.1,3.6-2,4.8s-2.2,2.1-3.7,2.6c-1.6.5-3.4.8-5.7.8s-4.1-.3-5.7-.8c-1.6-.5-2.8-1.4-3.8-2.6-.9-1.2-1.6-2.8-2.1-4.8-.4-2-.7-4.5-.7-7.4s.2-5.5.7-7.5c.4-2,1.1-3.6,2.1-4.8.9-1.2,2.2-2.1,3.8-2.6,1.6-.5,3.4-.8,5.7-.8ZM321,76.2c-1.9,0-3.4.4-4.5,1.1s-1.9,1.9-2.3,3.6c-.5,1.7-.7,4.1-.7,7.1s.2,5.4.7,7.1c.5,1.7,1.2,2.9,2.3,3.7s2.6,1.1,4.5,1.1,3.4-.4,4.5-1.1c1.1-.7,1.9-1.9,2.3-3.7.5-1.7.7-4.1.7-7.1s-.2-5.4-.7-7.1c-.5-1.7-1.2-2.9-2.3-3.6-1.1-.7-2.6-1.1-4.5-1.1Z"/>
    <path class="st2" d="M362.9,73v28.4c0,1.1-.5,1.7-1.6,1.7h-3.8c-.5,0-.9-.1-1.2-.3-.3-.2-.5-.6-.7-1l-9.9-20.3c-.3-.6-.6-1.2-.9-2s-.6-1.4-.8-2.1h-.7c0,.7.1,1.3.1,2,0,.7,0,1.4,0,2.1v21.7h-4.3v-28.4c0-1.1.6-1.7,1.7-1.7h3.6c.5,0,.9.1,1.2.3.3.2.5.6.7,1l9.5,19.8c.3.6.7,1.3,1,2.1s.7,1.6,1.1,2.3h.7c0-.8-.1-1.6-.1-2.3,0-.8,0-1.5,0-2.3v-21h4.2Z"/>
    <path class="st2" d="M378.9,72.4c1.5,0,3,.1,4.5.2,1.6.1,3.1.3,4.6.7l-.3,3.1c-1.3,0-2.7-.1-4.2-.1-1.6,0-3.1,0-4.5,0s-1.9,0-2.6,0c-.7,0-1.3.2-1.8.5-.5.3-.8.7-1,1.3-.2.6-.3,1.4-.3,2.4,0,1.5.3,2.6.9,3.3s1.5,1.1,2.8,1.4l6.1,1.6c2.3.6,3.9,1.6,4.8,2.9.9,1.4,1.3,3.2,1.3,5.6s-.2,3.2-.6,4.2c-.4,1.1-1,1.9-1.8,2.5-.8.6-1.9,1-3.2,1.2s-2.9.3-4.7.3-2.3,0-3.9-.1c-1.6,0-3.5-.3-5.6-.7l.3-3.2c1.7,0,3.1.1,4.2.2,1.1,0,2,0,2.8,0h2.4c1.5,0,2.6-.1,3.4-.3.8-.2,1.4-.7,1.8-1.3.3-.7.5-1.6.5-2.9s-.1-1.9-.4-2.5c-.2-.6-.6-1.1-1.2-1.4-.5-.3-1.2-.6-2.1-.8l-6.2-1.7c-2.2-.6-3.8-1.6-4.6-2.9-.9-1.4-1.3-3.2-1.3-5.5s.2-3.2.6-4.2c.4-1.1,1-1.9,1.8-2.4.8-.5,1.8-.9,3.1-1.1s2.8-.3,4.5-.3Z"/>
  </g>
</svg>