<?xml version="1.0" encoding="UTF-8"?>
<svg id="Layer_2" data-name="Layer 2" xmlns="http://www.w3.org/2000/svg" viewBox="0 0 98.22 40.62">
  <defs>
    <style>
      .cls-1 {
        fill: #405ac4;
      }

      .cls-1, .cls-2 {
        font-size: 7.34px;
      }

      .cls-1, .cls-2, .cls-3 {
        font-family: MyriadPro-Regular, 'Myriad Pro';
      }

      .cls-4 {
        letter-spacing: .02em;
      }

      .cls-5 {
        fill: none;
        stroke: #405ac4;
        stroke-miterlimit: 10;
        stroke-width: .07px;
      }

      .cls-6 {
        letter-spacing: 0em;
      }

      .cls-7 {
        letter-spacing: 0em;
      }

      .cls-8 {
        letter-spacing: 0em;
      }

      .cls-2 {
        fill: #001000;
      }

      .cls-3 {
        font-size: 12.15px;
      }

      .cls-9 {
        letter-spacing: .04em;
      }
    </style>
  </defs>
  <g id="Layer_1-2" data-name="Layer 1">
    <g>
      <path class="cls-5" d="M10.68,11.93s.55.13,1.59.15c.54,0,1.21-.02,1.98-.13.79-.11,1.7-.31,2.65-.63.96-.32,1.97-.76,2.94-1.34.94-.56,1.83-1.25,2.57-2.05.35-.38.66-.78.91-1.2.24-.4.44-.82.56-1.25.23-.8.21-1.64-.1-2.34-.31-.71-.92-1.31-1.67-1.72-.4-.22-.84-.39-1.3-.52-.48-.13-.98-.22-1.5-.27-1.07-.1-2.16-.03-3.21.15-1.07.18-2.08.48-2.98.83-.89.35-1.67.75-2.32,1.15-.64.39-1.14.77-1.53,1.1-.75.64-1.09,1.07-1.09,1.07,0,0-.46.13-1.18.5-.69.36-1.62.98-2.37,1.99-.37.51-.7,1.12-.94,1.81-.24.71-.39,1.51-.42,2.38-.03.89.06,1.86.27,2.85.22,1.03.57,2.09,1.03,3.14.47,1.09,1.06,2.17,1.73,3.21.68,1.07,1.45,2.09,2.26,3.05,1.65,1.96,3.45,3.61,5.1,4.9,1.65,1.29,3.13,2.22,4.18,2.82,1.04.6,1.65.89,1.65.89,0,0,.24-.35.79-.87.58-.54,1.53-1.25,2.86-1.78.67-.27,1.43-.49,2.25-.61.8-.12,1.63-.14,2.45-.01.78.12,1.52.37,2.15.76.59.38,1.06.9,1.31,1.51.25.6.29,1.3.13,1.97-.17.71-.55,1.4-1.05,2-.53.64-1.18,1.18-1.88,1.62-.71.45-1.46.79-2.17,1.03-1.42.47-2.66.53-3.48.49-.78-.05-1.2-.17-1.2-.17,0,0-.39.31-1.11.71-.7.39-1.73.86-2.98,1-1.21.13-2.68-.11-3.99-.95-.69-.44-1.35-1.04-1.94-1.77-.31-.38-.59-.8-.86-1.24-.28-.46-.53-.95-.76-1.47-.24-.53-.45-1.09-.64-1.66-.19-.59-.36-1.2-.5-1.82-.29-1.29-.48-2.62-.58-3.96-.1-1.37-.1-2.74-.03-4.05.07-1.33.21-2.59.4-3.75.37-2.34.9-4.24,1.31-5.53.41-1.28.7-1.99.7-1.99Z"/>
      <path class="cls-5" d="M17.64,37.84s.33.35,1.07.75c.39.21.91.43,1.55.59.67.17,1.47.28,2.38.28.94,0,1.98-.13,3.07-.41,1.1-.29,2.22-.73,3.27-1.35,1.03-.6,1.98-1.35,2.73-2.22.36-.42.68-.86.93-1.32.24-.45.43-.91.55-1.37.22-.89.17-1.8-.14-2.58-.32-.78-.9-1.44-1.61-1.93-.75-.51-1.64-.83-2.54-1.01-.95-.18-1.9-.21-2.8-.13-1.84.15-3.35.7-4.35,1.16-.99.46-1.49.81-1.49.81"/>
      <path class="cls-5" d="M16.63,37.79s.33.4,1.11.87c.41.24.96.5,1.64.71.71.21,1.58.36,2.56.39,1.02.03,2.16-.08,3.36-.36,1.21-.28,2.46-.74,3.64-1.39,1.16-.63,2.23-1.44,3.11-2.38.42-.45.79-.94,1.09-1.44.29-.49.52-.99.67-1.51.29-.97.29-1.99,0-2.86-.3-.87-.9-1.62-1.64-2.18-.78-.58-1.73-.97-2.7-1.19-1.02-.23-2.05-.28-3.02-.23-2.01.11-3.67.67-4.78,1.14-1.1.47-1.67.85-1.67.85"/>
      <path class="cls-5" d="M15.57,37.63s.32.45,1.13,1c.42.28.99.59,1.71.84.75.26,1.67.46,2.73.53,1.1.07,2.34,0,3.64-.27,1.33-.27,2.7-.73,4.02-1.4,1.3-.66,2.51-1.5,3.51-2.51.48-.49.91-1,1.27-1.55.35-.53.63-1.08.83-1.63.19-.54.31-1.09.34-1.62.03-.52-.02-1.04-.16-1.52-.26-.96-.86-1.81-1.63-2.45-.81-.67-1.8-1.12-2.83-1.39-1.08-.29-2.19-.38-3.23-.35-2.17.06-3.98.61-5.2,1.09-1.21.48-1.84.87-1.84.87"/>
      <path class="cls-5" d="M14.46,37.36s.31.51,1.13,1.14c.43.33,1.01.69,1.76.99.78.32,1.74.57,2.87.69,1.17.12,2.49.09,3.9-.14,1.44-.24,2.94-.69,4.4-1.37,1.44-.67,2.8-1.55,3.94-2.62.55-.51,1.05-1.07,1.47-1.65.41-.56.75-1.16,1-1.76.24-.58.41-1.18.48-1.77.07-.57.05-1.14-.06-1.67-.21-1.05-.79-2.02-1.56-2.74-.4-.37-.86-.69-1.34-.96-.5-.27-1.03-.49-1.58-.66-1.13-.35-2.3-.49-3.42-.5-2.32-.02-4.29.52-5.61,1-1.33.48-2.03.88-2.03.88"/>
      <path class="cls-5" d="M13.3,36.94s.08.13.24.36c.17.23.44.56.85.93.42.38,1.01.79,1.77,1.15.39.19.84.36,1.33.51.5.15,1.05.28,1.64.37.61.09,1.26.14,1.95.15.7,0,1.44-.04,2.2-.13,1.55-.2,3.18-.63,4.78-1.3,1.59-.67,3.1-1.57,4.4-2.68.63-.54,1.2-1.12,1.7-1.74.48-.6.89-1.23,1.21-1.88.31-.63.53-1.27.65-1.91.12-.62.14-1.24.07-1.82-.14-1.15-.67-2.22-1.44-3.04-.4-.42-.85-.79-1.35-1.1-.51-.32-1.05-.58-1.62-.78-1.17-.43-2.4-.63-3.58-.68-1.22-.06-2.36.04-3.38.21-1.03.17-1.92.41-2.64.64-1.44.47-2.21.88-2.21.88"/>
      <path class="cls-5" d="M12.1,36.38s.07.14.22.4c.16.26.41.63.81,1.04.41.43.98.9,1.75,1.33.4.22.85.43,1.35.61.51.19,1.08.35,1.7.48.63.13,1.31.22,2.03.25.74.04,1.52.03,2.33-.04,1.65-.14,3.42-.53,5.16-1.19,1.74-.66,3.41-1.57,4.88-2.72.71-.56,1.37-1.16,1.95-1.81.56-.63,1.05-1.3,1.44-1.99.38-.67.67-1.35.85-2.04.18-.67.26-1.33.23-1.98-.05-1.25-.52-2.44-1.27-3.36-.38-.47-.83-.89-1.33-1.25-.51-.37-1.06-.67-1.64-.92-.59-.25-1.21-.45-1.82-.59-.63-.15-1.27-.24-1.89-.3-1.28-.11-2.49-.05-3.57.09-1.1.14-2.05.36-2.82.58-1.56.44-2.4.85-2.4.85"/>
      <path class="cls-5" d="M10.89,35.67s.06.16.19.44c.14.28.37.7.74,1.16.39.48.94,1.02,1.7,1.52.39.26.84.51,1.35.73.52.23,1.1.43,1.73.6.65.17,1.35.3,2.1.37.77.08,1.59.1,2.44.07,1.75-.08,3.63-.41,5.52-1.04,1.89-.63,3.73-1.54,5.38-2.71.8-.57,1.54-1.2,2.21-1.87.65-.66,1.22-1.35,1.69-2.08.46-.7.82-1.43,1.08-2.17.25-.71.39-1.43.42-2.13.06-1.35-.33-2.66-1.04-3.69-.72-1.06-1.78-1.89-2.93-2.47-.6-.3-1.23-.54-1.86-.72-.65-.19-1.31-.32-1.95-.4-1.33-.18-2.6-.16-3.75-.06-1.16.1-2.18.3-3.01.5-1.67.41-2.58.81-2.58.81"/>
      <path class="cls-5" d="M9.67,34.8s.13.73.82,1.77c.35.53.88,1.14,1.63,1.72.38.3.83.58,1.33.85.52.27,1.1.52,1.74.73.66.21,1.38.39,2.16.5.79.12,1.65.19,2.54.19.91,0,1.86-.06,2.84-.2.99-.14,2-.36,3.02-.65,2.04-.59,4.05-1.48,5.87-2.67.89-.58,1.73-1.22,2.49-1.91.74-.68,1.4-1.41,1.96-2.17.54-.74.99-1.51,1.32-2.29.32-.76.54-1.52.63-2.28.09-.73.07-1.46-.06-2.14-.13-.67-.37-1.31-.69-1.89-.66-1.17-1.69-2.11-2.84-2.78-.6-.35-1.23-.63-1.88-.85-.66-.23-1.34-.4-2-.52-1.37-.25-2.7-.29-3.9-.23-1.22.06-2.29.23-3.18.41-1.78.37-2.76.75-2.76.75"/>
      <path class="cls-5" d="M8.47,33.78s.06.78.69,1.93c.32.58.8,1.26,1.52,1.91.37.34.8.66,1.3.97.51.31,1.09.61,1.74.86.66.26,1.4.48,2.19.64.81.17,1.69.28,2.62.32.95.04,1.94.02,2.97-.08,1.04-.11,2.12-.29,3.2-.56,2.18-.54,4.36-1.41,6.36-2.59.98-.58,1.91-1.23,2.77-1.94.83-.7,1.59-1.45,2.24-2.24.63-.77,1.17-1.58,1.59-2.4.4-.8.69-1.61.86-2.42.16-.78.2-1.56.12-2.3-.08-.72-.27-1.42-.56-2.06-.58-1.28-1.58-2.34-2.73-3.1-.59-.4-1.23-.73-1.89-.99-.67-.27-1.36-.48-2.04-.64-1.41-.32-2.79-.42-4.04-.41-1.28.01-2.4.15-3.33.3-1.88.32-2.92.69-2.92.69"/>
      <path class="cls-5" d="M7.3,32.64s0,.82.54,2.08c.28.63.72,1.38,1.41,2.1.35.37.77.74,1.26,1.09.5.36,1.07.69,1.72.99.66.31,1.4.57,2.21.78.83.22,1.73.37,2.68.46.98.09,2.01.1,3.09.04,1.09-.07,2.22-.22,3.36-.46,2.31-.48,4.65-1.32,6.83-2.49,1.07-.58,2.09-1.23,3.04-1.96.93-.71,1.77-1.48,2.52-2.3.72-.8,1.35-1.64,1.85-2.5.48-.84.85-1.69,1.09-2.55.23-.83.34-1.65.31-2.45-.02-.78-.17-1.53-.42-2.22-.5-1.38-1.45-2.55-2.58-3.42-.59-.45-1.22-.82-1.88-1.13-.67-.32-1.37-.57-2.07-.76-1.44-.4-2.86-.56-4.15-.59-1.32-.03-2.5.06-3.48.19-1.98.26-3.08.62-3.08.62"/>
      <path class="cls-5" d="M6.17,31.41s-.07.86.4,2.22c.24.68.63,1.48,1.29,2.28.34.41.74.81,1.22,1.2.49.4,1.06.77,1.7,1.11.66.35,1.4.66,2.22.91.84.26,1.76.46,2.74.59,1,.13,2.07.19,3.19.16,1.14-.03,2.32-.15,3.52-.36,2.44-.43,4.92-1.23,7.26-2.39,1.16-.58,2.26-1.23,3.3-1.97,1.01-.72,1.95-1.51,2.79-2.35.81-.82,1.52-1.69,2.1-2.59.56-.87,1.01-1.77,1.32-2.67.3-.87.47-1.74.5-2.59.03-.82-.06-1.62-.28-2.37-.42-1.47-1.33-2.75-2.44-3.71-.58-.49-1.21-.91-1.87-1.26-.68-.36-1.38-.64-2.09-.87-.72-.23-1.45-.4-2.16-.52-.72-.12-1.43-.2-2.1-.24-1.37-.08-2.59-.02-3.61.09-2.06.21-3.23.55-3.23.55"/>
      <path class="cls-5" d="M5.09,30.14s-.01.22,0,.62c.02.4.07.99.28,1.71.2.72.56,1.57,1.19,2.42.32.44.71.87,1.18,1.3.48.43,1.04.84,1.68,1.22.66.38,1.41.73,2.23,1.02.85.3,1.78.53,2.79.7,1.03.17,2.13.26,3.28.26,1.18,0,2.4-.09,3.65-.28,2.55-.38,5.17-1.16,7.65-2.32,1.23-.57,2.41-1.24,3.53-1.98,1.09-.73,2.11-1.54,3.02-2.4.88-.84,1.67-1.74,2.32-2.67.63-.9,1.14-1.83,1.51-2.77.35-.91.58-1.82.66-2.71.08-.86.02-1.71-.16-2.5-.36-1.55-1.23-2.93-2.33-3.96-.57-.53-1.2-.99-1.87-1.37-.68-.39-1.39-.71-2.11-.97-.74-.26-1.48-.46-2.2-.6-.74-.15-1.46-.24-2.15-.3-1.41-.12-2.68-.08-3.73,0-2.14.17-3.36.5-3.36.5"/>
      <path class="cls-5" d="M4.07,28.92s-.02.23-.02.65c0,.42.04,1.03.22,1.78.18.75.52,1.64,1.14,2.54.31.46.7.92,1.17,1.37.48.45,1.04.89,1.69,1.29.67.41,1.42.78,2.26,1.1.87.32,1.82.58,2.85.77,1.06.19,2.19.3,3.37.32,1.21.02,2.48-.06,3.78-.23,2.65-.36,5.38-1.13,7.98-2.29,1.29-.58,2.54-1.25,3.71-2.01,1.15-.75,2.23-1.57,3.2-2.46.94-.87,1.78-1.79,2.49-2.75.68-.93,1.24-1.89,1.65-2.87.39-.94.65-1.89.76-2.81.11-.9.08-1.78-.09-2.6-.32-1.62-1.18-3.06-2.28-4.14-.57-.56-1.21-1.04-1.89-1.45-.69-.42-1.42-.76-2.15-1.03-.75-.28-1.51-.49-2.25-.65-.76-.16-1.5-.27-2.21-.34-1.45-.14-2.75-.12-3.84-.04-2.21.15-3.47.47-3.47.47"/>
      <path class="cls-5" d="M3.11,27.84s-.02.23-.02.67c0,.43.04,1.06.22,1.83.18.77.53,1.68,1.16,2.61.32.47.72.95,1.19,1.4.49.47,1.07.92,1.73,1.33.68.42,1.46.8,2.33,1.13.89.33,1.87.6,2.93.79,1.09.2,2.25.31,3.47.33,1.25.02,2.56-.06,3.9-.24,2.73-.37,5.55-1.16,8.24-2.36,1.33-.6,2.62-1.29,3.83-2.07,1.19-.77,2.3-1.62,3.3-2.53.97-.89,1.84-1.84,2.57-2.83.7-.96,1.28-1.95,1.71-2.95.41-.96.68-1.94.79-2.88.11-.92.08-1.82-.08-2.67-.33-1.66-1.21-3.13-2.35-4.25-.59-.57-1.25-1.06-1.94-1.48-.71-.43-1.46-.77-2.21-1.05-.77-.29-1.55-.5-2.32-.67-.78-.17-1.54-.28-2.27-.35-1.49-.14-2.83-.12-3.95-.04-2.28.16-3.57.49-3.57.49"/>
      <path class="cls-5" d="M2.25,26.99s-.02.24,0,.67c.02.43.07,1.07.28,1.85.21.77.6,1.69,1.27,2.62.34.47.77.94,1.27,1.4.52.46,1.13.91,1.83,1.31.72.42,1.53.79,2.43,1.1.93.32,1.95.57,3.04.75,1.13.18,2.33.27,3.59.27,1.29,0,2.63-.11,4.01-.32,2.8-.43,5.68-1.28,8.41-2.55,1.35-.63,2.65-1.36,3.88-2.17,1.2-.8,2.31-1.68,3.31-2.62.97-.92,1.83-1.89,2.55-2.91.69-.98,1.25-1.99,1.65-3.01.39-.98.63-1.97.72-2.93.08-.93.02-1.84-.18-2.69-.39-1.67-1.35-3.14-2.56-4.24-.62-.57-1.32-1.05-2.04-1.46-.74-.42-1.52-.75-2.31-1.02-.8-.27-1.61-.48-2.4-.63-.81-.15-1.59-.25-2.34-.31-1.54-.12-2.91-.07-4.06.03-2.33.2-3.65.56-3.65.56"/>
      <path class="cls-5" d="M1.55,26.48s0,.24.05.67c.05.43.15,1.07.42,1.83.27.76.74,1.67,1.5,2.56.39.46.86.91,1.42,1.34.57.44,1.23.86,1.98,1.24.77.39,1.64.72,2.59,1,.98.28,2.05.49,3.19.62,1.17.13,2.42.17,3.72.12,1.33-.06,2.7-.21,4.1-.48,2.84-.54,5.74-1.5,8.46-2.88,1.34-.68,2.62-1.45,3.82-2.31,1.17-.84,2.25-1.76,3.2-2.74.93-.95,1.73-1.95,2.39-2.99.63-1,1.13-2.02,1.47-3.05.32-.99.5-1.98.51-2.93.02-.93-.12-1.83-.39-2.65-.53-1.65-1.62-3.06-2.93-4.1-.68-.54-1.43-.99-2.2-1.36-.79-.38-1.61-.69-2.44-.92-.84-.24-1.68-.41-2.51-.53-.84-.12-1.65-.19-2.43-.22-1.58-.06-2.99.04-4.16.18-2.37.29-3.71.69-3.71.69"/>
      <path class="cls-5" d="M1.1,26.38s.03.23.13.65c.1.42.28,1.04.65,1.76.38.73.97,1.59,1.85,2.41.46.42,1,.84,1.63,1.23.64.4,1.38.77,2.2,1.09.84.33,1.78.6,2.8.81,1.05.21,2.18.35,3.37.41,1.23.05,2.52.02,3.85-.12,1.36-.14,2.76-.38,4.17-.72,2.85-.7,5.71-1.82,8.35-3.34,1.29-.74,2.51-1.58,3.64-2.49,1.09-.89,2.09-1.85,2.95-2.86.83-.98,1.54-2,2.09-3.05.53-1.01.91-2.03,1.13-3.05.21-.98.27-1.95.17-2.87-.1-.9-.34-1.77-.71-2.55-.37-.79-.87-1.51-1.46-2.14-.6-.64-1.29-1.2-2.03-1.67-.76-.48-1.57-.88-2.41-1.19-.86-.33-1.73-.57-2.6-.75-.89-.19-1.77-.3-2.63-.37-.87-.07-1.71-.09-2.51-.07-1.62.04-3.06.21-4.24.42-2.4.41-3.73.88-3.73.88"/>
      <path class="cls-5" d="M1.04,26.72s.07.22.24.62c.17.4.46.98.96,1.65.51.68,1.27,1.46,2.32,2.17.55.37,1.18.72,1.89,1.04.73.33,1.55.62,2.45.86.93.24,1.94.43,3.03.54,1.12.12,2.31.15,3.55.1,1.27-.05,2.6-.2,3.96-.44,1.38-.25,2.78-.6,4.18-1.05,1.4-.45,2.8-1.01,4.15-1.67,1.34-.65,2.64-1.4,3.86-2.23,1.2-.82,2.31-1.71,3.31-2.68.97-.94,1.83-1.93,2.54-2.97.69-1,1.24-2.03,1.63-3.08.37-1,.6-2.01.65-2.99.05-.95-.05-1.88-.29-2.75-.25-.86-.64-1.66-1.14-2.37-.51-.72-1.13-1.37-1.83-1.92-.71-.57-1.51-1.04-2.34-1.43-.85-.4-1.75-.71-2.65-.95-.93-.24-1.86-.41-2.78-.52-.94-.11-1.86-.15-2.75-.15-.9,0-1.76.05-2.58.13-1.66.16-3.1.44-4.29.73-2.39.58-3.69,1.13-3.69,1.13"/>
      <path class="cls-5" d="M1.53,27.49s.11.21.37.57c.26.36.69.89,1.34,1.47.33.3.73.61,1.2.91.48.31,1.03.62,1.66.91.64.29,1.37.57,2.18.8.83.24,1.74.43,2.73.56,1.01.14,2.1.21,3.25.2,1.18,0,2.42-.09,3.7-.27,2.62-.36,5.38-1.1,8.08-2.25,1.35-.57,2.66-1.24,3.93-2,1.24-.75,2.42-1.58,3.5-2.49,1.05-.89,2.01-1.84,2.84-2.85.8-.97,1.47-2,1.99-3.04.5-1,.85-2.03,1.03-3.04.18-.98.2-1.95.06-2.87-.27-1.79-1.2-3.43-2.49-4.66-.67-.63-1.43-1.17-2.25-1.62-.84-.46-1.74-.83-2.67-1.12-.95-.3-1.92-.5-2.9-.64-.99-.14-1.98-.21-2.95-.23-1.97-.03-3.83.17-5.47.47-1.66.3-3.1.7-4.27,1.09-2.33.77-3.58,1.42-3.58,1.42"/>
      <path class="cls-5" d="M2.63,28.58s.17.18.52.49c.36.31.92.76,1.74,1.23.42.24.91.49,1.46.72.57.24,1.22.47,1.94.67.74.2,1.56.37,2.46.5.92.13,1.91.2,2.97.21,1.08,0,2.23-.05,3.43-.19,1.22-.14,2.48-.37,3.77-.69,2.61-.64,5.28-1.65,7.82-3.04,1.25-.69,2.45-1.46,3.57-2.31,1.1-.84,2.11-1.75,3.01-2.72.87-.94,1.63-1.94,2.25-2.97.59-.99,1.04-2.02,1.33-3.05.28-.99.4-1.99.36-2.94-.04-.93-.25-1.84-.59-2.67-.35-.83-.84-1.6-1.45-2.27-.62-.69-1.35-1.29-2.15-1.79-.82-.52-1.72-.94-2.66-1.27-.97-.34-1.97-.59-2.98-.76-1.04-.18-2.08-.27-3.11-.3-1.05-.03-2.08,0-3.08.1-4.09.36-7.45,1.52-9.7,2.49-2.23.96-3.4,1.71-3.4,1.71"/>
      <path class="cls-5" d="M4.29,29.88s.22.15.66.4c.45.26,1.15.61,2.11.96.5.18,1.06.35,1.71.51.65.16,1.38.3,2.19.4.82.1,1.72.17,2.68.18.98.01,2.03-.04,3.14-.15,2.26-.24,4.74-.77,7.27-1.67,1.27-.45,2.54-.99,3.78-1.62,1.23-.63,2.44-1.34,3.58-2.14,1.12-.78,2.17-1.64,3.13-2.58.93-.9,1.75-1.87,2.45-2.88.67-.97,1.21-1.99,1.6-3.02.37-.99.59-2,.65-2.99.05-.96-.06-1.9-.32-2.78-.26-.87-.68-1.69-1.23-2.42-.55-.74-1.24-1.4-2.01-1.96-.79-.58-1.68-1.05-2.61-1.44-.96-.4-1.98-.69-3.02-.9-1.07-.22-2.16-.34-3.24-.39-1.11-.05-2.2-.03-3.27.05-1.09.08-2.14.23-3.15.42-4.1.77-7.35,2.21-9.48,3.37-2.09,1.14-3.14,1.98-3.14,1.98"/>
      <path class="cls-5" d="M6.22,31.23s.26.12.78.32c.53.2,1.33.47,2.42.7.56.12,1.19.23,1.89.31.72.08,1.51.14,2.37.15.88.01,1.82-.02,2.83-.11,1.02-.09,2.11-.25,3.24-.48,2.29-.46,4.73-1.23,7.17-2.36,1.21-.56,2.4-1.2,3.56-1.94,1.13-.72,2.22-1.52,3.23-2.4.98-.85,1.88-1.78,2.66-2.76.76-.95,1.4-1.94,1.9-2.97.48-.99.82-2,1-3.01.17-.97.18-1.95.03-2.88-.15-.91-.46-1.79-.91-2.58-.46-.8-1.06-1.53-1.76-2.16-.72-.65-1.56-1.2-2.46-1.65-.93-.47-1.94-.83-2.98-1.11-1.07-.28-2.18-.46-3.29-.56-1.14-.1-2.29-.12-3.42-.06-2.31.11-4.52.51-6.54,1.06-2.03.56-3.83,1.26-5.37,1.99-1.53.72-2.78,1.47-3.77,2.13-.97.65-1.69,1.21-2.16,1.59-.47.38-.7.6-.7.6"/>
      <path class="cls-5" d="M7.99,32.52s.29.1.86.25c.58.15,1.45.35,2.61.49.59.07,1.26.13,2.01.15.75.02,1.58.02,2.47-.04,1.82-.11,3.92-.42,6.17-1.04,2.27-.62,4.67-1.55,7-2.83,1.15-.63,2.27-1.35,3.34-2.14,1.05-.78,2.03-1.63,2.92-2.56.87-.9,1.64-1.85,2.29-2.86.62-.97,1.12-1.98,1.47-3,.33-.99.52-1.99.54-2.97.02-.95-.12-1.9-.42-2.77-.3-.87-.76-1.69-1.34-2.42-.59-.74-1.32-1.4-2.14-1.95-.84-.57-1.78-1.04-2.77-1.42-1.02-.38-2.11-.66-3.22-.85-1.14-.19-2.3-.29-3.46-.31-1.18-.02-2.36.05-3.51.18-2.35.27-4.56.81-6.56,1.48-2,.68-3.75,1.49-5.23,2.31-1.46.81-2.65,1.62-3.57,2.33-.91.7-1.56,1.29-1.99,1.7-.43.41-.64.63-.64.63"/>
      <path class="cls-5" d="M9.14,33.61s.31.09.9.21c.6.13,1.51.29,2.7.38,1.23.1,2.77.11,4.57-.06,1.84-.18,3.94-.57,6.19-1.27,2.25-.7,4.61-1.71,6.88-3.07,1.11-.67,2.19-1.41,3.21-2.24.99-.81,1.92-1.68,2.75-2.63.8-.91,1.51-1.88,2.08-2.9.55-.97.97-1.99,1.24-3.01.26-.98.36-1.98.3-2.94-.06-.94-.28-1.86-.65-2.71-.37-.85-.9-1.64-1.55-2.33-.66-.71-1.45-1.33-2.32-1.84-.9-.53-1.88-.96-2.92-1.29-1.07-.34-2.19-.58-3.33-.73-1.17-.15-2.35-.21-3.53-.18-1.2.02-2.39.13-3.55.3-2.35.35-4.56.95-6.54,1.69-1.97.74-3.69,1.6-5.13,2.46-1.42.85-2.56,1.69-3.44,2.43-.87.72-1.49,1.33-1.89,1.75-.4.42-.6.65-.6.65"/>
      <path class="cls-5" d="M9.72,34.39s.31.08.91.2c.61.12,1.52.27,2.73.34,1.24.08,2.78.08,4.59-.12,1.84-.21,3.94-.62,6.17-1.34,2.24-.73,4.57-1.76,6.81-3.14,1.1-.68,2.16-1.43,3.15-2.27.97-.81,1.88-1.7,2.68-2.65.78-.92,1.46-1.89,2-2.9.52-.97.92-1.99,1.16-3,.23-.98.31-1.97.22-2.93-.09-.93-.33-1.85-.73-2.68-.4-.84-.95-1.62-1.62-2.3-.68-.7-1.49-1.3-2.38-1.8-.91-.52-1.91-.93-2.96-1.25-1.08-.33-2.21-.55-3.35-.68-1.17-.14-2.36-.18-3.55-.14-1.2.04-2.39.16-3.55.34-2.35.37-4.55,1-6.52,1.76-1.96.76-3.66,1.64-5.09,2.51-1.4.86-2.53,1.72-3.39,2.46-.85.73-1.46,1.34-1.85,1.77-.39.42-.58.65-.58.65"/>
      <path class="cls-5" d="M10.41,34.98s.32.08.92.18c.62.1,1.54.23,2.76.28,1.25.05,2.8.02,4.61-.22,1.84-.24,3.94-.7,6.15-1.46,2.21-.77,4.52-1.83,6.71-3.25,1.07-.69,2.1-1.46,3.07-2.31.94-.83,1.81-1.72,2.58-2.67.74-.92,1.38-1.9,1.88-2.91.48-.97.84-1.98,1.03-2.99.19-.97.22-1.96.09-2.9-.13-.92-.42-1.82-.85-2.64-.44-.82-1.02-1.58-1.72-2.24-.71-.68-1.55-1.26-2.46-1.74-.94-.5-1.96-.89-3.03-1.18-1.1-.3-2.24-.5-3.4-.61-1.18-.11-2.38-.13-3.57-.07-1.21.06-2.4.2-3.56.4-2.35.41-4.53,1.08-6.48,1.87-1.94.79-3.62,1.69-5.01,2.59-1.37.88-2.47,1.75-3.31,2.5-.83.74-1.41,1.36-1.79,1.79-.38.42-.56.66-.56.66"/>
      <path class="cls-5" d="M11.59,35.43s.33.06.95.13c.64.07,1.59.16,2.83.15,1.27,0,2.85-.11,4.67-.43,1.85-.32,3.93-.86,6.11-1.71,1.09-.43,2.19-.93,3.29-1.51,1.09-.58,2.17-1.23,3.2-1.97,1.02-.72,1.99-1.52,2.89-2.39.87-.85,1.67-1.76,2.36-2.73.66-.93,1.22-1.92,1.63-2.93.4-.97.66-1.97.77-2.96.1-.96.05-1.92-.17-2.83-.21-.9-.59-1.76-1.1-2.54-.52-.79-1.18-1.5-1.94-2.11-.78-.63-1.68-1.16-2.64-1.59-.99-.44-2.06-.78-3.17-1.03-1.14-.25-2.31-.4-3.49-.46-1.21-.06-2.42-.03-3.62.08-1.21.11-2.41.29-3.57.54-2.34.5-4.5,1.24-6.41,2.1-1.89.85-3.52,1.81-4.86,2.74-1.32.92-2.36,1.82-3.15,2.59-.77.76-1.31,1.39-1.66,1.83-.35.43-.51.67-.51.67"/>
      <path class="cls-5" d="M13.17,35.65s.34.04,1,.07c.66.03,1.65.05,2.93-.04,1.3-.09,2.9-.29,4.72-.72,1.84-.43,3.9-1.09,6.02-2.06,1.05-.48,2.11-1.04,3.16-1.68,1.03-.63,2.04-1.33,3.01-2.12.94-.77,1.83-1.6,2.63-2.5.78-.87,1.47-1.81,2.04-2.79.55-.94.99-1.93,1.28-2.93.28-.96.42-1.95.39-2.91-.05-1.85-.76-3.68-1.97-5.1-.63-.73-1.39-1.38-2.24-1.92-.88-.56-1.85-1.02-2.89-1.38-1.07-.37-2.19-.63-3.35-.8-1.19-.17-2.4-.25-3.61-.23-1.24.01-2.47.11-3.68.29-1.22.18-2.42.43-3.57.74-2.32.62-4.44,1.47-6.29,2.42-1.83.94-3.38,1.97-4.64,2.96-1.23.97-2.19,1.91-2.9,2.71-.7.78-1.17,1.44-1.48,1.89-.3.44-.44.68-.44.68"/>
      <path class="cls-5" d="M14.92,35.5s.36,0,1.04-.01c.69-.02,1.71-.08,3.01-.26,1.32-.18,2.94-.5,4.75-1.05,1.82-.55,3.83-1.34,5.87-2.44,1.01-.54,2.01-1.16,2.99-1.85.96-.68,1.89-1.44,2.76-2.26.85-.8,1.63-1.67,2.32-2.6.66-.9,1.23-1.85,1.67-2.83.42-.95.72-1.93.87-2.91.14-.95.14-1.91-.02-2.83-.16-.9-.48-1.78-.94-2.58-.47-.81-1.08-1.55-1.81-2.19-.75-.66-1.61-1.23-2.56-1.69-.98-.48-2.04-.85-3.14-1.13-1.14-.28-2.33-.46-3.54-.54-1.23-.09-2.48-.07-3.73.02-2.54.19-5.01.73-7.29,1.49-2.28.76-4.34,1.72-6.12,2.77-1.74,1.03-3.2,2.14-4.36,3.19-1.13,1.03-1.99,2.01-2.61,2.84-.61.81-1.01,1.48-1.26,1.93-.25.45-.36.7-.36.7"/>
      <path class="cls-5" d="M16.6,34.95s.37-.02,1.07-.09c.7-.07,1.74-.2,3.06-.47,2.67-.55,6.5-1.71,10.4-4.16.95-.6,1.89-1.27,2.79-2.01.88-.73,1.72-1.52,2.49-2.38.75-.84,1.42-1.73,1.99-2.67.55-.91.99-1.87,1.3-2.84.3-.94.46-1.91.47-2.86,0-.93-.13-1.85-.43-2.72-.29-.86-.75-1.68-1.33-2.42-.59-.75-1.32-1.41-2.15-1.98-.86-.59-1.82-1.07-2.85-1.46-1.06-.4-2.2-.69-3.37-.88-1.2-.2-2.44-.29-3.69-.29-1.27,0-2.55.09-3.81.27-2.56.36-5.03,1.04-7.27,1.92-2.23.88-4.22,1.96-5.91,3.1-1.65,1.11-3,2.29-4.05,3.39-1.02,1.07-1.77,2.09-2.3,2.93-.52.83-.84,1.51-1.03,1.97-.19.45-.27.7-.27.7"/>
      <path class="cls-5" d="M17.99,34.03s.38-.04,1.08-.15c.71-.11,1.76-.31,3.08-.66,1.33-.35,2.92-.87,4.68-1.63,1.74-.76,3.61-1.76,5.44-3.07.89-.64,1.77-1.34,2.6-2.12.81-.76,1.57-1.58,2.25-2.46.66-.85,1.23-1.76,1.69-2.71.44-.91.78-1.86.97-2.83.18-.93.23-1.88.13-2.79-.11-.9-.36-1.78-.77-2.6-.41-.82-.97-1.58-1.64-2.25-.69-.69-1.52-1.29-2.43-1.79-.94-.52-1.98-.93-3.08-1.24-1.13-.32-2.32-.53-3.54-.65-1.25-.12-2.52-.14-3.8-.06-1.3.07-2.59.24-3.86.48-2.57.49-5.01,1.3-7.21,2.29-2.18.99-4.09,2.15-5.69,3.36-1.56,1.18-2.81,2.4-3.76,3.54-.92,1.1-1.57,2.14-2.02,3-.43.84-.68,1.52-.82,1.98-.14.45-.2.7-.2.7"/>
      <path class="cls-5" d="M18.93,32.85s1.55-.18,4.16-.99c1.31-.41,2.88-.99,4.6-1.82,1.69-.82,3.49-1.89,5.23-3.25.84-.66,1.66-1.39,2.43-2.18.75-.77,1.44-1.61,2.04-2.5.58-.86,1.08-1.77,1.46-2.71.36-.91.61-1.85.72-2.79.1-.91.06-1.83-.13-2.72-.19-.87-.54-1.72-1.02-2.49-.49-.78-1.12-1.49-1.87-2.11-.77-.64-1.66-1.18-2.62-1.63-1-.46-2.09-.81-3.23-1.07-1.17-.26-2.39-.42-3.64-.48-1.27-.06-2.57-.02-3.86.11-1.31.13-2.61.35-3.87.64-2.56.59-4.97,1.48-7.12,2.55-2.12,1.06-3.97,2.27-5.49,3.53-1.48,1.22-2.64,2.47-3.51,3.63-.84,1.12-1.41,2.16-1.78,3.02-.36.84-.55,1.52-.66,1.97-.11.45-.14.69-.14.69"/>
      <path class="cls-5" d="M19.35,31.51s1.54-.23,4.12-1.1c1.29-.44,2.84-1.05,4.51-1.92.83-.43,1.68-.92,2.54-1.48.85-.55,1.7-1.17,2.52-1.85.81-.67,1.59-1.41,2.31-2.21.7-.78,1.35-1.61,1.9-2.5.53-.86.98-1.76,1.31-2.69.31-.9.51-1.82.56-2.74.05-.89-.05-1.79-.29-2.64-.24-.85-.64-1.66-1.16-2.39-.54-.75-1.21-1.42-2-2.01-.81-.6-1.73-1.11-2.72-1.51-1.03-.42-2.14-.73-3.3-.95-1.19-.22-2.43-.34-3.68-.36-1.28-.02-2.58.05-3.87.21-1.31.16-2.6.41-3.86.74-2.54.65-4.91,1.59-7.02,2.7-2.08,1.09-3.87,2.34-5.33,3.61-1.42,1.23-2.52,2.49-3.33,3.66-.78,1.12-1.3,2.16-1.63,3.01-.32.83-.47,1.5-.55,1.95-.08.44-.1.68-.1.68"/>
      <path class="cls-5" d="M19.27,30.12s1.52-.24,4.07-1.13c1.27-.45,2.79-1.07,4.43-1.94.81-.43,1.65-.92,2.49-1.48.83-.55,1.66-1.16,2.46-1.85.79-.67,1.54-1.4,2.24-2.19.68-.77,1.3-1.59,1.83-2.47.51-.84.93-1.73,1.23-2.64.29-.88.46-1.79.49-2.69.05-1.73-.48-3.5-1.55-4.91-.55-.72-1.23-1.38-2.02-1.94-.81-.58-1.74-1.06-2.73-1.45-1.03-.4-2.14-.69-3.29-.89-1.19-.2-2.41-.3-3.66-.31-1.27,0-2.56.08-3.84.26-1.29.18-2.57.44-3.82.77-2.5.67-4.84,1.62-6.92,2.73-1.02.55-1.98,1.14-2.86,1.75-.87.6-1.66,1.23-2.37,1.86-1.38,1.23-2.45,2.48-3.23,3.63-.75,1.11-1.24,2.13-1.55,2.97-.3.82-.44,1.48-.51,1.92-.07.44-.08.67-.08.67"/>
      <path class="cls-5" d="M18.74,28.72s1.49-.23,4-1.1c1.25-.43,2.75-1.04,4.36-1.89.8-.42,1.62-.9,2.45-1.44.82-.54,1.63-1.14,2.43-1.8.78-.65,1.53-1.36,2.22-2.14.67-.75,1.29-1.56,1.82-2.41.51-.82.94-1.69,1.24-2.59.29-.86.47-1.75.51-2.63.07-1.69-.43-3.43-1.46-4.82-.53-.71-1.2-1.36-1.96-1.91-.79-.57-1.69-1.05-2.67-1.43-1.01-.39-2.09-.68-3.22-.88-1.16-.2-2.37-.3-3.59-.31-1.25,0-2.51.08-3.77.24-1.27.17-2.53.42-3.75.75-2.46.65-4.77,1.58-6.81,2.67-2.01,1.07-3.74,2.29-5.16,3.53-1.37,1.2-2.43,2.42-3.2,3.55-.75,1.08-1.24,2.08-1.55,2.91-.3.8-.44,1.45-.51,1.88-.07.43-.09.66-.09.66"/>
      <path class="cls-5" d="M17.88,27.36s1.46-.21,3.9-1.01c1.23-.41,2.7-.97,4.29-1.78,1.57-.79,3.24-1.81,4.85-3.1.78-.63,1.53-1.31,2.23-2.06.68-.73,1.31-1.5,1.86-2.33.53-.8.97-1.64,1.3-2.52.32-.84.53-1.71.6-2.57.07-.84,0-1.68-.2-2.49-.2-.8-.55-1.56-1.03-2.26-.48-.71-1.11-1.35-1.83-1.9-.74-.57-1.6-1.05-2.53-1.44-.96-.4-2-.7-3.09-.91-1.12-.22-2.28-.33-3.47-.36-1.21-.03-2.44.04-3.66.18-1.24.15-2.47.38-3.67.68-2.42.6-4.68,1.48-6.7,2.51-1.99,1.02-3.71,2.19-5.12,3.38-1.37,1.16-2.44,2.34-3.23,3.43-.76,1.05-1.27,2.02-1.6,2.83-.32.78-.48,1.41-.56,1.83-.08.42-.11.64-.11.64"/>
      <path class="cls-5" d="M16.78,26.03s1.41-.16,3.79-.88c1.2-.36,2.64-.88,4.21-1.62,1.55-.73,3.22-1.68,4.83-2.9.78-.59,1.55-1.24,2.27-1.95.7-.69,1.35-1.44,1.93-2.23.56-.77,1.04-1.58,1.41-2.43.36-.81.62-1.66.74-2.51.12-.82.11-1.65-.03-2.45-.15-.78-.43-1.55-.85-2.25-.42-.7-.98-1.35-1.64-1.92-.68-.58-1.47-1.08-2.34-1.48-.9-.42-1.88-.74-2.91-.98-1.06-.24-2.18-.38-3.31-.44-1.16-.06-2.35-.02-3.53.09-1.2.11-2.39.31-3.56.57-2.36.53-4.58,1.33-6.58,2.3-1.97.95-3.68,2.05-5.11,3.19-1.38,1.1-2.47,2.23-3.29,3.28-.79,1.01-1.33,1.95-1.69,2.72-.35.75-.54,1.36-.64,1.78-.1.41-.14.62-.14.62"/>
      <path class="cls-5" d="M15.56,24.74s1.35-.11,3.66-.73c1.17-.31,2.57-.77,4.12-1.43,1.53-.66,3.19-1.53,4.81-2.66.79-.55,1.57-1.16,2.31-1.83.72-.65,1.4-1.36,2.01-2.12.59-.73,1.11-1.51,1.53-2.33.41-.78.72-1.6.9-2.43.18-.8.24-1.61.17-2.4-.07-.77-.29-1.53-.63-2.23-.34-.7-.82-1.36-1.41-1.93-.6-.59-1.32-1.1-2.11-1.53-.82-.44-1.73-.79-2.7-1.05-.99-.27-2.04-.45-3.12-.54-1.1-.1-2.23-.1-3.36-.03-1.15.07-2.3.23-3.43.45-2.29.45-4.46,1.16-6.42,2.04-1.94.87-3.65,1.89-5.08,2.96-1.39,1.03-2.51,2.1-3.36,3.1-.82.96-1.4,1.86-1.8,2.6-.39.72-.61,1.31-.74,1.71-.13.39-.18.6-.18.6"/>
      <path class="cls-5" d="M14.32,23.47s.32-.02.91-.1c.6-.08,1.48-.21,2.6-.47,2.26-.52,5.48-1.55,8.77-3.63.8-.51,1.58-1.07,2.34-1.69.74-.61,1.44-1.27,2.09-1.99.62-.69,1.19-1.44,1.66-2.22.46-.75.83-1.54,1.08-2.34.24-.77.38-1.57.38-2.34,0-.76-.13-1.51-.39-2.21-.26-.7-.65-1.36-1.15-1.95-.51-.6-1.14-1.13-1.86-1.58-.74-.46-1.57-.84-2.45-1.14-.92-.3-1.89-.52-2.9-.65-1.04-.14-2.1-.18-3.18-.16-1.1.03-2.2.13-3.28.31-2.21.35-4.32.97-6.24,1.76-1.91.78-3.61,1.72-5.05,2.7-1.4.96-2.54,1.96-3.43,2.9-.86.91-1.48,1.76-1.92,2.47-.42.69-.68,1.26-.84,1.64-.15.38-.22.58-.22.58"/>
      <path class="cls-5" d="M13.13,22.22s.3,0,.86-.06c.56-.05,1.4-.14,2.47-.34,2.16-.41,5.28-1.27,8.55-3.15.8-.46,1.59-.97,2.36-1.55.75-.56,1.48-1.18,2.15-1.85.65-.65,1.26-1.35,1.78-2.09.5-.71.93-1.46,1.25-2.24.3-.74.51-1.51.59-2.27.08-.74.03-1.48-.14-2.18-.17-.69-.48-1.36-.89-1.96-.42-.61-.96-1.16-1.59-1.63-.65-.49-1.39-.89-2.2-1.22-.83-.34-1.73-.59-2.67-.76-.96-.18-1.96-.27-2.97-.28-1.03-.02-2.08.04-3.11.17-2.11.25-4.15.78-6.03,1.46-1.87.69-3.55,1.53-4.98,2.43-1.4.88-2.56,1.81-3.48,2.68-.89.85-1.54,1.65-2.02,2.33-.46.66-.75,1.2-.93,1.56-.18.36-.26.56-.26.56"/>
      <path class="cls-5" d="M12.05,20.99s.28,0,.8-.02c.53-.02,1.32-.07,2.33-.22,1.02-.15,2.27-.4,3.69-.82,1.42-.43,2.98-1.02,4.58-1.85.79-.41,1.58-.87,2.35-1.4.76-.51,1.5-1.08,2.2-1.7.68-.6,1.31-1.26,1.87-1.95.54-.67,1.02-1.38,1.39-2.12.36-.71.63-1.45.78-2.19.15-.71.18-1.44.09-2.13-.18-1.35-.89-2.65-1.96-3.61-.56-.5-1.21-.93-1.93-1.28-.75-.36-1.56-.65-2.42-.85-.89-.21-1.81-.34-2.76-.4-.97-.06-1.95-.05-2.93.03-2.01.16-3.96.58-5.78,1.17-1.82.59-3.47,1.34-4.89,2.16-1.4.8-2.56,1.65-3.5,2.47-.91.79-1.6,1.54-2.1,2.18-.49.62-.81,1.13-1.02,1.48-.2.34-.29.53-.29.53"/>
      <path class="cls-5" d="M11.13,19.78s.26.02.74.02c.49,0,1.23-.01,2.18-.11.96-.1,2.15-.28,3.5-.63,1.36-.35,2.87-.86,4.44-1.59.77-.36,1.56-.78,2.33-1.25.76-.46,1.5-.98,2.21-1.55.69-.56,1.35-1.16,1.94-1.81.57-.63,1.09-1.3,1.51-2,.41-.67.74-1.38.95-2.09.21-.69.32-1.39.3-2.07-.03-1.31-.55-2.61-1.46-3.6-.47-.51-1.04-.96-1.67-1.33-.66-.39-1.39-.7-2.17-.93-.81-.25-1.66-.41-2.53-.51-.9-.1-1.82-.13-2.74-.09-1.89.07-3.76.4-5.5.9-1.76.5-3.36,1.16-4.76,1.89-1.38.72-2.54,1.5-3.49,2.25-.92.73-1.63,1.43-2.16,2.02-.51.58-.86,1.06-1.08,1.39-.22.32-.32.5-.32.5"/>
      <path class="cls-5" d="M10.37,18.59s.24.03.69.05c.46.02,1.14.04,2.02-.01.9-.05,2.02-.18,3.29-.46,1.29-.28,2.74-.71,4.26-1.34,1.5-.63,3.04-1.45,4.48-2.5.7-.51,1.36-1.06,1.98-1.66.6-.58,1.14-1.21,1.6-1.87.45-.63.82-1.3,1.09-1.98.26-.65.43-1.33.49-1.99.1-1.26-.25-2.55-1-3.55-.38-.51-.87-.97-1.43-1.36-.58-.4-1.23-.74-1.93-1-.73-.27-1.5-.47-2.3-.6-.83-.14-1.68-.2-2.54-.2-.88,0-1.76.05-2.62.16-.88.11-1.74.28-2.58.48-1.68.41-3.24.99-4.6,1.64-1.35.64-2.5,1.35-3.45,2.03-.92.67-1.64,1.32-2.19,1.87-.53.54-.9.99-1.13,1.3-.23.3-.34.47-.34.47"/>
      <path class="cls-5" d="M9.79,17.42s.22.03.63.07c.42.04,1.05.08,1.86.07.84-.02,1.88-.09,3.08-.31,1.22-.22,2.6-.57,4.05-1.11,1.45-.55,2.94-1.27,4.37-2.22.69-.46,1.36-.97,1.98-1.52.61-.54,1.17-1.12,1.66-1.73.47-.59.88-1.22,1.2-1.86.3-.62.53-1.26.64-1.9.11-.61.12-1.23.02-1.82-.1-.58-.31-1.14-.61-1.64-.31-.51-.71-.97-1.19-1.37-.5-.41-1.07-.76-1.7-1.04-.65-.29-1.35-.51-2.08-.67-.76-.16-1.54-.26-2.33-.3-.81-.04-1.64-.02-2.45.06-.83.07-1.64.2-2.43.36-1.6.34-3.09.83-4.41,1.4-1.31.57-2.44,1.2-3.37,1.83-.91.61-1.64,1.2-2.19,1.71-.54.5-.92.92-1.16,1.2-.24.28-.36.44-.36.44"/>
      <path class="cls-5" d="M9.37,16.29s.2.04.57.09c.38.05.96.12,1.71.13.77.02,1.74-.02,2.85-.18,1.14-.16,2.44-.45,3.82-.91,1.38-.47,2.82-1.11,4.21-1.95.68-.41,1.34-.87,1.96-1.38.61-.49,1.17-1.02,1.68-1.59.49-.55.92-1.13,1.27-1.74.34-.58.6-1.19.76-1.79.16-.58.22-1.18.18-1.75-.04-.56-.18-1.1-.42-1.6-.24-.5-.57-.96-.98-1.36-.42-.41-.92-.77-1.48-1.06-.57-.3-1.21-.54-1.87-.72-.69-.19-1.4-.31-2.13-.37-.75-.07-1.51-.08-2.27-.04-.77.04-1.54.13-2.28.26-1.51.27-2.93.69-4.19,1.19-1.26.5-2.35,1.07-3.26,1.63-.89.55-1.61,1.1-2.16,1.57-.54.46-.92.85-1.17,1.11-.24.26-.37.41-.37.41"/>
      <path class="cls-5" d="M9.13,15.19s.18.04.52.11c.35.06.87.14,1.56.18.71.04,1.59.04,2.63-.07,1.06-.11,2.27-.34,3.57-.74,1.31-.4,2.68-.96,4.02-1.71.66-.37,1.3-.78,1.91-1.24.6-.45,1.16-.93,1.67-1.46.49-.51.94-1.05,1.31-1.61.36-.54.64-1.11.84-1.68.19-.55.3-1.11.31-1.66,0-.53-.08-1.06-.25-1.54-.18-.48-.45-.94-.8-1.34-.35-.41-.79-.77-1.28-1.07-.51-.31-1.07-.56-1.67-.75-.62-.2-1.27-.34-1.94-.43-.69-.09-1.39-.12-2.09-.11-.72.01-1.43.08-2.13.18-1.42.2-2.76.56-3.96,1-1.2.44-2.25.94-3.13,1.45-.87.5-1.57.99-2.11,1.42-1.05.83-1.52,1.4-1.52,1.4"/>
      <path class="cls-5" d="M9.03,14.14s.16.05.46.12c.31.07.78.16,1.41.22.64.06,1.46.08,2.41.01.98-.08,2.1-.25,3.32-.59,1.22-.34,2.52-.82,3.79-1.49.63-.33,1.24-.7,1.84-1.11.58-.4,1.13-.85,1.63-1.33.49-.46.93-.96,1.31-1.48.37-.5.67-1.03.89-1.57.21-.51.35-1.04.4-1.56.05-.5,0-1-.12-1.47-.25-.92-.89-1.75-1.73-2.34-.44-.31-.94-.56-1.48-.76-.55-.21-1.14-.36-1.75-.46-.63-.11-1.27-.16-1.91-.17-.66,0-1.32.03-1.96.1-1.32.15-2.57.45-3.7.83-1.13.38-2.13.83-2.97,1.28-.83.45-1.5.9-2.03,1.28-1.02.76-1.49,1.28-1.49,1.28"/>
      <path class="cls-5" d="M9.07,13.13s.14.05.42.12c.28.07.7.17,1.27.24.58.07,1.32.12,2.19.07.9-.04,1.93-.18,3.05-.46,1.14-.28,2.34-.7,3.54-1.29,1.18-.58,2.32-1.31,3.31-2.19.48-.42.91-.87,1.29-1.35.37-.46.68-.95.91-1.44.23-.48.39-.97.47-1.45.07-.47.07-.94-.02-1.38-.17-.87-.7-1.67-1.43-2.24-.38-.3-.82-.56-1.3-.76-.49-.21-1.02-.37-1.57-.48-.57-.12-1.15-.18-1.74-.21-.6-.03-1.21,0-1.8.05-1.22.11-2.38.36-3.44.68-2.12.65-3.71,1.57-4.72,2.28-.97.68-1.44,1.16-1.44,1.16"/>
      <path class="cls-5" d="M9.24,12.16s.51.22,1.51.37c.52.08,1.19.14,1.98.12.81-.02,1.76-.13,2.78-.36,1.04-.24,2.16-.6,3.27-1.12,1.1-.51,2.17-1.16,3.12-1.95.45-.38.87-.79,1.24-1.22.36-.42.67-.86.91-1.32.23-.44.41-.89.5-1.34.09-.43.12-.87.06-1.28-.11-.81-.54-1.57-1.17-2.12-.33-.29-.72-.54-1.14-.74-.44-.21-.91-.37-1.4-.48-.51-.12-1.04-.2-1.57-.23-.55-.04-1.1-.03-1.64,0-1.11.07-2.18.28-3.16.56-1.96.56-3.46,1.38-4.41,2.02-.92.62-1.36,1.05-1.36,1.05"/>
      <path class="cls-5" d="M9.5,11.24s.45.21,1.34.37c.47.08,1.06.15,1.77.14.73,0,1.58-.08,2.51-.27.95-.2,1.96-.51,2.99-.96,1.01-.45,2-1.02,2.88-1.73.43-.34.82-.71,1.17-1.1.34-.38.64-.78.88-1.19.23-.4.41-.81.52-1.22.1-.39.15-.79.12-1.18-.06-.74-.41-1.45-.95-1.97-.28-.27-.62-.51-.99-.7-.38-.2-.8-.36-1.24-.47-.45-.12-.92-.2-1.4-.24-.49-.05-.99-.05-1.48-.03-1.01.05-1.98.22-2.87.46-1.8.48-3.18,1.21-4.06,1.78-.86.55-1.27.94-1.27.94"/>
      <path class="cls-5" d="M10.28,2.97s-.27,0-.67.15c-.19.07-.42.19-.63.38-.21.19-.42.47-.58.82-.17.38-.28.85-.33,1.4-.02.29-.03.61-.02.95.01.35.05.72.1,1.11.06.4.13.82.23,1.26.1.45.22.92.36,1.4.14.49.31,1,.49,1.52.19.53.39,1.07.62,1.61.46,1.12.99,2.26,1.56,3.38.59,1.15,1.22,2.29,1.87,3.39,1.33,2.22,2.71,4.22,3.97,5.88,1.24,1.63,2.33,2.9,3.09,3.75.75.83,1.19,1.28,1.19,1.28"/>
      <path class="cls-5" d="M10.88,2.52s-.21-.02-.52.11c-.15.06-.31.17-.46.34-.15.18-.29.44-.38.78-.05.18-.08.38-.11.6-.02.23-.03.49-.03.76,0,.29.03.6.07.93.04.35.1.71.18,1.1.08.4.18.82.29,1.26.12.45.25.92.41,1.41.16.5.33,1.01.52,1.53.19.53.4,1.08.63,1.63.46,1.13.97,2.29,1.52,3.44.56,1.18,1.16,2.34,1.77,3.47,1.24,2.28,2.5,4.35,3.64,6.07,1.12,1.69,2.09,3.02,2.77,3.92.66.87,1.06,1.35,1.06,1.35"/>
      <path class="cls-5" d="M11.59,2.09s-.16-.03-.35.08c-.1.05-.2.16-.29.31-.09.18-.15.43-.18.75-.01.18-.02.37,0,.59,0,.23.03.48.07.76.04.29.09.6.15.93.07.35.15.71.25,1.1.1.4.22.83.35,1.27.13.46.28.93.45,1.42.17.5.35,1.02.54,1.55.2.54.41,1.09.63,1.66.45,1.15.95,2.33,1.47,3.51.53,1.2,1.09,2.39,1.65,3.55,1.13,2.33,2.27,4.47,3.27,6.26.98,1.75,1.83,3.14,2.42,4.07.57.91.9,1.41.9,1.41"/>
      <path class="cls-5" d="M12.43,1.65s-.1-.03-.18.06c-.05.05-.09.15-.11.3-.02.18-.01.42.02.74.02.18.05.37.09.59.04.23.1.48.16.76.07.29.15.6.24.93.1.35.2.72.32,1.11.12.41.26.84.4,1.28.15.46.31.94.48,1.44.18.51.36,1.04.56,1.58.2.55.41,1.11.62,1.69.44,1.17.91,2.37,1.4,3.58.49,1.23,1,2.45,1.51,3.64,1.02,2.39,2,4.59,2.86,6.44.42.91.81,1.72,1.15,2.43.34.7.63,1.3.87,1.78.47.94.74,1.46.74,1.46"/>
      <path class="cls-5" d="M13.41,1.24s0,0,0,0c0,0,0,.02,0,.06.01.06.03.15.08.3.05.18.13.43.23.74.06.18.12.38.19.6.08.23.16.49.26.77.1.29.21.61.32.95.12.35.25.73.39,1.13.14.41.29.85.45,1.31.16.47.33.96.51,1.47.37,1.05.76,2.17,1.17,3.33.42,1.2.86,2.42,1.3,3.66.45,1.25.9,2.5,1.34,3.72.88,2.44,1.7,4.7,2.4,6.6.34.93.65,1.77.92,2.5.26.72.49,1.33.67,1.83.36.97.56,1.5.56,1.5"/>
      <path class="cls-5" d="M14.57.85s.07-.02.17.06c.07.06.16.16.26.31.12.18.27.44.43.77.09.18.19.39.29.61.11.24.22.5.34.79.13.3.26.62.4.97.14.36.29.75.45,1.16.16.42.32.87.49,1.34.17.48.35.98.53,1.5.37,1.07.75,2.21,1.14,3.4.4,1.22.79,2.48,1.18,3.74.39,1.28.77,2.56,1.13,3.8.72,2.49,1.36,4.8,1.87,6.75.25.95.47,1.81.66,2.56.18.73.34,1.36.46,1.87.24.99.36,1.54.36,1.54"/>
      <path class="cls-5" d="M15.9.52s.13-.02.34.08c.12.06.27.17.44.34.19.19.4.46.63.81.12.19.25.4.38.64.14.25.28.52.43.82.15.31.31.64.46,1,.16.37.33.77.5,1.19.17.43.35.89.52,1.37.18.49.36,1.01.53,1.54.37,1.1.73,2.27,1.07,3.48.36,1.25.7,2.53,1.02,3.82.32,1.31.63,2.61.9,3.88.27,1.27.52,2.5.73,3.66.21,1.15.39,2.23.55,3.21.15.97.27,1.84.37,2.6.1.74.17,1.38.22,1.9.11,1,.15,1.56.15,1.56"/>
      <path class="cls-5" d="M17.42.26s.2-.02.52.12c.17.07.38.19.62.38.25.2.53.49.82.86.31.41.64.91.97,1.52.17.32.35.67.52,1.04.18.38.36.8.53,1.23.18.45.36.92.54,1.41.18.51.35,1.03.53,1.58.35,1.12.68,2.32.98,3.56.31,1.27.58,2.58.83,3.89.25,1.33.45,2.65.63,3.94.17,1.29.31,2.53.41,3.71.1,1.16.17,2.25.21,3.24.04.97.06,1.85.06,2.62,0,.75-.01,1.39-.03,1.91-.04,1.01-.08,1.56-.08,1.56"/>
      <path class="cls-5" d="M19.12.09s.26,0,.69.16c.22.08.49.22.79.43.31.22.65.53,1,.93.37.43.75.96,1.12,1.6.39.68.77,1.47,1.13,2.36.38.93.73,1.97,1.04,3.07.33,1.15.61,2.37.85,3.64.25,1.3.45,2.63.6,3.96.15,1.35.26,2.69.32,3.99.06,1.3.08,2.56.05,3.74-.02,1.17-.08,2.26-.15,3.25-.08.98-.17,1.85-.28,2.61-.1.75-.21,1.38-.3,1.9-.19,1-.33,1.55-.33,1.55"/>
      <path class="cls-5" d="M20.96.07s.33.02.86.21c.27.1.6.26.95.49.37.24.76.57,1.16,1.01.42.45.84,1.02,1.25,1.69.42.7.82,1.53,1.19,2.44.38.96.71,2.02.99,3.16.29,1.17.52,2.42.69,3.71.18,1.31.29,2.66.34,4,.05,1.36.04,2.71-.02,4.01-.13,2.6-.46,4.99-.87,6.97-.2.97-.42,1.83-.63,2.58-.21.74-.41,1.36-.59,1.86-.34.98-.58,1.51-.58,1.51"/>
      <path class="cls-5" d="M22.89.21s.39.04,1.02.28c.64.24,1.54.74,2.42,1.65.46.48.93,1.07,1.36,1.78.45.73.86,1.58,1.22,2.53.37.98.68,2.07.92,3.23.25,1.19.42,2.46.51,3.75.1,1.32.11,2.68.05,4.02-.06,1.36-.19,2.7-.38,4-.39,2.59-1.01,4.94-1.68,6.87-.65,1.88-1.35,3.35-1.87,4.32-.5.95-.83,1.45-.83,1.45"/>
      <path class="cls-5" d="M24.81.55s.45.06,1.17.35c.72.28,1.74.83,2.71,1.82.5.51,1,1.13,1.46,1.87.47.76.89,1.64,1.24,2.61.36,1,.64,2.11.84,3.28.2,1.2.31,2.48.32,3.78.01,1.33-.07,2.67-.24,4.01-.17,1.35-.43,2.67-.75,3.95-.65,2.55-1.55,4.84-2.48,6.69-.91,1.82-1.83,3.21-2.5,4.13-.66.9-1.08,1.37-1.08,1.37"/>
      <path class="cls-5" d="M26.61,1.11s.5.09,1.31.42c.8.33,1.92.93,2.99,1.99.54.54,1.08,1.19,1.55,1.95.49.78.92,1.68,1.26,2.68.35,1.02.61,2.14.76,3.32.15,1.21.2,2.48.13,3.77-.07,1.31-.25,2.64-.52,3.95-.28,1.32-.65,2.62-1.1,3.85-.9,2.48-2.07,4.67-3.23,6.42-1.15,1.73-2.28,3.02-3.1,3.87-.81.84-1.31,1.26-1.31,1.26"/>
      <path class="cls-5" d="M28.13,1.87s.55.12,1.44.5c.88.37,2.09,1.03,3.25,2.15.58.56,1.15,1.24,1.65,2.03.51.8.95,1.72,1.29,2.73.35,1.03.59,2.15.7,3.33.12,1.2.11,2.46-.02,3.72-.13,1.29-.39,2.59-.76,3.86-.37,1.28-.85,2.53-1.4,3.71-1.11,2.38-2.52,4.44-3.88,6.06-1.36,1.62-2.67,2.79-3.61,3.56-.93.76-1.5,1.13-1.5,1.13"/>
      <path class="cls-5" d="M29.21,2.77s.6.15,1.56.58c.95.42,2.26,1.13,3.51,2.31,1.24,1.17,2.41,2.83,3.11,4.86.35,1.03.59,2.15.69,3.31.1,1.18.06,2.42-.11,3.65-.18,1.26-.5,2.51-.93,3.73-.44,1.23-.99,2.42-1.62,3.53-1.28,2.25-2.86,4.17-4.38,5.65-1.52,1.48-2.97,2.53-4,3.2-1.03.67-1.66.99-1.66.99"/>
      <path class="cls-5" d="M29.75,3.73s.64.18,1.67.65c1.02.46,2.41,1.22,3.76,2.45,1.32,1.2,2.59,2.89,3.34,4.93.38,1.02.63,2.13.74,3.28.11,1.16.07,2.37-.12,3.57-.19,1.22-.53,2.43-1,3.59-.47,1.18-1.06,2.3-1.74,3.35-1.37,2.12-3.07,3.88-4.68,5.21-1.63,1.35-3.16,2.26-4.25,2.85-1.1.59-1.76.85-1.76.85"/>
      <path class="cls-5" d="M29.7,4.6s.67.2,1.77.71c1.08.49,2.55,1.29,4.01,2.56,1.41,1.23,2.79,2.93,3.64,4.98.84,2.02,1.16,4.41.82,6.73-.35,2.37-1.35,4.69-2.7,6.63-1.39,2-3.12,3.62-4.77,4.83-1.67,1.22-3.24,2.03-4.36,2.53-1.13.51-1.8.73-1.8.73"/>
      <path class="cls-5" d="M29.11,5.25s.7.22,1.85.74c1.13.52,2.68,1.34,4.25,2.63.76.63,1.52,1.37,2.21,2.22.68.83,1.29,1.77,1.78,2.79.96,2,1.41,4.36,1.17,6.64-.24,2.3-1.17,4.55-2.46,6.41-1.34,1.91-3.04,3.43-4.66,4.54-1.66,1.13-3.22,1.85-4.34,2.3-1.13.45-1.8.64-1.8.64"/>
      <path class="cls-5" d="M28.13,5.58s.72.22,1.92.75c1.18.52,2.8,1.35,4.47,2.64.81.63,1.63,1.37,2.39,2.21.74.83,1.43,1.76,2,2.78.56,1,1,2.08,1.28,3.2.28,1.1.4,2.25.36,3.38-.09,2.25-.88,4.48-2.07,6.29-1.22,1.86-2.85,3.33-4.41,4.4-1.6,1.09-3.12,1.77-4.22,2.18-1.11.42-1.77.6-1.77.6"/>
      <path class="cls-5" d="M26.98,5.58s.74.21,1.97.71c1.22.5,2.9,1.3,4.67,2.56.86.62,1.74,1.34,2.56,2.17.81.81,1.57,1.73,2.21,2.74.63.98,1.16,2.05,1.53,3.17.36,1.09.57,2.24.61,3.37.08,2.23-.54,4.47-1.6,6.29-1.08,1.86-2.6,3.35-4.08,4.42-1.52,1.1-2.99,1.78-4.05,2.21-1.07.43-1.72.61-1.72.61"/>
      <path class="cls-5" d="M25.86,5.31s.75.18,2.01.64c1.25.45,2.99,1.19,4.84,2.38.91.58,1.83,1.27,2.71,2.08.87.79,1.69,1.68,2.41,2.67.7.96,1.31,2.02,1.76,3.12.44,1.08.74,2.22.86,3.36.24,2.23-.21,4.5-1.14,6.37-.94,1.91-2.35,3.45-3.75,4.58-1.44,1.16-2.85,1.89-3.88,2.36-1.04.47-1.67.67-1.67.67"/>
      <path class="cls-5" d="M24.97,4.89s.76.14,2.05.54c1.27.39,3.05,1.04,4.97,2.14.94.54,1.9,1.19,2.83,1.95.91.75,1.79,1.6,2.56,2.56.76.93,1.42,1.96,1.94,3.05.5,1.07.87,2.2,1.06,3.34.38,2.24.06,4.55-.76,6.49-.83,1.97-2.15,3.61-3.48,4.82-1.37,1.24-2.74,2.07-3.74,2.59-1.01.53-1.63.76-1.63.76"/>
      <path class="cls-5" d="M24.46,4.43s.76.1,2.06.43c1.28.32,3.08.88,5.03,1.88.95.49,1.94,1.09,2.89,1.81.93.7,1.83,1.52,2.64,2.44.79.9,1.49,1.9,2.04,2.98.54,1.05.94,2.18,1.17,3.32.45,2.25.21,4.6-.54,6.61-.76,2.05-2.02,3.78-3.31,5.09-1.32,1.34-2.66,2.25-3.64,2.84-.99.6-1.6.87-1.6.87"/>
      <path class="cls-5" d="M24.36,3.98s.76.07,2.05.33c1.28.26,3.06.74,5,1.66.95.45,1.93,1.01,2.87,1.69.93.67,1.83,1.45,2.63,2.34.79.87,1.48,1.86,2.03,2.91.54,1.04.94,2.16,1.18,3.3.46,2.26.24,4.65-.49,6.72-.74,2.12-1.97,3.94-3.24,5.33-1.3,1.43-2.63,2.43-3.6,3.08-.98.66-1.59.97-1.59.97"/>
      <path class="cls-5" d="M24.14,3.42s.75.02,2.02.21c1.26.19,3.02.57,4.93,1.39.94.4,1.9.91,2.83,1.54.92.62,1.81,1.36,2.6,2.21.78.84,1.47,1.79,2.02,2.83.54,1.02.95,2.13,1.19,3.27.48,2.28.28,4.71-.4,6.86-.7,2.2-1.88,4.13-3.11,5.64-1.26,1.54-2.55,2.65-3.49,3.38-.95.74-1.55,1.1-1.55,1.1"/>
      <path class="cls-5" d="M23.28,2.93s.73-.04,1.99.06c1.24.09,2.98.33,4.89,1.01.93.33,1.9.77,2.84,1.33.93.55,1.83,1.23,2.64,2.02,1.59,1.56,2.84,3.64,3.42,5.89.58,2.27.5,4.73-.06,6.94-.58,2.28-1.64,4.32-2.77,5.94-1.15,1.66-2.36,2.89-3.25,3.71-.9.82-1.46,1.24-1.46,1.24"/>
      <path class="cls-5" d="M22,2.72s.72-.1,1.97-.11c1.23,0,2.97.08,4.91.6.95.25,1.93.6,2.9,1.08.95.47,1.89,1.07,2.76,1.79,1.69,1.42,3.07,3.39,3.8,5.58.37,1.1.58,2.26.65,3.43.07,1.18-.01,2.36-.21,3.49-.41,2.32-1.31,4.44-2.31,6.16-1.02,1.75-2.13,3.08-2.95,3.97-.83.9-1.36,1.36-1.36,1.36"/>
      <path class="cls-5" d="M20.57,2.86s.72-.15,1.98-.26c1.24-.1,3-.14,5,.22.98.18,2,.45,3.02.85,1,.39,2,.91,2.93,1.56,1.82,1.27,3.38,3.11,4.29,5.22.46,1.06.77,2.19.93,3.33.16,1.15.18,2.33.07,3.46-.23,2.32-.97,4.47-1.84,6.24-.89,1.8-1.9,3.19-2.66,4.12-.76.94-1.26,1.44-1.26,1.44"/>
      <path class="cls-5" d="M19.17,3.24s.73-.19,2.02-.36c1.27-.17,3.08-.3,5.17-.06,1.02.12,2.1.33,3.18.67,1.07.33,2.14.78,3.15,1.37,1,.58,1.94,1.29,2.77,2.12.82.82,1.53,1.76,2.09,2.77,1.12,2.02,1.62,4.39,1.57,6.61-.05,2.28-.64,4.44-1.4,6.2-.78,1.81-1.71,3.21-2.41,4.17-.71.96-1.18,1.47-1.18,1.47"/>
      <path class="cls-5" d="M17.86,3.72s.74-.2,2.06-.4c1.31-.2,3.18-.37,5.37-.19,1.07.09,2.21.27,3.37.57,1.14.3,2.29.71,3.39,1.27,1.08.54,2.12,1.21,3.05,2.01.91.78,1.73,1.68,2.39,2.67,1.31,1.94,2.02,4.25,2.13,6.44.11,2.22-.36,4.35-1.02,6.09-.68,1.78-1.56,3.17-2.23,4.11-.68.95-1.13,1.45-1.13,1.45"/>
      <path class="cls-5" d="M16.72,4.16s.75-.19,2.1-.37c1.34-.18,3.27-.33,5.53-.13,1.12.1,2.31.29,3.53.59,1.2.3,2.42.72,3.61,1.27,1.16.54,2.29,1.21,3.31,2,1,.77,1.91,1.67,2.67,2.64.75.96,1.35,2.01,1.79,3.08.44,1.07.71,2.17.84,3.25.25,2.16-.1,4.25-.69,5.94-.6,1.73-1.43,3.07-2.07,3.97-.65.91-1.09,1.39-1.09,1.39"/>
      <path class="cls-5" d="M15.81,4.46s.76-.15,2.1-.27c1.35-.12,3.31-.18,5.61.11,1.15.15,2.37.38,3.63.73,1.25.35,2.52.81,3.76,1.4,1.22.58,2.41,1.29,3.5,2.11,1.07.8,2.05,1.72,2.88,2.71.82.97,1.49,2.02,2.01,3.11.5,1.06.85,2.16,1.04,3.23.37,2.11.12,4.15-.41,5.78-.53,1.65-1.31,2.92-1.92,3.77-.62.86-1.05,1.3-1.05,1.3"/>
      <path class="cls-5" d="M15.18,4.62s.74-.09,2.06-.11c1.33-.02,3.27.06,5.56.51,2.29.45,4.91,1.28,7.45,2.62,1.25.66,2.46,1.43,3.59,2.32,1.11.87,2.12,1.83,3,2.87.86,1.01,1.58,2.09,2.14,3.19.55,1.07.94,2.17,1.17,3.24.23,1.05.31,2.07.27,3.02-.04.94-.21,1.82-.44,2.6-.46,1.56-1.2,2.74-1.78,3.51-.58.78-1,1.18-1,1.18"/>
      <path class="cls-5" d="M14.86,4.66s.71-.02,1.96.09c1.28.11,3.14.38,5.34,1.03,2.23.66,4.78,1.72,7.27,3.27,1.23.76,2.43,1.64,3.55,2.61,1.1.95,2.12,1.99,3.01,3.09.87,1.07,1.61,2.19,2.19,3.33.57,1.1.98,2.21,1.25,3.27.26,1.04.37,2.04.36,2.97-.01.9-.14,1.74-.34,2.48-.4,1.45-1.08,2.53-1.62,3.22-.54.7-.93,1.03-.93,1.03"/>
      <path class="cls-5" d="M14.8,4.66s.66.06,1.82.31c.59.13,1.32.31,2.15.56.85.26,1.8.6,2.83,1.05,2.11.9,4.51,2.23,6.87,4,1.17.89,2.32,1.87,3.4,2.94,1.06,1.05,2.04,2.18,2.91,3.35.84,1.14,1.57,2.31,2.15,3.48.56,1.13.99,2.25,1.26,3.32.27,1.03.4,2.01.42,2.91.01.86-.08,1.66-.25,2.34-.33,1.33-.94,2.3-1.43,2.9-.49.6-.84.87-.84.87"/>
      <path class="cls-5" d="M14.92,4.69s.6.15,1.63.54c.53.2,1.19.47,1.94.83.77.36,1.63.82,2.57,1.38.95.57,1.98,1.25,3.03,2.04,1.07.8,2.17,1.71,3.25,2.72,1.08,1.01,2.15,2.11,3.15,3.28.99,1.15,1.91,2.37,2.72,3.61.79,1.21,1.48,2.43,2.04,3.63.27.58.51,1.16.72,1.72.2.55.38,1.09.52,1.62.14.51.24,1.01.32,1.49.07.47.12.91.14,1.34.04.82-.03,1.56-.17,2.19-.13.61-.33,1.13-.55,1.55-.21.41-.45.74-.66.99-.42.49-.74.71-.74.71"/>
      <path class="cls-5" d="M15.12,4.81s.52.24,1.41.77c.46.27,1.04.63,1.69,1.09.67.47,1.43,1.03,2.25,1.71.84.69,1.74,1.5,2.68,2.41.95.93,1.92,1.96,2.89,3.08.97,1.13,1.92,2.33,2.83,3.59.89,1.25,1.73,2.54,2.47,3.83.73,1.26,1.36,2.52,1.89,3.74.25.59.48,1.17.68,1.74.19.55.36,1.09.5,1.61.14.5.24.99.33,1.45.08.45.13.88.16,1.28.03.39.04.76.02,1.1-.01.33-.04.64-.09.93-.09.54-.24,1-.42,1.36-.17.35-.36.62-.54.81-.34.39-.61.54-.61.54"/>
      <path class="cls-5" d="M15.31,5.04s.43.32,1.18.98c.39.34.87.78,1.42,1.33.57.56,1.21,1.23,1.91,2.01.72.8,1.49,1.72,2.29,2.74.82,1.04,1.66,2.18,2.5,3.4.84,1.23,1.68,2.53,2.47,3.86.79,1.32,1.53,2.67,2.2,4.02.33.66.64,1.31.93,1.96.28.63.55,1.25.79,1.86.24.59.45,1.17.64,1.73.18.54.35,1.07.49,1.58.13.49.25.95.34,1.4.09.43.15.83.2,1.21.04.36.07.7.07,1.02,0,.3,0,.58-.03.83-.05.47-.15.86-.27,1.17-.12.28-.26.49-.4.64-.26.28-.47.37-.47.37"/>
      <path class="cls-5" d="M15.43,5.39s.34.4.94,1.17c.31.41.7.92,1.14,1.54.46.64.98,1.4,1.55,2.28.59.9,1.22,1.91,1.89,3.03.68,1.14,1.38,2.37,2.09,3.67.71,1.31,1.42,2.68,2.11,4.08.68,1.38,1.33,2.78,1.92,4.15.29.67.57,1.33.83,1.98.26.64.5,1.26.72,1.87.22.59.42,1.16.6,1.71.18.53.34,1.04.48,1.53.14.47.25.91.36,1.33.1.4.18.78.24,1.13.06.33.1.64.13.93.03.27.04.51.04.73,0,.4-.04.73-.11.97-.06.21-.15.37-.24.47-.16.18-.31.21-.31.21"/>
      <path class="cls-5" d="M15.44,5.83s.25.47.69,1.34c.23.46.52,1.04.86,1.73.35.72.75,1.55,1.2,2.5.46.98.96,2.07,1.49,3.26.54,1.21,1.11,2.52,1.7,3.89.59,1.38,1.18,2.8,1.77,4.24.58,1.42,1.14,2.84,1.67,4.23.26.68.51,1.34.75,1.99.23.63.46,1.25.67,1.85.21.58.4,1.14.58,1.67.17.52.34,1.01.48,1.47.14.45.27.87.39,1.26.11.37.21.72.29,1.04.08.3.15.58.2.83.05.24.1.45.13.64.03.18.05.33.06.47.01.12.01.23.01.32,0,.15-.03.25-.07.31-.06.09-.15.06-.15.06"/>
      <path class="cls-5" d="M15.31,6.34s.16.52.46,1.48c.16.5.35,1.14.59,1.88.24.77.53,1.68.86,2.69.33,1.04.71,2.2,1.12,3.46.41,1.27.86,2.64,1.33,4.05.47,1.42.96,2.88,1.45,4.35.49,1.44.97,2.88,1.44,4.26.23.67.46,1.33.68,1.98.22.63.43,1.23.63,1.82.2.57.39,1.11.57,1.62.18.5.34.97.5,1.41.15.42.3.82.43,1.18.13.35.25.67.36.96.1.27.2.52.29.74.08.21.15.39.22.55.06.15.11.27.16.38.04.09.08.17.11.23.05.1.08.15.11.17.03.01.02-.07.02-.07"/>
      <path class="cls-5" d="M15.05,6.89s.07.57.23,1.6c.08.54.19,1.21.33,2.01.14.82.32,1.77.54,2.84.22,1.09.47,2.3.77,3.6.3,1.32.63,2.72.99,4.17.36,1.45.76,2.93,1.17,4.41.41,1.45.83,2.88,1.26,4.26.21.67.42,1.32.63,1.95.2.61.41,1.21.61,1.77.2.55.39,1.07.58,1.57.18.48.36.92.54,1.34.17.4.33.77.49,1.11.15.32.29.61.43.88.13.25.25.47.37.66.11.18.22.33.32.46.18.23.33.38.47.45.11.06.22.06.29.04.15-.06.2-.18.2-.18"/>
      <path class="cls-5" d="M14.67,7.44s-.01.6.02,1.69c.01.57.04,1.28.09,2.11.05.86.13,1.85.24,2.95.11,1.13.26,2.37.45,3.7.19,1.35.42,2.77.69,4.24.27,1.46.58,2.95.93,4.43.17.73.35,1.45.54,2.16.18.7.38,1.39.57,2.06.19.66.39,1.29.6,1.91.2.6.4,1.17.6,1.72.2.53.4,1.03.6,1.51.19.45.39.88.58,1.27.19.38.37.72.55,1.03.17.3.35.56.51.8.31.43.61.76.89.97.24.19.48.29.68.32.19.02.35-.01.47-.07.26-.12.37-.28.37-.28"/>
      <path class="cls-5" d="M14.18,7.97s-.09.62-.19,1.77c-.05.59-.1,1.32-.13,2.18-.03.88-.05,1.9-.03,3.03.02,1.15.07,2.42.16,3.77.1,1.36.24,2.8.43,4.27.19,1.46.43,2.95.73,4.43.14.72.3,1.44.47,2.14.17.69.34,1.37.53,2.03.18.64.38,1.27.58,1.87.2.58.4,1.14.61,1.67.2.51.42,1,.63,1.45.21.43.42.84.64,1.21.21.35.42.68.63.97.2.28.4.52.6.73.37.39.75.67,1.09.84.32.15.63.21.89.2.26,0,.48-.08.65-.16.36-.17.53-.35.53-.35"/>
      <path class="cls-5" d="M13.62,8.46s-.16.64-.37,1.82c-.11.6-.23,1.35-.34,2.23-.11.9-.21,1.93-.28,3.08-.14,2.34-.15,5.12.1,8.07.12,1.46.31,2.94.56,4.39.12.71.26,1.42.42,2.11.15.68.32,1.34.5,1.99.18.63.37,1.24.57,1.82.2.57.41,1.11.63,1.62.22.49.44.96.68,1.39.23.42.46.8.7,1.15.23.34.47.64.71.91.23.26.46.48.7.68.44.36.89.61,1.3.73.78.24,1.48.08,1.92-.11.46-.2.7-.41.7-.41"/>
      <path class="cls-5" d="M13,8.88s-.23.65-.55,1.85c-.16.61-.35,1.37-.53,2.26-.18.9-.36,1.94-.51,3.1-.3,2.34-.46,5.12-.33,8.06.07,1.44.2,2.91.42,4.34.11.7.23,1.4.38,2.08.14.67.3,1.32.49,1.95.18.62.37,1.21.58,1.78.21.55.43,1.08.66,1.57.23.48.47.93.72,1.34.25.4.5.77.77,1.1.5.63,1.04,1.13,1.58,1.49.51.34,1.03.55,1.5.65.93.2,1.76,0,2.3-.22.56-.23.86-.45.86-.45"/>
      <path class="cls-5" d="M12.35,9.22s-.29.65-.71,1.86c-.43,1.23-.98,3.06-1.41,5.36-.44,2.32-.74,5.08-.71,8,.02,1.43.11,2.87.31,4.28.09.69.21,1.37.35,2.04.14.65.3,1.29.48,1.91.18.6.38,1.18.6,1.74.21.54.45,1.05.7,1.53.24.47.5.9.78,1.3.27.39.55.74.84,1.06.56.61,1.16,1.09,1.75,1.42.58.32,1.16.51,1.7.6,1.08.17,2.02-.06,2.65-.29.65-.24,1.01-.47,1.01-.47"/>
      <path class="cls-5" d="M11.69,9.48s-.35.65-.85,1.85c-.52,1.22-1.19,3.04-1.75,5.33-.56,2.3-.99,5.02-1.04,7.9-.02,1.4.04,2.82.21,4.21.08.68.19,1.35.33,2,.13.64.29,1.27.48,1.87.18.59.39,1.16.61,1.7.22.53.47,1.03.73,1.49.51.9,1.1,1.68,1.74,2.31.61.6,1.27,1.06,1.92,1.38.64.31,1.29.49,1.89.57,1.22.16,2.27-.08,2.99-.32.74-.25,1.15-.47,1.15-.47"/>
      <path class="cls-5" d="M11.04,9.64s-.4.64-.99,1.83c-.6,1.21-1.39,3-2.06,5.26-.34,1.13-.64,2.37-.87,3.69-.23,1.31-.39,2.68-.46,4.09-.06,1.38-.02,2.77.14,4.14.15,1.32.42,2.61.8,3.8.37,1.15.84,2.21,1.41,3.13.54.89,1.18,1.65,1.86,2.26.66.59,1.37,1.04,2.08,1.36.7.31,1.41.48,2.07.56,1.34.16,2.51-.07,3.31-.3.82-.24,1.28-.46,1.28-.46"/>
      <path class="cls-5" d="M10.43,9.72s-.44.63-1.11,1.8c-.67,1.18-1.56,2.94-2.33,5.16-.38,1.11-.74,2.32-1.02,3.62-.28,1.28-.48,2.63-.57,4.01-.09,1.35-.07,2.72.07,4.06.14,1.3.4,2.56.79,3.73.38,1.13.87,2.18,1.46,3.09.57.88,1.25,1.64,1.97,2.24,1.4,1.17,3.04,1.77,4.47,1.94,1.46.17,2.72-.03,3.6-.25.9-.22,1.4-.43,1.4-.43"/>
    </g>
    <text class="cls-3" transform="translate(42.45 22.02)"><tspan x="0" y="0">OPENTECH</tspan></text>
    <text class="cls-2" transform="translate(65.54 10.75)"><tspan x="0" y="0">N</tspan><tspan class="cls-4" x="4.83" y="0">E</tspan><tspan class="cls-9" x="8.56" y="0">T</tspan><tspan class="cls-8" x="12.5" y="0">WORK</tspan></text>
    <text class="cls-1" transform="translate(57.85 29.04)"><tspan x="0" y="0">inn</tspan><tspan class="cls-6" x="9.87" y="0">o</tspan><tspan class="cls-7" x="13.84" y="0">va</tspan><tspan x="20.86" y="0">tions</tspan></text>
  </g>
</svg>