<?xml version="1.0" encoding="UTF-8"?>
<svg id="Layer_2" xmlns="http://www.w3.org/2000/svg" version="1.1" viewBox="0 0 98.2 40.6">
  <!-- Generator: Adobe Illustrator 29.2.1, SVG Export Plug-In . SVG Version: 2.1.0 Build 116)  -->
  <defs>
    <style>
      .st0, .st1, .st2, .st3 {
        isolation: isolate;
      }

      .st4 {
        fill: none;
        stroke: #405ac4;
        stroke-miterlimit: 10;
        stroke-width: 0px;
      }

      .st1 {
        fill: #405ac4;
        font-size: 7.3px;
      }

      .st1, .st2, .st3 {
        font-family: MyriadPro-Regular, 'Myriad Pro';
      }

      .st2 {
        font-size: 6.5px;
      }

      .st2, .st3 {
        fill: #001000;
      }

      .st3 {
        font-size: 6.1px;
      }
    </style>
  </defs>
  <g>
    <path class="st4" d="M13.1,12.9s.4,0,1,0c.4,0,.8,0,1.3,0,.5,0,1.1-.2,1.7-.4.6-.2,1.3-.5,1.9-.9.6-.4,1.2-.8,1.7-1.3.2-.2.4-.5.6-.8.2-.3.3-.5.4-.8.2-.5.1-1.1,0-1.5-.2-.5-.6-.9-1.1-1.1-.3-.1-.5-.3-.8-.3-.3,0-.6-.1-1-.2-.7,0-1.4,0-2.1,0-.7.1-1.4.3-1.9.5-.6.2-1.1.5-1.5.8-.4.3-.7.5-1,.7-.5.4-.7.7-.7.7,0,0-.3,0-.8.3-.5.2-1.1.6-1.5,1.3-.2.3-.5.7-.6,1.2-.2.5-.3,1-.3,1.6,0,.6,0,1.2.2,1.9.1.7.4,1.4.7,2,.3.7.7,1.4,1.1,2.1.4.7.9,1.4,1.5,2,1.1,1.3,2.3,2.4,3.3,3.2,1.1.8,2,1.4,2.7,1.8.7.4,1.1.6,1.1.6,0,0,.2-.2.5-.6.4-.4,1-.8,1.9-1.2.4-.2.9-.3,1.5-.4.5,0,1.1,0,1.6,0,.5,0,1,.2,1.4.5.4.2.7.6.9,1,.2.4.2.8,0,1.3-.1.5-.4.9-.7,1.3-.3.4-.8.8-1.2,1.1-.5.3-1,.5-1.4.7-.9.3-1.7.3-2.3.3-.5,0-.8-.1-.8-.1,0,0-.3.2-.7.5-.5.3-1.1.6-1.9.7-.8,0-1.7,0-2.6-.6-.5-.3-.9-.7-1.3-1.2-.2-.2-.4-.5-.6-.8-.2-.3-.3-.6-.5-1-.2-.3-.3-.7-.4-1.1-.1-.4-.2-.8-.3-1.2-.2-.8-.3-1.7-.4-2.6,0-.9,0-1.8,0-2.6,0-.9.1-1.7.3-2.4.2-1.5.6-2.8.9-3.6.3-.8.5-1.3.5-1.3h0Z"/>
    <path class="st4" d="M17.7,29.8s.2.2.7.5c.3.1.6.3,1,.4.4.1,1,.2,1.6.2s1.3,0,2-.3c.7-.2,1.4-.5,2.1-.9.7-.4,1.3-.9,1.8-1.4.2-.3.4-.6.6-.9.2-.3.3-.6.4-.9.1-.6.1-1.2,0-1.7-.2-.5-.6-.9-1.1-1.3-.5-.3-1.1-.5-1.7-.7-.6-.1-1.2-.1-1.8,0-1.2,0-2.2.5-2.8.8-.6.3-1,.5-1,.5"/>
    <path class="st4" d="M17,29.8s.2.3.7.6c.3.2.6.3,1.1.5.5.1,1,.2,1.7.3.7,0,1.4,0,2.2-.2.8-.2,1.6-.5,2.4-.9.8-.4,1.5-.9,2-1.6.3-.3.5-.6.7-.9.2-.3.3-.6.4-1,.2-.6.2-1.3,0-1.9-.2-.6-.6-1.1-1.1-1.4-.5-.4-1.1-.6-1.8-.8-.7-.2-1.3-.2-2-.2-1.3,0-2.4.4-3.1.7-.7.3-1.1.6-1.1.6"/>
    <path class="st4" d="M16.3,29.7s.2.3.7.7c.3.2.6.4,1.1.5.5.2,1.1.3,1.8.3.7,0,1.5,0,2.4-.2.9-.2,1.8-.5,2.6-.9.8-.4,1.6-1,2.3-1.6.3-.3.6-.7.8-1,.2-.3.4-.7.5-1.1.1-.4.2-.7.2-1.1,0-.3,0-.7-.1-1-.2-.6-.6-1.2-1.1-1.6-.5-.4-1.2-.7-1.8-.9-.7-.2-1.4-.2-2.1-.2-1.4,0-2.6.4-3.4.7-.8.3-1.2.6-1.2.6"/>
    <path class="st4" d="M15.6,29.5s.2.3.7.7c.3.2.7.5,1.1.6.5.2,1.1.4,1.9.5.8,0,1.6,0,2.5,0,.9-.2,1.9-.5,2.9-.9.9-.4,1.8-1,2.6-1.7.4-.3.7-.7,1-1.1.3-.4.5-.8.7-1.1.2-.4.3-.8.3-1.2,0-.4,0-.7,0-1.1-.1-.7-.5-1.3-1-1.8-.3-.2-.6-.5-.9-.6-.3-.2-.7-.3-1-.4-.7-.2-1.5-.3-2.2-.3-1.5,0-2.8.3-3.7.7-.9.3-1.3.6-1.3.6"/>
    <path class="st4" d="M14.8,29.2s0,0,.2.2c.1.2.3.4.6.6.3.2.7.5,1.2.8.3.1.5.2.9.3.3,0,.7.2,1.1.2.4,0,.8,0,1.3,0,.5,0,.9,0,1.4,0,1-.1,2.1-.4,3.1-.8,1-.4,2-1,2.9-1.7.4-.4.8-.7,1.1-1.1.3-.4.6-.8.8-1.2.2-.4.3-.8.4-1.2,0-.4,0-.8,0-1.2,0-.8-.4-1.4-.9-2-.3-.3-.6-.5-.9-.7-.3-.2-.7-.4-1.1-.5-.8-.3-1.6-.4-2.3-.4-.8,0-1.5,0-2.2.1-.7.1-1.3.3-1.7.4-.9.3-1.4.6-1.4.6"/>
    <path class="st4" d="M14,28.9s0,0,.1.3c.1.2.3.4.5.7.3.3.6.6,1.1.9.3.1.6.3.9.4.3.1.7.2,1.1.3.4,0,.9.1,1.3.2.5,0,1,0,1.5,0,1.1,0,2.2-.3,3.4-.8s2.2-1,3.2-1.8c.5-.4.9-.8,1.3-1.2.4-.4.7-.8.9-1.3.2-.4.4-.9.6-1.3.1-.4.2-.9.2-1.3,0-.8-.3-1.6-.8-2.2-.2-.3-.5-.6-.9-.8-.3-.2-.7-.4-1.1-.6-.4-.2-.8-.3-1.2-.4-.4,0-.8-.2-1.2-.2-.8,0-1.6,0-2.3,0-.7,0-1.3.2-1.8.4-1,.3-1.6.6-1.6.6"/>
    <path class="st4" d="M13.3,28.4s0,.1.1.3c0,.2.2.5.5.8.3.3.6.7,1.1,1,.3.2.5.3.9.5.3.2.7.3,1.1.4.4.1.9.2,1.4.2.5,0,1,0,1.6,0,1.1,0,2.4-.3,3.6-.7,1.2-.4,2.4-1,3.5-1.8.5-.4,1-.8,1.4-1.2.4-.4.8-.9,1.1-1.4.3-.5.5-.9.7-1.4.2-.5.3-.9.3-1.4,0-.9-.2-1.7-.7-2.4-.5-.7-1.2-1.2-1.9-1.6-.4-.2-.8-.4-1.2-.5-.4-.1-.9-.2-1.3-.3-.9-.1-1.7-.1-2.4,0-.8,0-1.4.2-2,.3-1.1.3-1.7.5-1.7.5"/>
    <path class="st4" d="M12.5,27.8s0,.5.5,1.2c.2.3.6.7,1.1,1.1.2.2.5.4.9.6.3.2.7.3,1.1.5.4.1.9.3,1.4.3.5,0,1.1.1,1.7.1s1.2,0,1.9-.1c.6,0,1.3-.2,2-.4,1.3-.4,2.6-1,3.8-1.7.6-.4,1.1-.8,1.6-1.2.5-.4.9-.9,1.3-1.4.4-.5.6-1,.9-1.5.2-.5.4-1,.4-1.5,0-.5,0-1,0-1.4,0-.4-.2-.9-.5-1.2-.4-.8-1.1-1.4-1.9-1.8-.4-.2-.8-.4-1.2-.6-.4-.2-.9-.3-1.3-.3-.9-.2-1.8-.2-2.5-.2-.8,0-1.5.2-2.1.3-1.2.2-1.8.5-1.8.5"/>
    <path class="st4" d="M11.7,27.2s0,.5.5,1.3c.2.4.5.8,1,1.2.2.2.5.4.8.6.3.2.7.4,1.1.6.4.2.9.3,1.4.4.5.1,1.1.2,1.7.2.6,0,1.3,0,1.9,0,.7,0,1.4-.2,2.1-.4,1.4-.4,2.8-.9,4.2-1.7.6-.4,1.2-.8,1.8-1.3.5-.5,1-.9,1.5-1.5.4-.5.8-1,1-1.6.3-.5.5-1.1.6-1.6.1-.5.1-1,0-1.5,0-.5-.2-.9-.4-1.3-.4-.8-1-1.5-1.8-2-.4-.3-.8-.5-1.2-.6-.4-.2-.9-.3-1.3-.4-.9-.2-1.8-.3-2.6-.3-.8,0-1.6,0-2.2.2-1.2.2-1.9.5-1.9.5"/>
    <path class="st4" d="M10.9,26.4s0,.5.4,1.4c.2.4.5.9.9,1.4.2.2.5.5.8.7.3.2.7.5,1.1.6.4.2.9.4,1.4.5.5.1,1.1.2,1.7.3.6,0,1.3,0,2,0,.7,0,1.4-.1,2.2-.3,1.5-.3,3-.9,4.5-1.6.7-.4,1.4-.8,2-1.3.6-.5,1.2-1,1.6-1.5.5-.5.9-1.1,1.2-1.6.3-.5.6-1.1.7-1.7.2-.5.2-1.1.2-1.6,0-.5-.1-1-.3-1.4-.3-.9-.9-1.7-1.7-2.2-.4-.3-.8-.5-1.2-.7-.4-.2-.9-.4-1.4-.5-.9-.3-1.9-.4-2.7-.4-.9,0-1.6,0-2.3.1-1.3.2-2,.4-2,.4"/>
    <path class="st4" d="M10.2,25.6s0,.6.3,1.4c.2.4.4,1,.8,1.5.2.3.5.5.8.8.3.3.7.5,1.1.7.4.2.9.4,1.4.6.5.2,1.1.3,1.8.4.7,0,1.4.1,2.1.1.7,0,1.5,0,2.3-.2,1.6-.3,3.2-.8,4.7-1.6.8-.4,1.5-.8,2.2-1.3.7-.5,1.3-1,1.8-1.5.5-.5,1-1.1,1.4-1.7.4-.6.7-1.2.9-1.7.2-.6.3-1.1.3-1.7,0-.5,0-1.1-.2-1.5-.3-1-.9-1.8-1.6-2.4-.4-.3-.8-.6-1.2-.8-.4-.2-.9-.4-1.4-.6-.5-.2-.9-.3-1.4-.3-.5,0-.9-.1-1.4-.2-.9,0-1.7,0-2.4,0-1.3.1-2.1.4-2.1.4"/>
    <path class="st4" d="M9.5,24.8s0,.1,0,.4c0,.3,0,.6.2,1.1.1.5.4,1,.8,1.6.2.3.5.6.8.8.3.3.7.5,1.1.8.4.2.9.5,1.5.7.6.2,1.2.3,1.8.5.7.1,1.4.2,2.1.2s1.6,0,2.4-.2c1.7-.2,3.4-.8,5-1.5.8-.4,1.6-.8,2.3-1.3.7-.5,1.4-1,2-1.6.6-.5,1.1-1.1,1.5-1.7.4-.6.7-1.2,1-1.8.2-.6.4-1.2.4-1.8,0-.6,0-1.1-.1-1.6-.2-1-.8-1.9-1.5-2.6-.4-.3-.8-.6-1.2-.9-.4-.3-.9-.5-1.4-.6-.5-.2-1-.3-1.4-.4-.5,0-1-.2-1.4-.2-.9,0-1.7,0-2.4,0-1.4.1-2.2.3-2.2.3"/>
    <path class="st4" d="M8.8,24s0,.2,0,.4,0,.7.1,1.2c.1.5.3,1.1.7,1.7.2.3.5.6.8.9.3.3.7.6,1.1.8.4.3.9.5,1.5.7.6.2,1.2.4,1.9.5.7.1,1.4.2,2.2.2.8,0,1.6,0,2.5-.2,1.7-.2,3.5-.7,5.2-1.5.8-.4,1.7-.8,2.4-1.3.8-.5,1.5-1,2.1-1.6.6-.6,1.2-1.2,1.6-1.8.4-.6.8-1.2,1.1-1.9.3-.6.4-1.2.5-1.8,0-.6,0-1.2,0-1.7-.2-1.1-.8-2-1.5-2.7-.4-.4-.8-.7-1.2-.9-.5-.3-.9-.5-1.4-.7-.5-.2-1-.3-1.5-.4-.5-.1-1-.2-1.4-.2-.9,0-1.8,0-2.5,0-1.4,0-2.3.3-2.3.3"/>
    <path class="st4" d="M8.2,23.3s0,.2,0,.4,0,.7.1,1.2.3,1.1.8,1.7c.2.3.5.6.8.9.3.3.7.6,1.1.9.4.3,1,.5,1.5.7.6.2,1.2.4,1.9.5.7.1,1.5.2,2.3.2.8,0,1.7,0,2.5-.2,1.8-.2,3.6-.8,5.4-1.5.9-.4,1.7-.8,2.5-1.4.8-.5,1.5-1.1,2.2-1.7.6-.6,1.2-1.2,1.7-1.8.5-.6.8-1.3,1.1-1.9.3-.6.4-1.3.5-1.9,0-.6,0-1.2,0-1.7-.2-1.1-.8-2-1.5-2.8-.4-.4-.8-.7-1.3-1-.5-.3-1-.5-1.4-.7-.5-.2-1-.3-1.5-.4-.5-.1-1-.2-1.5-.2-1,0-1.8,0-2.6,0-1.5.1-2.3.3-2.3.3"/>
    <path class="st4" d="M7.6,22.7s0,.2,0,.4,0,.7.2,1.2c.1.5.4,1.1.8,1.7.2.3.5.6.8.9.3.3.7.6,1.2.9.5.3,1,.5,1.6.7.6.2,1.3.4,2,.5.7.1,1.5.2,2.3.2s1.7,0,2.6-.2c1.8-.3,3.7-.8,5.5-1.7.9-.4,1.7-.9,2.5-1.4.8-.5,1.5-1.1,2.2-1.7.6-.6,1.2-1.2,1.7-1.9.5-.6.8-1.3,1.1-2,.3-.6.4-1.3.5-1.9,0-.6,0-1.2-.1-1.8-.3-1.1-.9-2-1.7-2.8-.4-.4-.9-.7-1.3-1-.5-.3-1-.5-1.5-.7-.5-.2-1.1-.3-1.6-.4-.5,0-1-.2-1.5-.2-1,0-1.9,0-2.6,0-1.5.1-2.4.4-2.4.4"/>
    <path class="st4" d="M7.2,22.4s0,.2,0,.4,0,.7.3,1.2c.2.5.5,1.1,1,1.7.3.3.6.6.9.9.4.3.8.6,1.3.8.5.3,1.1.5,1.7.7.6.2,1.3.3,2.1.4.8,0,1.6.1,2.4,0,.9,0,1.8-.1,2.7-.3,1.9-.4,3.7-1,5.5-1.9.9-.4,1.7-.9,2.5-1.5.8-.5,1.5-1.1,2.1-1.8.6-.6,1.1-1.3,1.6-2,.4-.7.7-1.3,1-2,.2-.6.3-1.3.3-1.9,0-.6,0-1.2-.3-1.7-.3-1.1-1.1-2-1.9-2.7-.4-.4-.9-.6-1.4-.9-.5-.2-1.1-.5-1.6-.6-.5-.2-1.1-.3-1.6-.3-.5,0-1.1-.1-1.6-.1-1,0-2,0-2.7.1-1.5.2-2.4.5-2.4.5"/>
    <path class="st4" d="M6.9,22.3s0,.2,0,.4.2.7.4,1.1c.2.5.6,1,1.2,1.6.3.3.7.5,1.1.8.4.3.9.5,1.4.7.5.2,1.2.4,1.8.5.7.1,1.4.2,2.2.3.8,0,1.6,0,2.5,0,.9,0,1.8-.2,2.7-.5,1.9-.5,3.7-1.2,5.4-2.2.8-.5,1.6-1,2.4-1.6.7-.6,1.4-1.2,1.9-1.9.5-.6,1-1.3,1.4-2,.3-.7.6-1.3.7-2,.1-.6.2-1.3.1-1.9,0-.6-.2-1.2-.5-1.7-.2-.5-.6-1-1-1.4-.4-.4-.8-.8-1.3-1.1-.5-.3-1-.6-1.6-.8-.6-.2-1.1-.4-1.7-.5-.6-.1-1.2-.2-1.7-.2-.6,0-1.1,0-1.6,0-1.1,0-2,.1-2.8.3-1.6.3-2.4.6-2.4.6"/>
    <path class="st4" d="M6.8,22.6s0,.1.2.4c.1.3.3.6.6,1.1.3.4.8,1,1.5,1.4.4.2.8.5,1.2.7.5.2,1,.4,1.6.6.6.2,1.3.3,2,.4.7,0,1.5,0,2.3,0,.8,0,1.7-.1,2.6-.3.9-.2,1.8-.4,2.7-.7s1.8-.7,2.7-1.1c.9-.4,1.7-.9,2.5-1.5.8-.5,1.5-1.1,2.2-1.7.6-.6,1.2-1.3,1.7-1.9.5-.7.8-1.3,1.1-2,.2-.7.4-1.3.4-2,0-.6,0-1.2-.2-1.8-.2-.6-.4-1.1-.7-1.5-.3-.5-.7-.9-1.2-1.3-.5-.4-1-.7-1.5-.9-.6-.3-1.1-.5-1.7-.6-.6-.2-1.2-.3-1.8-.3-.6,0-1.2,0-1.8,0s-1.1,0-1.7,0c-1.1.1-2,.3-2.8.5-1.6.4-2.4.7-2.4.7"/>
    <path class="st4" d="M7.2,23.1s0,.1.2.4c.2.2.5.6.9,1,.2.2.5.4.8.6.3.2.7.4,1.1.6.4.2.9.4,1.4.5.5.2,1.1.3,1.8.4.7,0,1.4.1,2.1.1.8,0,1.6,0,2.4-.2,1.7-.2,3.5-.7,5.3-1.5.9-.4,1.7-.8,2.6-1.3.8-.5,1.6-1,2.3-1.6.7-.6,1.3-1.2,1.9-1.9.5-.6,1-1.3,1.3-2s.6-1.3.7-2c.1-.6.1-1.3,0-1.9-.2-1.2-.8-2.2-1.6-3-.4-.4-.9-.8-1.5-1.1-.5-.3-1.1-.5-1.7-.7-.6-.2-1.3-.3-1.9-.4-.6,0-1.3-.1-1.9-.2-1.3,0-2.5.1-3.6.3-1.1.2-2,.5-2.8.7-1.5.5-2.3.9-2.3.9"/>
    <path class="st4" d="M7.9,23.8s.1.1.3.3c.2.2.6.5,1.1.8.3.2.6.3,1,.5.4.2.8.3,1.3.4.5.1,1,.2,1.6.3.6,0,1.2.1,1.9.1.7,0,1.5,0,2.2-.1.8,0,1.6-.2,2.5-.5,1.7-.4,3.4-1.1,5.1-2,.8-.5,1.6-1,2.3-1.5.7-.5,1.4-1.1,2-1.8.6-.6,1.1-1.3,1.5-1.9.4-.6.7-1.3.9-2,.2-.6.3-1.3.2-1.9,0-.6-.2-1.2-.4-1.7-.2-.5-.5-1-.9-1.5-.4-.5-.9-.8-1.4-1.2-.5-.3-1.1-.6-1.7-.8-.6-.2-1.3-.4-1.9-.5-.7-.1-1.4-.2-2-.2-.7,0-1.4,0-2,0-2.7.2-4.9,1-6.3,1.6-1.5.6-2.2,1.1-2.2,1.1"/>
    <path class="st4" d="M9,24.6s.1,0,.4.3c.3.2.8.4,1.4.6.3.1.7.2,1.1.3.4.1.9.2,1.4.3.5,0,1.1.1,1.7.1.6,0,1.3,0,2,0,1.5-.2,3.1-.5,4.7-1.1.8-.3,1.7-.6,2.5-1.1.8-.4,1.6-.9,2.3-1.4.7-.5,1.4-1.1,2-1.7.6-.6,1.1-1.2,1.6-1.9.4-.6.8-1.3,1-2,.2-.6.4-1.3.4-2,0-.6,0-1.2-.2-1.8-.2-.6-.4-1.1-.8-1.6-.4-.5-.8-.9-1.3-1.3-.5-.4-1.1-.7-1.7-.9-.6-.3-1.3-.5-2-.6-.7-.1-1.4-.2-2.1-.3-.7,0-1.4,0-2.1,0-.7,0-1.4.2-2.1.3-2.7.5-4.8,1.4-6.2,2.2-1.4.7-2,1.3-2,1.3"/>
    <path class="st4" d="M10.2,25.5s.2,0,.5.2c.3.1.9.3,1.6.5.4,0,.8.2,1.2.2.5,0,1,0,1.5,0,.6,0,1.2,0,1.8,0,.7,0,1.4-.2,2.1-.3,1.5-.3,3.1-.8,4.7-1.5.8-.4,1.6-.8,2.3-1.3.7-.5,1.4-1,2.1-1.6.6-.6,1.2-1.2,1.7-1.8.5-.6.9-1.3,1.2-1.9.3-.6.5-1.3.7-2,.1-.6.1-1.3,0-1.9,0-.6-.3-1.2-.6-1.7-.3-.5-.7-1-1.1-1.4-.5-.4-1-.8-1.6-1.1-.6-.3-1.3-.5-1.9-.7-.7-.2-1.4-.3-2.1-.4-.7,0-1.5,0-2.2,0-1.5,0-2.9.3-4.3.7-1.3.4-2.5.8-3.5,1.3-1,.5-1.8,1-2.5,1.4-.6.4-1.1.8-1.4,1s-.5.4-.5.4"/>
    <path class="st4" d="M11.4,26.3s.2,0,.6.2c.4,0,.9.2,1.7.3.4,0,.8,0,1.3,0s1,0,1.6,0c1.2,0,2.6-.3,4-.7,1.5-.4,3-1,4.6-1.8.8-.4,1.5-.9,2.2-1.4.7-.5,1.3-1.1,1.9-1.7.6-.6,1.1-1.2,1.5-1.9.4-.6.7-1.3,1-2,.2-.6.3-1.3.4-1.9,0-.6,0-1.2-.3-1.8s-.5-1.1-.9-1.6c-.4-.5-.9-.9-1.4-1.3-.5-.4-1.2-.7-1.8-.9-.7-.2-1.4-.4-2.1-.6-.7-.1-1.5-.2-2.3-.2-.8,0-1.5,0-2.3.1-1.5.2-3,.5-4.3,1-1.3.4-2.4,1-3.4,1.5-1,.5-1.7,1.1-2.3,1.5-.6.5-1,.8-1.3,1.1s-.4.4-.4.4"/>
    <path class="st4" d="M12.1,27s.2,0,.6.1c.4,0,1,.2,1.8.2.8,0,1.8,0,3,0,1.2-.1,2.6-.4,4-.8s3-1.1,4.5-2c.7-.4,1.4-.9,2.1-1.5.6-.5,1.3-1.1,1.8-1.7.5-.6,1-1.2,1.4-1.9.4-.6.6-1.3.8-2,.2-.6.2-1.3.2-1.9,0-.6-.2-1.2-.4-1.8-.2-.6-.6-1.1-1-1.5-.4-.5-.9-.9-1.5-1.2-.6-.3-1.2-.6-1.9-.8-.7-.2-1.4-.4-2.2-.5-.8,0-1.5-.1-2.3-.1-.8,0-1.6,0-2.3.2-1.5.2-3,.6-4.3,1.1-1.3.5-2.4,1-3.3,1.6-.9.6-1.7,1.1-2.2,1.6-.6.5-1,.9-1.2,1.1-.3.3-.4.4-.4.4"/>
    <path class="st4" d="M12.5,27.6s.2,0,.6.1c.4,0,1,.2,1.8.2.8,0,1.8,0,3,0,1.2-.1,2.6-.4,4-.9,1.5-.5,3-1.1,4.4-2,.7-.4,1.4-.9,2.1-1.5.6-.5,1.2-1.1,1.7-1.7.5-.6,1-1.2,1.3-1.9.3-.6.6-1.3.8-2,.2-.6.2-1.3.1-1.9,0-.6-.2-1.2-.5-1.7-.3-.5-.6-1.1-1.1-1.5-.4-.5-1-.8-1.6-1.2-.6-.3-1.2-.6-1.9-.8-.7-.2-1.4-.4-2.2-.4-.8,0-1.5-.1-2.3,0-.8,0-1.6.1-2.3.2-1.5.2-3,.7-4.3,1.1-1.3.5-2.4,1.1-3.3,1.6-.9.6-1.7,1.1-2.2,1.6-.6.5-1,.9-1.2,1.2-.3.3-.4.4-.4.4"/>
    <path class="st4" d="M12.9,27.9s.2,0,.6.1c.4,0,1,.2,1.8.2.8,0,1.8,0,3-.1,1.2-.2,2.6-.5,4-1,1.4-.5,2.9-1.2,4.4-2.1.7-.5,1.4-1,2-1.5.6-.5,1.2-1.1,1.7-1.7.5-.6.9-1.2,1.2-1.9.3-.6.5-1.3.7-2,.1-.6.1-1.3,0-1.9,0-.6-.3-1.2-.6-1.7-.3-.5-.7-1-1.1-1.5-.5-.4-1-.8-1.6-1.1-.6-.3-1.3-.6-2-.8-.7-.2-1.5-.3-2.2-.4-.8,0-1.6,0-2.3,0-.8,0-1.6.1-2.3.3-1.5.3-3,.7-4.2,1.2-1.3.5-2.4,1.1-3.3,1.7-.9.6-1.6,1.1-2.2,1.6-.5.5-.9.9-1.2,1.2-.2.3-.4.4-.4.4"/>
    <path class="st4" d="M13.7,28.2s.2,0,.6,0c.4,0,1,.1,1.8,0,.8,0,1.9,0,3-.3,1.2-.2,2.6-.6,4-1.1.7-.3,1.4-.6,2.1-1,.7-.4,1.4-.8,2.1-1.3.7-.5,1.3-1,1.9-1.6.6-.6,1.1-1.1,1.5-1.8.4-.6.8-1.3,1.1-1.9.3-.6.4-1.3.5-1.9,0-.6,0-1.3-.1-1.8-.1-.6-.4-1.1-.7-1.7-.3-.5-.8-1-1.3-1.4-.5-.4-1.1-.8-1.7-1-.6-.3-1.3-.5-2.1-.7-.7-.2-1.5-.3-2.3-.3-.8,0-1.6,0-2.4,0-.8,0-1.6.2-2.3.4-1.5.3-2.9.8-4.2,1.4-1.2.6-2.3,1.2-3.2,1.8-.9.6-1.5,1.2-2.1,1.7-.5.5-.9.9-1.1,1.2-.2.3-.3.4-.3.4"/>
    <path class="st4" d="M14.7,28.4s.2,0,.7,0,1.1,0,1.9,0c.8,0,1.9-.2,3.1-.5,1.2-.3,2.5-.7,3.9-1.3.7-.3,1.4-.7,2.1-1.1.7-.4,1.3-.9,2-1.4.6-.5,1.2-1,1.7-1.6.5-.6,1-1.2,1.3-1.8.4-.6.6-1.3.8-1.9.2-.6.3-1.3.3-1.9,0-1.2-.5-2.4-1.3-3.3-.4-.5-.9-.9-1.5-1.3-.6-.4-1.2-.7-1.9-.9-.7-.2-1.4-.4-2.2-.5-.8-.1-1.6-.2-2.4-.2-.8,0-1.6,0-2.4.2-.8.1-1.6.3-2.3.5-1.5.4-2.9,1-4.1,1.6-1.2.6-2.2,1.3-3,1.9-.8.6-1.4,1.2-1.9,1.8-.5.5-.8.9-1,1.2-.2.3-.3.4-.3.4"/>
    <path class="st4" d="M15.9,28.3s.2,0,.7,0c.5,0,1.1,0,2-.2.9-.1,1.9-.3,3.1-.7,1.2-.4,2.5-.9,3.8-1.6.7-.4,1.3-.8,2-1.2.6-.4,1.2-.9,1.8-1.5.6-.5,1.1-1.1,1.5-1.7.4-.6.8-1.2,1.1-1.8.3-.6.5-1.3.6-1.9,0-.6,0-1.2,0-1.8-.1-.6-.3-1.2-.6-1.7-.3-.5-.7-1-1.2-1.4-.5-.4-1.1-.8-1.7-1.1-.6-.3-1.3-.6-2-.7-.7-.2-1.5-.3-2.3-.4-.8,0-1.6,0-2.4,0-1.7.1-3.3.5-4.8,1-1.5.5-2.8,1.1-4,1.8-1.1.7-2.1,1.4-2.8,2.1-.7.7-1.3,1.3-1.7,1.9-.4.5-.7,1-.8,1.3s-.2.5-.2.5"/>
    <path class="st4" d="M17,27.9s.2,0,.7,0c.5,0,1.1-.1,2-.3,1.7-.4,4.2-1.1,6.8-2.7.6-.4,1.2-.8,1.8-1.3.6-.5,1.1-1,1.6-1.6.5-.5.9-1.1,1.3-1.7.4-.6.6-1.2.8-1.9.2-.6.3-1.2.3-1.9,0-.6,0-1.2-.3-1.8-.2-.6-.5-1.1-.9-1.6-.4-.5-.9-.9-1.4-1.3-.6-.4-1.2-.7-1.9-1-.7-.3-1.4-.5-2.2-.6-.8-.1-1.6-.2-2.4-.2s-1.7,0-2.5.2c-1.7.2-3.3.7-4.7,1.3-1.5.6-2.8,1.3-3.9,2-1.1.7-2,1.5-2.6,2.2-.7.7-1.2,1.4-1.5,1.9-.3.5-.5,1-.7,1.3-.1.3-.2.5-.2.5"/>
    <path class="st4" d="M17.9,27.3s.2,0,.7,0c.5,0,1.1-.2,2-.4.9-.2,1.9-.6,3.1-1.1,1.1-.5,2.4-1.1,3.5-2,.6-.4,1.2-.9,1.7-1.4.5-.5,1-1,1.5-1.6.4-.6.8-1.1,1.1-1.8.3-.6.5-1.2.6-1.8.1-.6.2-1.2,0-1.8,0-.6-.2-1.2-.5-1.7s-.6-1-1.1-1.5c-.5-.5-1-.8-1.6-1.2-.6-.3-1.3-.6-2-.8-.7-.2-1.5-.3-2.3-.4-.8,0-1.6,0-2.5,0-.8,0-1.7.2-2.5.3-1.7.3-3.3.8-4.7,1.5-1.4.6-2.7,1.4-3.7,2.2-1,.8-1.8,1.6-2.5,2.3-.6.7-1,1.4-1.3,2-.3.5-.4,1-.5,1.3,0,.3-.1.5-.1.5"/>
    <path class="st4" d="M18.5,26.6s1-.1,2.7-.6c.9-.3,1.9-.6,3-1.2,1.1-.5,2.3-1.2,3.4-2.1.5-.4,1.1-.9,1.6-1.4.5-.5.9-1.1,1.3-1.6.4-.6.7-1.2,1-1.8.2-.6.4-1.2.5-1.8,0-.6,0-1.2,0-1.8-.1-.6-.4-1.1-.7-1.6-.3-.5-.7-1-1.2-1.4-.5-.4-1.1-.8-1.7-1.1-.7-.3-1.4-.5-2.1-.7-.8-.2-1.6-.3-2.4-.3-.8,0-1.7,0-2.5,0-.9,0-1.7.2-2.5.4-1.7.4-3.2,1-4.6,1.7-1.4.7-2.6,1.5-3.6,2.3-1,.8-1.7,1.6-2.3,2.4-.5.7-.9,1.4-1.2,2-.2.5-.4,1-.4,1.3,0,.3,0,.5,0,.5"/>
    <path class="st4" d="M18.8,25.7s1-.2,2.7-.7c.8-.3,1.9-.7,2.9-1.3.5-.3,1.1-.6,1.7-1,.6-.4,1.1-.8,1.6-1.2.5-.4,1-.9,1.5-1.4.5-.5.9-1.1,1.2-1.6.3-.6.6-1.1.9-1.8.2-.6.3-1.2.4-1.8,0-.6,0-1.2-.2-1.7s-.4-1.1-.8-1.6c-.4-.5-.8-.9-1.3-1.3-.5-.4-1.1-.7-1.8-1-.7-.3-1.4-.5-2.2-.6-.8-.1-1.6-.2-2.4-.2-.8,0-1.7,0-2.5.1-.9.1-1.7.3-2.5.5-1.7.4-3.2,1-4.6,1.8-1.4.7-2.5,1.5-3.5,2.4-.9.8-1.6,1.6-2.2,2.4-.5.7-.8,1.4-1.1,2-.2.5-.3,1-.4,1.3,0,.3,0,.4,0,.4"/>
    <path class="st4" d="M18.7,24.8s1-.2,2.7-.7c.8-.3,1.8-.7,2.9-1.3.5-.3,1.1-.6,1.6-1,.5-.4,1.1-.8,1.6-1.2.5-.4,1-.9,1.5-1.4.4-.5.8-1,1.2-1.6.3-.5.6-1.1.8-1.7.2-.6.3-1.2.3-1.8,0-1.1-.3-2.3-1-3.2-.4-.5-.8-.9-1.3-1.3-.5-.4-1.1-.7-1.8-.9-.7-.3-1.4-.5-2.1-.6-.8-.1-1.6-.2-2.4-.2-.8,0-1.7,0-2.5.2-.8.1-1.7.3-2.5.5-1.6.4-3.2,1.1-4.5,1.8-.7.4-1.3.7-1.9,1.1-.6.4-1.1.8-1.5,1.2-.9.8-1.6,1.6-2.1,2.4-.5.7-.8,1.4-1,1.9-.2.5-.3,1-.3,1.3,0,.3,0,.4,0,.4"/>
    <path class="st4" d="M18.4,23.9s1-.2,2.6-.7c.8-.3,1.8-.7,2.8-1.2.5-.3,1.1-.6,1.6-.9.5-.4,1.1-.7,1.6-1.2.5-.4,1-.9,1.4-1.4.4-.5.8-1,1.2-1.6.3-.5.6-1.1.8-1.7.2-.6.3-1.1.3-1.7,0-1.1-.3-2.2-1-3.1-.3-.5-.8-.9-1.3-1.2-.5-.4-1.1-.7-1.7-.9-.7-.3-1.4-.4-2.1-.6-.8-.1-1.5-.2-2.3-.2-.8,0-1.6,0-2.5.2-.8.1-1.7.3-2.4.5-1.6.4-3.1,1-4.4,1.7-1.3.7-2.4,1.5-3.4,2.3-.9.8-1.6,1.6-2.1,2.3-.5.7-.8,1.4-1,1.9-.2.5-.3.9-.3,1.2,0,.3,0,.4,0,.4"/>
    <path class="st4" d="M17.8,23s1-.1,2.5-.7c.8-.3,1.8-.6,2.8-1.2,1-.5,2.1-1.2,3.2-2,.5-.4,1-.9,1.5-1.3.4-.5.9-1,1.2-1.5.3-.5.6-1.1.8-1.6.2-.5.3-1.1.4-1.7,0-.5,0-1.1-.1-1.6-.1-.5-.4-1-.7-1.5-.3-.5-.7-.9-1.2-1.2-.5-.4-1-.7-1.7-.9-.6-.3-1.3-.5-2-.6-.7-.1-1.5-.2-2.3-.2-.8,0-1.6,0-2.4.1-.8,0-1.6.2-2.4.4-1.6.4-3.1,1-4.4,1.6-1.3.7-2.4,1.4-3.3,2.2-.9.8-1.6,1.5-2.1,2.2-.5.7-.8,1.3-1,1.8-.2.5-.3.9-.4,1.2,0,.3,0,.4,0,.4"/>
    <path class="st4" d="M17.1,22.1s.9-.1,2.5-.6c.8-.2,1.7-.6,2.7-1.1,1-.5,2.1-1.1,3.2-1.9.5-.4,1-.8,1.5-1.3.5-.5.9-.9,1.3-1.5.4-.5.7-1,.9-1.6.2-.5.4-1.1.5-1.6,0-.5,0-1.1,0-1.6,0-.5-.3-1-.6-1.5s-.6-.9-1.1-1.3c-.4-.4-1-.7-1.5-1-.6-.3-1.2-.5-1.9-.6-.7-.2-1.4-.2-2.2-.3-.8,0-1.5,0-2.3,0-.8,0-1.6.2-2.3.4-1.5.3-3,.9-4.3,1.5-1.3.6-2.4,1.3-3.3,2.1-.9.7-1.6,1.5-2.1,2.1-.5.7-.9,1.3-1.1,1.8-.2.5-.4.9-.4,1.2,0,.3,0,.4,0,.4"/>
    <path class="st4" d="M16.3,21.3s.9,0,2.4-.5c.8-.2,1.7-.5,2.7-.9,1-.4,2.1-1,3.1-1.7.5-.4,1-.8,1.5-1.2.5-.4.9-.9,1.3-1.4.4-.5.7-1,1-1.5.3-.5.5-1,.6-1.6.1-.5.2-1.1.1-1.6,0-.5-.2-1-.4-1.5-.2-.5-.5-.9-.9-1.3-.4-.4-.9-.7-1.4-1-.5-.3-1.1-.5-1.8-.7-.6-.2-1.3-.3-2-.4-.7,0-1.5,0-2.2,0-.8,0-1.5.2-2.2.3-1.5.3-2.9.8-4.2,1.3-1.3.6-2.4,1.2-3.3,1.9-.9.7-1.6,1.4-2.2,2-.5.6-.9,1.2-1.2,1.7-.3.5-.4.9-.5,1.1,0,.3-.1.4-.1.4"/>
    <path class="st4" d="M15.5,20.4s.2,0,.6,0c.4,0,1-.1,1.7-.3,1.5-.3,3.6-1,5.7-2.4.5-.3,1-.7,1.5-1.1.5-.4.9-.8,1.4-1.3.4-.5.8-.9,1.1-1.4.3-.5.5-1,.7-1.5.2-.5.2-1,.2-1.5s0-1-.3-1.4-.4-.9-.8-1.3c-.3-.4-.7-.7-1.2-1-.5-.3-1-.5-1.6-.7-.6-.2-1.2-.3-1.9-.4-.7,0-1.4-.1-2.1-.1-.7,0-1.4,0-2.1.2-1.4.2-2.8.6-4.1,1.1-1.2.5-2.4,1.1-3.3,1.8-.9.6-1.7,1.3-2.2,1.9-.6.6-1,1.1-1.3,1.6-.3.5-.4.8-.5,1.1,0,.2-.1.4-.1.4"/>
    <path class="st4" d="M14.7,19.6s.2,0,.6,0c.4,0,.9,0,1.6-.2,1.4-.3,3.4-.8,5.6-2.1.5-.3,1-.6,1.5-1,.5-.4,1-.8,1.4-1.2s.8-.9,1.2-1.4c.3-.5.6-1,.8-1.5.2-.5.3-1,.4-1.5,0-.5,0-1,0-1.4-.1-.5-.3-.9-.6-1.3-.3-.4-.6-.8-1-1.1-.4-.3-.9-.6-1.4-.8-.5-.2-1.1-.4-1.7-.5-.6-.1-1.3-.2-1.9-.2-.7,0-1.4,0-2,.1-1.4.2-2.7.5-3.9,1-1.2.5-2.3,1-3.2,1.6-.9.6-1.7,1.2-2.3,1.7-.6.6-1,1.1-1.3,1.5-.3.4-.5.8-.6,1-.1.2-.2.4-.2.4"/>
    <path class="st4" d="M14,18.8s.2,0,.5,0c.3,0,.9,0,1.5-.1.7,0,1.5-.3,2.4-.5.9-.3,1.9-.7,3-1.2.5-.3,1-.6,1.5-.9.5-.3,1-.7,1.4-1.1.4-.4.9-.8,1.2-1.3.4-.4.7-.9.9-1.4.2-.5.4-.9.5-1.4,0-.5.1-.9,0-1.4-.1-.9-.6-1.7-1.3-2.4-.4-.3-.8-.6-1.3-.8-.5-.2-1-.4-1.6-.6-.6-.1-1.2-.2-1.8-.3-.6,0-1.3,0-1.9,0-1.3.1-2.6.4-3.8.8-1.2.4-2.3.9-3.2,1.4-.9.5-1.7,1.1-2.3,1.6-.6.5-1,1-1.4,1.4-.3.4-.5.7-.7,1-.1.2-.2.3-.2.3"/>
    <path class="st4" d="M13.4,18s.2,0,.5,0,.8,0,1.4,0c.6,0,1.4-.2,2.3-.4.9-.2,1.9-.6,2.9-1,.5-.2,1-.5,1.5-.8.5-.3,1-.6,1.4-1,.5-.4.9-.8,1.3-1.2.4-.4.7-.8,1-1.3.3-.4.5-.9.6-1.4.1-.5.2-.9.2-1.4,0-.9-.4-1.7-1-2.3-.3-.3-.7-.6-1.1-.9-.4-.3-.9-.5-1.4-.6-.5-.2-1.1-.3-1.7-.3-.6,0-1.2,0-1.8,0-1.2,0-2.5.3-3.6.6-1.1.3-2.2.8-3.1,1.2-.9.5-1.7,1-2.3,1.5-.6.5-1.1.9-1.4,1.3-.3.4-.6.7-.7.9-.1.2-.2.3-.2.3"/>
    <path class="st4" d="M12.9,17.2s.2,0,.5,0c.3,0,.7,0,1.3,0,.6,0,1.3-.1,2.1-.3.8-.2,1.8-.5,2.8-.9,1-.4,2-.9,2.9-1.6.5-.3.9-.7,1.3-1.1.4-.4.7-.8,1-1.2.3-.4.5-.8.7-1.3.2-.4.3-.9.3-1.3,0-.8-.2-1.7-.7-2.3-.2-.3-.6-.6-.9-.9-.4-.3-.8-.5-1.3-.7-.5-.2-1-.3-1.5-.4-.5,0-1.1-.1-1.7-.1s-1.1,0-1.7.1c-.6,0-1.1.2-1.7.3-1.1.3-2.1.6-3,1.1-.9.4-1.6.9-2.3,1.3-.6.4-1.1.9-1.4,1.2-.3.4-.6.6-.7.8-.2.2-.2.3-.2.3"/>
    <path class="st4" d="M12.5,16.5s.1,0,.4,0c.3,0,.7,0,1.2,0,.5,0,1.2,0,2-.2.8-.1,1.7-.4,2.6-.7.9-.4,1.9-.8,2.9-1.4.5-.3.9-.6,1.3-1,.4-.4.8-.7,1.1-1.1.3-.4.6-.8.8-1.2.2-.4.3-.8.4-1.2,0-.4,0-.8,0-1.2,0-.4-.2-.7-.4-1.1-.2-.3-.5-.6-.8-.9-.3-.3-.7-.5-1.1-.7-.4-.2-.9-.3-1.4-.4-.5-.1-1-.2-1.5-.2-.5,0-1.1,0-1.6,0-.5,0-1.1.1-1.6.2-1,.2-2,.5-2.9.9-.9.4-1.6.8-2.2,1.2-.6.4-1.1.8-1.4,1.1-.4.3-.6.6-.8.8-.2.2-.2.3-.2.3"/>
    <path class="st4" d="M12.3,15.7s.1,0,.4,0c.2,0,.6,0,1.1,0,.5,0,1.1,0,1.9-.1.7-.1,1.6-.3,2.5-.6.9-.3,1.8-.7,2.7-1.3.4-.3.9-.6,1.3-.9.4-.3.8-.7,1.1-1,.3-.4.6-.7.8-1.1.2-.4.4-.8.5-1.2.1-.4.1-.8.1-1.1,0-.4-.1-.7-.3-1s-.4-.6-.6-.9c-.3-.3-.6-.5-1-.7-.4-.2-.8-.4-1.2-.5-.5-.1-.9-.2-1.4-.2-.5,0-1,0-1.5,0-.5,0-1,0-1.5.2-1,.2-1.9.5-2.7.8s-1.5.7-2.1,1.1c-.6.4-1.1.7-1.4,1-.4.3-.6.6-.8.7-.2.2-.2.3-.2.3"/>
    <path class="st4" d="M12.1,15s.1,0,.3,0c.2,0,.6,0,1,.1.5,0,1,0,1.7,0,.7,0,1.5-.2,2.3-.5.9-.3,1.7-.6,2.6-1.1.4-.2.8-.5,1.2-.8.4-.3.8-.6,1.1-1,.3-.3.6-.7.9-1.1.2-.4.4-.7.5-1.1.1-.4.2-.7.2-1.1,0-.3,0-.7-.2-1-.1-.3-.3-.6-.5-.9-.2-.3-.5-.5-.8-.7-.3-.2-.7-.4-1.1-.5-.4-.1-.8-.2-1.3-.3-.5,0-.9,0-1.4,0-.5,0-.9,0-1.4.1-.9.1-1.8.4-2.6.7-.8.3-1.5.6-2,.9-.6.3-1,.6-1.4.9-.7.5-1,.9-1,.9"/>
    <path class="st4" d="M12,14.3s.1,0,.3,0c.2,0,.5.1.9.1.4,0,1,0,1.6,0,.6,0,1.4-.2,2.2-.4s1.6-.5,2.5-1c.4-.2.8-.5,1.2-.7.4-.3.7-.6,1.1-.9.3-.3.6-.6.9-1,.2-.3.4-.7.6-1,.1-.3.2-.7.3-1,0-.3,0-.7,0-1-.2-.6-.6-1.1-1.1-1.5-.3-.2-.6-.4-1-.5-.4-.1-.7-.2-1.1-.3-.4,0-.8-.1-1.2-.1-.4,0-.9,0-1.3,0-.9,0-1.7.3-2.4.5s-1.4.5-1.9.8c-.5.3-1,.6-1.3.8-.7.5-1,.8-1,.8"/>
    <path class="st4" d="M12.1,13.7s0,0,.3,0,.5.1.8.2c.4,0,.9,0,1.4,0,.6,0,1.3-.1,2-.3.7-.2,1.5-.5,2.3-.8.8-.4,1.5-.9,2.2-1.4.3-.3.6-.6.8-.9.2-.3.4-.6.6-.9.2-.3.3-.6.3-.9,0-.3,0-.6,0-.9-.1-.6-.5-1.1-.9-1.5-.2-.2-.5-.4-.8-.5-.3-.1-.7-.2-1-.3-.4,0-.8-.1-1.1-.1-.4,0-.8,0-1.2,0-.8,0-1.6.2-2.2.4-1.4.4-2.4,1-3.1,1.5-.6.4-.9.8-.9.8"/>
    <path class="st4" d="M12.2,13.1s.3.1,1,.2c.3,0,.8,0,1.3,0,.5,0,1.1,0,1.8-.2.7-.2,1.4-.4,2.1-.7.7-.3,1.4-.8,2-1.3.3-.2.6-.5.8-.8.2-.3.4-.6.6-.9.2-.3.3-.6.3-.9,0-.3,0-.6,0-.8,0-.5-.4-1-.8-1.4-.2-.2-.5-.4-.7-.5-.3-.1-.6-.2-.9-.3-.3,0-.7-.1-1-.2-.4,0-.7,0-1.1,0-.7,0-1.4.2-2.1.4-1.3.4-2.3.9-2.9,1.3-.6.4-.9.7-.9.7"/>
    <path class="st4" d="M12.4,12.5s.3.1.9.2c.3,0,.7,0,1.2,0,.5,0,1,0,1.6-.2.6-.1,1.3-.3,2-.6.7-.3,1.3-.7,1.9-1.1.3-.2.5-.5.8-.7.2-.2.4-.5.6-.8.2-.3.3-.5.3-.8,0-.3,0-.5,0-.8,0-.5-.3-.9-.6-1.3-.2-.2-.4-.3-.6-.5-.2-.1-.5-.2-.8-.3-.3,0-.6-.1-.9-.2-.3,0-.6,0-1,0-.7,0-1.3.1-1.9.3-1.2.3-2.1.8-2.6,1.2-.6.4-.8.6-.8.6"/>
    <path class="st4" d="M12.9,7.1s-.2,0-.4,0c-.1,0-.3.1-.4.2-.1.1-.3.3-.4.5-.1.2-.2.6-.2.9,0,.2,0,.4,0,.6,0,.2,0,.5,0,.7,0,.3,0,.5.2.8,0,.3.1.6.2.9,0,.3.2.7.3,1,.1.3.3.7.4,1.1.3.7.6,1.5,1,2.2.4.8.8,1.5,1.2,2.2.9,1.4,1.8,2.8,2.6,3.8.8,1.1,1.5,1.9,2,2.4.5.5.8.8.8.8"/>
    <path class="st4" d="M13.3,6.8s-.1,0-.3,0c0,0-.2.1-.3.2,0,.1-.2.3-.2.5,0,.1,0,.2,0,.4,0,.2,0,.3,0,.5s0,.4,0,.6c0,.2,0,.5.1.7,0,.3.1.5.2.8,0,.3.2.6.3.9.1.3.2.7.3,1,.1.3.3.7.4,1.1.3.7.6,1.5,1,2.2.4.8.8,1.5,1.2,2.3.8,1.5,1.6,2.8,2.4,4,.7,1.1,1.4,2,1.8,2.6.4.6.7.9.7.9"/>
    <path class="st4" d="M13.7,6.5s-.1,0-.2,0c0,0-.1.1-.2.2,0,.1,0,.3-.1.5,0,.1,0,.2,0,.4,0,.2,0,.3,0,.5,0,.2,0,.4,0,.6,0,.2,0,.5.2.7,0,.3.1.5.2.8,0,.3.2.6.3.9.1.3.2.7.4,1,.1.4.3.7.4,1.1.3.8.6,1.5,1,2.3.3.8.7,1.6,1.1,2.3.7,1.5,1.5,2.9,2.1,4.1.6,1.1,1.2,2,1.6,2.7.4.6.6.9.6.9"/>
    <path class="st4" d="M14.3,6.2s0,0-.1,0c0,0,0,0,0,.2,0,.1,0,.3,0,.5,0,.1,0,.2,0,.4,0,.2,0,.3.1.5,0,.2,0,.4.2.6,0,.2.1.5.2.7,0,.3.2.5.3.8,0,.3.2.6.3.9.1.3.2.7.4,1,.1.4.3.7.4,1.1.3.8.6,1.5.9,2.3.3.8.7,1.6,1,2.4.7,1.6,1.3,3,1.9,4.2.3.6.5,1.1.8,1.6.2.5.4.8.6,1.2.3.6.5,1,.5,1"/>
    <path class="st4" d="M14.9,5.9h0c0,0,0,.1,0,.2,0,.1,0,.3.2.5,0,.1,0,.2.1.4,0,.2.1.3.2.5,0,.2.1.4.2.6,0,.2.2.5.3.7,0,.3.2.6.3.9.1.3.2.6.3,1,.2.7.5,1.4.8,2.2.3.8.6,1.6.8,2.4.3.8.6,1.6.9,2.4.6,1.6,1.1,3.1,1.6,4.3.2.6.4,1.2.6,1.6.2.5.3.9.4,1.2.2.6.4,1,.4,1"/>
    <path class="st4" d="M15.7,5.7s0,0,.1,0c0,0,.1.1.2.2,0,.1.2.3.3.5,0,.1.1.3.2.4,0,.2.1.3.2.5,0,.2.2.4.3.6,0,.2.2.5.3.8.1.3.2.6.3.9.1.3.2.6.3,1,.2.7.5,1.4.7,2.2.3.8.5,1.6.8,2.4.3.8.5,1.7.7,2.5.5,1.6.9,3.1,1.2,4.4.2.6.3,1.2.4,1.7.1.5.2.9.3,1.2.2.6.2,1,.2,1"/>
    <path class="st4" d="M16.5,5.5s0,0,.2,0c0,0,.2.1.3.2.1.1.3.3.4.5,0,.1.2.3.2.4,0,.2.2.3.3.5,0,.2.2.4.3.7.1.2.2.5.3.8.1.3.2.6.3.9.1.3.2.7.3,1,.2.7.5,1.5.7,2.3.2.8.5,1.7.7,2.5.2.9.4,1.7.6,2.5.2.8.3,1.6.5,2.4.1.8.3,1.5.4,2.1,0,.6.2,1.2.2,1.7,0,.5.1.9.1,1.2,0,.7,0,1,0,1"/>
    <path class="st4" d="M17.5,5.3s.1,0,.3,0c.1,0,.2.1.4.2.2.1.3.3.5.6.2.3.4.6.6,1,.1.2.2.4.3.7.1.2.2.5.3.8.1.3.2.6.4.9.1.3.2.7.3,1,.2.7.4,1.5.6,2.3.2.8.4,1.7.5,2.5.2.9.3,1.7.4,2.6.1.8.2,1.7.3,2.4,0,.8.1,1.5.1,2.1,0,.6,0,1.2,0,1.7s0,.9,0,1.2c0,.7,0,1,0,1"/>
    <path class="st4" d="M18.6,5.2s.2,0,.5.1c.1,0,.3.1.5.3.2.1.4.3.7.6.2.3.5.6.7,1,.3.4.5,1,.7,1.5.2.6.5,1.3.7,2,.2.8.4,1.5.6,2.4.2.8.3,1.7.4,2.6,0,.9.2,1.8.2,2.6s0,1.7,0,2.4c0,.8,0,1.5,0,2.1,0,.6-.1,1.2-.2,1.7,0,.5-.1.9-.2,1.2-.1.7-.2,1-.2,1"/>
    <path class="st4" d="M19.8,5.2s.2,0,.6.1c.2,0,.4.2.6.3.2.2.5.4.8.7.3.3.5.7.8,1.1.3.5.5,1,.8,1.6.2.6.5,1.3.6,2.1.2.8.3,1.6.5,2.4.1.9.2,1.7.2,2.6,0,.9,0,1.8,0,2.6,0,1.7-.3,3.3-.6,4.5-.1.6-.3,1.2-.4,1.7-.1.5-.3.9-.4,1.2-.2.6-.4,1-.4,1"/>
    <path class="st4" d="M21.1,5.3s.3,0,.7.2c.4.2,1,.5,1.6,1.1.3.3.6.7.9,1.2.3.5.6,1,.8,1.7.2.6.4,1.4.6,2.1.2.8.3,1.6.3,2.4,0,.9,0,1.7,0,2.6,0,.9-.1,1.8-.2,2.6-.3,1.7-.7,3.2-1.1,4.5-.4,1.2-.9,2.2-1.2,2.8-.3.6-.5.9-.5.9"/>
    <path class="st4" d="M22.3,5.5s.3,0,.8.2c.5.2,1.1.5,1.8,1.2.3.3.7.7,1,1.2.3.5.6,1.1.8,1.7.2.7.4,1.4.5,2.1.1.8.2,1.6.2,2.5,0,.9,0,1.7-.2,2.6-.1.9-.3,1.7-.5,2.6-.4,1.7-1,3.2-1.6,4.4-.6,1.2-1.2,2.1-1.6,2.7-.4.6-.7.9-.7.9"/>
    <path class="st4" d="M23.5,5.8s.3,0,.9.3c.5.2,1.3.6,2,1.3.4.4.7.8,1,1.3.3.5.6,1.1.8,1.7.2.7.4,1.4.5,2.2,0,.8.1,1.6,0,2.5,0,.9-.2,1.7-.3,2.6-.2.9-.4,1.7-.7,2.5-.6,1.6-1.4,3-2.1,4.2-.8,1.1-1.5,2-2,2.5-.5.5-.9.8-.9.8"/>
    <path class="st4" d="M24.5,6.3s.4,0,.9.3c.6.2,1.4.7,2.1,1.4.4.4.8.8,1.1,1.3.3.5.6,1.1.8,1.8.2.7.4,1.4.5,2.2,0,.8,0,1.6,0,2.4,0,.8-.3,1.7-.5,2.5-.2.8-.6,1.7-.9,2.4-.7,1.6-1.6,2.9-2.5,4-.9,1.1-1.7,1.8-2.4,2.3-.6.5-1,.7-1,.7"/>
    <path class="st4" d="M25.2,6.9s.4,0,1,.4c.6.3,1.5.7,2.3,1.5.8.8,1.6,1.8,2,3.2.2.7.4,1.4.5,2.2,0,.8,0,1.6,0,2.4-.1.8-.3,1.6-.6,2.4-.3.8-.6,1.6-1.1,2.3-.8,1.5-1.9,2.7-2.9,3.7s-1.9,1.7-2.6,2.1c-.7.4-1.1.6-1.1.6"/>
    <path class="st4" d="M25.6,7.5s.4.1,1.1.4c.7.3,1.6.8,2.5,1.6.9.8,1.7,1.9,2.2,3.2.2.7.4,1.4.5,2.1,0,.8,0,1.5,0,2.3-.1.8-.3,1.6-.7,2.3-.3.8-.7,1.5-1.1,2.2-.9,1.4-2,2.5-3.1,3.4-1.1.9-2.1,1.5-2.8,1.9-.7.4-1.1.6-1.1.6"/>
    <path class="st4" d="M25.5,8.1s.4.1,1.2.5c.7.3,1.7.8,2.6,1.7.9.8,1.8,1.9,2.4,3.2.5,1.3.8,2.9.5,4.4-.2,1.5-.9,3.1-1.8,4.3-.9,1.3-2,2.4-3.1,3.2-1.1.8-2.1,1.3-2.8,1.7-.7.3-1.2.5-1.2.5"/>
    <path class="st4" d="M25.1,8.5s.5.1,1.2.5c.7.3,1.7.9,2.8,1.7.5.4,1,.9,1.4,1.4.4.5.8,1.2,1.2,1.8.6,1.3.9,2.8.8,4.3-.2,1.5-.8,3-1.6,4.2-.9,1.2-2,2.2-3,3-1.1.7-2.1,1.2-2.8,1.5-.7.3-1.2.4-1.2.4"/>
    <path class="st4" d="M24.5,8.8s.5.1,1.3.5c.8.3,1.8.9,2.9,1.7.5.4,1.1.9,1.6,1.4.5.5.9,1.1,1.3,1.8.4.7.7,1.4.8,2.1.2.7.3,1.5.2,2.2,0,1.5-.6,2.9-1.4,4.1-.8,1.2-1.9,2.2-2.9,2.9-1,.7-2,1.2-2.8,1.4-.7.3-1.2.4-1.2.4"/>
    <path class="st4" d="M23.8,8.8s.5.1,1.3.5c.8.3,1.9.8,3,1.7.6.4,1.1.9,1.7,1.4.5.5,1,1.1,1.4,1.8.4.6.8,1.3,1,2.1.2.7.4,1.5.4,2.2,0,1.5-.4,2.9-1,4.1-.7,1.2-1.7,2.2-2.7,2.9-1,.7-2,1.2-2.6,1.4-.7.3-1.1.4-1.1.4"/>
    <path class="st4" d="M23,8.6s.5.1,1.3.4c.8.3,2,.8,3.2,1.6.6.4,1.2.8,1.8,1.4.6.5,1.1,1.1,1.6,1.7.5.6.9,1.3,1.1,2,.3.7.5,1.4.6,2.2.2,1.5-.1,2.9-.7,4.2-.6,1.2-1.5,2.3-2.4,3-.9.8-1.9,1.2-2.5,1.5-.7.3-1.1.4-1.1.4"/>
    <path class="st4" d="M22.4,8.3s.5,0,1.3.4c.8.3,2,.7,3.2,1.4.6.4,1.2.8,1.8,1.3.6.5,1.2,1,1.7,1.7.5.6.9,1.3,1.3,2,.3.7.6,1.4.7,2.2.2,1.5,0,3-.5,4.2-.5,1.3-1.4,2.4-2.3,3.1-.9.8-1.8,1.4-2.4,1.7-.7.3-1.1.5-1.1.5"/>
    <path class="st4" d="M22.1,8s.5,0,1.3.3c.8.2,2,.6,3.3,1.2.6.3,1.3.7,1.9,1.2.6.5,1.2,1,1.7,1.6.5.6,1,1.2,1.3,1.9.4.7.6,1.4.8,2.2.3,1.5.1,3-.4,4.3-.5,1.3-1.3,2.5-2.2,3.3-.9.9-1.7,1.5-2.4,1.9-.6.4-1,.6-1,.6"/>
    <path class="st4" d="M22,7.7s.5,0,1.3.2c.8.2,2,.5,3.3,1.1.6.3,1.3.7,1.9,1.1.6.4,1.2.9,1.7,1.5.5.6,1,1.2,1.3,1.9.4.7.6,1.4.8,2.2.3,1.5.2,3-.3,4.4-.5,1.4-1.3,2.6-2.1,3.5-.8.9-1.7,1.6-2.3,2-.6.4-1,.6-1,.6"/>
    <path class="st4" d="M21.9,7.3s.5,0,1.3.1c.8.1,2,.4,3.2.9.6.3,1.2.6,1.8,1,.6.4,1.2.9,1.7,1.4.5.5,1,1.2,1.3,1.8.4.7.6,1.4.8,2.1.3,1.5.2,3.1-.3,4.5-.5,1.4-1.2,2.7-2,3.7-.8,1-1.7,1.7-2.3,2.2-.6.5-1,.7-1,.7"/>
    <path class="st4" d="M21.3,7s.5,0,1.3,0c.8,0,1.9.2,3.2.7.6.2,1.2.5,1.9.9.6.4,1.2.8,1.7,1.3,1,1,1.9,2.4,2.2,3.8.4,1.5.3,3.1,0,4.5-.4,1.5-1.1,2.8-1.8,3.9-.8,1.1-1.5,1.9-2.1,2.4-.6.5-1,.8-1,.8"/>
    <path class="st4" d="M20.5,6.9s.5,0,1.3,0c.8,0,1.9,0,3.2.4.6.2,1.3.4,1.9.7.6.3,1.2.7,1.8,1.2,1.1.9,2,2.2,2.5,3.6.2.7.4,1.5.4,2.2,0,.8,0,1.5-.1,2.3-.3,1.5-.9,2.9-1.5,4-.7,1.1-1.4,2-1.9,2.6-.5.6-.9.9-.9.9"/>
    <path class="st4" d="M19.6,7s.5,0,1.3-.2c.8,0,2,0,3.3.1.6.1,1.3.3,2,.6.7.3,1.3.6,1.9,1,1.2.8,2.2,2,2.8,3.4.3.7.5,1.4.6,2.2.1.8.1,1.5,0,2.3-.2,1.5-.6,2.9-1.2,4.1-.6,1.2-1.2,2.1-1.7,2.7-.5.6-.8.9-.8.9"/>
    <path class="st4" d="M18.7,7.2s.5-.1,1.3-.2c.8-.1,2-.2,3.4,0,.7,0,1.4.2,2.1.4.7.2,1.4.5,2.1.9.7.4,1.3.8,1.8,1.4.5.5,1,1.1,1.4,1.8.7,1.3,1.1,2.9,1,4.3,0,1.5-.4,2.9-.9,4-.5,1.2-1.1,2.1-1.6,2.7-.5.6-.8,1-.8,1"/>
    <path class="st4" d="M17.8,7.5s.5-.1,1.3-.3c.9-.1,2.1-.2,3.5-.1.7,0,1.4.2,2.2.4.7.2,1.5.5,2.2.8.7.4,1.4.8,2,1.3.6.5,1.1,1.1,1.6,1.7.9,1.3,1.3,2.8,1.4,4.2,0,1.4-.2,2.8-.7,4-.4,1.2-1,2.1-1.5,2.7-.4.6-.7.9-.7.9"/>
    <path class="st4" d="M17.1,7.8s.5-.1,1.4-.2c.9-.1,2.1-.2,3.6,0,.7,0,1.5.2,2.3.4.8.2,1.6.5,2.4.8.8.4,1.5.8,2.2,1.3.7.5,1.2,1.1,1.7,1.7.5.6.9,1.3,1.2,2,.3.7.5,1.4.5,2.1.2,1.4,0,2.8-.5,3.9-.4,1.1-.9,2-1.4,2.6-.4.6-.7.9-.7.9"/>
    <path class="st4" d="M16.5,8s.5,0,1.4-.2c.9,0,2.2-.1,3.7,0,.8,0,1.5.2,2.4.5.8.2,1.6.5,2.5.9.8.4,1.6.8,2.3,1.4.7.5,1.3,1.1,1.9,1.8.5.6,1,1.3,1.3,2,.3.7.6,1.4.7,2.1.2,1.4,0,2.7-.3,3.8-.3,1.1-.9,1.9-1.3,2.5-.4.6-.7.8-.7.8"/>
    <path class="st4" d="M16.1,8.1s.5,0,1.3,0c.9,0,2.1,0,3.6.3,1.5.3,3.2.8,4.9,1.7.8.4,1.6.9,2.3,1.5.7.6,1.4,1.2,2,1.9.6.7,1,1.4,1.4,2.1.4.7.6,1.4.8,2.1.2.7.2,1.4.2,2,0,.6-.1,1.2-.3,1.7-.3,1-.8,1.8-1.2,2.3-.4.5-.7.8-.7.8"/>
    <path class="st4" d="M15.8,8.2s.5,0,1.3,0c.8,0,2,.2,3.5.7,1.5.4,3.1,1.1,4.7,2.1.8.5,1.6,1.1,2.3,1.7.7.6,1.4,1.3,2,2,.6.7,1.1,1.4,1.4,2.2.4.7.6,1.4.8,2.1.2.7.2,1.3.2,1.9,0,.6,0,1.1-.2,1.6-.3.9-.7,1.7-1.1,2.1-.4.5-.6.7-.6.7"/>
    <path class="st4" d="M15.8,8.2s.4,0,1.2.2c.4,0,.9.2,1.4.4.6.2,1.2.4,1.8.7,1.4.6,2.9,1.5,4.5,2.6.8.6,1.5,1.2,2.2,1.9.7.7,1.3,1.4,1.9,2.2.5.7,1,1.5,1.4,2.3.4.7.6,1.5.8,2.2.2.7.3,1.3.3,1.9,0,.6,0,1.1-.2,1.5-.2.9-.6,1.5-.9,1.9-.3.4-.5.6-.5.6"/>
    <path class="st4" d="M15.9,8.2s.4,0,1.1.4c.3.1.8.3,1.3.5.5.2,1.1.5,1.7.9.6.4,1.3.8,2,1.3.7.5,1.4,1.1,2.1,1.8s1.4,1.4,2.1,2.1c.6.8,1.2,1.5,1.8,2.4.5.8,1,1.6,1.3,2.4.2.4.3.8.5,1.1.1.4.2.7.3,1.1,0,.3.2.7.2,1,0,.3,0,.6,0,.9,0,.5,0,1-.1,1.4,0,.4-.2.7-.4,1-.1.3-.3.5-.4.6-.3.3-.5.5-.5.5"/>
    <path class="st4" d="M16,8.3s.3.2.9.5c.3.2.7.4,1.1.7.4.3.9.7,1.5,1.1.5.5,1.1,1,1.7,1.6.6.6,1.3,1.3,1.9,2,.6.7,1.3,1.5,1.8,2.3.6.8,1.1,1.7,1.6,2.5.5.8.9,1.6,1.2,2.4.2.4.3.8.4,1.1.1.4.2.7.3,1.1,0,.3.2.6.2.9,0,.3,0,.6.1.8,0,.3,0,.5,0,.7,0,.2,0,.4,0,.6,0,.4-.2.7-.3.9-.1.2-.2.4-.4.5-.2.3-.4.4-.4.4"/>
    <path class="st4" d="M16.1,8.4s.3.2.8.6c.3.2.6.5.9.9.4.4.8.8,1.2,1.3.5.5,1,1.1,1.5,1.8.5.7,1.1,1.4,1.6,2.2.5.8,1.1,1.7,1.6,2.5.5.9,1,1.7,1.4,2.6.2.4.4.9.6,1.3.2.4.4.8.5,1.2.2.4.3.8.4,1.1.1.4.2.7.3,1,0,.3.2.6.2.9,0,.3,0,.5.1.8,0,.2,0,.5,0,.7s0,.4,0,.5c0,.3,0,.6-.2.8,0,.2-.2.3-.3.4-.2.2-.3.2-.3.2"/>
    <path class="st4" d="M16.2,8.6s.2.3.6.8c.2.3.5.6.7,1,.3.4.6.9,1,1.5.4.6.8,1.2,1.2,2,.4.7.9,1.5,1.4,2.4.5.9.9,1.7,1.4,2.7.4.9.9,1.8,1.3,2.7.2.4.4.9.5,1.3.2.4.3.8.5,1.2.1.4.3.8.4,1.1.1.3.2.7.3,1,0,.3.2.6.2.9,0,.3.1.5.2.7,0,.2,0,.4,0,.6,0,.2,0,.3,0,.5,0,.3,0,.5,0,.6,0,.1,0,.2-.2.3-.1.1-.2.1-.2.1"/>
    <path class="st4" d="M16.2,8.9s.2.3.5.9c.2.3.3.7.6,1.1.2.5.5,1,.8,1.6.3.6.6,1.4,1,2.1.4.8.7,1.6,1.1,2.5.4.9.8,1.8,1.2,2.8.4.9.7,1.9,1.1,2.8.2.4.3.9.5,1.3.2.4.3.8.4,1.2.1.4.3.7.4,1.1.1.3.2.7.3,1,0,.3.2.6.3.8,0,.2.1.5.2.7,0,.2,0,.4.1.5,0,.2,0,.3,0,.4,0,.1,0,.2,0,.3,0,0,0,.2,0,.2,0,0,0,.2,0,.2,0,0,0,0,0,0"/>
    <path class="st4" d="M16.1,9.3s.1.3.3,1c.1.3.2.7.4,1.2.2.5.3,1.1.6,1.8.2.7.5,1.4.7,2.3.3.8.6,1.7.9,2.6.3.9.6,1.9.9,2.8.3.9.6,1.9.9,2.8.2.4.3.9.4,1.3.1.4.3.8.4,1.2.1.4.3.7.4,1.1.1.3.2.6.3.9,0,.3.2.5.3.8,0,.2.2.4.2.6,0,.2.1.3.2.5,0,.1,0,.3.1.4,0,0,0,.2.1.2,0,0,0,.1,0,.2,0,0,0,0,0,.1,0,0,0,0,0,0"/>
    <path class="st4" d="M16,9.6s0,.4.2,1c0,.4.1.8.2,1.3,0,.5.2,1.2.4,1.9.1.7.3,1.5.5,2.3.2.9.4,1.8.6,2.7s.5,1.9.8,2.9c.3.9.5,1.9.8,2.8.1.4.3.9.4,1.3.1.4.3.8.4,1.2.1.4.3.7.4,1,.1.3.2.6.4.9.1.3.2.5.3.7,0,.2.2.4.3.6,0,.2.2.3.2.4,0,.1.1.2.2.3.1.2.2.2.3.3,0,0,.1,0,.2,0,0,0,.1-.1.1-.1"/>
    <path class="st4" d="M15.7,10s0,.4,0,1.1c0,.4,0,.8,0,1.4,0,.6,0,1.2.2,1.9,0,.7.2,1.5.3,2.4.1.9.3,1.8.5,2.8.2,1,.4,1.9.6,2.9.1.5.2.9.4,1.4.1.5.2.9.4,1.3.1.4.3.8.4,1.2.1.4.3.8.4,1.1.1.3.3.7.4,1,.1.3.3.6.4.8.1.2.2.5.4.7.1.2.2.4.3.5.2.3.4.5.6.6.2.1.3.2.4.2.1,0,.2,0,.3,0,.2,0,.2-.2.2-.2"/>
    <path class="st4" d="M15.4,10.3s0,.4-.1,1.2c0,.4,0,.9,0,1.4,0,.6,0,1.2,0,2,0,.8,0,1.6.1,2.5,0,.9.2,1.8.3,2.8.1,1,.3,1.9.5,2.9,0,.5.2.9.3,1.4.1.5.2.9.3,1.3.1.4.2.8.4,1.2.1.4.3.7.4,1.1.1.3.3.7.4.9.1.3.3.5.4.8.1.2.3.4.4.6.1.2.3.3.4.5.2.3.5.4.7.5.2,0,.4.1.6.1.2,0,.3,0,.4-.1.2-.1.3-.2.3-.2"/>
    <path class="st4" d="M15,10.6s-.1.4-.2,1.2c0,.4-.2.9-.2,1.5,0,.6-.1,1.3-.2,2,0,1.5,0,3.3,0,5.3,0,1,.2,1.9.4,2.9,0,.5.2.9.3,1.4,0,.4.2.9.3,1.3.1.4.2.8.4,1.2.1.4.3.7.4,1.1.1.3.3.6.4.9.2.3.3.5.5.8.2.2.3.4.5.6.2.2.3.3.5.4.3.2.6.4.8.5.5.2,1,0,1.3,0,.3-.1.5-.3.5-.3"/>
    <path class="st4" d="M14.6,10.9s-.2.4-.4,1.2c-.1.4-.2.9-.3,1.5-.1.6-.2,1.3-.3,2-.2,1.5-.3,3.3-.2,5.3,0,.9.1,1.9.3,2.8,0,.5.2.9.2,1.4,0,.4.2.9.3,1.3.1.4.2.8.4,1.2.1.4.3.7.4,1,.2.3.3.6.5.9.2.3.3.5.5.7.3.4.7.7,1,1s.7.4,1,.4c.6.1,1.1,0,1.5-.1.4-.2.6-.3.6-.3"/>
    <path class="st4" d="M14.2,11.1s-.2.4-.5,1.2c-.3.8-.6,2-.9,3.5-.3,1.5-.5,3.3-.5,5.2,0,.9,0,1.9.2,2.8,0,.5.1.9.2,1.3,0,.4.2.8.3,1.2.1.4.2.8.4,1.1.1.4.3.7.5,1,.2.3.3.6.5.8.2.3.4.5.5.7.4.4.8.7,1.1.9.4.2.8.3,1.1.4.7.1,1.3,0,1.7-.2.4-.2.7-.3.7-.3"/>
    <path class="st4" d="M13.8,11.3s-.2.4-.6,1.2c-.3.8-.8,2-1.1,3.5-.4,1.5-.6,3.3-.7,5.2,0,.9,0,1.8.1,2.7,0,.4.1.9.2,1.3,0,.4.2.8.3,1.2.1.4.3.8.4,1.1.1.3.3.7.5,1,.3.6.7,1.1,1.1,1.5.4.4.8.7,1.3.9.4.2.8.3,1.2.4.8.1,1.5,0,2-.2.5-.2.8-.3.8-.3"/>
    <path class="st4" d="M13.4,11.4s-.3.4-.6,1.2c-.4.8-.9,2-1.3,3.4-.2.7-.4,1.5-.6,2.4-.2.9-.3,1.7-.3,2.7,0,.9,0,1.8,0,2.7,0,.9.3,1.7.5,2.5.2.8.5,1.4.9,2,.4.6.8,1.1,1.2,1.5.4.4.9.7,1.4.9.5.2.9.3,1.4.4.9.1,1.6,0,2.2-.2.5-.2.8-.3.8-.3"/>
    <path class="st4" d="M13,11.5s-.3.4-.7,1.2c-.4.8-1,1.9-1.5,3.4-.2.7-.5,1.5-.7,2.4-.2.8-.3,1.7-.4,2.6,0,.9,0,1.8,0,2.6,0,.8.3,1.7.5,2.4.2.7.6,1.4,1,2,.4.6.8,1.1,1.3,1.5.9.8,2,1.2,2.9,1.3,1,.1,1.8,0,2.3-.2.6-.1.9-.3.9-.3"/>
  </g>
  <g class="st0">
    <text class="st3" transform="translate(33.1 20.2)"><tspan x="0" y="0">OPEN TECH</tspan></text>
  </g>
  <g>
    <text class="st2" transform="translate(62.5 20.3)"><tspan x="0" y="0">N</tspan></text>
    <text class="st2" transform="translate(66.1 20.3)"><tspan x="0" y="0">E</tspan></text>
    <text class="st2" transform="translate(68.8 20.3)"><tspan x="0" y="0">T</tspan></text>
    <text class="st2" transform="translate(71.7 20.3)"><tspan x="0" y="0">WORK</tspan></text>
  </g>
  <g class="st0">
    <text class="st1" transform="translate(38.9 27.5)"><tspan x="0" y="0">INNOVATIONS</tspan></text>
    <text/>
  </g>
</svg>