<?xml version="1.0" encoding="UTF-8"?>
<svg id="Layer_2" data-name="Layer 2" xmlns="http://www.w3.org/2000/svg" viewBox="0 0 125.34 125.45">
  <defs>
    <style>
      .cls-1 {
        fill: none;
        stroke: #0015bf;
        stroke-miterlimit: 10;
        stroke-width: .2px;
      }
    </style>
  </defs>
  <g id="Layer_1-2" data-name="Layer 1">
    <g>
      <path class="cls-1" d="M32.99,36.85s1.71.41,4.9.47c1.66.03,3.73-.05,6.13-.39,2.45-.34,5.24-.95,8.2-1.94,2.97-.99,6.08-2.35,9.08-4.15,2.91-1.74,5.66-3.86,7.93-6.33,1.08-1.17,2.03-2.42,2.82-3.72.75-1.25,1.35-2.54,1.73-3.85.72-2.46.65-5.07-.3-7.23-.97-2.19-2.86-4.04-5.17-5.31-1.23-.67-2.58-1.2-4.01-1.6-1.48-.41-3.03-.69-4.62-.84-3.3-.32-6.69-.11-9.93.45-3.32.57-6.42,1.49-9.2,2.57-2.76,1.08-5.17,2.33-7.17,3.55-1.96,1.2-3.53,2.39-4.74,3.41-2.32,1.97-3.36,3.31-3.36,3.31,0,0-1.43.39-3.64,1.54-2.14,1.11-5,3.02-7.32,6.16-1.15,1.56-2.17,3.45-2.91,5.59-.75,2.19-1.21,4.68-1.31,7.34-.1,2.76.18,5.74.84,8.8.68,3.18,1.77,6.46,3.19,9.71,1.46,3.37,3.28,6.7,5.34,9.92,2.11,3.3,4.47,6.46,6.97,9.42,5.1,6.04,10.66,11.15,15.77,15.15,5.11,4,9.68,6.86,12.91,8.72,3.2,1.84,5.1,2.74,5.1,2.74,0,0,.73-1.09,2.44-2.68,1.78-1.66,4.72-3.86,8.85-5.5,2.08-.83,4.43-1.51,6.94-1.87,2.46-.36,5.04-.42,7.56-.04,2.4.36,4.71,1.13,6.63,2.36,1.81,1.16,3.27,2.79,4.06,4.66.78,1.86.9,4.02.41,6.09-.52,2.19-1.69,4.31-3.24,6.18-1.63,1.97-3.65,3.66-5.8,5.02-2.2,1.4-4.51,2.43-6.72,3.17-4.39,1.46-8.21,1.65-10.74,1.5-2.42-.15-3.72-.54-3.72-.54,0,0-1.19.95-3.44,2.21-2.16,1.21-5.33,2.66-9.19,3.08-3.73.41-8.28-.34-12.32-2.93-2.12-1.36-4.16-3.22-5.98-5.48-.95-1.18-1.84-2.46-2.66-3.84-.85-1.42-1.63-2.93-2.35-4.53-.73-1.64-1.39-3.35-1.97-5.14-.6-1.82-1.11-3.71-1.56-5.64-.91-3.97-1.49-8.1-1.78-12.23-.3-4.24-.31-8.45-.09-12.5.22-4.1.66-8,1.23-11.6,1.14-7.22,2.77-13.08,4.06-17.09,1.27-3.97,2.18-6.14,2.18-6.14Z"/>
      <path class="cls-1" d="M54.47,116.9s1.01,1.09,3.32,2.32c1.21.65,2.8,1.32,4.78,1.83,2.06.53,4.54.88,7.35.87,2.9,0,6.13-.39,9.48-1.27,3.39-.89,6.85-2.26,10.11-4.16,3.18-1.85,6.11-4.17,8.44-6.87,1.12-1.29,2.09-2.67,2.86-4.09.75-1.38,1.33-2.81,1.68-4.24.68-2.74.53-5.57-.45-7.96-.98-2.4-2.79-4.46-4.99-5.95-2.32-1.57-5.06-2.57-7.85-3.11-2.92-.57-5.87-.64-8.64-.41-5.69.47-10.34,2.15-13.43,3.57-3.05,1.41-4.62,2.51-4.62,2.51"/>
      <path class="cls-1" d="M51.37,116.74s1.02,1.24,3.44,2.69c1.27.76,2.96,1.56,5.07,2.19,2.2.65,4.87,1.13,7.92,1.21,3.15.09,6.69-.23,10.38-1.1,3.74-.88,7.6-2.29,11.25-4.29,3.58-1.96,6.9-4.44,9.59-7.35,1.29-1.4,2.43-2.89,3.36-4.45.9-1.51,1.61-3.07,2.08-4.65.9-3.01.9-6.14-.02-8.84-.92-2.68-2.78-5.02-5.08-6.73-2.42-1.8-5.35-2.99-8.35-3.67-3.14-.71-6.33-.88-9.34-.71-6.21.35-11.33,2.06-14.75,3.53-3.39,1.46-5.15,2.63-5.15,2.63"/>
      <path class="cls-1" d="M48.09,116.26s1,1.4,3.5,3.08c1.31.88,3.06,1.83,5.29,2.6,2.32.8,5.16,1.42,8.43,1.63,3.39.21,7.21-.01,11.25-.83,4.1-.83,8.35-2.25,12.42-4.32,4-2.03,7.75-4.65,10.84-7.76,1.49-1.5,2.81-3.1,3.92-4.79,1.07-1.63,1.94-3.33,2.55-5.05.59-1.67.95-3.36,1.04-5.02.09-1.62-.08-3.21-.49-4.71-.81-2.96-2.66-5.61-5.03-7.57-2.49-2.06-5.56-3.46-8.74-4.3-3.33-.89-6.75-1.17-9.99-1.09-6.7.17-12.3,1.88-16.06,3.37-3.74,1.49-5.7,2.7-5.7,2.7"/>
      <path class="cls-1" d="M44.65,115.4s.95,1.56,3.48,3.51c1.32,1.01,3.12,2.12,5.42,3.06,2.41.97,5.39,1.77,8.85,2.13,3.6.37,7.7.28,12.06-.45,4.45-.74,9.1-2.14,13.6-4.23,4.44-2.07,8.64-4.79,12.18-8.08,1.71-1.59,3.24-3.29,4.55-5.09,1.27-1.74,2.32-3.57,3.1-5.43.76-1.8,1.26-3.64,1.48-5.46.21-1.76.15-3.51-.18-5.17-.65-3.26-2.43-6.23-4.83-8.46-1.24-1.15-2.64-2.14-4.14-2.97-1.54-.85-3.18-1.52-4.87-2.05-3.49-1.09-7.12-1.53-10.56-1.56-7.17-.06-13.24,1.6-17.34,3.08-4.1,1.48-6.26,2.73-6.26,2.73"/>
      <path class="cls-1" d="M41.07,114.12s.23.4.75,1.11c.52.71,1.35,1.73,2.63,2.87,1.31,1.16,3.11,2.45,5.47,3.57,1.22.58,2.59,1.12,4.1,1.57,1.55.47,3.25.86,5.08,1.14,1.87.28,3.89.45,6.02.46,2.17.02,4.44-.11,6.8-.42,4.79-.62,9.84-1.93,14.78-4.02,4.9-2.07,9.58-4.86,13.6-8.29,1.94-1.66,3.71-3.46,5.25-5.36,1.49-1.85,2.75-3.8,3.74-5.8.95-1.93,1.63-3.92,2.01-5.89.37-1.91.44-3.82.22-5.64-.43-3.56-2.08-6.87-4.46-9.41-1.22-1.3-2.64-2.44-4.16-3.4-1.57-.98-3.26-1.78-5-2.42-3.61-1.32-7.42-1.94-11.06-2.11-3.76-.17-7.29.13-10.44.65-3.18.53-5.92,1.27-8.15,1.99-4.45,1.44-6.83,2.7-6.83,2.7"/>
      <path class="cls-1" d="M37.38,112.39s.21.45.69,1.23c.48.79,1.26,1.94,2.5,3.23,1.26,1.32,3.04,2.8,5.42,4.12,1.23.68,2.62,1.33,4.16,1.9,1.58.58,3.34,1.08,5.24,1.47,1.95.39,4.05.67,6.29.78,2.28.12,4.69.08,7.19-.13,5.11-.45,10.55-1.65,15.93-3.69,5.36-2.03,10.55-4.85,15.09-8.39,2.2-1.72,4.23-3.59,6.01-5.59,1.73-1.94,3.24-4,4.45-6.13,1.17-2.06,2.06-4.18,2.63-6.31.55-2.06.79-4.12.71-6.11-.16-3.86-1.61-7.54-3.91-10.39-1.18-1.46-2.58-2.75-4.11-3.86-1.57-1.13-3.28-2.07-5.07-2.83-1.83-.78-3.73-1.38-5.64-1.83-1.95-.46-3.91-.75-5.84-.92-3.94-.35-7.69-.16-11.03.27-3.39.44-6.33,1.12-8.73,1.8-4.81,1.37-7.4,2.63-7.4,2.63"/>
      <path class="cls-1" d="M33.63,110.19s.17.49.6,1.36c.43.88,1.13,2.15,2.3,3.6,1.19,1.48,2.91,3.16,5.27,4.71,1.22.8,2.61,1.56,4.17,2.25,1.6.71,3.39,1.33,5.34,1.84,2,.52,4.18.92,6.5,1.15,2.38.24,4.9.32,7.54.2,5.41-.24,11.23-1.28,17.05-3.22,5.83-1.95,11.54-4.76,16.61-8.37,2.47-1.76,4.77-3.69,6.83-5.78,2-2.03,3.77-4.19,5.23-6.44,1.41-2.17,2.54-4.43,3.33-6.71.76-2.2,1.2-4.42,1.29-6.58.18-4.16-1.02-8.21-3.2-11.41-2.23-3.28-5.49-5.84-9.05-7.62-1.85-.93-3.79-1.66-5.75-2.22-2.01-.58-4.04-.98-6.04-1.25-4.11-.54-8.04-.51-11.57-.19-3.59.32-6.72.93-9.29,1.56-5.16,1.27-7.97,2.5-7.97,2.5"/>
      <path class="cls-1" d="M29.86,107.5s.4,2.25,2.54,5.46c1.1,1.64,2.72,3.53,5.02,5.31,1.19.92,2.56,1.81,4.12,2.62,1.6.84,3.4,1.6,5.38,2.24,2.03.66,4.26,1.19,6.66,1.56,2.46.38,5.08.58,7.84.59,2.81,0,5.76-.2,8.78-.63,3.06-.44,6.18-1.11,9.32-2.01,6.29-1.82,12.52-4.59,18.15-8.23,2.75-1.78,5.34-3.76,7.68-5.91,2.28-2.09,4.33-4.34,6.06-6.7,1.68-2.28,3.06-4.66,4.09-7.08.99-2.33,1.65-4.71,1.94-7.04.28-2.26.21-4.5-.19-6.6-.4-2.08-1.14-4.05-2.14-5.84-2.03-3.62-5.22-6.53-8.79-8.6-1.85-1.08-3.81-1.95-5.81-2.64-2.05-.71-4.13-1.23-6.19-1.6-4.24-.76-8.35-.9-12.05-.71-3.77.19-7.09.7-9.81,1.27-5.49,1.13-8.51,2.33-8.51,2.33"/>
      <path class="cls-1" d="M26.15,104.36s.2,2.41,2.12,5.95c.98,1.8,2.48,3.9,4.71,5.92,1.14,1.04,2.48,2.05,4.02,3,1.58.97,3.37,1.87,5.37,2.65,2.05.8,4.31,1.48,6.77,1.99,2.52.52,5.23.87,8.09,1,2.93.14,6,.06,9.18-.26,3.23-.33,6.54-.9,9.88-1.72,6.74-1.67,13.47-4.35,19.66-8,3.04-1.79,5.91-3.8,8.55-6,2.57-2.15,4.91-4.47,6.93-6.92,1.96-2.38,3.61-4.87,4.9-7.42,1.24-2.46,2.14-4.98,2.65-7.47.49-2.41.62-4.81.38-7.09-.24-2.24-.83-4.39-1.73-6.35-1.8-3.95-4.88-7.22-8.42-9.59-1.84-1.23-3.81-2.24-5.83-3.07-2.07-.84-4.19-1.49-6.31-1.97-4.35-1-8.61-1.31-12.47-1.27-3.94.04-7.43.45-10.3.94-5.81.98-9.04,2.13-9.04,2.13"/>
      <path class="cls-1" d="M22.53,100.83s-.01,2.55,1.67,6.42c.85,1.96,2.22,4.25,4.34,6.5,1.09,1.15,2.39,2.29,3.9,3.37,1.55,1.1,3.32,2.14,5.31,3.06,2.05.94,4.33,1.76,6.82,2.41,2.56.67,5.34,1.15,8.29,1.42,3.02.28,6.22.32,9.54.12,3.38-.21,6.86-.67,10.4-1.41,7.15-1.49,14.38-4.07,21.11-7.7,3.31-1.79,6.47-3.81,9.39-6.05,2.86-2.19,5.48-4.57,7.79-7.11,2.24-2.46,4.17-5.06,5.72-7.73,1.5-2.58,2.64-5.23,3.37-7.88.71-2.55,1.04-5.11.97-7.56-.07-2.4-.51-4.72-1.28-6.85-1.55-4.26-4.49-7.89-7.98-10.56-1.81-1.38-3.78-2.54-5.81-3.5-2.08-.98-4.24-1.75-6.39-2.35-4.44-1.23-8.83-1.73-12.83-1.83-4.09-.11-7.73.19-10.74.6-6.11.82-9.52,1.91-9.52,1.91"/>
      <path class="cls-1" d="M19.04,97.03s-.21,2.67,1.24,6.85c.73,2.09,1.96,4.57,3.98,7.03,1.04,1.26,2.28,2.52,3.76,3.71,1.51,1.22,3.26,2.39,5.25,3.44,2.04,1.08,4.34,2.03,6.86,2.81,2.59.8,5.43,1.42,8.45,1.82,3.1.41,6.41.58,9.85.49,3.51-.09,7.15-.46,10.86-1.11,7.53-1.32,15.21-3.79,22.44-7.39,3.57-1.78,6.99-3.81,10.19-6.08,3.13-2.22,6.03-4.66,8.6-7.27,2.5-2.54,4.69-5.22,6.5-8.01,1.74-2.69,3.11-5.46,4.07-8.24.92-2.68,1.44-5.38,1.54-7.99.1-2.54-.2-5.01-.85-7.31-1.3-4.55-4.1-8.51-7.55-11.46-1.78-1.52-3.74-2.81-5.78-3.89-2.09-1.11-4.27-1.99-6.46-2.69-2.24-.72-4.48-1.24-6.67-1.62-2.23-.38-4.4-.62-6.48-.74-4.23-.25-8.01-.05-11.15.28-6.37.66-9.97,1.7-9.97,1.7"/>
      <path class="cls-1" d="M15.71,93.12s-.04.67.02,1.93c.06,1.25.23,3.07.85,5.28.63,2.21,1.74,4.85,3.68,7.49.99,1.35,2.2,2.7,3.65,4,1.48,1.33,3.22,2.6,5.2,3.76,2.04,1.19,4.35,2.26,6.9,3.15,2.63.92,5.51,1.65,8.61,2.15,3.18.52,6.58.79,10.13.79,3.63,0,7.42-.28,11.28-.86,7.87-1.18,15.96-3.57,23.63-7.16,3.8-1.78,7.46-3.83,10.9-6.13,3.37-2.26,6.51-4.75,9.32-7.43,2.73-2.6,5.15-5.38,7.17-8.26,1.95-2.78,3.53-5.67,4.66-8.57,1.1-2.8,1.78-5.62,2.03-8.36.24-2.66.07-5.28-.49-7.71-1.1-4.8-3.79-9.04-7.2-12.23-1.76-1.64-3.72-3.05-5.77-4.23-2.1-1.21-4.31-2.19-6.53-2.98-2.27-.81-4.56-1.41-6.8-1.86-2.28-.46-4.52-.75-6.65-.93-4.36-.36-8.27-.25-11.52.02-6.62.54-10.37,1.54-10.37,1.54"/>
      <path class="cls-1" d="M12.56,89.34s-.07.7-.05,2c.02,1.29.12,3.19.69,5.5.56,2.3,1.61,5.06,3.52,7.84.97,1.41,2.17,2.84,3.61,4.22,1.48,1.4,3.22,2.76,5.22,3.99,2.06,1.27,4.4,2.42,6.99,3.38,2.67,1,5.62,1.8,8.79,2.38,3.26.59,6.76.93,10.42.99,3.75.06,7.66-.17,11.67-.71,8.18-1.11,16.61-3.48,24.65-7.09,3.99-1.79,7.84-3.87,11.46-6.22,3.56-2.31,6.88-4.85,9.88-7.6,2.91-2.67,5.5-5.53,7.68-8.5,2.11-2.87,3.83-5.85,5.09-8.86,1.22-2.9,2.02-5.83,2.36-8.68.33-2.77.24-5.48-.27-8.03-.99-5-3.63-9.45-7.06-12.8-1.76-1.73-3.74-3.21-5.83-4.47-2.13-1.29-4.38-2.33-6.65-3.18-2.32-.87-4.66-1.53-6.96-2.02-2.34-.5-4.63-.84-6.83-1.05-4.48-.43-8.51-.36-11.87-.13-6.84.47-10.73,1.46-10.73,1.46"/>
      <path class="cls-1" d="M9.61,85.98s-.07.72-.06,2.06c0,1.33.11,3.27.67,5.65.56,2.37,1.63,5.2,3.57,8.05.99,1.45,2.21,2.92,3.69,4.33,1.51,1.44,3.3,2.83,5.35,4.1,2.11,1.31,4.52,2.49,7.19,3.48,2.75,1.03,5.78,1.86,9.05,2.44,3.36.6,6.96.95,10.73,1.01,3.87.06,7.9-.18,12.04-.73,8.44-1.14,17.14-3.58,25.45-7.3,4.12-1.85,8.1-3.99,11.84-6.4,3.68-2.37,7.11-4.99,10.21-7.82,3.01-2.75,5.69-5.68,7.94-8.74,2.18-2.95,3.96-6.02,5.27-9.11,1.26-2.97,2.09-5.98,2.45-8.91.35-2.84.25-5.63-.26-8.24-1.01-5.12-3.73-9.68-7.25-13.12-1.81-1.77-3.85-3.29-5.99-4.57-2.19-1.31-4.5-2.38-6.83-3.25-2.39-.88-4.79-1.56-7.16-2.06-2.41-.51-4.76-.85-7.02-1.07-4.61-.44-8.75-.36-12.21-.12-7.03.49-11.04,1.51-11.04,1.51"/>
      <path class="cls-1" d="M6.95,83.36s-.05.73,0,2.08c.05,1.34.21,3.31.86,5.7.65,2.39,1.84,5.24,3.92,8.08,1.07,1.45,2.37,2.92,3.94,4.32,1.6,1.43,3.49,2.81,5.64,4.06,2.22,1.28,4.74,2.43,7.51,3.39,2.87.99,6.02,1.77,9.4,2.31,3.48.55,7.2.83,11.1.82,3.98-.01,8.14-.33,12.38-.97,8.65-1.31,17.53-3.95,25.97-7.88,4.18-1.95,8.2-4.19,11.98-6.71,3.71-2.47,7.15-5.19,10.24-8.11,3-2.84,5.65-5.85,7.87-8.99,2.14-3.02,3.86-6.15,5.11-9.3,1.2-3.03,1.95-6.08,2.21-9.04.26-2.87.06-5.69-.55-8.31-1.22-5.16-4.17-9.7-7.9-13.1-1.92-1.75-4.06-3.24-6.31-4.5-2.3-1.28-4.7-2.32-7.13-3.15-2.48-.85-4.97-1.48-7.42-1.94-2.49-.47-4.92-.77-7.24-.95-4.74-.36-9-.2-12.54.1-7.2.63-11.29,1.72-11.29,1.72"/>
      <path class="cls-1" d="M4.77,81.78s0,.73.14,2.07c.15,1.34.46,3.3,1.3,5.65.85,2.36,2.28,5.15,4.64,7.9,1.21,1.41,2.66,2.82,4.38,4.15,1.76,1.37,3.8,2.66,6.12,3.82,2.39,1.19,5.06,2.23,8,3.08,3.03.87,6.34,1.52,9.87,1.92,3.63.41,7.48.54,11.5.37,4.1-.17,8.35-.66,12.68-1.47,8.79-1.65,17.73-4.63,26.13-8.89,4.14-2.1,8.11-4.49,11.8-7.15,3.61-2.6,6.94-5.43,9.9-8.46,2.86-2.93,5.35-6.03,7.39-9.23,1.96-3.08,3.49-6.25,4.53-9.42,1-3.05,1.53-6.11,1.58-9.05.05-2.86-.37-5.64-1.19-8.2-1.64-5.09-5.01-9.45-9.07-12.66-2.1-1.66-4.4-3.06-6.79-4.21-2.45-1.18-4.99-2.12-7.53-2.85-2.6-.75-5.2-1.28-7.74-1.65-2.58-.37-5.1-.58-7.5-.67-4.89-.18-9.24.14-12.85.57-7.34.89-11.46,2.12-11.46,2.12"/>
      <path class="cls-1" d="M3.38,81.48s.08.72.39,2.02c.31,1.3.87,3.21,2.01,5.45,1.16,2.27,2.98,4.92,5.73,7.45,1.42,1.31,3.09,2.59,5.02,3.79,1.98,1.23,4.25,2.37,6.78,3.35,2.61,1.02,5.5,1.87,8.64,2.51,3.23.66,6.72,1.09,10.42,1.25,3.79.17,7.78.05,11.91-.37,4.2-.43,8.52-1.17,12.89-2.24,8.81-2.16,17.64-5.62,25.78-10.31,3.99-2.3,7.77-4.88,11.24-7.69,3.38-2.75,6.45-5.71,9.11-8.84,2.57-3.02,4.75-6.19,6.45-9.42,1.63-3.11,2.82-6.29,3.49-9.42.65-3.02.83-6.03.53-8.87-.29-2.79-1.05-5.46-2.2-7.89-1.15-2.43-2.69-4.65-4.5-6.6-1.84-1.98-3.98-3.7-6.26-5.15-2.35-1.49-4.86-2.71-7.44-3.69-2.64-1.01-5.35-1.77-8.04-2.33-2.75-.57-5.47-.94-8.12-1.15-2.69-.22-5.29-.27-7.75-.22-5.02.11-9.45.66-13.11,1.29-7.4,1.28-11.52,2.73-11.52,2.73"/>
      <path class="cls-1" d="M3.21,82.55s.2.69.74,1.92c.54,1.23,1.43,3.03,2.98,5.09,1.58,2.1,3.91,4.5,7.17,6.7,1.69,1.14,3.63,2.24,5.83,3.23,2.26,1.02,4.8,1.92,7.58,2.65,2.87.75,6,1.33,9.36,1.68,3.45.36,7.13.47,10.98.32,3.93-.16,8.03-.61,12.23-1.37,4.25-.77,8.58-1.84,12.9-3.24,4.33-1.4,8.64-3.12,12.83-5.15,4.15-2.01,8.16-4.31,11.93-6.89,3.69-2.53,7.14-5.3,10.23-8.28,3-2.89,5.65-5.97,7.85-9.18,2.12-3.08,3.82-6.28,5.02-9.5,1.15-3.09,1.84-6.22,2.02-9.25.17-2.94-.15-5.82-.91-8.48-.76-2.64-1.97-5.12-3.52-7.33-1.57-2.23-3.5-4.22-5.66-5.92-2.21-1.75-4.65-3.21-7.22-4.42-2.64-1.24-5.4-2.2-8.19-2.94-2.86-.75-5.74-1.27-8.59-1.6-2.9-.33-5.74-.48-8.49-.47-2.78,0-5.45.15-7.98.39-5.11.49-9.58,1.36-13.24,2.25-7.37,1.79-11.41,3.5-11.41,3.5"/>
      <path class="cls-1" d="M4.71,84.92s.35.64,1.16,1.75c.81,1.12,2.12,2.75,4.14,4.53,1.03.91,2.26,1.87,3.71,2.82,1.47.97,3.18,1.92,5.12,2.81,1.99.91,4.24,1.75,6.73,2.46,2.56.73,5.37,1.32,8.42,1.73,3.13.42,6.49.64,10.05.62,3.64-.02,7.47-.29,11.43-.84,8.08-1.13,16.62-3.41,24.98-6.96,4.16-1.76,8.23-3.82,12.13-6.17,3.83-2.31,7.47-4.89,10.82-7.7,3.25-2.74,6.21-5.69,8.77-8.82,2.46-3.01,4.54-6.17,6.14-9.4,1.53-3.1,2.62-6.27,3.19-9.4.55-3.02.61-6.02.18-8.86-.84-5.54-3.72-10.61-7.69-14.39-2.06-1.95-4.42-3.62-6.95-5.01-2.6-1.43-5.39-2.57-8.25-3.46-2.94-.91-5.94-1.56-8.95-1.99-3.07-.44-6.12-.66-9.11-.7-6.1-.09-11.83.54-16.91,1.46-5.14.94-9.58,2.18-13.18,3.36-7.21,2.37-11.07,4.38-11.07,4.38"/>
      <path class="cls-1" d="M8.12,88.3s.52.56,1.61,1.52c1.11.97,2.85,2.36,5.37,3.81,1.29.74,2.8,1.51,4.53,2.23,1.76.74,3.77,1.45,6,2.06,2.29.63,4.82,1.16,7.59,1.54,2.83.39,5.9.62,9.17.65,3.34.03,6.88-.15,10.59-.59,3.76-.44,7.66-1.14,11.65-2.12,8.05-1.98,16.32-5.09,24.17-9.4,3.86-2.12,7.57-4.51,11.04-7.15,3.39-2.58,6.53-5.39,9.31-8.4,2.69-2.91,5.04-5.99,6.94-9.19,1.82-3.07,3.22-6.24,4.12-9.42.86-3.05,1.24-6.13,1.11-9.09-.13-2.88-.76-5.68-1.83-8.25-1.07-2.56-2.61-4.94-4.47-7.02-1.9-2.12-4.16-3.97-6.63-5.53-2.55-1.6-5.33-2.9-8.23-3.93-2.98-1.06-6.08-1.83-9.21-2.36-3.21-.54-6.43-.83-9.62-.92-3.24-.09-6.43.03-9.51.3-12.63,1.12-23.01,4.68-29.96,7.68-6.9,2.97-10.5,5.29-10.5,5.29"/>
      <path class="cls-1" d="M13.23,92.29s.68.47,2.05,1.25c1.4.79,3.55,1.9,6.53,2.97,1.53.55,3.29,1.09,5.27,1.58,2.02.49,4.28.92,6.76,1.24,2.53.32,5.31.52,8.29.56,3.04.03,6.29-.11,9.71-.47,6.99-.74,14.64-2.38,22.45-5.17,3.91-1.4,7.83-3.06,11.68-5.02,3.81-1.94,7.52-4.14,11.05-6.61,3.46-2.42,6.71-5.08,9.66-7.96,2.86-2.79,5.42-5.77,7.57-8.91,2.07-3.01,3.75-6.15,4.94-9.34,1.14-3.06,1.83-6.18,2-9.23.16-2.95-.18-5.87-.99-8.58-.81-2.69-2.11-5.22-3.79-7.47-1.71-2.29-3.82-4.32-6.2-6.05-2.45-1.78-5.18-3.25-8.07-4.44-2.98-1.22-6.13-2.14-9.34-2.79-3.3-.67-6.66-1.06-10.01-1.22-3.41-.16-6.8-.09-10.12.16-3.35.26-6.61.71-9.74,1.29-12.68,2.37-22.71,6.83-29.29,10.42-6.46,3.52-9.71,6.11-9.71,6.11"/>
      <path class="cls-1" d="M19.22,96.48s.81.38,2.41.98c1.63.61,4.12,1.44,7.47,2.15,1.72.36,3.67.7,5.84.95,2.21.26,4.66.43,7.32.47,2.71.04,5.63-.06,8.75-.35,3.16-.29,6.51-.77,10-1.47,7.06-1.43,14.63-3.79,22.16-7.28,3.73-1.73,7.42-3.72,10.99-5.98,3.5-2.22,6.86-4.69,9.97-7.4,3.03-2.64,5.81-5.48,8.23-8.51,2.33-2.92,4.33-6,5.87-9.18,1.48-3.05,2.53-6.19,3.07-9.31.52-3.01.56-6.03.09-8.89-.46-2.82-1.43-5.53-2.82-7.98-1.41-2.47-3.27-4.73-5.45-6.67-2.24-2-4.82-3.7-7.61-5.1-2.88-1.44-5.99-2.57-9.2-3.41-3.31-.87-6.73-1.43-10.18-1.74-3.52-.32-7.06-.37-10.56-.2-7.14.34-13.97,1.57-20.2,3.27-6.27,1.72-11.84,3.9-16.6,6.16-4.71,2.24-8.59,4.54-11.64,6.57-3.01,2-5.22,3.73-6.68,4.92-1.45,1.18-2.18,1.85-2.18,1.85"/>
      <path class="cls-1" d="M24.66,100.47s.9.31,2.65.77c1.78.46,4.49,1.08,8.07,1.51,1.83.22,3.9.39,6.19.47,2.33.08,4.88.05,7.64-.12,5.63-.35,12.1-1.31,19.06-3.22,7.02-1.93,14.42-4.78,21.64-8.75,3.55-1.95,7.02-4.16,10.32-6.62,3.23-2.41,6.28-5.05,9.04-7.9,2.68-2.77,5.07-5.72,7.07-8.82,1.92-2.99,3.47-6.1,4.54-9.27,1.03-3.05,1.61-6.15,1.67-9.18.06-2.95-.38-5.86-1.3-8.56-.92-2.69-2.33-5.23-4.13-7.47-1.83-2.29-4.08-4.32-6.6-6.03-2.6-1.77-5.5-3.22-8.57-4.37-3.17-1.19-6.51-2.05-9.94-2.64-3.52-.6-7.1-.91-10.69-.96-3.65-.06-7.29.14-10.86.55-7.25.83-14.09,2.49-20.26,4.58-6.17,2.1-11.59,4.6-16.16,7.13-4.51,2.5-8.17,5.01-11.02,7.2-2.8,2.15-4.82,3.99-6.15,5.26-1.31,1.25-1.97,1.96-1.97,1.96"/>
      <path class="cls-1" d="M28.21,103.83s.94.27,2.77.65c1.86.39,4.66.89,8.35,1.18,3.79.29,8.56.35,14.11-.2,5.69-.56,12.19-1.77,19.11-3.93,6.96-2.17,14.24-5.27,21.24-9.47,3.44-2.06,6.77-4.36,9.92-6.92,3.07-2.49,5.94-5.21,8.5-8.12,2.48-2.82,4.66-5.82,6.43-8.95,1.7-3.01,3.01-6.14,3.83-9.29.79-3.04,1.12-6.12.94-9.09-.18-2.9-.86-5.75-2.01-8.37-1.15-2.62-2.79-5.06-4.78-7.19-2.04-2.19-4.48-4.09-7.17-5.69-2.77-1.65-5.82-2.97-9.02-3.99-3.3-1.05-6.75-1.79-10.28-2.24-3.61-.47-7.27-.64-10.91-.57-3.71.07-7.38.4-10.96.92-7.27,1.07-14.1,2.95-20.2,5.23-6.09,2.28-11.41,4.95-15.86,7.61-4.38,2.62-7.92,5.24-10.64,7.5-2.68,2.22-4.59,4.11-5.84,5.41-1.24,1.29-1.85,2-1.85,2"/>
      <path class="cls-1" d="M30.02,106.25s.96.26,2.8.61c1.87.36,4.7.83,8.42,1.06,3.82.24,8.6.24,14.17-.38,5.69-.63,12.18-1.91,19.07-4.15,6.91-2.25,14.13-5.42,21.04-9.69,3.39-2.09,6.67-4.43,9.75-7,3.01-2.52,5.8-5.25,8.29-8.18,2.4-2.84,4.5-5.84,6.18-8.97,1.62-3.01,2.84-6.14,3.58-9.28.71-3.03.95-6.09.68-9.04-.26-2.89-1.03-5.71-2.25-8.29-1.23-2.59-2.94-4.99-4.99-7.1-2.11-2.15-4.6-4.02-7.34-5.57-2.82-1.6-5.92-2.88-9.16-3.87-3.33-1.01-6.82-1.7-10.36-2.11-3.63-.42-7.3-.55-10.96-.44-3.71.11-7.39.48-10.97,1.04-7.26,1.15-14.06,3.09-20.13,5.44-6.05,2.34-11.32,5.06-15.72,7.76-4.33,2.66-7.8,5.31-10.48,7.59-2.63,2.24-4.5,4.15-5.72,5.46-1.21,1.29-1.8,2.02-1.8,2.02"/>
      <path class="cls-1" d="M32.16,108.04s.97.23,2.85.55c1.9.32,4.77.72,8.53.88,3.85.16,8.66.06,14.25-.67,5.69-.75,12.16-2.15,19-4.51,6.84-2.37,13.95-5.66,20.72-10.03,3.31-2.14,6.5-4.52,9.48-7.13,2.91-2.55,5.6-5.31,7.96-8.26,2.29-2.85,4.26-5.87,5.81-9,1.49-3.01,2.59-6.13,3.18-9.24.58-3.01.69-6.05.29-8.95-.39-2.85-1.28-5.63-2.62-8.15-1.35-2.54-3.16-4.88-5.32-6.92-2.21-2.09-4.79-3.88-7.61-5.37-2.9-1.53-6.06-2.74-9.36-3.65-3.39-.93-6.92-1.55-10.5-1.89-3.66-.35-7.36-.41-11.02-.23-3.72.18-7.4.61-10.98,1.24-7.25,1.27-14,3.33-20.01,5.77-5.98,2.43-11.17,5.22-15.49,7.99-4.24,2.72-7.63,5.41-10.23,7.73-2.55,2.27-4.36,4.2-5.53,5.52-1.16,1.31-1.73,2.03-1.73,2.03"/>
      <path class="cls-1" d="M35.8,109.45s1.01.18,2.95.41c1.97.23,4.91.49,8.76.47,3.93-.02,8.8-.34,14.42-1.31,5.7-.99,12.13-2.66,18.87-5.29,3.36-1.31,6.78-2.86,10.17-4.66,3.36-1.79,6.69-3.81,9.89-6.09,3.15-2.24,6.16-4.7,8.93-7.39,2.7-2.62,5.17-5.43,7.29-8.42,2.05-2.88,3.77-5.92,5.05-9.04,1.23-3,2.05-6.1,2.37-9.16.31-2.97.14-5.94-.52-8.75-.66-2.78-1.81-5.44-3.38-7.84-1.59-2.43-3.64-4.63-5.99-6.52-2.42-1.95-5.19-3.59-8.16-4.92-3.07-1.37-6.37-2.42-9.78-3.17-3.51-.77-7.13-1.23-10.79-1.41-3.73-.19-7.48-.09-11.18.24-3.75.33-7.44.91-11.02,1.67-7.22,1.54-13.9,3.83-19.79,6.48-5.85,2.63-10.88,5.58-15.03,8.48-4.07,2.84-7.28,5.62-9.72,8.01-2.39,2.34-4.06,4.31-5.14,5.66-1.07,1.33-1.58,2.07-1.58,2.07"/>
      <path class="cls-1" d="M40.68,110.12s1.06.11,3.08.2c2.05.09,5.1.15,9.04-.12,4.02-.28,8.96-.91,14.6-2.23,5.69-1.34,12.04-3.37,18.59-6.38,3.25-1.49,6.53-3.21,9.77-5.18,3.19-1.94,6.31-4.12,9.29-6.54,2.91-2.36,5.65-4.94,8.13-7.73,2.4-2.7,4.54-5.58,6.31-8.61,1.7-2.91,3.06-5.96,3.95-9.05.86-2.98,1.29-6.02,1.22-8.99-.14-5.73-2.34-11.38-6.1-15.77-1.94-2.26-4.29-4.25-6.92-5.93-2.71-1.73-5.72-3.15-8.92-4.26-3.29-1.14-6.78-1.96-10.35-2.48-3.66-.53-7.41-.76-11.16-.72-3.82.04-7.63.35-11.37.89-3.78.55-7.47,1.32-11.04,2.28-7.16,1.92-13.71,4.54-19.43,7.48-5.65,2.9-10.44,6.07-14.34,9.15-3.81,3.01-6.76,5.91-8.97,8.39-2.16,2.42-3.63,4.44-4.57,5.82-.93,1.36-1.36,2.12-1.36,2.12"/>
      <path class="cls-1" d="M46.1,109.66s1.11.03,3.2-.04c2.12-.07,5.27-.24,9.3-.8,4.08-.57,9.07-1.55,14.68-3.26,5.63-1.71,11.84-4.15,18.13-7.55,3.11-1.68,6.21-3.58,9.23-5.73,2.97-2.11,5.84-4.44,8.52-6.99,2.61-2.49,5.03-5.17,7.15-8.04,2.05-2.77,3.81-5.7,5.17-8.74,1.31-2.93,2.24-5.96,2.69-8.99.44-2.93.43-5.9-.08-8.73-.5-2.79-1.49-5.5-2.91-7.97-1.44-2.49-3.34-4.78-5.59-6.76-2.3-2.04-4.98-3.79-7.9-5.23-3.01-1.48-6.29-2.64-9.71-3.49-3.52-.87-7.19-1.42-10.92-1.68-3.81-.26-7.67-.23-11.51.07-7.84.6-15.47,2.26-22.51,4.59-7.05,2.34-13.42,5.32-18.9,8.56-5.39,3.19-9.88,6.6-13.47,9.86-3.49,3.17-6.13,6.2-8.06,8.76-1.88,2.5-3.11,4.57-3.89,5.98-.76,1.39-1.11,2.15-1.11,2.15"/>
      <path class="cls-1" d="M51.28,107.95s1.15-.05,3.3-.27c2.17-.22,5.39-.62,9.46-1.46,8.25-1.71,20.07-5.28,32.13-12.87,2.93-1.85,5.84-3.91,8.62-6.2,2.73-2.24,5.33-4.7,7.71-7.36,2.31-2.58,4.39-5.34,6.15-8.26,1.69-2.81,3.07-5.76,4.02-8.78.91-2.91,1.43-5.9,1.46-8.84.03-2.86-.41-5.71-1.32-8.39-.91-2.66-2.31-5.2-4.1-7.46-1.83-2.31-4.09-4.37-6.65-6.13-2.64-1.81-5.62-3.31-8.8-4.5-3.28-1.22-6.78-2.12-10.4-2.71-3.72-.6-7.54-.89-11.4-.89-3.93,0-7.88.29-11.78.83-7.92,1.1-15.53,3.21-22.46,5.94-6.9,2.73-13.05,6.05-18.26,9.57-5.1,3.44-9.26,7.06-12.52,10.48-3.16,3.31-5.47,6.44-7.11,9.07-1.6,2.55-2.58,4.65-3.18,6.08-.6,1.4-.84,2.17-.84,2.17"/>
      <path class="cls-1" d="M55.56,105.12s1.17-.13,3.35-.48c2.2-.35,5.44-.95,9.52-2.03,4.1-1.09,9.03-2.68,14.44-5.05,5.37-2.35,11.16-5.44,16.81-9.48,2.76-1.97,5.46-4.15,8.02-6.55,2.5-2.34,4.84-4.88,6.94-7.6,2.03-2.64,3.81-5.44,5.23-8.36,1.37-2.82,2.41-5.76,3-8.73.57-2.87.72-5.79.39-8.62-.33-2.78-1.13-5.51-2.38-8.02-1.26-2.53-2.99-4.89-5.08-6.96-2.15-2.13-4.69-3.98-7.51-5.53-2.91-1.59-6.12-2.87-9.5-3.83-3.49-.99-7.16-1.65-10.93-2.01-3.86-.37-7.79-.42-11.74-.2-4.01.23-8,.74-11.93,1.49-7.94,1.52-15.48,4-22.27,7.07-6.73,3.04-12.65,6.63-17.59,10.37-4.81,3.64-8.67,7.41-11.62,10.94-2.85,3.41-4.85,6.6-6.23,9.26-1.33,2.59-2.1,4.69-2.55,6.12-.44,1.4-.61,2.17-.61,2.17"/>
      <path class="cls-1" d="M58.46,101.47s4.78-.57,12.85-3.07c4.06-1.26,8.91-3.04,14.2-5.62,5.22-2.54,10.8-5.83,16.16-10.03,2.61-2.05,5.14-4.29,7.51-6.75,2.31-2.39,4.44-4.97,6.31-7.71,1.8-2.65,3.34-5.46,4.51-8.37,1.12-2.8,1.9-5.71,2.21-8.62.31-2.82.19-5.67-.41-8.39-.59-2.69-1.65-5.3-3.14-7.68-1.51-2.41-3.47-4.61-5.78-6.53-2.37-1.97-5.11-3.65-8.11-5.03-3.09-1.42-6.45-2.51-9.96-3.3-3.62-.81-7.4-1.29-11.25-1.47-3.94-.19-7.93-.06-11.92.33-4.04.4-8.05,1.07-11.97,1.98-7.91,1.83-15.35,4.58-22,7.88-6.56,3.26-12.27,7.03-16.97,10.91-4.56,3.77-8.16,7.63-10.85,11.21-2.59,3.46-4.35,6.67-5.51,9.33-1.13,2.59-1.71,4.68-2.04,6.1-.33,1.39-.42,2.14-.42,2.14"/>
      <path class="cls-1" d="M59.77,97.34s4.76-.7,12.74-3.4c4-1.36,8.77-3.25,13.93-5.93,2.56-1.33,5.19-2.84,7.85-4.57,2.62-1.7,5.24-3.61,7.79-5.72,2.49-2.07,4.91-4.35,7.14-6.82,2.17-2.4,4.16-4.98,5.88-7.71,1.65-2.64,3.03-5.43,4.03-8.3.96-2.77,1.57-5.63,1.72-8.47.15-2.76-.14-5.54-.89-8.17-.75-2.61-1.96-5.12-3.59-7.4-1.65-2.31-3.75-4.4-6.16-6.2-2.49-1.85-5.33-3.42-8.41-4.67-3.18-1.3-6.61-2.27-10.18-2.93-3.68-.68-7.49-1.04-11.37-1.11-3.96-.07-7.97.16-11.95.66-4.03.5-8.02,1.28-11.92,2.28-7.84,2.01-15.17,4.91-21.68,8.34-6.41,3.37-11.95,7.22-16.48,11.16-4.38,3.81-7.79,7.7-10.3,11.3-2.42,3.46-4.01,6.66-5.03,9.3-.99,2.57-1.46,4.64-1.71,6.03-.25,1.37-.3,2.11-.3,2.11"/>
      <path class="cls-1" d="M59.52,93.03s4.71-.75,12.57-3.5c3.94-1.38,8.63-3.3,13.69-5.99,2.5-1.33,5.09-2.85,7.68-4.57,2.56-1.7,5.11-3.6,7.59-5.7,2.43-2.06,4.77-4.31,6.93-6.76,2.1-2.38,4.02-4.92,5.65-7.62,1.58-2.6,2.89-5.35,3.82-8.17.89-2.72,1.43-5.52,1.52-8.3.17-5.34-1.48-10.8-4.78-15.17-1.69-2.24-3.81-4.26-6.25-5.99-2.51-1.79-5.37-3.28-8.45-4.47-3.18-1.23-6.6-2.14-10.17-2.75-3.66-.62-7.46-.93-11.31-.95-3.93-.02-7.9.26-11.85.8-3.99.54-7.94,1.35-11.79,2.38-7.74,2.07-14.96,5-21.37,8.44-3.16,1.7-6.11,3.52-8.83,5.41-2.68,1.86-5.12,3.79-7.31,5.74-4.27,3.79-7.58,7.65-9.99,11.2-2.32,3.42-3.84,6.58-4.79,9.18-.92,2.53-1.35,4.57-1.56,5.93-.22,1.35-.25,2.07-.25,2.07"/>
      <path class="cls-1" d="M57.9,88.72s4.62-.72,12.34-3.4c3.87-1.34,8.48-3.21,13.47-5.83,2.47-1.3,5.01-2.78,7.57-4.46,2.52-1.66,5.05-3.51,7.5-5.56,2.4-2.01,4.72-4.21,6.86-6.6,2.08-2.32,3.99-4.81,5.62-7.45,1.58-2.55,2.89-5.23,3.83-7.99.91-2.66,1.47-5.41,1.58-8.13.23-5.23-1.33-10.59-4.52-14.88-1.63-2.2-3.69-4.19-6.06-5.89-2.44-1.76-5.23-3.23-8.24-4.41-3.11-1.21-6.46-2.11-9.94-2.72-3.59-.62-7.31-.93-11.09-.96-3.86-.03-7.76.23-11.64.75-3.93.52-7.81,1.31-11.59,2.31-7.61,2.01-14.73,4.87-21.05,8.23-6.21,3.31-11.56,7.06-15.93,10.9-4.22,3.71-7.5,7.48-9.9,10.96-2.31,3.35-3.82,6.44-4.77,8.99-.93,2.48-1.36,4.47-1.58,5.81-.22,1.32-.27,2.03-.27,2.03"/>
      <path class="cls-1" d="M55.21,84.5s4.5-.64,12.06-3.13c3.8-1.25,8.33-3,13.25-5.49,4.86-2.45,10.02-5.59,14.97-9.57,2.4-1.93,4.73-4.05,6.9-6.35,2.11-2.24,4.06-4.65,5.74-7.21,1.63-2.47,3.01-5.08,4.03-7.77.98-2.59,1.64-5.28,1.86-7.95.22-2.59.03-5.21-.61-7.69-.63-2.46-1.71-4.84-3.18-6.98-1.49-2.18-3.42-4.17-5.65-5.88-2.3-1.76-4.95-3.25-7.82-4.45-2.97-1.24-6.18-2.18-9.54-2.82-3.46-.67-7.06-1.02-10.72-1.11-3.74-.09-7.54.11-11.32.56-3.83.46-7.62,1.17-11.33,2.09-7.47,1.86-14.47,4.56-20.71,7.77-6.14,3.15-11.46,6.76-15.83,10.45-4.22,3.57-7.53,7.22-9.98,10.59-2.35,3.24-3.92,6.25-4.94,8.73-.98,2.41-1.47,4.35-1.74,5.66-.26,1.29-.33,1.98-.33,1.98"/>
      <path class="cls-1" d="M51.82,80.41s4.35-.51,11.72-2.73c3.71-1.12,8.16-2.71,13.01-5.01,4.8-2.27,9.94-5.2,14.93-8.95,2.42-1.83,4.79-3.84,7.01-6.03,2.16-2.14,4.18-4.44,5.96-6.9,1.72-2.38,3.2-4.89,4.35-7.51,1.11-2.52,1.9-5.13,2.28-7.75.37-2.53.35-5.1-.1-7.56-.45-2.42-1.33-4.79-2.61-6.94-1.3-2.18-3.02-4.18-5.06-5.92-2.1-1.79-4.55-3.32-7.23-4.57-2.78-1.29-5.81-2.29-8.99-3.01-3.28-.74-6.72-1.18-10.23-1.36-3.59-.18-7.25-.08-10.9.27-3.71.35-7.39.96-11,1.77-7.28,1.64-14.16,4.12-20.32,7.1-6.08,2.94-11.38,6.34-15.77,9.85-4.25,3.4-7.62,6.88-10.16,10.12-2.44,3.12-4.11,6.01-5.22,8.41-1.08,2.33-1.66,4.22-1.98,5.49-.32,1.25-.43,1.93-.43,1.93"/>
      <path class="cls-1" d="M48.06,76.41s4.17-.35,11.31-2.26c3.6-.97,7.94-2.37,12.72-4.43,4.74-2.05,9.85-4.73,14.86-8.22,2.45-1.7,4.85-3.58,7.13-5.65,2.23-2.02,4.32-4.2,6.21-6.55,1.82-2.27,3.43-4.68,4.74-7.2,1.25-2.42,2.22-4.95,2.8-7.51.55-2.47.75-4.98.51-7.41-.23-2.38-.88-4.73-1.93-6.89-1.06-2.17-2.54-4.2-4.34-5.98-1.85-1.83-4.07-3.41-6.53-4.73-2.54-1.36-5.35-2.45-8.33-3.26-3.07-.84-6.31-1.38-9.64-1.67-3.41-.29-6.9-.31-10.4-.09-3.56.23-7.11.7-10.6,1.38-7.07,1.38-13.78,3.59-19.85,6.31-6.01,2.69-11.29,5.85-15.71,9.13-4.29,3.19-7.74,6.49-10.38,9.56-2.54,2.97-4.34,5.74-5.57,8.05-1.19,2.24-1.88,4.06-2.28,5.29-.4,1.21-.55,1.87-.55,1.87"/>
      <path class="cls-1" d="M44.22,72.5s.97-.07,2.8-.31c1.84-.24,4.57-.65,8.02-1.44,6.97-1.6,16.93-4.77,27.08-11.22,2.46-1.56,4.9-3.3,7.23-5.23,2.28-1.88,4.46-3.93,6.45-6.14,1.93-2.14,3.67-4.43,5.13-6.85,1.41-2.32,2.55-4.75,3.33-7.23.75-2.39,1.17-4.84,1.17-7.24,0-2.34-.39-4.66-1.19-6.83-.8-2.16-2.01-4.21-3.56-6.03-1.58-1.86-3.54-3.5-5.74-4.89-2.28-1.44-4.85-2.61-7.58-3.51-2.83-.94-5.85-1.6-8.96-2.01-3.2-.42-6.5-.57-9.82-.48-3.39.09-6.78.42-10.14.95-6.81,1.09-13.34,3-19.29,5.43-5.91,2.41-11.16,5.3-15.59,8.34-4.32,2.96-7.85,6.05-10.59,8.95-2.65,2.8-4.57,5.44-5.92,7.64-1.31,2.14-2.11,3.89-2.59,5.07-.48,1.16-.67,1.8-.67,1.8"/>
      <path class="cls-1" d="M40.55,68.64s.92-.03,2.65-.18c1.75-.15,4.33-.43,7.62-1.05,6.69-1.26,16.33-3.93,26.41-9.74,2.46-1.42,4.91-3.01,7.29-4.78,2.33-1.74,4.57-3.64,6.65-5.71,2.02-2.01,3.88-4.17,5.49-6.45,1.55-2.2,2.87-4.52,3.85-6.92.94-2.3,1.58-4.67,1.82-7.02.23-2.28.1-4.56-.44-6.73-.53-2.14-1.47-4.2-2.75-6.05-1.3-1.88-2.98-3.58-4.92-5.03-2-1.5-4.3-2.75-6.79-3.76-2.57-1.04-5.35-1.81-8.23-2.34-2.98-.54-6.06-.82-9.18-.88-3.2-.05-6.42.13-9.62.51-6.52.79-12.83,2.4-18.62,4.52-5.78,2.12-10.97,4.73-15.4,7.51-4.33,2.72-7.91,5.58-10.74,8.29-2.74,2.62-4.77,5.11-6.24,7.19-1.42,2.03-2.32,3.69-2.89,4.83-.55,1.11-.79,1.72-.79,1.72"/>
      <path class="cls-1" d="M37.23,64.84s.86.01,2.48-.06c1.64-.07,4.07-.23,7.19-.68,3.16-.46,7.03-1.23,11.39-2.53,4.38-1.31,9.22-3.16,14.16-5.73,2.44-1.27,4.88-2.7,7.28-4.31,2.35-1.58,4.64-3.33,6.79-5.25,2.09-1.87,4.05-3.88,5.79-6.03,1.68-2.08,3.14-4.28,4.3-6.56,1.12-2.19,1.95-4.47,2.42-6.76.45-2.2.56-4.44.28-6.58-.55-4.18-2.75-8.18-6.05-11.15-1.72-1.55-3.75-2.88-5.98-3.96-2.31-1.13-4.83-2-7.48-2.64-2.73-.66-5.6-1.06-8.51-1.25-2.99-.19-6.03-.15-9.05.09-6.2.49-12.25,1.8-17.86,3.63-5.62,1.83-10.71,4.15-15.11,6.67-4.31,2.47-7.92,5.1-10.81,7.62-2.8,2.44-4.93,4.77-6.49,6.73-1.52,1.91-2.51,3.49-3.14,4.56-.62,1.06-.9,1.64-.9,1.64"/>
      <path class="cls-1" d="M34.36,61.09s.79.05,2.3.05c1.52,0,3.8-.04,6.73-.34,2.98-.3,6.64-.88,10.8-1.94,4.2-1.08,8.88-2.66,13.71-4.91,2.39-1.12,4.81-2.4,7.19-3.85,2.35-1.43,4.65-3.02,6.84-4.78,2.14-1.72,4.16-3.58,6-5.59,1.77-1.94,3.36-4.01,4.68-6.18,1.26-2.08,2.27-4.25,2.95-6.46.64-2.12.98-4.28.93-6.39-.09-4.05-1.71-8.06-4.5-11.11-1.45-1.58-3.21-2.96-5.17-4.12-2.04-1.2-4.31-2.15-6.71-2.89-2.49-.76-5.12-1.28-7.82-1.58-2.78-.31-5.61-.4-8.45-.29-5.84.22-11.61,1.24-17,2.77-5.43,1.55-10.38,3.59-14.71,5.85-4.26,2.22-7.86,4.63-10.78,6.94-2.84,2.25-5.04,4.42-6.67,6.25-1.59,1.79-2.66,3.28-3.35,4.29-.67,1-.99,1.55-.99,1.55"/>
      <path class="cls-1" d="M32.02,57.41s.73.08,2.12.15c1.41.07,3.52.12,6.24-.04,2.79-.17,6.23-.56,10.17-1.41,4-.86,8.47-2.18,13.15-4.14,4.64-1.95,9.39-4.49,13.83-7.72,2.15-1.57,4.21-3.28,6.11-5.14,1.84-1.8,3.51-3.73,4.95-5.77,1.38-1.96,2.53-4.02,3.38-6.12.81-2.02,1.33-4.1,1.5-6.14.32-3.9-.77-7.87-3.08-10.96-1.19-1.59-2.69-3.01-4.41-4.21-1.78-1.25-3.8-2.27-5.96-3.08-2.24-.84-4.64-1.45-7.12-1.86-2.55-.42-5.19-.62-7.84-.63-2.71-.01-5.43.17-8.11.51-2.72.35-5.38.85-7.97,1.49-5.2,1.28-10,3.06-14.21,5.07-4.17,1.98-7.73,4.16-10.65,6.28-2.85,2.07-5.08,4.07-6.76,5.77-1.64,1.66-2.77,3.06-3.5,4.01-.72.94-1.06,1.45-1.06,1.45"/>
      <path class="cls-1" d="M30.22,53.81s.67.11,1.94.23c1.29.12,3.23.26,5.76.21,2.59-.05,5.8-.29,9.5-.94,3.77-.67,8.03-1.75,12.51-3.44,4.47-1.69,9.1-3.94,13.49-6.85,2.14-1.42,4.2-2.99,6.13-4.69,1.87-1.66,3.6-3.45,5.12-5.35,1.46-1.83,2.72-3.76,3.71-5.76.94-1.91,1.62-3.89,1.97-5.86.34-1.9.37-3.81.06-5.63-.3-1.79-.95-3.52-1.88-5.07-.95-1.58-2.21-3.01-3.69-4.24-1.53-1.27-3.31-2.35-5.24-3.22-2-.9-4.17-1.59-6.43-2.08-2.33-.51-4.76-.8-7.21-.92-2.52-.12-5.05-.05-7.57.17-2.55.23-5.07.61-7.52,1.13-4.95,1.04-9.55,2.57-13.63,4.34-4.04,1.75-7.53,3.72-10.41,5.64-2.82,1.88-5.06,3.72-6.76,5.3-1.66,1.54-2.83,2.83-3.58,3.72-.74.87-1.1,1.36-1.1,1.36"/>
      <path class="cls-1" d="M28.95,50.31s.6.13,1.76.29c1.18.17,2.95.36,5.28.41,2.38.05,5.36-.06,8.82-.55,3.53-.5,7.54-1.38,11.8-2.82,4.27-1.44,8.72-3.43,13.01-6.04,2.1-1.28,4.13-2.7,6.06-4.26,1.87-1.52,3.62-3.17,5.19-4.93,1.51-1.7,2.84-3.5,3.93-5.38,1.04-1.8,1.84-3.67,2.34-5.54.48-1.8.68-3.64.55-5.4-.12-1.72-.56-3.4-1.29-4.94-.73-1.55-1.77-2.97-3.04-4.21-1.3-1.28-2.86-2.38-4.57-3.28-1.78-.94-3.73-1.68-5.77-2.23-2.12-.57-4.34-.95-6.59-1.15-2.32-.21-4.67-.23-7.01-.11-2.39.13-4.75.41-7.05.81-4.68.82-9.05,2.13-12.96,3.68-3.89,1.54-7.27,3.3-10.09,5.04-2.76,1.71-4.97,3.39-6.67,4.84-1.66,1.42-2.84,2.61-3.61,3.43-.76.81-1.13,1.26-1.13,1.26"/>
      <path class="cls-1" d="M28.19,46.93s.54.14,1.6.33c1.07.2,2.68.44,4.81.57,2.18.13,4.93.12,8.13-.22,3.28-.35,7.03-1.05,11.04-2.27,4.04-1.23,8.28-2.96,12.42-5.29,2.03-1.14,4.01-2.42,5.9-3.84,1.84-1.38,3.58-2.89,5.17-4.51,1.53-1.57,2.9-3.23,4.04-4.98,1.1-1.68,1.99-3.43,2.6-5.2.59-1.7.92-3.44.95-5.13.03-1.64-.24-3.26-.79-4.76-.55-1.49-1.39-2.9-2.46-4.13-1.1-1.26-2.44-2.37-3.95-3.29-1.56-.96-3.3-1.73-5.14-2.33-1.91-.62-3.93-1.05-5.99-1.32-2.13-.28-4.29-.38-6.46-.34-2.21.04-4.41.23-6.57.54-4.38.63-8.52,1.74-12.23,3.09-3.71,1.35-6.95,2.91-9.67,4.48-2.68,1.54-4.84,3.07-6.5,4.39-3.23,2.56-4.71,4.32-4.71,4.32"/>
      <path class="cls-1" d="M27.89,43.67s.49.15,1.44.36c.96.22,2.42.5,4.35.68,1.99.19,4.5.26,7.44.03,3.03-.23,6.5-.78,10.25-1.81,3.78-1.04,7.78-2.54,11.72-4.61,1.94-1.02,3.84-2.16,5.67-3.44,1.79-1.25,3.49-2.62,5.05-4.1,1.51-1.43,2.89-2.97,4.06-4.58,1.13-1.55,2.07-3.18,2.76-4.84.66-1.59,1.09-3.22,1.24-4.82.14-1.55.02-3.09-.38-4.53-.79-2.85-2.76-5.41-5.34-7.23-1.36-.96-2.91-1.74-4.56-2.36-1.71-.64-3.53-1.11-5.41-1.43-1.93-.33-3.92-.49-5.91-.51-2.04-.03-4.07.09-6.07.32-4.08.47-7.95,1.4-11.45,2.56-3.5,1.17-6.58,2.56-9.19,3.96-2.56,1.38-4.65,2.77-6.26,3.97-3.14,2.33-4.6,3.95-4.6,3.95"/>
      <path class="cls-1" d="M28.02,40.55s.44.15,1.29.37c.86.23,2.18.53,3.92.75,1.8.22,4.08.36,6.77.22,2.77-.14,5.97-.56,9.43-1.42,3.51-.87,7.24-2.17,10.95-3.99,3.64-1.79,7.17-4.04,10.23-6.76,1.47-1.3,2.82-2.7,3.99-4.18,1.13-1.42,2.09-2.92,2.83-4.46.7-1.47,1.2-2.99,1.44-4.49.23-1.45.22-2.9-.05-4.26-.53-2.69-2.16-5.16-4.41-6.93-1.18-.94-2.55-1.72-4.01-2.34-1.52-.65-3.16-1.14-4.85-1.49-1.75-.36-3.55-.56-5.37-.64-1.86-.08-3.73-.02-5.57.14-3.76.33-7.36,1.11-10.62,2.11-6.54,2.02-11.47,4.86-14.59,7.06-3.01,2.11-4.43,3.59-4.43,3.59"/>
      <path class="cls-1" d="M28.52,37.56s1.58.68,4.65,1.15c1.62.25,3.67.42,6.11.36,2.51-.07,5.43-.39,8.6-1.1,3.22-.73,6.67-1.85,10.11-3.45,3.39-1.58,6.7-3.58,9.62-6.03,1.4-1.17,2.7-2.44,3.84-3.78,1.1-1.3,2.05-2.66,2.81-4.07.72-1.35,1.26-2.74,1.56-4.13.29-1.34.36-2.68.19-3.96-.33-2.5-1.67-4.84-3.62-6.55-1.02-.9-2.22-1.66-3.51-2.28-1.35-.64-2.81-1.14-4.32-1.5-1.57-.37-3.2-.61-4.84-.72-1.69-.12-3.39-.11-5.07,0-3.44.23-6.75.87-9.76,1.73-6.06,1.74-10.68,4.28-13.61,6.24-2.84,1.9-4.21,3.24-4.21,3.24"/>
      <path class="cls-1" d="M29.35,34.72s1.39.65,4.13,1.13c1.44.26,3.28.45,5.47.44,2.26-.01,4.89-.25,7.77-.85,2.93-.6,6.07-1.57,9.23-2.96,3.12-1.38,6.18-3.15,8.91-5.33,1.32-1.05,2.54-2.18,3.63-3.39,1.05-1.17,1.97-2.4,2.71-3.68.71-1.23,1.26-2.49,1.6-3.76.32-1.22.45-2.45.36-3.64-.18-2.29-1.27-4.48-2.94-6.1-.88-.85-1.92-1.57-3.05-2.16-1.18-.62-2.47-1.1-3.82-1.46-1.4-.38-2.85-.62-4.33-.76-1.52-.14-3.05-.16-4.57-.09-3.12.14-6.12.67-8.88,1.41-5.55,1.49-9.81,3.74-12.54,5.49-2.64,1.7-3.93,2.9-3.93,2.9"/>
      <path class="cls-1" d="M31.74,9.15s-.84-.02-2.08.46c-.6.23-1.29.6-1.94,1.19-.66.6-1.3,1.45-1.78,2.54-.51,1.17-.87,2.64-1.01,4.34-.08.91-.09,1.88-.06,2.92.04,1.08.14,2.22.31,3.42.17,1.25.41,2.55.71,3.9.31,1.4.68,2.84,1.11,4.33.45,1.53.95,3.1,1.52,4.7.58,1.64,1.22,3.3,1.91,4.98,1.42,3.46,3.04,6.97,4.82,10.45,1.82,3.57,3.77,7.08,5.79,10.46,4.1,6.86,8.38,13.05,12.25,18.15,3.82,5.04,7.19,8.96,9.56,11.58,2.32,2.57,3.69,3.95,3.69,3.95"/>
      <path class="cls-1" d="M33.6,7.78s-.66-.07-1.6.33c-.45.19-.97.52-1.42,1.06-.48.56-.9,1.37-1.18,2.4-.15.56-.26,1.18-.33,1.86-.07.72-.1,1.51-.08,2.36.02.89.09,1.86.21,2.88.13,1.07.31,2.21.54,3.4.24,1.24.54,2.54.89,3.9.36,1.4.78,2.85,1.25,4.35.48,1.54,1.02,3.12,1.6,4.73.6,1.65,1.24,3.34,1.93,5.04,1.42,3.51,3,7.07,4.7,10.64,1.74,3.64,3.58,7.23,5.47,10.71,3.82,7.04,7.74,13.44,11.25,18.76,3.45,5.23,6.46,9.34,8.56,12.11,2.05,2.7,3.26,4.16,3.26,4.16"/>
      <path class="cls-1" d="M35.79,6.43s-.48-.1-1.09.24c-.3.17-.63.48-.88.97-.28.54-.48,1.32-.56,2.31-.04.55-.05,1.16-.02,1.83.03.71.1,1.49.21,2.34.12.89.28,1.85.48,2.87.21,1.07.47,2.21.77,3.4.31,1.25.67,2.55,1.08,3.92.42,1.41.88,2.87,1.38,4.38.52,1.55,1.08,3.15,1.67,4.79.61,1.67,1.26,3.38,1.94,5.12,1.4,3.56,2.93,7.2,4.54,10.84,1.64,3.71,3.36,7.4,5.09,10.97,3.5,7.21,7.01,13.82,10.12,19.34,3.04,5.4,5.65,9.69,7.47,12.59,1.77,2.81,2.8,4.35,2.8,4.35"/>
      <path class="cls-1" d="M38.38,5.09s-.31-.1-.56.18c-.15.16-.27.47-.33.92-.07.55-.04,1.31.08,2.28.07.54.16,1.15.29,1.82.14.71.3,1.5.5,2.34.21.89.46,1.86.74,2.89.29,1.08.63,2.22.99,3.43.38,1.26.8,2.58,1.25,3.96.46,1.43.96,2.91,1.49,4.45.54,1.58,1.12,3.2,1.72,4.87.62,1.7,1.26,3.44,1.93,5.21,1.37,3.62,2.82,7.34,4.32,11.06,1.53,3.79,3.09,7.56,4.65,11.23,3.14,7.38,6.19,14.18,8.84,19.89,1.3,2.8,2.5,5.32,3.56,7.52,1.04,2.16,1.95,4,2.69,5.49,1.45,2.91,2.28,4.51,2.28,4.51"/>
      <path class="cls-1" d="M41.42,3.81s-.01-.02-.03-.01c-.02,0-.02.06,0,.18.03.18.11.47.23.92.16.56.39,1.32.71,2.3.18.55.38,1.17.6,1.84.24.72.5,1.52.79,2.38.3.91.63,1.89.99,2.93.37,1.09.77,2.26,1.2,3.49.44,1.28.91,2.62,1.39,4.03.5,1.45,1.03,2.96,1.58,4.53,1.14,3.25,2.35,6.7,3.62,10.28,1.31,3.7,2.66,7.49,4.02,11.3,1.39,3.88,2.77,7.73,4.13,11.49,2.72,7.55,5.26,14.53,7.4,20.4,1.05,2.88,2,5.47,2.83,7.73.82,2.22,1.52,4.12,2.08,5.65,1.11,2.99,1.72,4.65,1.72,4.65"/>
      <path class="cls-1" d="M44.99,2.63s.21-.06.52.19c.21.17.48.49.8.96.38.57.82,1.35,1.33,2.37.28.56.58,1.2.9,1.89.34.74.69,1.55,1.06,2.44.39.93.8,1.93,1.22,3,.44,1.12.9,2.31,1.38,3.57.49,1.31,1,2.68,1.52,4.12.53,1.48,1.08,3.03,1.63,4.63,1.15,3.32,2.33,6.84,3.51,10.51,1.22,3.77,2.44,7.65,3.64,11.55,1.21,3.96,2.39,7.9,3.5,11.75,2.24,7.7,4.2,14.84,5.78,20.85.77,2.94,1.45,5.59,2.03,7.9.57,2.27,1.04,4.2,1.42,5.77.73,3.05,1.12,4.75,1.12,4.75"/>
      <path class="cls-1" d="M49.11,1.59s.41-.07,1.06.26c.37.19.84.52,1.36,1.04.58.59,1.24,1.41,1.94,2.49.38.59.78,1.24,1.19,1.97.43.76.87,1.61,1.32,2.52.47.96.95,1.99,1.43,3.1.5,1.15,1.02,2.38,1.53,3.68.53,1.34,1.07,2.76,1.6,4.24.55,1.52,1.1,3.11,1.65,4.75,1.13,3.39,2.24,7,3.32,10.75,1.1,3.85,2.16,7.81,3.15,11.8,1,4.04,1.93,8.06,2.78,11.98.85,3.92,1.6,7.72,2.26,11.31.66,3.55,1.22,6.88,1.69,9.91.47,2.98.84,5.68,1.15,8.02.3,2.3.52,4.27.69,5.86.33,3.09.46,4.81.46,4.81"/>
      <path class="cls-1" d="M53.81.77s.61-.05,1.6.36c.53.22,1.19.59,1.9,1.16.77.63,1.63,1.51,2.53,2.66.97,1.25,1.98,2.83,3,4.7.54.99,1.08,2.06,1.62,3.21.55,1.19,1.11,2.46,1.65,3.8.56,1.38,1.11,2.84,1.65,4.36.55,1.56,1.1,3.19,1.62,4.88,1.09,3.47,2.1,7.17,3.03,11,.95,3.93,1.81,7.97,2.55,12.03.76,4.11,1.4,8.2,1.94,12.18.53,3.98.95,7.83,1.27,11.46.31,3.59.52,6.96.66,10.02.13,3.01.18,5.72.18,8.08,0,2.31-.04,4.29-.1,5.89-.11,3.11-.25,4.82-.25,4.82"/>
      <path class="cls-1" d="M59.05.27s.81,0,2.14.49c.69.26,1.52.68,2.43,1.32.96.68,2.01,1.63,3.08,2.87,1.14,1.32,2.31,2.97,3.45,4.94,1.21,2.09,2.39,4.54,3.5,7.28,1.16,2.88,2.24,6.07,3.21,9.5,1.01,3.55,1.89,7.33,2.63,11.24.76,4,1.38,8.11,1.85,12.23.47,4.16.8,8.3.98,12.32.19,4.02.23,7.9.17,11.55-.06,3.61-.23,6.99-.47,10.05-.23,3.02-.53,5.73-.85,8.08-.31,2.31-.64,4.27-.93,5.86-.57,3.09-1,4.78-1,4.78"/>
      <path class="cls-1" d="M64.74.19s1.01.05,2.65.66c.84.31,1.85.79,2.94,1.51,1.13.75,2.36,1.78,3.59,3.11,1.29,1.4,2.6,3.14,3.85,5.21,1.31,2.18,2.55,4.71,3.66,7.55,1.17,2.96,2.2,6.24,3.06,9.75.9,3.63,1.61,7.47,2.14,11.45.54,4.06.88,8.22,1.04,12.37.16,4.2.13,8.36-.07,12.39-.39,8.05-1.42,15.43-2.69,21.53-.62,2.99-1.29,5.67-1.94,7.98-.64,2.28-1.27,4.21-1.81,5.76-1.06,3.03-1.78,4.68-1.78,4.68"/>
      <path class="cls-1" d="M70.7.63s1.2.12,3.14.86c1.97.75,4.76,2.28,7.49,5.1,1.43,1.48,2.86,3.32,4.19,5.49,1.38,2.26,2.66,4.89,3.77,7.82,1.15,3.04,2.11,6.4,2.85,9.97.76,3.69,1.29,7.59,1.58,11.6.29,4.09.34,8.27.16,12.43-.18,4.2-.59,8.35-1.19,12.35-1.19,8-3.11,15.27-5.18,21.23-2.02,5.82-4.17,10.34-5.76,13.35-1.55,2.93-2.57,4.5-2.57,4.5"/>
      <path class="cls-1" d="M76.65,1.69s1.38.2,3.61,1.08c2.23.88,5.37,2.57,8.39,5.61,1.56,1.57,3.1,3.5,4.5,5.77,1.45,2.34,2.75,5.05,3.83,8.06,1.11,3.1,1.99,6.52,2.59,10.14.62,3.72.94,7.65.98,11.67.04,4.09-.22,8.26-.75,12.38-.53,4.17-1.33,8.26-2.32,12.19-2,7.88-4.79,14.94-7.65,20.67-2.81,5.62-5.66,9.92-7.74,12.76-2.04,2.79-3.34,4.24-3.34,4.24"/>
      <path class="cls-1" d="M82.2,3.41s1.55.29,4.05,1.31c2.48,1.02,5.93,2.88,9.23,6.13,1.68,1.65,3.32,3.67,4.8,6.04,1.5,2.41,2.83,5.2,3.89,8.27,1.08,3.15,1.88,6.6,2.35,10.25.48,3.73.61,7.65.41,11.64-.21,4.06-.76,8.17-1.61,12.21-.86,4.09-2.02,8.08-3.4,11.89-2.77,7.66-6.39,14.42-9.98,19.82-3.55,5.35-7.04,9.34-9.57,11.96-2.49,2.59-4.04,3.9-4.04,3.9"/>
      <path class="cls-1" d="M86.88,5.75s1.71.38,4.46,1.55c2.72,1.16,6.46,3.19,10.04,6.65,1.79,1.73,3.55,3.83,5.1,6.27,1.57,2.47,2.94,5.31,3.99,8.42,1.07,3.17,1.81,6.64,2.17,10.27.37,3.71.34,7.59-.06,11.51-.41,3.99-1.22,8-2.35,11.92-1.15,3.97-2.62,7.82-4.33,11.45-3.44,7.35-7.78,13.71-12,18.72-4.2,4.99-8.24,8.62-11.14,10.99-2.88,2.35-4.65,3.51-4.65,3.51"/>
      <path class="cls-1" d="M90.24,8.54s1.85.47,4.83,1.78c2.94,1.29,6.97,3.49,10.83,7.13,3.82,3.6,7.46,8.75,9.61,15,1.09,3.17,1.82,6.63,2.13,10.23.31,3.66.19,7.47-.35,11.29-.55,3.88-1.53,7.77-2.86,11.53-1.35,3.81-3.06,7.48-5.01,10.92-3.95,6.97-8.84,12.87-13.53,17.44-4.71,4.58-9.16,7.81-12.36,9.9-3.19,2.08-5.12,3.07-5.12,3.07"/>
      <path class="cls-1" d="M91.9,11.49s1.97.55,5.17,2c3.14,1.42,7.44,3.77,11.62,7.56,4.08,3.71,7.99,8.93,10.33,15.23,1.17,3.15,1.96,6.59,2.29,10.14.33,3.59.2,7.32-.38,11.03-.59,3.76-1.65,7.5-3.08,11.09-1.45,3.64-3.29,7.12-5.37,10.34-4.24,6.56-9.47,11.99-14.46,16.11-5.03,4.16-9.76,6.99-13.14,8.8-3.39,1.81-5.42,2.64-5.42,2.64"/>
      <path class="cls-1" d="M91.74,14.19s2.08.63,5.47,2.18c3.33,1.53,7.89,4,12.38,7.92,4.36,3.8,8.61,9.05,11.25,15.39,2.59,6.24,3.58,13.63,2.53,20.81-1.07,7.31-4.18,14.48-8.35,20.49-4.3,6.18-9.64,11.18-14.73,14.91-5.17,3.78-10,6.26-13.47,7.82-3.48,1.57-5.57,2.25-5.57,2.25"/>
      <path class="cls-1" d="M89.91,16.2s2.17.67,5.72,2.3c3.5,1.6,8.29,4.15,13.12,8.13,2.35,1.95,4.7,4.23,6.84,6.84,2.1,2.57,4,5.47,5.51,8.62,2.96,6.16,4.36,13.46,3.63,20.52-.74,7.1-3.61,14.05-7.61,19.79-4.13,5.9-9.38,10.59-14.4,14.02-5.12,3.5-9.94,5.72-13.4,7.1-3.49,1.39-5.57,1.97-5.57,1.97"/>
      <path class="cls-1" d="M86.89,17.24s2.23.69,5.92,2.31c3.64,1.61,8.66,4.17,13.81,8.15,2.51,1.95,5.04,4.22,7.38,6.83,2.3,2.56,4.41,5.44,6.16,8.58,1.71,3.08,3.08,6.42,3.95,9.87.86,3.41,1.24,6.96,1.1,10.45-.28,6.96-2.72,13.83-6.4,19.43-3.78,5.75-8.8,10.29-13.62,13.58-4.95,3.37-9.65,5.45-13.03,6.75-3.42,1.31-5.47,1.84-5.47,1.84"/>
      <path class="cls-1" d="M83.33,17.23s2.28.65,6.09,2.21c3.76,1.54,8.97,4.02,14.43,7.9,2.67,1.9,5.37,4.13,7.91,6.7,2.5,2.52,4.84,5.35,6.83,8.47,1.95,3.04,3.57,6.34,4.71,9.79,1.12,3.38,1.77,6.91,1.9,10.41.25,6.9-1.67,13.8-4.95,19.43-3.35,5.76-8.04,10.34-12.62,13.65-4.7,3.4-9.24,5.51-12.51,6.82-3.32,1.33-5.32,1.87-5.32,1.87"/>
      <path class="cls-1" d="M79.88,16.39s2.32.56,6.22,1.98c3.86,1.4,9.24,3.68,14.96,7.37,2.8,1.81,5.66,3.94,8.39,6.42,2.68,2.43,5.22,5.19,7.45,8.24,2.17,2.98,4.04,6.23,5.43,9.65,1.36,3.35,2.28,6.86,2.67,10.38.75,6.89-.65,13.9-3.51,19.69-2.92,5.89-7.27,10.66-11.6,14.14-4.44,3.57-8.81,5.85-11.98,7.28-3.22,1.45-5.17,2.06-5.17,2.06"/>
      <path class="cls-1" d="M77.14,15.09s2.35.44,6.32,1.65c3.94,1.2,9.44,3.21,15.35,6.61,2.9,1.67,5.88,3.66,8.75,6.01,2.82,2.31,5.52,4.95,7.92,7.9,2.35,2.88,4.4,6.06,5.99,9.44,1.56,3.3,2.68,6.8,3.28,10.32,1.16,6.91.18,14.05-2.34,20.06-2.56,6.1-6.63,11.16-10.75,14.9-4.23,3.85-8.46,6.38-11.54,7.99-3.13,1.64-5.04,2.36-5.04,2.36"/>
      <path class="cls-1" d="M75.56,13.68s2.36.31,6.37,1.32c3.97.99,9.52,2.71,15.54,5.82,2.95,1.52,5.98,3.37,8.92,5.58,2.88,2.17,5.67,4.69,8.16,7.53,2.44,2.78,4.59,5.88,6.29,9.19,1.67,3.25,2.9,6.72,3.61,10.25,1.39,6.94.65,14.21-1.65,20.42-2.35,6.32-6.23,11.67-10.21,15.71-4.08,4.14-8.22,6.96-11.25,8.78-3.06,1.84-4.95,2.69-4.95,2.69"/>
      <path class="cls-1" d="M75.25,12.28s2.35.2,6.34,1.03c3.94.82,9.47,2.29,15.46,5.14,2.93,1.4,5.95,3.12,8.88,5.21,2.87,2.06,5.64,4.47,8.12,7.22,2.43,2.7,4.58,5.73,6.28,8.99,1.67,3.21,2.91,6.67,3.64,10.19,1.43,6.99.73,14.37-1.51,20.77-2.29,6.54-6.09,12.16-10.02,16.48-4.02,4.42-8.11,7.5-11.11,9.52-3.03,2.03-4.9,3-4.9,3"/>
      <path class="cls-1" d="M74.56,10.55s2.31.06,6.24.66c3.88.59,9.32,1.75,15.23,4.29,2.89,1.24,5.87,2.81,8.76,4.75,2.84,1.91,5.58,4.19,8.03,6.83,2.41,2.59,4.55,5.54,6.24,8.73,1.68,3.16,2.93,6.59,3.67,10.11,1.49,7.04.88,14.55-1.23,21.18-2.17,6.8-5.82,12.75-9.62,17.41-3.88,4.76-7.87,8.18-10.79,10.44-2.95,2.28-4.79,3.39-4.79,3.39"/>
      <path class="cls-1" d="M71.92,9.02s2.26-.12,6.15.18c3.82.29,9.2,1.03,15.1,3.12,2.88,1.02,5.87,2.37,8.78,4.1,2.86,1.7,5.65,3.79,8.16,6.25,4.92,4.82,8.78,11.25,10.56,18.19,1.79,7,1.54,14.6-.2,21.45-1.79,7.04-5.07,13.34-8.57,18.37-3.57,5.12-7.3,8.92-10.05,11.45-2.78,2.55-4.52,3.83-4.52,3.83"/>
      <path class="cls-1" d="M67.96,8.4s2.23-.31,6.09-.34c3.8-.03,9.17.26,15.16,1.85,2.92.78,5.97,1.87,8.97,3.35,2.95,1.46,5.85,3.3,8.51,5.54,5.21,4.39,9.48,10.48,11.74,17.24,1.13,3.4,1.8,7,2.01,10.59.21,3.64-.04,7.29-.66,10.8-1.26,7.17-4.05,13.72-7.14,19.02-3.15,5.4-6.57,9.51-9.11,12.26-2.56,2.77-4.2,4.2-4.2,4.2"/>
      <path class="cls-1" d="M63.55,8.81s2.22-.47,6.12-.79c3.84-.32,9.28-.44,15.46.68,3.01.55,6.18,1.39,9.34,2.63,3.1,1.22,6.18,2.82,9.05,4.83,5.62,3.93,10.43,9.61,13.26,16.13,1.42,3.27,2.38,6.77,2.89,10.29.51,3.57.55,7.19.21,10.7-.7,7.16-2.98,13.82-5.67,19.27-2.75,5.56-5.87,9.84-8.21,12.74-2.36,2.92-3.89,4.44-3.89,4.44"/>
      <path class="cls-1" d="M59.21,9.98s2.25-.58,6.23-1.11c3.92-.52,9.52-.94,15.97-.18,3.15.37,6.49,1.02,9.84,2.06,3.29,1.02,6.6,2.42,9.74,4.24,3.08,1.79,5.99,3.98,8.55,6.55,2.53,2.53,4.72,5.43,6.45,8.57,3.45,6.25,5.01,13.55,4.87,20.43-.15,7.05-1.99,13.7-4.34,19.16-2.4,5.58-5.28,9.93-7.46,12.87-2.2,2.97-3.66,4.53-3.66,4.53"/>
      <path class="cls-1" d="M55.17,11.47s2.29-.63,6.37-1.24c4.04-.61,9.83-1.16,16.58-.58,3.31.28,6.83.84,10.4,1.77,3.51.92,7.07,2.21,10.48,3.91,3.34,1.67,6.55,3.75,9.42,6.21,2.82,2.41,5.33,5.2,7.38,8.24,4.04,6,6.23,13.13,6.58,19.9.35,6.87-1.1,13.44-3.16,18.82-2.11,5.5-4.81,9.79-6.87,12.69-2.09,2.94-3.5,4.48-3.5,4.48"/>
      <path class="cls-1" d="M51.64,12.83s2.33-.59,6.49-1.15c4.14-.56,10.1-1.03,17.1-.41,3.46.31,7.14.89,10.91,1.83,3.71.93,7.49,2.23,11.15,3.93,3.59,1.67,7.06,3.74,10.22,6.18,3.09,2.39,5.89,5.15,8.24,8.16,2.3,2.97,4.17,6.2,5.53,9.53,1.35,3.3,2.2,6.71,2.6,10.05.78,6.69-.31,13.13-2.14,18.36-1.87,5.33-4.42,9.47-6.39,12.26-2,2.83-3.37,4.3-3.37,4.3"/>
      <path class="cls-1" d="M48.82,13.78s2.34-.47,6.5-.84c4.18-.36,10.22-.57,17.34.34,3.54.45,7.34,1.18,11.22,2.26,3.85,1.08,7.78,2.51,11.62,4.33,3.77,1.8,7.44,3.97,10.81,6.5,3.3,2.48,6.32,5.3,8.9,8.38,2.52,3,4.62,6.26,6.2,9.6,1.55,3.28,2.62,6.67,3.2,9.98,1.14,6.52.36,12.82-1.26,17.86-1.64,5.1-4.06,9.02-5.95,11.63-1.91,2.65-3.24,4.01-3.24,4.01"/>
      <path class="cls-1" d="M46.89,14.25s2.29-.29,6.37-.34c4.12-.05,10.1.19,17.16,1.58,7.08,1.39,15.17,3.96,23,8.1,3.85,2.04,7.6,4.43,11.09,7.16,3.41,2.67,6.56,5.66,9.27,8.86,2.65,3.13,4.89,6.46,6.62,9.87,1.69,3.32,2.9,6.71,3.63,10.01.71,3.23.95,6.39.82,9.33-.13,2.9-.64,5.61-1.35,8.02-1.43,4.81-3.71,8.46-5.49,10.86-1.81,2.42-3.08,3.63-3.08,3.63"/>
      <path class="cls-1" d="M45.9,14.37s2.19-.06,6.07.27c3.95.34,9.71,1.16,16.51,3.18,6.9,2.05,14.78,5.33,22.45,10.09,3.8,2.36,7.51,5.06,10.98,8.06,3.4,2.94,6.55,6.16,9.3,9.55,2.68,3.31,4.96,6.78,6.77,10.28,1.75,3.39,3.04,6.81,3.86,10.12.79,3.2,1.14,6.3,1.1,9.16-.04,2.79-.44,5.38-1.06,7.65-1.23,4.48-3.33,7.82-4.99,9.95-1.67,2.15-2.87,3.19-2.87,3.19"/>
      <path class="cls-1" d="M45.71,14.37s2.04.2,5.62.97c1.83.39,4.07.95,6.64,1.74,2.61.81,5.57,1.86,8.76,3.23,6.51,2.79,13.94,6.89,21.21,12.37,3.63,2.74,7.17,5.78,10.5,9.08,3.28,3.25,6.31,6.73,8.99,10.35,2.6,3.52,4.85,7.14,6.65,10.75,1.73,3.48,3.04,6.94,3.91,10.24.83,3.17,1.24,6.21,1.29,8.98.04,2.67-.26,5.12-.79,7.24-1.02,4.11-2.91,7.1-4.41,8.95-1.51,1.85-2.61,2.7-2.61,2.7"/>
      <path class="cls-1" d="M46.07,14.48s1.84.47,5.04,1.68c1.65.62,3.67,1.46,5.98,2.56,2.37,1.13,5.04,2.54,7.93,4.27,2.95,1.77,6.11,3.87,9.37,6.32,3.3,2.47,6.69,5.28,10.03,8.4,3.35,3.12,6.63,6.52,9.72,10.13,3.05,3.57,5.89,7.31,8.41,11.14,2.45,3.72,4.58,7.49,6.31,11.2.84,1.8,1.58,3.58,2.23,5.33.63,1.71,1.16,3.38,1.59,5,.42,1.58.75,3.12.98,4.6.23,1.44.37,2.82.43,4.14.11,2.53-.09,4.82-.51,6.78-.41,1.88-1.02,3.5-1.69,4.8-.66,1.28-1.39,2.29-2.05,3.06-1.3,1.53-2.28,2.18-2.28,2.18"/>
      <path class="cls-1" d="M46.69,14.85s1.6.74,4.37,2.38c1.44.85,3.2,1.96,5.21,3.36,2.07,1.44,4.42,3.19,6.95,5.28,2.6,2.14,5.39,4.62,8.27,7.44,2.93,2.86,5.94,6.05,8.93,9.51,3,3.48,5.94,7.21,8.73,11.1,2.76,3.85,5.33,7.83,7.64,11.85,2.24,3.9,4.21,7.79,5.83,11.56.79,1.83,1.49,3.62,2.11,5.37.6,1.7,1.12,3.36,1.55,4.96.42,1.55.75,3.05,1.01,4.48.25,1.38.41,2.7.51,3.95.09,1.21.11,2.34.07,3.41-.04,1.03-.14,1.98-.29,2.86-.28,1.68-.75,3.09-1.3,4.21-.52,1.08-1.12,1.91-1.66,2.52-1.06,1.2-1.89,1.66-1.89,1.66"/>
      <path class="cls-1" d="M47.29,15.57s1.34,1,3.65,3.03c1.2,1.06,2.68,2.42,4.38,4.1,1.75,1.73,3.74,3.8,5.89,6.21,2.21,2.48,4.6,5.31,7.07,8.46,2.52,3.21,5.12,6.74,7.71,10.51,2.61,3.79,5.18,7.8,7.63,11.94,2.43,4.09,4.72,8.26,6.79,12.41,1.01,2.03,1.97,4.05,2.87,6.04.88,1.95,1.69,3.88,2.44,5.76.73,1.83,1.39,3.62,1.98,5.36.57,1.68,1.07,3.31,1.5,4.87.42,1.51.76,2.95,1.04,4.32.27,1.32.47,2.56.61,3.73.13,1.12.21,2.17.23,3.14.02.93-.01,1.79-.09,2.57-.14,1.46-.45,2.67-.84,3.6-.37.87-.81,1.52-1.22,1.97-.79.88-1.45,1.14-1.45,1.14"/>
      <path class="cls-1" d="M47.66,16.64s1.06,1.24,2.9,3.62c.96,1.25,2.15,2.84,3.52,4.76,1.42,1.99,3.03,4.34,4.78,7.03,1.81,2.78,3.77,5.91,5.83,9.35,2.1,3.51,4.27,7.32,6.46,11.35,2.2,4.05,4.4,8.29,6.52,12.61,2.1,4.27,4.1,8.58,5.94,12.82.9,2.07,1.76,4.12,2.57,6.13.8,1.97,1.54,3.89,2.24,5.76.68,1.82,1.3,3.59,1.87,5.29.55,1.65,1.04,3.23,1.48,4.73.42,1.45.79,2.82,1.1,4.12.3,1.24.54,2.4.74,3.49.18,1.03.32,1.98.41,2.86.09.83.13,1.59.14,2.27,0,1.25-.11,2.25-.33,3-.19.66-.47,1.14-.74,1.45-.5.57-.97.65-.97.65"/>
      <path class="cls-1" d="M47.68,18.01s.77,1.44,2.15,4.14c.72,1.42,1.61,3.2,2.66,5.34,1.08,2.21,2.32,4.8,3.69,7.74,1.42,3.03,2.96,6.41,4.61,10.09,1.68,3.75,3.44,7.79,5.25,12.02,1.81,4.25,3.65,8.65,5.45,13.11,1.78,4.39,3.51,8.78,5.15,13.07.8,2.09,1.57,4.14,2.31,6.15.72,1.96,1.41,3.87,2.07,5.71.64,1.79,1.23,3.52,1.79,5.17.54,1.6,1.04,3.12,1.5,4.56.44,1.38.84,2.68,1.2,3.9.34,1.16.64,2.23.9,3.23.25.94.46,1.8.63,2.58.16.73.29,1.39.39,1.97.09.54.16,1.02.19,1.44.03.38.05.71.04.98-.02.47-.1.79-.21.96-.18.27-.46.2-.46.2"/>
      <path class="cls-1" d="M47.29,19.58s.49,1.61,1.41,4.58c.48,1.56,1.09,3.51,1.82,5.82.76,2.39,1.64,5.18,2.64,8.31,1.03,3.22,2.19,6.81,3.45,10.67,1.28,3.94,2.66,8.14,4.11,12.52,1.45,4.39,2.95,8.9,4.48,13.44,1.5,4.46,3,8.89,4.46,13.17.71,2.08,1.41,4.12,2.1,6.11.67,1.93,1.32,3.81,1.95,5.61.61,1.75,1.2,3.42,1.77,5.02.54,1.53,1.06,2.99,1.56,4.36.47,1.31.91,2.53,1.33,3.66.39,1.07.76,2.06,1.1,2.96.32.85.61,1.61.88,2.3.25.64.47,1.2.68,1.69.18.45.35.83.49,1.16.13.29.24.53.34.72.15.3.25.47.33.51.08.04.07-.21.07-.21"/>
      <path class="cls-1" d="M46.48,21.27s.22,1.75.71,4.94c.26,1.67.6,3.75,1.03,6.21.45,2.54,1,5.48,1.66,8.77.68,3.38,1.47,7.11,2.37,11.12.92,4.07,1.94,8.39,3.07,12.87,1.13,4.48,2.34,9.06,3.62,13.63,1.26,4.49,2.56,8.91,3.89,13.16.65,2.06,1.29,4.07,1.94,6.02.63,1.9,1.26,3.73,1.88,5.48.6,1.69,1.2,3.31,1.79,4.84.56,1.47,1.12,2.85,1.66,4.14.52,1.23,1.02,2.37,1.5,3.42.46.99.91,1.9,1.33,2.71.4.76.79,1.44,1.16,2.04.34.55.67,1.03.98,1.43.54.7,1.03,1.17,1.46,1.4.35.19.67.2.89.12.46-.17.6-.56.6-.56"/>
      <path class="cls-1" d="M45.29,22.98s-.04,1.85.05,5.24c.05,1.76.13,3.94.29,6.52.16,2.64.4,5.7.74,9.11.35,3.49.8,7.32,1.39,11.43.59,4.16,1.3,8.55,2.14,13.09.84,4.52,1.8,9.12,2.88,13.7.53,2.25,1.08,4.48,1.66,6.69.57,2.17,1.16,4.29,1.77,6.37.6,2.03,1.21,4,1.84,5.9.61,1.85,1.24,3.63,1.87,5.32.61,1.64,1.23,3.19,1.85,4.66.6,1.4,1.2,2.72,1.8,3.93.57,1.16,1.14,2.23,1.71,3.2.54.92,1.07,1.74,1.59,2.47.95,1.33,1.88,2.34,2.75,3,.76.58,1.49.89,2.1.97.57.08,1.08-.04,1.45-.21.8-.36,1.13-.85,1.13-.85"/>
      <path class="cls-1" d="M43.8,24.61s-.28,1.93-.57,5.46c-.15,1.82-.3,4.08-.4,6.74-.1,2.72-.15,5.86-.1,9.35.05,3.56.2,7.46.5,11.63.3,4.2.73,8.64,1.33,13.2.59,4.53,1.34,9.12,2.25,13.67.45,2.23.93,4.44,1.45,6.62.51,2.14,1.06,4.23,1.64,6.26.57,1.99,1.16,3.92,1.79,5.77.61,1.8,1.24,3.52,1.9,5.16.63,1.58,1.29,3.08,1.96,4.47.64,1.34,1.3,2.59,1.97,3.74.64,1.09,1.29,2.09,1.94,2.99.62.85,1.24,1.61,1.87,2.27,1.15,1.21,2.3,2.08,3.38,2.6.99.47,1.94.65,2.75.62.79-.03,1.48-.24,2.01-.49,1.12-.52,1.65-1.09,1.65-1.09"/>
      <path class="cls-1" d="M42.05,26.11s-.5,1.98-1.15,5.61c-.33,1.86-.7,4.18-1.04,6.89-.34,2.77-.66,5.96-.87,9.5-.44,7.22-.46,15.81.31,24.95.38,4.51.95,9.07,1.73,13.57.38,2.21.81,4.39,1.29,6.53.47,2.1.99,4.15,1.55,6.14.55,1.95,1.14,3.83,1.78,5.63.62,1.75,1.27,3.42,1.96,5,.67,1.53,1.36,2.97,2.09,4.3.7,1.29,1.42,2.48,2.16,3.56.71,1.04,1.44,1.98,2.18,2.81.71.8,1.43,1.5,2.15,2.09,1.36,1.12,2.74,1.87,4.01,2.27,2.4.75,4.58.25,5.94-.35,1.43-.63,2.16-1.26,2.16-1.26"/>
      <path class="cls-1" d="M40.14,27.4s-.71,2.01-1.69,5.7c-.5,1.89-1.07,4.23-1.63,6.98-.56,2.79-1.11,6-1.57,9.57-.92,7.23-1.43,15.81-1.02,24.9.2,4.46.63,8.98,1.3,13.42.33,2.17.72,4.32,1.17,6.42.44,2.06.94,4.07,1.5,6.02.54,1.9,1.14,3.74,1.8,5.49.63,1.71,1.32,3.33,2.05,4.86.71,1.48,1.45,2.87,2.24,4.15.76,1.24,1.55,2.38,2.37,3.41,1.55,1.95,3.21,3.51,4.88,4.61,1.57,1.04,3.17,1.7,4.65,2.02,2.88.62,5.43-.02,7.09-.7,1.73-.71,2.64-1.39,2.64-1.39"/>
      <path class="cls-1" d="M38.14,28.46s-.89,2.02-2.18,5.74c-1.32,3.81-3.02,9.47-4.36,16.56-1.35,7.18-2.29,15.71-2.18,24.71.05,4.4.36,8.86.95,13.23.29,2.14.65,4.24,1.08,6.3.42,2.02.92,3.99,1.48,5.9.55,1.86,1.16,3.65,1.84,5.36.66,1.66,1.38,3.24,2.15,4.73.75,1.44,1.56,2.79,2.4,4.02.82,1.2,1.69,2.3,2.58,3.29,1.72,1.89,3.57,3.37,5.42,4.4,1.78.99,3.59,1.58,5.26,1.85,3.33.53,6.25-.18,8.2-.91,2.02-.75,3.11-1.45,3.11-1.45"/>
      <path class="cls-1" d="M36.1,29.26s-1.07,2.01-2.64,5.73c-1.6,3.78-3.69,9.4-5.42,16.45-1.73,7.09-3.05,15.52-3.21,24.41-.07,4.33.13,8.72.66,13.01.26,2.1.6,4.17,1.02,6.19.41,1.98.9,3.91,1.48,5.78.56,1.82,1.19,3.58,1.9,5.25.69,1.63,1.45,3.17,2.27,4.62,1.58,2.78,3.4,5.19,5.37,7.12,1.88,1.85,3.91,3.27,5.94,4.26,1.98.96,3.98,1.51,5.85,1.76,3.75.48,7.02-.25,9.25-.98,2.29-.76,3.54-1.46,3.54-1.46"/>
      <path class="cls-1" d="M34.1,29.78s-1.22,1.98-3.05,5.66c-1.85,3.73-4.29,9.26-6.36,16.24-1.04,3.49-1.98,7.32-2.7,11.39-.72,4.04-1.22,8.29-1.41,12.63-.18,4.26-.06,8.56.42,12.78.47,4.08,1.29,8.05,2.47,11.74,1.13,3.54,2.59,6.82,4.34,9.68,1.68,2.74,3.63,5.11,5.74,6.99,2.04,1.83,4.24,3.23,6.44,4.19,2.17.95,4.36,1.5,6.41,1.74,4.14.49,7.75-.22,10.23-.94,2.55-.73,3.95-1.42,3.95-1.42"/>
      <path class="cls-1" d="M32.2,30.02s-1.36,1.94-3.42,5.56c-2.07,3.66-4.83,9.07-7.21,15.93-1.19,3.42-2.28,7.17-3.14,11.17-.85,3.95-1.47,8.12-1.75,12.38-.28,4.17-.23,8.4.22,12.54.44,4.01,1.25,7.91,2.45,11.53,1.16,3.49,2.69,6.72,4.53,9.54,1.77,2.72,3.85,5.06,6.08,6.93,4.33,3.62,9.41,5.46,13.82,5.99,4.5.54,8.42-.1,11.13-.77,2.78-.68,4.33-1.34,4.33-1.34"/>
    </g>
  </g>
</svg>